<svg width="2048" height="363" viewBox="0 0 2048 363" fill="none" xmlns="http://www.w3.org/2000/svg">
<mask id="path-1-outside-1_417_940" maskUnits="userSpaceOnUse" x="14" y="66" width="2027" height="233" fill="black">
<rect fill="white" x="14" y="66" width="2027" height="233"/>
<path d="M19.5156 290V74H165.063V111.652H65.1836V163.121H157.574V200.773H65.1836V252.348H165.484V290H19.5156ZM244.19 74L287.749 147.617H289.437L333.206 74H384.78L318.862 182L386.257 290H333.733L289.437 216.277H287.749L243.452 290H191.14L258.745 182L192.405 74H244.19ZM413.679 290V74H498.897C515.28 74 529.237 77.1289 540.769 83.3867C552.3 89.5742 561.089 98.1875 567.136 109.227C573.253 120.195 576.312 132.852 576.312 147.195C576.312 161.539 573.218 174.195 567.03 185.164C560.843 196.133 551.878 204.676 540.136 210.793C528.464 216.91 514.331 219.969 497.737 219.969H443.421V183.371H490.354C499.144 183.371 506.386 181.859 512.081 178.836C517.847 175.742 522.136 171.488 524.948 166.074C527.831 160.59 529.272 154.297 529.272 147.195C529.272 140.023 527.831 133.766 524.948 128.422C522.136 123.008 517.847 118.824 512.081 115.871C506.315 112.848 499.003 111.336 490.144 111.336H459.347V290H413.679ZM605.975 290V74H751.521V111.652H651.643V163.121H744.033V200.773H651.643V252.348H751.943V290H605.975ZM787.829 290V74H873.048C889.36 74 903.282 76.918 914.813 82.7539C926.415 88.5195 935.239 96.7109 941.286 107.328C947.403 117.875 950.462 130.285 950.462 144.559C950.462 158.902 947.368 171.242 941.181 181.578C934.993 191.844 926.028 199.719 914.286 205.203C902.614 210.687 888.481 213.43 871.888 213.43H814.829V176.727H864.505C873.224 176.727 880.466 175.531 886.231 173.141C891.997 170.75 896.286 167.164 899.099 162.383C901.981 157.602 903.423 151.66 903.423 144.559C903.423 137.387 901.981 131.34 899.099 126.418C896.286 121.496 891.962 117.77 886.126 115.238C880.36 112.637 873.083 111.336 864.294 111.336H833.497V290H787.829ZM904.478 191.703L958.161 290H907.747L855.224 191.703H904.478ZM1028.4 74V290H982.735V74H1028.4ZM1065.98 290V74H1211.52V111.652H1111.64V163.121H1204.04V200.773H1111.64V252.348H1211.95V290H1065.98ZM1428.5 74V290H1389.05L1295.08 154.051H1293.5V290H1247.83V74H1287.91L1381.14 209.844H1383.04V74H1428.5ZM1656.81 149.621H1610.62C1609.77 143.645 1608.05 138.336 1605.45 133.695C1602.85 128.984 1599.51 124.977 1595.43 121.672C1591.35 118.367 1586.64 115.836 1581.3 114.078C1576.02 112.32 1570.29 111.441 1564.11 111.441C1552.93 111.441 1543.19 114.219 1534.89 119.773C1526.59 125.258 1520.16 133.273 1515.59 143.82C1511.02 154.297 1508.73 167.023 1508.73 182C1508.73 197.398 1511.02 210.336 1515.59 220.812C1520.23 231.289 1526.7 239.199 1535 244.543C1543.29 249.887 1552.89 252.559 1563.79 252.559C1569.91 252.559 1575.57 251.75 1580.77 250.133C1586.04 248.516 1590.72 246.16 1594.8 243.066C1598.88 239.902 1602.25 236.07 1604.92 231.57C1607.66 227.07 1609.56 221.937 1610.62 216.172L1656.81 216.383C1655.62 226.297 1652.63 235.859 1647.85 245.07C1643.14 254.211 1636.77 262.402 1628.76 269.645C1620.81 276.816 1611.32 282.512 1600.28 286.73C1589.31 290.879 1576.9 292.953 1563.05 292.953C1543.79 292.953 1526.56 288.594 1511.37 279.875C1496.25 271.156 1484.3 258.535 1475.51 242.012C1466.79 225.488 1462.43 205.484 1462.43 182C1462.43 158.445 1466.86 138.406 1475.72 121.883C1484.58 105.359 1496.61 92.7734 1511.79 84.125C1526.98 75.4062 1544.07 71.0469 1563.05 71.0469C1575.57 71.0469 1587.17 72.8047 1597.86 76.3203C1608.61 79.8359 1618.14 84.9687 1626.44 91.7187C1634.73 98.3984 1641.48 106.59 1646.69 116.293C1651.96 125.996 1655.34 137.105 1656.81 149.621ZM1689.56 290V74H1835.11V111.652H1735.23V163.121H1827.62V200.773H1735.23V252.348H1835.53V290H1689.56ZM1988.59 136.121C1987.75 127.613 1984.13 121.004 1977.73 116.293C1971.33 111.582 1962.65 109.227 1951.68 109.227C1944.22 109.227 1937.93 110.281 1932.8 112.391C1927.67 114.43 1923.73 117.277 1920.99 120.934C1918.31 124.59 1916.98 128.738 1916.98 133.379C1916.84 137.246 1917.65 140.621 1919.4 143.504C1921.23 146.387 1923.73 148.883 1926.89 150.992C1930.06 153.031 1933.71 154.824 1937.86 156.371C1942.01 157.848 1946.44 159.113 1951.15 160.168L1970.56 164.809C1979.98 166.918 1988.63 169.73 1996.5 173.246C2004.38 176.762 2011.2 181.086 2016.96 186.219C2022.73 191.352 2027.19 197.398 2030.36 204.359C2033.59 211.32 2035.24 219.301 2035.31 228.301C2035.24 241.52 2031.87 252.98 2025.19 262.684C2018.58 272.316 2009.02 279.805 1996.5 285.148C1984.06 290.422 1969.04 293.059 1951.47 293.059C1934.03 293.059 1918.84 290.387 1905.9 285.043C1893.04 279.699 1882.98 271.789 1875.74 261.312C1868.57 250.766 1864.81 237.723 1864.45 222.184H1908.65C1909.14 229.426 1911.21 235.473 1914.87 240.324C1918.59 245.105 1923.55 248.727 1929.74 251.187C1936 253.578 1943.06 254.773 1950.94 254.773C1958.67 254.773 1965.39 253.648 1971.08 251.398C1976.85 249.148 1981.31 246.02 1984.48 242.012C1987.64 238.004 1989.22 233.398 1989.22 228.195C1989.22 223.344 1987.78 219.266 1984.9 215.961C1982.09 212.656 1977.94 209.844 1972.45 207.523C1967.04 205.203 1960.4 203.094 1952.52 201.195L1929 195.289C1910.79 190.859 1896.41 183.934 1885.86 174.512C1875.32 165.09 1870.08 152.398 1870.15 136.437C1870.08 123.359 1873.56 111.934 1880.59 102.16C1887.69 92.3867 1897.43 84.7578 1909.81 79.2734C1922.18 73.7891 1936.24 71.0469 1951.99 71.0469C1968.02 71.0469 1982.02 73.7891 1993.97 79.2734C2005.99 84.7578 2015.34 92.3867 2022.02 102.16C2028.7 111.934 2032.15 123.254 2032.36 136.121H1988.59Z"/>
</mask>
<path d="M19.5156 290H14.5156V295H19.5156V290ZM19.5156 74V69H14.5156V74H19.5156ZM165.063 74H170.063V69H165.063V74ZM165.063 111.652V116.652H170.063V111.652H165.063ZM65.1836 111.652V106.652H60.1836V111.652H65.1836ZM65.1836 163.121H60.1836V168.121H65.1836V163.121ZM157.574 163.121H162.574V158.121H157.574V163.121ZM157.574 200.773V205.773H162.574V200.773H157.574ZM65.1836 200.773V195.773H60.1836V200.773H65.1836ZM65.1836 252.348H60.1836V257.348H65.1836V252.348ZM165.484 252.348H170.484V247.348H165.484V252.348ZM165.484 290V295H170.484V290H165.484ZM24.5156 290V74H14.5156V290H24.5156ZM19.5156 79H165.063V69H19.5156V79ZM160.063 74V111.652H170.063V74H160.063ZM165.063 106.652H65.1836V116.652H165.063V106.652ZM60.1836 111.652V163.121H70.1836V111.652H60.1836ZM65.1836 168.121H157.574V158.121H65.1836V168.121ZM152.574 163.121V200.773H162.574V163.121H152.574ZM157.574 195.773H65.1836V205.773H157.574V195.773ZM60.1836 200.773V252.348H70.1836V200.773H60.1836ZM65.1836 257.348H165.484V247.348H65.1836V257.348ZM160.484 252.348V290H170.484V252.348H160.484ZM165.484 285H19.5156V295H165.484V285ZM244.19 74L248.494 71.4539L247.042 69H244.19V74ZM287.749 147.617L283.446 150.163L284.898 152.617H287.749V147.617ZM289.437 147.617V152.617H292.281L293.734 150.172L289.437 147.617ZM333.206 74V69H330.362L328.908 71.4447L333.206 74ZM384.78 74L389.048 76.6049L393.69 69H384.78V74ZM318.862 182L314.594 179.395L312.987 182.029L314.62 184.647L318.862 182ZM386.257 290V295H395.271L390.499 287.353L386.257 290ZM333.733 290L329.448 292.575L330.905 295H333.733V290ZM289.437 216.277L293.722 213.702L292.265 211.277H289.437V216.277ZM287.749 216.277V211.277H284.92L283.463 213.702L287.749 216.277ZM243.452 290V295H246.281L247.738 292.575L243.452 290ZM191.14 290L186.902 287.347L182.111 295H191.14V290ZM258.745 182L262.983 184.653L264.628 182.025L263.006 179.383L258.745 182ZM192.405 74V69H183.466L188.145 76.617L192.405 74ZM239.887 76.5461L283.446 150.163L292.052 145.071L248.494 71.4539L239.887 76.5461ZM287.749 152.617H289.437V142.617H287.749V152.617ZM293.734 150.172L337.504 76.5552L328.908 71.4447L285.139 145.062L293.734 150.172ZM333.206 79H384.78V69H333.206V79ZM380.512 71.3951L314.594 179.395L323.13 184.605L389.048 76.6049L380.512 71.3951ZM314.62 184.647L382.015 292.647L390.499 287.353L323.104 179.353L314.62 184.647ZM386.257 285H333.733V295H386.257V285ZM338.019 287.425L293.722 213.702L285.151 218.853L329.448 292.575L338.019 287.425ZM289.437 211.277H287.749V221.277H289.437V211.277ZM283.463 213.702L239.166 287.425L247.738 292.575L292.035 218.853L283.463 213.702ZM243.452 285H191.14V295H243.452V285ZM195.378 292.653L262.983 184.653L254.507 179.347L186.902 287.347L195.378 292.653ZM263.006 179.383L196.666 71.383L188.145 76.617L254.485 184.617L263.006 179.383ZM192.405 79H244.19V69H192.405V79ZM413.679 290H408.679V295H413.679V290ZM413.679 74V69H408.679V74H413.679ZM540.769 83.3867L538.384 87.7813L538.394 87.7869L538.404 87.7925L540.769 83.3867ZM567.136 109.227L562.751 111.629L562.76 111.645L562.769 111.662L567.136 109.227ZM540.136 210.793L537.826 206.359L537.815 206.364L540.136 210.793ZM443.421 219.969H438.421V224.969H443.421V219.969ZM443.421 183.371V178.371H438.421V183.371H443.421ZM512.081 178.836L514.426 183.252L514.435 183.247L514.445 183.242L512.081 178.836ZM524.948 166.074L520.522 163.748L520.517 163.759L520.511 163.769L524.948 166.074ZM524.948 128.422L520.511 130.727L520.529 130.761L520.548 130.796L524.948 128.422ZM512.081 115.871L509.759 120.299L509.78 120.31L509.802 120.321L512.081 115.871ZM459.347 111.336V106.336H454.347V111.336H459.347ZM459.347 290V295H464.347V290H459.347ZM418.679 290V74H408.679V290H418.679ZM413.679 79H498.897V69H413.679V79ZM498.897 79C514.651 79 527.745 82.0078 538.384 87.7813L543.153 78.9921C530.73 72.25 515.91 69 498.897 69V79ZM538.404 87.7925C549.118 93.5412 557.188 101.474 562.751 111.629L571.521 106.824C564.99 94.9009 555.482 85.6072 543.133 78.9809L538.404 87.7925ZM562.769 111.662C568.415 121.786 571.312 133.581 571.312 147.195H581.312C581.312 132.122 578.091 118.605 571.503 106.791L562.769 111.662ZM571.312 147.195C571.312 160.8 568.384 172.587 562.675 182.707L571.385 187.621C578.051 175.803 581.312 162.278 581.312 147.195H571.312ZM562.675 182.707C556.989 192.788 548.755 200.665 537.826 206.359L542.446 215.227C555 208.687 564.697 199.477 571.385 187.621L562.675 182.707ZM537.815 206.364C527.021 212.021 513.728 214.969 497.737 214.969V224.969C514.935 224.969 529.907 221.799 542.457 215.222L537.815 206.364ZM497.737 214.969H443.421V224.969H497.737V214.969ZM448.421 219.969V183.371H438.421V219.969H448.421ZM443.421 188.371H490.354V178.371H443.421V188.371ZM490.354 188.371C499.678 188.371 507.794 186.773 514.426 183.252L509.737 174.42C504.977 176.946 498.609 178.371 490.354 178.371V188.371ZM514.445 183.242C521.03 179.708 526.075 174.752 529.385 168.379L520.511 163.769C518.197 168.225 514.664 171.776 509.717 174.43L514.445 183.242ZM529.374 168.401C532.686 162.1 534.272 154.988 534.272 147.195H524.272C524.272 153.606 522.976 159.08 520.522 163.748L529.374 168.401ZM534.272 147.195C534.272 139.345 532.691 132.243 529.349 126.048L520.548 130.796C522.971 135.289 524.272 140.702 524.272 147.195H534.272ZM529.385 126.117C526.063 119.722 520.99 114.817 514.36 111.421L509.802 120.321C514.703 122.832 518.208 126.293 520.511 130.727L529.385 126.117ZM514.403 111.443C507.71 107.933 499.534 106.336 490.144 106.336V116.336C498.472 116.336 504.921 117.762 509.759 120.299L514.403 111.443ZM490.144 106.336H459.347V116.336H490.144V106.336ZM454.347 111.336V290H464.347V111.336H454.347ZM459.347 285H413.679V295H459.347V285ZM605.975 290H600.975V295H605.975V290ZM605.975 74V69H600.975V74H605.975ZM751.521 74H756.521V69H751.521V74ZM751.521 111.652V116.652H756.521V111.652H751.521ZM651.643 111.652V106.652H646.643V111.652H651.643ZM651.643 163.121H646.643V168.121H651.643V163.121ZM744.033 163.121H749.033V158.121H744.033V163.121ZM744.033 200.773V205.773H749.033V200.773H744.033ZM651.643 200.773V195.773H646.643V200.773H651.643ZM651.643 252.348H646.643V257.348H651.643V252.348ZM751.943 252.348H756.943V247.348H751.943V252.348ZM751.943 290V295H756.943V290H751.943ZM610.975 290V74H600.975V290H610.975ZM605.975 79H751.521V69H605.975V79ZM746.521 74V111.652H756.521V74H746.521ZM751.521 106.652H651.643V116.652H751.521V106.652ZM646.643 111.652V163.121H656.643V111.652H646.643ZM651.643 168.121H744.033V158.121H651.643V168.121ZM739.033 163.121V200.773H749.033V163.121H739.033ZM744.033 195.773H651.643V205.773H744.033V195.773ZM646.643 200.773V252.348H656.643V200.773H646.643ZM651.643 257.348H751.943V247.348H651.643V257.348ZM746.943 252.348V290H756.943V252.348H746.943ZM751.943 285H605.975V295H751.943V285ZM787.829 290H782.829V295H787.829V290ZM787.829 74V69H782.829V74H787.829ZM914.813 82.7539L912.556 87.2151L912.572 87.2233L912.588 87.2315L914.813 82.7539ZM941.286 107.328L936.941 109.803L936.951 109.82L936.961 109.837L941.286 107.328ZM941.181 181.578L945.463 184.159L945.467 184.153L945.471 184.146L941.181 181.578ZM914.286 205.203L912.17 200.673L912.16 200.678L914.286 205.203ZM814.829 213.43H809.829V218.43H814.829V213.43ZM814.829 176.727V171.727H809.829V176.727H814.829ZM886.231 173.141L888.147 177.759L888.147 177.759L886.231 173.141ZM899.099 162.383L894.817 159.801L894.803 159.824L894.789 159.848L899.099 162.383ZM899.099 126.418L894.757 128.899L894.771 128.922L894.784 128.945L899.099 126.418ZM886.126 115.238L884.07 119.796L884.103 119.811L884.136 119.825L886.126 115.238ZM833.497 111.336V106.336H828.497V111.336H833.497ZM833.497 290V295H838.497V290H833.497ZM904.478 191.703L908.866 189.307L907.444 186.703H904.478V191.703ZM958.161 290V295H966.589L962.549 287.603L958.161 290ZM907.747 290L903.337 292.356L904.75 295H907.747V290ZM855.224 191.703V186.703H846.883L850.814 194.06L855.224 191.703ZM792.829 290V74H782.829V290H792.829ZM787.829 79H873.048V69H787.829V79ZM873.048 79C888.776 79 901.884 81.814 912.556 87.2151L917.071 78.2927C904.681 72.0219 889.944 69 873.048 69V79ZM912.588 87.2315C923.356 92.5829 931.417 100.102 936.941 109.803L945.631 104.854C939.062 93.3197 929.474 84.4561 917.039 78.2764L912.588 87.2315ZM936.961 109.837C942.566 119.5 945.462 131.014 945.462 144.559H955.462C955.462 129.556 952.241 116.25 945.611 104.82L936.961 109.837ZM945.462 144.559C945.462 158.171 942.532 169.587 936.891 179.01L945.471 184.146C952.205 172.898 955.462 159.633 955.462 144.559H945.462ZM936.898 178.997C931.265 188.343 923.089 195.573 912.17 200.673L916.402 209.733C928.967 203.865 938.721 195.345 945.463 184.159L936.898 178.997ZM912.16 200.678C901.315 205.773 887.949 208.43 871.888 208.43V218.43C889.013 218.43 903.913 215.602 916.412 209.728L912.16 200.678ZM871.888 208.43H814.829V218.43H871.888V208.43ZM819.829 213.43V176.727H809.829V213.43H819.829ZM814.829 181.727H864.505V171.727H814.829V181.727ZM864.505 181.727C873.638 181.727 881.584 180.48 888.147 177.759L884.316 168.522C879.348 170.582 872.809 171.727 864.505 171.727V181.727ZM888.147 177.759C894.784 175.007 899.977 170.751 903.408 164.918L894.789 159.848C892.595 163.577 889.21 166.493 884.316 168.522L888.147 177.759ZM903.381 164.965C906.845 159.219 908.423 152.326 908.423 144.559H898.423C898.423 150.994 897.118 155.984 894.817 159.801L903.381 164.965ZM908.423 144.559C908.423 136.724 906.847 129.753 903.413 123.891L894.784 128.945C897.116 132.927 898.423 138.049 898.423 144.559H908.423ZM903.44 123.937C900.027 117.964 894.815 113.557 888.116 110.651L884.136 119.825C889.109 121.982 892.546 125.028 894.757 128.899L903.44 123.937ZM888.182 110.681C881.57 107.697 873.534 106.336 864.294 106.336V116.336C872.632 116.336 879.15 117.576 884.07 119.796L888.182 110.681ZM864.294 106.336H833.497V116.336H864.294V106.336ZM828.497 111.336V290H838.497V111.336H828.497ZM833.497 285H787.829V295H833.497V285ZM900.089 194.1L953.773 292.397L962.549 287.603L908.866 189.307L900.089 194.1ZM958.161 285H907.747V295H958.161V285ZM912.157 287.644L859.634 189.347L850.814 194.06L903.337 292.356L912.157 287.644ZM855.224 196.703H904.478V186.703H855.224V196.703ZM1028.4 74H1033.4V69H1028.4V74ZM1028.4 290V295H1033.4V290H1028.4ZM982.735 290H977.735V295H982.735V290ZM982.735 74V69H977.735V74H982.735ZM1023.4 74V290H1033.4V74H1023.4ZM1028.4 285H982.735V295H1028.4V285ZM987.735 290V74H977.735V290H987.735ZM982.735 79H1028.4V69H982.735V79ZM1065.98 290H1060.98V295H1065.98V290ZM1065.98 74V69H1060.98V74H1065.98ZM1211.52 74H1216.52V69H1211.52V74ZM1211.52 111.652V116.652H1216.52V111.652H1211.52ZM1111.64 111.652V106.652H1106.64V111.652H1111.64ZM1111.64 163.121H1106.64V168.121H1111.64V163.121ZM1204.04 163.121H1209.04V158.121H1204.04V163.121ZM1204.04 200.773V205.773H1209.04V200.773H1204.04ZM1111.64 200.773V195.773H1106.64V200.773H1111.64ZM1111.64 252.348H1106.64V257.348H1111.64V252.348ZM1211.95 252.348H1216.95V247.348H1211.95V252.348ZM1211.95 290V295H1216.95V290H1211.95ZM1070.98 290V74H1060.98V290H1070.98ZM1065.98 79H1211.52V69H1065.98V79ZM1206.52 74V111.652H1216.52V74H1206.52ZM1211.52 106.652H1111.64V116.652H1211.52V106.652ZM1106.64 111.652V163.121H1116.64V111.652H1106.64ZM1111.64 168.121H1204.04V158.121H1111.64V168.121ZM1199.04 163.121V200.773H1209.04V163.121H1199.04ZM1204.04 195.773H1111.64V205.773H1204.04V195.773ZM1106.64 200.773V252.348H1116.64V200.773H1106.64ZM1111.64 257.348H1211.95V247.348H1111.64V257.348ZM1206.95 252.348V290H1216.95V252.348H1206.95ZM1211.95 285H1065.98V295H1211.95V285ZM1428.5 74H1433.5V69H1428.5V74ZM1428.5 290V295H1433.5V290H1428.5ZM1389.05 290L1384.94 292.843L1386.43 295H1389.05V290ZM1295.08 154.051L1299.19 151.208L1297.7 149.051H1295.08V154.051ZM1293.5 154.051V149.051H1288.5V154.051H1293.5ZM1293.5 290V295H1298.5V290H1293.5ZM1247.83 290H1242.83V295H1247.83V290ZM1247.83 74V69H1242.83V74H1247.83ZM1287.91 74L1292.03 71.1706L1290.54 69H1287.91V74ZM1381.14 209.844L1377.02 212.673L1378.51 214.844H1381.14V209.844ZM1383.04 209.844V214.844H1388.04V209.844H1383.04ZM1383.04 74V69H1378.04V74H1383.04ZM1423.5 74V290H1433.5V74H1423.5ZM1428.5 285H1389.05V295H1428.5V285ZM1393.17 287.157L1299.19 151.208L1290.97 156.894L1384.94 292.843L1393.17 287.157ZM1295.08 149.051H1293.5V159.051H1295.08V149.051ZM1288.5 154.051V290H1298.5V154.051H1288.5ZM1293.5 285H1247.83V295H1293.5V285ZM1252.83 290V74H1242.83V290H1252.83ZM1247.83 79H1287.91V69H1247.83V79ZM1283.79 76.8294L1377.02 212.673L1385.27 207.014L1292.03 71.1706L1283.79 76.8294ZM1381.14 214.844H1383.04V204.844H1381.14V214.844ZM1388.04 209.844V74H1378.04V209.844H1388.04ZM1383.04 79H1428.5V69H1383.04V79ZM1656.81 149.621V154.621H1662.44L1661.78 149.035L1656.81 149.621ZM1610.62 149.621L1605.67 150.32L1606.27 154.621H1610.62V149.621ZM1605.45 133.695L1601.07 136.112L1601.08 136.126L1601.09 136.14L1605.45 133.695ZM1595.43 121.672L1592.28 125.557L1592.28 125.557L1595.43 121.672ZM1581.3 114.078L1579.72 118.822L1579.73 118.825L1579.73 118.828L1581.3 114.078ZM1534.89 119.773L1537.65 123.945L1537.66 123.936L1537.67 123.928L1534.89 119.773ZM1515.59 143.82L1520.17 145.82L1520.18 145.808L1515.59 143.82ZM1515.59 220.812L1511.01 222.812L1511.01 222.825L1511.02 222.837L1515.59 220.812ZM1535 244.543L1532.29 248.747L1532.29 248.747L1535 244.543ZM1580.77 250.133L1579.3 245.353L1579.29 245.355L1579.29 245.358L1580.77 250.133ZM1594.8 243.066L1597.82 247.05L1597.84 247.033L1597.86 247.017L1594.8 243.066ZM1604.92 231.57L1600.65 228.968L1600.64 228.993L1600.62 229.018L1604.92 231.57ZM1610.62 216.172L1610.64 211.172L1606.45 211.153L1605.7 215.272L1610.62 216.172ZM1656.81 216.383L1661.78 216.981L1662.45 211.408L1656.84 211.383L1656.81 216.383ZM1647.85 245.07L1643.41 242.767L1643.41 242.773L1643.4 242.78L1647.85 245.07ZM1628.76 269.645L1632.11 273.356L1632.11 273.355L1628.76 269.645ZM1600.28 286.73L1602.05 291.407L1602.06 291.404L1602.07 291.401L1600.28 286.73ZM1511.37 279.875L1508.87 284.206L1508.88 284.211L1511.37 279.875ZM1475.51 242.012L1471.09 244.345L1471.09 244.352L1471.1 244.36L1475.51 242.012ZM1475.72 121.883L1480.13 124.245L1480.13 124.245L1475.72 121.883ZM1511.79 84.125L1514.27 88.4699L1514.27 88.4656L1514.28 88.4613L1511.79 84.125ZM1597.86 76.3203L1596.29 81.0699L1596.3 81.073L1597.86 76.3203ZM1626.44 91.7187L1623.28 95.5973L1623.29 95.6054L1623.3 95.6134L1626.44 91.7187ZM1646.69 116.293L1642.28 118.656L1642.29 118.668L1642.29 118.681L1646.69 116.293ZM1656.81 144.621H1610.62V154.621H1656.81V144.621ZM1615.57 148.922C1614.65 142.414 1612.75 136.499 1609.81 131.25L1601.09 136.14C1603.35 140.173 1604.9 144.875 1605.67 150.32L1615.57 148.922ZM1609.83 131.278C1606.92 126.018 1603.17 121.508 1598.58 117.787L1592.28 125.557C1595.85 128.445 1598.77 131.951 1601.07 136.112L1609.83 131.278ZM1598.58 117.787C1593.99 114.074 1588.74 111.262 1582.86 109.328L1579.73 118.828C1584.54 120.41 1588.71 122.661 1592.28 125.557L1598.58 117.787ZM1582.88 109.335C1577.04 107.389 1570.77 106.441 1564.11 106.441V116.441C1569.82 116.441 1575.01 117.252 1579.72 118.822L1582.88 109.335ZM1564.11 106.441C1552.06 106.441 1541.33 109.448 1532.11 115.619L1537.67 123.928C1545.05 118.989 1553.79 116.441 1564.11 116.441V106.441ZM1532.13 115.602C1522.91 121.701 1515.9 130.538 1511 141.832L1520.18 145.808C1524.42 136.009 1530.28 128.815 1537.65 123.945L1532.13 115.602ZM1511.01 141.821C1506.09 153.091 1503.73 166.539 1503.73 182H1513.73C1513.73 167.508 1515.95 155.502 1520.17 145.82L1511.01 141.821ZM1503.73 182C1503.73 197.861 1506.08 211.526 1511.01 222.812L1520.17 218.813C1515.96 209.146 1513.73 196.936 1513.73 182H1503.73ZM1511.02 222.837C1515.99 234.059 1523.05 242.793 1532.29 248.747L1537.7 240.339C1530.35 235.605 1524.47 228.519 1520.16 218.788L1511.02 222.837ZM1532.29 248.747C1541.48 254.664 1552.03 257.559 1563.79 257.559V247.559C1553.75 247.559 1545.11 245.11 1537.7 240.339L1532.29 248.747ZM1563.79 257.559C1570.35 257.559 1576.52 256.691 1582.25 254.908L1579.29 245.358C1574.62 246.809 1569.46 247.559 1563.79 247.559V257.559ZM1582.24 254.913C1588.03 253.137 1593.24 250.525 1597.82 247.05L1591.77 239.083C1588.2 241.795 1584.06 243.894 1579.3 245.353L1582.24 254.913ZM1597.86 247.017C1602.44 243.463 1606.23 239.155 1609.22 234.123L1600.62 229.018C1598.27 232.986 1595.31 236.342 1591.73 239.116L1597.86 247.017ZM1609.19 234.172C1612.29 229.094 1614.38 223.372 1615.54 217.072L1605.7 215.272C1604.74 220.503 1603.04 225.047 1600.65 228.968L1609.19 234.172ZM1610.59 221.172L1656.79 221.383L1656.84 211.383L1610.64 211.172L1610.59 221.172ZM1651.85 215.784C1650.73 225.08 1647.93 234.067 1643.41 242.767L1652.29 247.374C1657.33 237.652 1660.51 227.514 1661.78 216.981L1651.85 215.784ZM1643.4 242.78C1638.98 251.359 1633 259.075 1625.41 265.935L1632.11 273.355C1640.55 265.729 1647.29 257.063 1652.29 247.361L1643.4 242.78ZM1625.41 265.933C1617.97 272.65 1609.02 278.039 1598.5 282.06L1602.07 291.401C1613.62 286.985 1623.66 280.982 1632.11 273.356L1625.41 265.933ZM1598.51 282.054C1588.2 285.954 1576.41 287.953 1563.05 287.953V297.953C1577.4 297.953 1590.42 295.804 1602.05 291.407L1598.51 282.054ZM1563.05 287.953C1544.57 287.953 1528.22 283.78 1513.86 275.539L1508.88 284.211C1524.9 293.408 1543 297.953 1563.05 297.953V287.953ZM1513.87 275.544C1499.62 267.327 1488.31 255.422 1479.93 239.664L1471.1 244.36C1480.29 261.648 1492.88 274.985 1508.87 284.206L1513.87 275.544ZM1479.93 239.678C1471.68 224.036 1467.43 204.876 1467.43 182H1457.43C1457.43 206.093 1461.91 226.941 1471.09 244.345L1479.93 239.678ZM1467.43 182C1467.43 159.063 1471.75 139.879 1480.13 124.245L1471.32 119.52C1461.98 136.933 1457.43 157.828 1457.43 182H1467.43ZM1480.13 124.245C1488.58 108.489 1499.96 96.6185 1514.27 88.4699L1509.32 79.7801C1493.25 88.9283 1480.59 102.23 1471.32 119.52L1480.13 124.245ZM1514.28 88.4613C1528.65 80.2136 1544.86 76.0469 1563.05 76.0469V66.0469C1543.27 66.0469 1525.31 70.5989 1509.3 79.7887L1514.28 88.4613ZM1563.05 76.0469C1575.09 76.0469 1586.16 77.7377 1596.29 81.0699L1599.42 71.5707C1588.17 67.8717 1576.04 66.0469 1563.05 66.0469V76.0469ZM1596.3 81.073C1606.51 84.4092 1615.49 89.2566 1623.28 95.5973L1629.59 87.8402C1620.79 80.6809 1610.72 75.2627 1599.41 71.5677L1596.3 81.073ZM1623.3 95.6134C1631.06 101.859 1637.38 109.523 1642.28 118.656L1651.09 113.93C1645.59 103.657 1638.41 94.9382 1629.57 87.8241L1623.3 95.6134ZM1642.29 118.681C1647.22 127.752 1650.43 138.234 1651.85 150.207L1661.78 149.035C1660.24 135.977 1656.7 124.24 1651.08 113.905L1642.29 118.681ZM1689.56 290H1684.56V295H1689.56V290ZM1689.56 74V69H1684.56V74H1689.56ZM1835.11 74H1840.11V69H1835.11V74ZM1835.11 111.652V116.652H1840.11V111.652H1835.11ZM1735.23 111.652V106.652H1730.23V111.652H1735.23ZM1735.23 163.121H1730.23V168.121H1735.23V163.121ZM1827.62 163.121H1832.62V158.121H1827.62V163.121ZM1827.62 200.773V205.773H1832.62V200.773H1827.62ZM1735.23 200.773V195.773H1730.23V200.773H1735.23ZM1735.23 252.348H1730.23V257.348H1735.23V252.348ZM1835.53 252.348H1840.53V247.348H1835.53V252.348ZM1835.53 290V295H1840.53V290H1835.53ZM1694.56 290V74H1684.56V290H1694.56ZM1689.56 79H1835.11V69H1689.56V79ZM1830.11 74V111.652H1840.11V74H1830.11ZM1835.11 106.652H1735.23V116.652H1835.11V106.652ZM1730.23 111.652V163.121H1740.23V111.652H1730.23ZM1735.23 168.121H1827.62V158.121H1735.23V168.121ZM1822.62 163.121V200.773H1832.62V163.121H1822.62ZM1827.62 195.773H1735.23V205.773H1827.62V195.773ZM1730.23 200.773V252.348H1740.23V200.773H1730.23ZM1735.23 257.348H1835.53V247.348H1735.23V257.348ZM1830.53 252.348V290H1840.53V252.348H1830.53ZM1835.53 285H1689.56V295H1835.53V285ZM1988.59 136.121L1983.62 136.615L1984.06 141.121H1988.59V136.121ZM1932.8 112.391L1934.64 117.037L1934.67 117.027L1934.7 117.015L1932.8 112.391ZM1920.99 120.934L1916.99 117.934L1916.97 117.958L1916.95 117.984L1920.99 120.934ZM1916.98 133.379L1921.97 133.561L1921.98 133.47V133.379H1916.98ZM1919.4 143.504L1915.13 146.107L1915.16 146.144L1915.18 146.182L1919.4 143.504ZM1926.89 150.992L1924.12 155.152L1924.15 155.174L1924.18 155.195L1926.89 150.992ZM1937.86 156.371L1936.11 161.056L1936.15 161.069L1936.18 161.082L1937.86 156.371ZM1951.15 160.168L1952.31 155.305L1952.28 155.297L1952.24 155.289L1951.15 160.168ZM1970.56 164.809L1969.39 169.671L1969.43 169.68L1969.46 169.688L1970.56 164.809ZM1996.5 173.246L1994.46 177.812L1994.46 177.812L1996.5 173.246ZM2016.96 186.219L2020.29 182.484L2020.29 182.484L2016.96 186.219ZM2030.36 204.359L2025.8 206.428L2025.81 206.447L2025.82 206.466L2030.36 204.359ZM2035.31 228.301L2040.31 228.327L2040.31 228.295L2040.31 228.262L2035.31 228.301ZM2025.19 262.684L2021.07 259.848L2021.07 259.855L2025.19 262.684ZM1996.5 285.148L1998.45 289.752L1998.46 289.747L1996.5 285.148ZM1905.9 285.043L1903.99 289.661L1903.99 289.664L1905.9 285.043ZM1875.74 261.312L1871.6 264.124L1871.62 264.14L1871.63 264.156L1875.74 261.312ZM1864.45 222.184V217.184H1859.34L1859.46 222.297L1864.45 222.184ZM1908.65 222.184L1913.63 221.845L1913.32 217.184H1908.65V222.184ZM1914.87 240.324L1910.88 243.333L1910.9 243.366L1910.92 243.398L1914.87 240.324ZM1929.74 251.187L1927.89 255.834L1927.92 255.846L1927.95 255.858L1929.74 251.187ZM1971.08 251.398L1969.27 246.741L1969.26 246.744L1969.25 246.748L1971.08 251.398ZM1984.48 242.012L1988.4 245.11L1988.4 245.11L1984.48 242.012ZM1984.9 215.961L1981.09 219.202L1981.11 219.225L1981.13 219.248L1984.9 215.961ZM1972.45 207.523L1970.48 212.119L1970.5 212.124L1970.51 212.128L1972.45 207.523ZM1952.52 201.195L1951.3 206.045L1951.33 206.051L1951.35 206.056L1952.52 201.195ZM1929 195.289L1930.22 190.44L1930.2 190.435L1930.18 190.431L1929 195.289ZM1885.86 174.512L1882.53 178.241L1882.53 178.241L1885.86 174.512ZM1870.15 136.437L1875.15 136.46L1875.15 136.435L1875.15 136.411L1870.15 136.437ZM1880.59 102.16L1876.55 99.221L1876.54 99.2306L1876.53 99.2402L1880.59 102.16ZM1993.97 79.2734L1991.88 83.8179L1991.89 83.8225L1993.97 79.2734ZM2022.02 102.16L2017.9 104.981L2017.9 104.981L2022.02 102.16ZM2032.36 136.121V141.121H2037.44L2037.36 136.039L2032.36 136.121ZM1993.57 135.628C1992.59 125.831 1988.32 117.886 1980.69 112.267L1974.76 120.319C1979.93 124.121 1982.9 129.396 1983.62 136.615L1993.57 135.628ZM1980.69 112.267C1973.16 106.723 1963.32 104.227 1951.68 104.227V114.227C1961.98 114.227 1969.5 116.442 1974.76 120.319L1980.69 112.267ZM1951.68 104.227C1943.78 104.227 1936.8 105.34 1930.9 107.766L1934.7 117.015C1939.06 115.223 1944.66 114.227 1951.68 114.227V104.227ZM1930.95 107.744C1925.14 110.052 1920.39 113.4 1916.99 117.934L1924.99 123.934C1927.07 121.155 1930.19 118.808 1934.64 117.037L1930.95 107.744ZM1916.95 117.984C1913.63 122.519 1911.98 127.706 1911.98 133.379H1921.98C1921.98 129.771 1922.99 126.661 1925.02 123.884L1916.95 117.984ZM1911.98 133.197C1911.81 137.897 1912.79 142.27 1915.13 146.107L1923.67 140.901C1922.5 138.972 1921.86 136.595 1921.97 133.561L1911.98 133.197ZM1915.18 146.182C1917.42 149.718 1920.44 152.7 1924.12 155.152L1929.67 146.832C1927.02 145.066 1925.04 143.055 1923.63 140.826L1915.18 146.182ZM1924.18 155.195C1927.7 157.459 1931.69 159.405 1936.11 161.056L1939.61 151.686C1935.74 150.244 1932.41 148.603 1929.6 146.789L1924.18 155.195ZM1936.18 161.082C1940.54 162.632 1945.17 163.952 1950.06 165.047L1952.24 155.289C1947.71 154.274 1943.48 153.063 1939.54 151.661L1936.18 161.082ZM1949.99 165.031L1969.39 169.671L1971.72 159.946L1952.31 155.305L1949.99 165.031ZM1969.46 169.688C1978.6 171.733 1986.93 174.447 1994.46 177.812L1998.54 168.68C1990.33 165.014 1981.36 162.103 1971.65 159.929L1969.46 169.688ZM1994.46 177.812C2001.92 181.142 2008.3 185.199 2013.64 189.953L2020.29 182.484C2014.1 176.973 2006.83 172.381 1998.54 168.68L1994.46 177.812ZM2013.64 189.953C2018.89 194.627 2022.93 200.108 2025.8 206.428L2034.91 202.29C2031.45 194.689 2026.57 188.076 2020.29 182.484L2013.64 189.953ZM2025.82 206.466C2028.71 212.677 2030.25 219.932 2030.31 228.34L2040.31 228.262C2040.24 218.669 2038.47 209.964 2034.89 202.252L2025.82 206.466ZM2030.31 228.274C2030.25 240.617 2027.11 251.071 2021.07 259.848L2029.31 265.519C2036.62 254.89 2040.24 242.422 2040.31 228.327L2030.31 228.274ZM2021.07 259.855C2015.08 268.583 2006.33 275.516 1994.54 280.55L1998.46 289.747C2011.71 284.093 2022.08 276.05 2029.31 265.512L2021.07 259.855ZM1994.55 280.545C1982.88 285.491 1968.57 288.059 1951.47 288.059V298.059C1969.52 298.059 1985.23 295.353 1998.45 289.752L1994.55 280.545ZM1951.47 288.059C1934.53 288.059 1920.02 285.462 1907.81 280.422L1903.99 289.664C1917.67 295.311 1933.53 298.059 1951.47 298.059V288.059ZM1907.82 280.425C1895.75 275.414 1886.5 268.082 1879.85 258.469L1871.63 264.156C1879.47 275.496 1890.32 283.984 1903.99 289.661L1907.82 280.425ZM1879.87 258.501C1873.35 248.91 1869.79 236.858 1869.45 222.07L1859.46 222.297C1859.82 238.588 1863.78 252.621 1871.6 264.124L1879.87 258.501ZM1864.45 227.184H1908.65V217.184H1864.45V227.184ZM1903.66 222.523C1904.2 230.541 1906.53 237.567 1910.88 243.333L1918.86 237.315C1915.89 233.378 1914.07 228.31 1913.63 221.845L1903.66 222.523ZM1910.92 243.398C1915.25 248.948 1920.96 253.077 1927.89 255.834L1931.59 246.541C1926.14 244.376 1921.94 241.263 1918.81 237.25L1910.92 243.398ZM1927.95 255.858C1934.87 258.501 1942.56 259.773 1950.94 259.773V249.773C1943.57 249.773 1937.12 248.655 1931.52 246.517L1927.95 255.858ZM1950.94 259.773C1959.14 259.773 1966.51 258.582 1972.92 256.049L1969.25 246.748C1964.27 248.715 1958.2 249.773 1950.94 249.773V259.773ZM1972.9 256.056C1979.32 253.552 1984.58 249.95 1988.4 245.11L1980.55 238.913C1978.05 242.089 1974.38 244.745 1969.27 246.741L1972.9 256.056ZM1988.4 245.11C1992.28 240.202 1994.22 234.5 1994.22 228.195H1984.22C1984.22 232.297 1983.01 235.806 1980.55 238.913L1988.4 245.11ZM1994.22 228.195C1994.22 222.273 1992.43 216.988 1988.67 212.674L1981.13 219.248C1983.13 221.543 1984.22 224.414 1984.22 228.195H1994.22ZM1988.71 212.72C1985.24 208.643 1980.35 205.436 1974.4 202.919L1970.51 212.128C1975.53 214.252 1978.94 216.669 1981.09 219.202L1988.71 212.72ZM1974.42 202.928C1968.68 200.464 1961.75 198.276 1953.69 196.335L1951.35 206.056C1959.04 207.911 1965.4 209.942 1970.48 212.119L1974.42 202.928ZM1953.74 196.346L1930.22 190.44L1927.78 200.138L1951.3 206.045L1953.74 196.346ZM1930.18 190.431C1912.52 186.134 1898.96 179.508 1889.2 170.783L1882.53 178.241C1893.86 188.359 1909.06 195.584 1927.82 200.147L1930.18 190.431ZM1889.2 170.783C1879.86 162.443 1875.08 151.194 1875.15 136.46L1865.15 136.415C1865.07 153.603 1870.77 167.736 1882.53 178.241L1889.2 170.783ZM1875.15 136.411C1875.08 124.293 1878.29 113.921 1884.65 105.08L1876.53 99.2402C1868.83 109.947 1865.07 122.425 1865.15 136.464L1875.15 136.411ZM1884.64 105.099C1891.16 96.121 1900.16 89.0162 1911.83 83.8446L1907.78 74.7022C1894.7 80.4995 1884.23 88.6524 1876.55 99.221L1884.64 105.099ZM1911.83 83.8446C1923.47 78.6855 1936.83 76.0469 1951.99 76.0469V66.0469C1935.66 66.0469 1920.89 68.8926 1907.78 74.7022L1911.83 83.8446ZM1951.99 76.0469C1967.46 76.0469 1980.71 78.692 1991.88 83.8179L1996.05 74.729C1983.32 68.8861 1968.59 66.0469 1951.99 66.0469V76.0469ZM1991.89 83.8225C2003.19 88.974 2011.79 96.0453 2017.9 104.981L2026.15 99.3389C2018.9 88.7281 2008.8 80.5417 1996.04 74.7243L1991.89 83.8225ZM2017.9 104.981C2023.98 113.876 2027.16 124.226 2027.36 136.203L2037.36 136.039C2037.13 122.282 2033.43 109.991 2026.15 99.3389L2017.9 104.981ZM2032.36 131.121H1988.59V141.121H2032.36V131.121Z" fill="#444444" mask="url(#path-1-outside-1_417_940)"/>
</svg>
