<svg width="807" height="708" viewBox="0 0 807 708" fill="none" xmlns="http://www.w3.org/2000/svg">
<g clip-path="url(#clip0_248_1087)">
<path fill-rule="evenodd" clip-rule="evenodd" d="M458.578 447.602C452.169 437.247 444.265 427.951 435.698 419.438C427.058 410.975 417.668 403.357 407.942 396.341C388.509 382.226 367.838 370.291 348.511 356.653L341.257 351.537L334.147 346.22L330.593 343.559C329.417 342.663 328.268 341.728 327.105 340.814L320.14 335.299C311.007 327.764 301.978 320.081 293.366 311.935C288.984 307.944 284.794 303.751 280.557 299.606C278.413 297.558 276.406 295.373 274.323 293.263C272.274 291.12 270.165 289.037 268.166 286.848C264.157 282.478 260.073 278.175 256.207 273.677C254.258 271.442 252.27 269.239 250.352 266.977L244.639 260.156C242.713 257.9 240.862 255.582 239.018 253.259L233.469 246.3L228.075 239.221L225.377 235.682L222.758 232.084L217.522 224.885L212.437 217.579C209.003 212.74 205.802 207.739 202.502 202.808C189.563 182.906 177.712 162.301 166.831 141.216C156.045 120.08 146.172 98.4837 137.356 76.4805C135.191 70.9645 132.966 65.472 130.928 59.9102L127.825 51.5847L124.848 43.2161C123.844 40.431 122.877 37.633 121.946 34.8229L119.111 26.4109L116.409 17.9561C115.506 15.1403 114.607 12.3219 113.771 9.48546C109.88 -3.43068 108.199 -2.95103 111.976 10.0257C112.788 12.881 113.663 15.7178 114.545 18.5529L117.174 27.0659L119.938 35.5364C120.844 38.3663 121.786 41.1843 122.766 43.9895L125.67 52.4179L128.7 60.804C130.687 66.4081 132.864 71.9417 134.977 77.5008C143.596 99.6768 153.268 121.461 163.867 142.804C174.563 164.096 186.237 184.927 199.034 205.077C202.298 210.071 205.462 215.133 208.865 220.039L213.904 227.442L219.096 234.741L221.694 238.389L224.373 241.979L229.729 249.161L235.246 256.224C237.082 258.582 238.921 260.936 240.838 263.227L246.528 270.156C248.437 272.455 250.42 274.694 252.362 276.966C256.218 281.537 260.291 285.915 264.295 290.358C266.289 292.587 268.401 294.706 270.448 296.885C272.529 299.034 274.535 301.256 276.678 303.342C280.92 307.559 285.112 311.833 289.503 315.899C298.131 324.198 307.196 332.03 316.373 339.718L323.377 345.343L326.886 348.149L330.465 350.861L337.624 356.288L344.935 361.512C364.45 375.451 385.071 387.476 404.136 401.4C413.692 408.327 422.819 415.757 431.172 423.944C439.456 432.181 447.057 441.126 453.173 450.983C453.927 452.162 454.649 453.312 455.289 454.455C455.927 455.551 456.566 456.646 457.205 457.741C458.337 459.906 459.504 461.866 460.398 463.763C460.874 464.699 461.332 465.596 461.77 466.454C462.177 467.327 462.568 468.158 462.939 468.953L464.028 471.211L464.942 473.261C465.512 474.551 466.093 475.661 466.535 476.633C466.9 477.457 467.304 478.264 467.744 479.051C468.474 480.327 469.048 480.927 469.433 480.835C469.818 480.742 470.017 479.956 469.996 478.458C469.975 477.527 469.909 476.598 469.799 475.674C469.674 474.568 469.387 473.315 469.079 471.87C468.915 471.151 468.75 470.38 468.536 469.578C468.292 468.786 468.034 467.949 467.764 467.069C467.481 466.191 467.197 465.261 466.854 464.306C466.481 463.362 466.091 462.376 465.682 461.348C464.901 459.268 463.803 457.136 462.689 454.804C462.101 453.655 461.437 452.495 460.769 451.281C460.117 450.061 459.369 448.845 458.578 447.602Z" fill="url(#paint0_linear_248_1087)" fill-opacity="0.32"/>
<path fill-rule="evenodd" clip-rule="evenodd" d="M325.996 406.65C335.561 414.189 346.166 420.221 357.13 425.291C368.142 430.288 379.572 434.236 391.111 437.501C414.2 444.119 437.707 448.264 460.532 454.47L469.098 456.796L477.598 459.361L481.848 460.644C483.26 461.086 484.659 461.571 486.065 462.032L494.495 464.832C505.655 468.79 516.767 472.921 527.645 477.63C533.129 479.882 538.5 482.389 543.9 484.835C546.614 486.027 549.248 487.391 551.926 488.663C554.584 489.976 557.28 491.211 559.906 492.585C565.169 495.321 570.477 497.967 575.649 500.871C578.245 502.305 580.866 503.696 583.442 505.165L591.143 509.621C593.725 511.082 596.258 512.628 598.785 514.179L606.379 518.821L613.869 523.627L617.614 526.031L621.306 528.516L628.689 533.49L635.966 538.616C640.848 541.989 645.566 545.594 650.354 549.099C669.32 563.375 687.503 578.684 704.94 594.777C722.304 610.949 738.968 627.865 754.778 645.527C758.699 649.969 762.668 654.37 766.485 658.899L772.249 665.661L777.909 672.506C779.804 674.78 781.67 677.078 783.505 679.4L789.048 686.335L794.477 693.357C796.29 695.694 798.098 698.035 799.854 700.415C807.928 711.221 809.344 710.195 801.356 699.293C799.616 696.888 797.824 694.521 796.026 692.159L790.644 685.059L785.149 678.044C783.33 675.695 781.48 673.369 779.6 671.068L773.989 664.141L768.274 657.297C764.489 652.711 760.551 648.255 756.664 643.754C740.98 625.864 724.441 608.701 707.182 592.27C689.848 575.92 671.754 560.339 652.837 545.78C648.062 542.204 643.356 538.53 638.482 535.083L631.215 529.85L623.839 524.768L620.149 522.228L616.405 519.77L608.915 514.854L601.315 510.104C598.784 508.515 596.25 506.933 593.665 505.434L585.949 500.87C583.368 499.363 580.739 497.937 578.137 496.466C572.951 493.49 567.625 490.769 562.344 487.963C559.708 486.551 556.998 485.281 554.329 483.934C551.639 482.627 548.994 481.224 546.266 479.997C540.838 477.484 535.437 474.904 529.919 472.584C518.974 467.737 507.777 463.478 496.523 459.391L488.018 456.501L483.762 455.065L479.472 453.74L470.887 451.09L462.231 448.681C439.125 442.256 415.635 438.011 392.957 431.447C381.608 428.206 370.491 424.345 359.842 419.507C349.239 414.601 339.038 408.797 329.919 401.626C328.807 400.775 327.735 399.942 326.744 399.086C325.769 398.275 324.794 397.464 323.819 396.654C322.015 395.007 320.248 393.564 318.759 392.087C317.991 391.37 317.255 390.683 316.549 390.027C315.869 389.346 315.217 388.697 314.597 388.079L312.8 386.33L311.24 384.716C310.264 383.699 309.338 382.855 308.59 382.091C307.965 381.442 307.31 380.822 306.627 380.233C305.505 379.285 304.76 378.917 304.43 379.135C304.1 379.354 304.182 380.16 304.714 381.561C304.979 382.261 305.358 383.111 305.851 384.109C306.347 385.106 307.045 386.184 307.829 387.438C308.229 388.058 308.647 388.726 309.123 389.406L310.706 391.5C311.273 392.228 311.857 393.005 312.506 393.785L314.619 396.164C316.065 397.85 317.825 399.478 319.67 401.29C320.616 402.168 321.637 403.031 322.678 403.942C323.71 404.865 324.828 405.753 325.996 406.65Z" fill="#1D2026" fill-opacity="0.48"/>
<path fill-rule="evenodd" clip-rule="evenodd" d="M279.236 342.841C300.362 342.963 321.534 343.229 342.749 342.67C363.953 342.11 385.213 340.718 406.277 337.518C408.915 337.157 411.531 336.653 414.154 336.2C416.774 335.721 419.407 335.315 422.014 334.775C427.221 333.657 432.458 332.67 437.617 331.34C447.999 328.941 458.212 325.883 468.374 322.7L475.941 320.144L479.721 318.856L483.469 317.476L490.962 314.711L498.383 311.759L502.093 310.281L505.766 308.714L513.109 305.579L520.377 302.274L524.01 300.619L527.608 298.889L534.795 295.417L541.91 291.799C546.674 289.427 551.32 286.834 556.018 284.339C565.32 279.179 574.558 273.902 583.596 268.301C601.739 257.213 619.312 245.246 636.52 232.827C670.917 207.941 703.68 181.052 736.193 154.128C745.466 146.448 744.899 145.782 735.597 153.405C702.893 180.201 669.971 206.881 635.487 231.5C618.237 243.787 600.639 255.607 582.497 266.543C573.461 272.067 564.232 277.267 554.943 282.349C550.253 284.804 545.615 287.359 540.863 289.692L533.763 293.252L526.595 296.665L523.009 298.366L519.388 299.991L512.145 303.241L504.829 306.319L501.17 307.857L497.477 309.309L490.089 312.204L482.632 314.916L478.902 316.269C477.657 316.712 476.396 317.11 475.143 317.533L467.616 320.036C457.514 323.156 447.364 326.146 437.056 328.491C431.932 329.79 426.735 330.755 421.565 331.844C418.979 332.378 416.365 332.764 413.765 333.234C411.161 333.67 408.568 334.17 405.949 334.518C385.048 337.633 363.909 338.972 342.766 339.504C321.616 340.034 300.437 339.759 279.256 339.654C238.321 339.411 238.286 342.566 279.236 342.841Z" fill="white" fill-opacity="0.64"/>
<path fill-rule="evenodd" clip-rule="evenodd" d="M111.597 512.072C120.714 501.412 131.702 492.508 144.021 485.8C156.304 479.085 169.839 474.671 183.717 472.803C197.633 470.918 211.776 471.594 225.449 474.798C239.102 477.957 252.118 483.764 263.735 491.591C275.348 499.424 285.555 509.378 293.552 520.9C301.59 532.433 307.469 545.328 310.902 558.96C314.331 572.554 315.278 586.773 313.637 600.701C313.561 601.333 313.475 601.962 313.389 602.591C313.132 602.236 312.832 601.841 312.474 601.4C311.521 600.209 310.48 599.09 309.361 598.053C308.037 596.794 306.491 595.316 304.544 593.847C303.552 593.076 302.577 592.278 301.567 591.528L298.485 589.348L296.939 588.262L295.345 587.25L292.153 585.226C287.791 582.712 283.361 580.278 278.706 578.328C269.481 574.233 259.673 571.503 249.707 569.901C229.745 566.853 208.963 568.882 190.072 576.09C171.128 583.156 154.219 595.352 141.311 610.79C128.411 626.249 119.591 645.014 115.991 664.695C115.895 665.261 115.811 665.829 115.738 666.399C115.364 666.008 114.99 665.62 114.612 665.216C105.15 654.985 97.5861 643.003 92.3695 630.067C87.1315 617.091 84.2834 603.275 83.9626 589.285C83.2981 561.349 93.3536 533.298 111.598 512.072M80.7977 589.217C81.0948 603.61 84.0014 617.83 89.3762 631.186C94.7321 644.505 102.519 656.847 112.276 667.383C117.009 672.462 121.635 676.42 125.733 679.611C129.895 682.727 133.535 685.079 136.554 686.763C138.071 687.594 139.393 688.325 140.552 688.903C141.532 689.358 142.521 689.793 143.519 690.207C145.12 690.862 145.963 691.094 146.053 690.918C146.144 690.742 145.483 690.157 144.074 689.182C143.37 688.696 142.478 688.111 141.402 687.429C140.347 686.71 139.118 685.873 137.716 684.914C134.907 683.012 131.49 680.508 127.537 677.332C124.165 674.516 120.386 671.19 116.44 667.134C116.589 666.526 116.748 665.781 116.912 664.869C120.706 645.352 129.702 626.908 142.616 611.85C155.542 596.808 172.301 585.08 190.909 578.387C209.47 571.548 229.755 569.783 249.185 572.87C258.887 574.499 268.425 577.194 277.398 581.21C281.929 583.12 286.236 585.502 290.486 587.95L293.595 589.924L295.149 590.91L296.655 591.969L299.663 594.091C300.648 594.821 301.599 595.598 302.569 596.348C304.465 597.774 306.032 599.134 307.438 600.232L310.967 602.98C311.858 603.647 312.574 604.114 313.123 604.405C311.185 617.033 307.118 629.32 301.203 640.643C294.759 653.104 285.92 664.29 275.43 673.574C264.933 682.861 252.726 690.2 239.614 695.148C226.503 700.108 212.483 702.612 198.482 702.577C184.444 702.535 170.531 699.943 157.42 694.925L152.565 692.957C151.172 692.407 150.054 691.85 149.126 691.475C147.288 690.691 146.333 690.36 146.284 690.462C146.233 690.563 147.086 691.096 148.861 692.042C149.756 692.498 150.849 693.126 152.231 693.729C153.612 694.332 155.225 695.033 157.082 695.8C170.307 700.92 184.353 703.593 198.534 703.687C212.684 703.776 226.866 701.292 240.149 696.331C253.475 691.356 265.786 684.002 276.482 674.626C287.14 665.259 296.148 653.958 302.73 641.35C309.361 628.777 313.755 615.004 315.507 600.865C317.237 586.726 316.333 572.27 312.906 558.432C309.47 544.542 303.544 531.391 295.415 519.616C287.322 507.844 276.961 497.647 265.149 489.599C253.338 481.556 240.082 475.575 226.143 472.279C212.176 468.937 197.716 468.179 183.476 470.042C169.22 471.894 155.425 476.345 142.776 483.175C130.113 490.001 118.806 499.086 109.414 509.981C90.6247 531.698 80.1635 560.465 80.7972 589.216" fill="url(#paint1_linear_248_1087)"/>
<path fill-rule="evenodd" clip-rule="evenodd" d="M207.919 326.671C202.308 326.182 196.796 327.262 191.77 329.346C189.234 330.355 186.861 331.74 184.601 333.293L182.943 334.515L181.406 335.802C180.884 336.222 180.419 336.696 179.924 337.141C179.432 337.59 178.949 338.046 178.494 338.524C171.003 346.081 165.96 355.075 160.407 363.175C149.5 379.388 134.325 392.605 116.978 401.678C99.5871 410.661 79.9523 415.364 60.3193 414.66L58.4803 414.622L56.6447 414.499L52.9734 414.248L49.3175 413.832L47.4895 413.622L45.6724 413.333L42.0382 412.744L38.4352 411.994C36.02 411.544 33.6707 410.825 31.2865 410.24C26.5884 408.834 21.9041 407.328 17.4068 405.357C15.1188 404.468 12.9387 403.336 10.7102 402.311C9.60981 401.769 8.54079 401.167 7.45485 400.598C6.37213 400.021 5.28027 399.46 4.24103 398.81C-0.548381 395.949 -1.54212 397.391 3.28268 400.421C4.32664 401.108 5.42401 401.703 6.51273 402.316C7.60553 402.92 8.68149 403.56 9.78966 404.136C12.0337 405.235 14.233 406.438 16.5426 407.404C21.0828 409.52 25.8219 411.176 30.5898 412.731C33.0073 413.392 35.3963 414.183 37.8536 414.708L41.5236 415.569L45.2283 416.269L47.083 416.612L48.9514 416.876L52.6907 417.399L56.4524 417.756L58.3344 417.929L60.2232 418.02C80.3745 419.274 100.886 414.963 119.183 406.039C137.431 397.046 153.647 383.51 165.348 366.635C171.182 358.319 176.207 349.704 182.945 343.025C186.315 339.646 189.966 336.975 194.209 335.249C198.403 333.504 202.988 332.647 207.344 333.02C211.54 333.419 214.411 334.483 216.489 335.216C217.56 335.547 218.358 335.887 219.033 335.997C219.705 336.112 220.214 336.043 220.501 335.77C220.789 335.496 220.855 335.018 220.643 334.313C220.426 333.612 219.967 332.635 219.004 331.65C218.756 331.377 218.501 331.109 218.24 330.848C217.96 330.571 217.622 330.348 217.278 330.084C216.911 329.814 216.538 329.551 216.16 329.295C215.762 329.021 215.308 328.83 214.845 328.59C212.998 327.601 210.626 326.973 207.919 326.671Z" fill="url(#paint2_linear_248_1087)"/>
</g>
<defs>
<linearGradient id="paint0_linear_248_1087" x1="24951.8" y1="37821.6" x2="33395.2" y2="2215.2" gradientUnits="userSpaceOnUse">
<stop stop-color="#0270D7" stop-opacity="0"/>
<stop offset="0.51568" stop-color="#6825FF"/>
<stop offset="1" stop-color="#5D21E3"/>
</linearGradient>
<linearGradient id="paint1_linear_248_1087" x1="-10231.2" y1="-4595.76" x2="442.941" y2="-25544.9" gradientUnits="userSpaceOnUse">
<stop stop-color="white" stop-opacity="0.32"/>
<stop offset="1" stop-color="#0270D7" stop-opacity="0"/>
</linearGradient>
<linearGradient id="paint2_linear_248_1087" x1="0" y1="397.461" x2="2819.67" y2="5444.81" gradientUnits="userSpaceOnUse">
<stop stop-color="#8148FF"/>
<stop offset="1" stop-color="white" stop-opacity="0"/>
</linearGradient>
<clipPath id="clip0_248_1087">
<rect width="807" height="708" fill="white"/>
</clipPath>
</defs>
</svg>
