<svg width="5000" height="5000" viewBox="0 0 5000 5000" fill="none" xmlns="http://www.w3.org/2000/svg">
<path fill-rule="evenodd" clip-rule="evenodd" d="M2001.36 888C1835.67 888 1701.36 1022.31 1701.36 1188L1701.36 3188C1701.36 3353.69 1835.67 3488 2001.36 3488H3001.36C3167.04 3488 3301.36 3353.69 3301.36 3188V1188C3301.36 1022.31 3167.04 888 3001.36 888L2001.36 888ZM2151.36 1188C2068.52 1188 2001.36 1255.16 2001.36 1338V3038C2001.36 3120.84 2068.52 3188 2151.36 3188H2851.36C2934.2 3188 3001.36 3120.84 3001.36 3038V1338C3001.36 1255.16 2934.2 1188 2851.36 1188H2151.36Z" fill="#148EA9"/>
<mask id="path-2-inside-1_245_957" fill="white">
<path fill-rule="evenodd" clip-rule="evenodd" d="M2834.72 2816.41C2961.64 2922.91 2978.2 3112.14 2871.7 3239.06L2228.91 4005.1C2122.41 4132.03 1933.18 4148.58 1806.26 4042.08L274.171 2756.51C147.248 2650 130.693 2460.78 237.194 2333.86L879.981 1567.81C986.482 1440.89 1175.71 1424.33 1302.63 1530.83L1701.36 1865.41V2257.03L1224.7 1857.07C1161.24 1803.82 1066.63 1812.09 1013.38 1875.55L563.425 2411.79C510.175 2475.25 518.452 2569.86 581.914 2623.11L1884.19 3715.85C1947.65 3769.1 2042.26 3760.82 2095.51 3697.36L2545.47 3161.13C2598.72 3097.67 2590.44 3003.06 2526.98 2949.8L2001.36 2508.76V2117.14L2834.72 2816.41Z"/>
</mask>
<path fill-rule="evenodd" clip-rule="evenodd" d="M2834.72 2816.41C2961.64 2922.91 2978.2 3112.14 2871.7 3239.06L2228.91 4005.1C2122.41 4132.03 1933.18 4148.58 1806.26 4042.08L274.171 2756.51C147.248 2650 130.693 2460.78 237.194 2333.86L879.981 1567.81C986.482 1440.89 1175.71 1424.33 1302.63 1530.83L1701.36 1865.41V2257.03L1224.7 1857.07C1161.24 1803.82 1066.63 1812.09 1013.38 1875.55L563.425 2411.79C510.175 2475.25 518.452 2569.86 581.914 2623.11L1884.19 3715.85C1947.65 3769.1 2042.26 3760.82 2095.51 3697.36L2545.47 3161.13C2598.72 3097.67 2590.44 3003.06 2526.98 2949.8L2001.36 2508.76V2117.14L2834.72 2816.41Z" fill="#9D14A9"/>
<path d="M2871.7 3239.06L2872.46 3239.7L2871.7 3239.06ZM2834.72 2816.41L2834.08 2817.18L2834.72 2816.41ZM2228.91 4005.1L2228.14 4004.46L2228.91 4005.1ZM1806.26 4042.08L1806.9 4041.31L1806.26 4042.08ZM274.171 2756.51L273.528 2757.27L274.171 2756.51ZM237.194 2333.86L237.96 2334.5L237.194 2333.86ZM879.981 1567.81L879.215 1567.17L879.981 1567.81ZM1302.63 1530.83L1303.27 1530.07L1302.63 1530.83ZM1701.36 1865.41H1702.36V1864.94L1702 1864.64L1701.36 1865.41ZM1701.36 2257.03L1700.71 2257.79L1702.36 2259.17V2257.03H1701.36ZM1224.7 1857.07L1225.34 1856.3L1224.7 1857.07ZM1013.38 1875.55L1014.14 1876.2L1013.38 1875.55ZM563.425 2411.79L564.191 2412.43L563.425 2411.79ZM581.914 2623.11L581.271 2623.88L581.914 2623.11ZM1884.19 3715.85L1883.55 3716.62L1884.19 3715.85ZM2095.51 3697.36L2094.75 3696.72L2095.51 3697.36ZM2545.47 3161.13L2544.7 3160.49L2545.47 3161.13ZM2526.98 2949.8L2526.33 2950.57L2526.98 2949.8ZM2001.36 2508.76H2000.36V2509.22L2000.71 2509.52L2001.36 2508.76ZM2001.36 2117.14L2002 2116.37L2000.36 2114.99V2117.14H2001.36ZM2872.46 3239.7C2979.32 3112.36 2962.71 2922.5 2835.36 2815.64L2834.08 2817.18C2960.58 2923.32 2977.08 3111.92 2870.93 3238.42L2872.46 3239.7ZM2229.68 4005.75L2872.46 3239.7L2870.93 3238.42L2228.14 4004.46L2229.68 4005.75ZM1805.62 4042.85C1932.96 4149.7 2122.82 4133.09 2229.68 4005.75L2228.14 4004.46C2122 4130.96 1933.4 4147.46 1806.9 4041.31L1805.62 4042.85ZM273.528 2757.27L1805.62 4042.85L1806.9 4041.31L274.813 2755.74L273.528 2757.27ZM236.428 2333.21C129.572 2460.56 146.183 2650.42 273.528 2757.27L274.813 2755.74C148.314 2649.59 131.814 2461 237.96 2334.5L236.428 2333.21ZM879.215 1567.17L236.428 2333.21L237.96 2334.5L880.747 1568.45L879.215 1567.17ZM1303.27 1530.07C1175.93 1423.21 986.071 1439.82 879.215 1567.17L880.747 1568.45C986.893 1441.95 1175.49 1425.45 1301.99 1531.6L1303.27 1530.07ZM1702 1864.64L1303.27 1530.07L1301.99 1531.6L1700.71 1866.17L1702 1864.64ZM1702.36 2257.03V1865.41H1700.36V2257.03H1702.36ZM1702 2256.26L1225.34 1856.3L1224.06 1857.83L1700.71 2257.79L1702 2256.26ZM1225.34 1856.3C1161.46 1802.69 1066.22 1811.03 1012.61 1874.91L1014.14 1876.2C1067.04 1813.16 1161.02 1804.94 1224.06 1857.83L1225.34 1856.3ZM1012.61 1874.91L562.659 2411.14L564.191 2412.43L1014.14 1876.2L1012.61 1874.91ZM562.659 2411.14C509.054 2475.03 517.387 2570.27 581.271 2623.88L582.556 2622.34C519.518 2569.45 511.296 2475.47 564.191 2412.43L562.659 2411.14ZM581.271 2623.88L1883.55 3716.62L1884.83 3715.08L582.556 2622.34L581.271 2623.88ZM1883.55 3716.62C1947.43 3770.22 2042.67 3761.89 2096.28 3698L2094.75 3696.72C2041.85 3759.76 1947.87 3767.98 1884.83 3715.08L1883.55 3716.62ZM2096.28 3698L2546.23 3161.77L2544.7 3160.49L2094.75 3696.72L2096.28 3698ZM2546.23 3161.77C2599.84 3097.89 2591.5 3002.64 2527.62 2949.04L2526.33 2950.57C2589.37 3003.47 2597.59 3097.45 2544.7 3160.49L2546.23 3161.77ZM2527.62 2949.04L2002 2507.99L2000.71 2509.52L2526.33 2950.57L2527.62 2949.04ZM2000.36 2117.14V2508.76H2002.36V2117.14H2000.36ZM2835.36 2815.64L2002 2116.37L2000.71 2117.9L2834.08 2817.18L2835.36 2815.64Z" fill="black" mask="url(#path-2-inside-1_245_957)"/>
<path fill-rule="evenodd" clip-rule="evenodd" d="M2771.98 4005.46C2878.48 4132.39 3067.71 4148.94 3194.63 4042.44L4726.72 2756.86C4853.64 2650.36 4870.2 2461.14 4763.7 2334.22L4120.91 1568.17C4014.41 1441.25 3825.18 1424.69 3698.26 1531.19L3301.36 1864.23V2255.86L3776.19 1857.43C3839.65 1804.17 3934.26 1812.45 3987.51 1875.91L4437.47 2412.14C4490.72 2475.61 4482.44 2570.22 4418.98 2623.47L3116.7 3716.21C3053.24 3769.46 2958.63 3761.18 2905.38 3697.72L2696.21 3448.44L2500.4 3681.8L2771.98 4005.46ZM2304.58 3448.44L2129.19 3239.42C2022.69 3112.5 2039.25 2923.27 2166.17 2816.77L3001.36 2115.96V2507.59L2473.91 2950.16C2410.45 3003.41 2402.17 3098.03 2455.43 3161.49L2500.4 3215.08L2304.58 3448.44Z" fill="#483889"/>
<path fill-rule="evenodd" clip-rule="evenodd" d="M2001.36 888C1835.67 888 1701.36 1022.31 1701.36 1188L1701.36 3188C1701.36 3353.69 1835.67 3488 2001.36 3488H3001.36C3167.04 3488 3301.36 3353.69 3301.36 3188V1188C3301.36 1022.31 3167.04 888 3001.36 888L2001.36 888ZM2151.36 1188C2068.52 1188 2001.36 1255.16 2001.36 1338V3038C2001.36 3120.84 2068.52 3188 2151.36 3188H2851.36C2934.2 3188 3001.36 3120.84 3001.36 3038V1338C3001.36 1255.16 2934.2 1188 2851.36 1188H2151.36Z" fill="#7752FE"/>
<mask id="path-6-inside-2_245_957" fill="white">
<path fill-rule="evenodd" clip-rule="evenodd" d="M2834.72 2816.41C2961.64 2922.91 2978.2 3112.14 2871.7 3239.06L2228.91 4005.1C2122.41 4132.03 1933.18 4148.58 1806.26 4042.08L274.171 2756.51C147.248 2650 130.693 2460.78 237.194 2333.86L879.981 1567.81C986.482 1440.89 1175.71 1424.33 1302.63 1530.83L1701.36 1865.41V2257.03L1224.7 1857.07C1161.24 1803.82 1066.63 1812.09 1013.38 1875.55L563.425 2411.79C510.175 2475.25 518.452 2569.86 581.914 2623.11L1884.19 3715.85C1947.65 3769.1 2042.26 3760.82 2095.51 3697.36L2545.47 3161.13C2598.72 3097.67 2590.44 3003.06 2526.98 2949.8L2001.36 2508.76V2117.14L2834.72 2816.41Z"/>
</mask>
<path fill-rule="evenodd" clip-rule="evenodd" d="M2834.72 2816.41C2961.64 2922.91 2978.2 3112.14 2871.7 3239.06L2228.91 4005.1C2122.41 4132.03 1933.18 4148.58 1806.26 4042.08L274.171 2756.51C147.248 2650 130.693 2460.78 237.194 2333.86L879.981 1567.81C986.482 1440.89 1175.71 1424.33 1302.63 1530.83L1701.36 1865.41V2257.03L1224.7 1857.07C1161.24 1803.82 1066.63 1812.09 1013.38 1875.55L563.425 2411.79C510.175 2475.25 518.452 2569.86 581.914 2623.11L1884.19 3715.85C1947.65 3769.1 2042.26 3760.82 2095.51 3697.36L2545.47 3161.13C2598.72 3097.67 2590.44 3003.06 2526.98 2949.8L2001.36 2508.76V2117.14L2834.72 2816.41Z" fill="#190482"/>
<path d="M2871.7 3239.06L2872.46 3239.7L2871.7 3239.06ZM2834.72 2816.41L2834.08 2817.18L2834.72 2816.41ZM2228.91 4005.1L2228.14 4004.46L2228.91 4005.1ZM1806.26 4042.08L1806.9 4041.31L1806.26 4042.08ZM274.171 2756.51L273.528 2757.27L274.171 2756.51ZM237.194 2333.86L237.96 2334.5L237.194 2333.86ZM879.981 1567.81L879.215 1567.17L879.981 1567.81ZM1302.63 1530.83L1303.27 1530.07L1302.63 1530.83ZM1701.36 1865.41H1702.36V1864.94L1702 1864.64L1701.36 1865.41ZM1701.36 2257.03L1700.71 2257.79L1702.36 2259.17V2257.03H1701.36ZM1224.7 1857.07L1225.34 1856.3L1224.7 1857.07ZM1013.38 1875.55L1014.14 1876.2L1013.38 1875.55ZM563.425 2411.79L564.191 2412.43L563.425 2411.79ZM581.914 2623.11L581.271 2623.88L581.914 2623.11ZM1884.19 3715.85L1883.55 3716.62L1884.19 3715.85ZM2095.51 3697.36L2094.75 3696.72L2095.51 3697.36ZM2545.47 3161.13L2544.7 3160.49L2545.47 3161.13ZM2526.98 2949.8L2526.33 2950.57L2526.98 2949.8ZM2001.36 2508.76H2000.36V2509.22L2000.71 2509.52L2001.36 2508.76ZM2001.36 2117.14L2002 2116.37L2000.36 2114.99V2117.14H2001.36ZM2872.46 3239.7C2979.32 3112.36 2962.71 2922.5 2835.36 2815.64L2834.08 2817.18C2960.58 2923.32 2977.08 3111.92 2870.93 3238.42L2872.46 3239.7ZM2229.68 4005.75L2872.46 3239.7L2870.93 3238.42L2228.14 4004.46L2229.68 4005.75ZM1805.62 4042.85C1932.96 4149.7 2122.82 4133.09 2229.68 4005.75L2228.14 4004.46C2122 4130.96 1933.4 4147.46 1806.9 4041.31L1805.62 4042.85ZM273.528 2757.27L1805.62 4042.85L1806.9 4041.31L274.813 2755.74L273.528 2757.27ZM236.428 2333.21C129.572 2460.56 146.183 2650.42 273.528 2757.27L274.813 2755.74C148.314 2649.59 131.814 2461 237.96 2334.5L236.428 2333.21ZM879.215 1567.17L236.428 2333.21L237.96 2334.5L880.747 1568.45L879.215 1567.17ZM1303.27 1530.07C1175.93 1423.21 986.071 1439.82 879.215 1567.17L880.747 1568.45C986.893 1441.95 1175.49 1425.45 1301.99 1531.6L1303.27 1530.07ZM1702 1864.64L1303.27 1530.07L1301.99 1531.6L1700.71 1866.17L1702 1864.64ZM1702.36 2257.03V1865.41H1700.36V2257.03H1702.36ZM1702 2256.26L1225.34 1856.3L1224.06 1857.83L1700.71 2257.79L1702 2256.26ZM1225.34 1856.3C1161.46 1802.69 1066.22 1811.03 1012.61 1874.91L1014.14 1876.2C1067.04 1813.16 1161.02 1804.94 1224.06 1857.83L1225.34 1856.3ZM1012.61 1874.91L562.659 2411.14L564.191 2412.43L1014.14 1876.2L1012.61 1874.91ZM562.659 2411.14C509.054 2475.03 517.387 2570.27 581.271 2623.88L582.556 2622.34C519.518 2569.45 511.296 2475.47 564.191 2412.43L562.659 2411.14ZM581.271 2623.88L1883.55 3716.62L1884.83 3715.08L582.556 2622.34L581.271 2623.88ZM1883.55 3716.62C1947.43 3770.22 2042.67 3761.89 2096.28 3698L2094.75 3696.72C2041.85 3759.76 1947.87 3767.98 1884.83 3715.08L1883.55 3716.62ZM2096.28 3698L2546.23 3161.77L2544.7 3160.49L2094.75 3696.72L2096.28 3698ZM2546.23 3161.77C2599.84 3097.89 2591.5 3002.64 2527.62 2949.04L2526.33 2950.57C2589.37 3003.47 2597.59 3097.45 2544.7 3160.49L2546.23 3161.77ZM2527.62 2949.04L2002 2507.99L2000.71 2509.52L2526.33 2950.57L2527.62 2949.04ZM2000.36 2117.14V2508.76H2002.36V2117.14H2000.36ZM2835.36 2815.64L2002 2116.37L2000.71 2117.9L2834.08 2817.18L2835.36 2815.64Z" fill="black" mask="url(#path-6-inside-2_245_957)"/>
<path fill-rule="evenodd" clip-rule="evenodd" d="M2771.98 4005.46C2878.48 4132.39 3067.71 4148.94 3194.63 4042.44L4726.72 2756.86C4853.64 2650.36 4870.2 2461.14 4763.7 2334.22L4120.91 1568.17C4014.41 1441.25 3825.18 1424.69 3698.26 1531.19L3301.36 1864.23V2255.86L3776.19 1857.43C3839.65 1804.17 3934.26 1812.45 3987.51 1875.91L4437.47 2412.14C4490.72 2475.61 4482.44 2570.22 4418.98 2623.47L3116.7 3716.21C3053.24 3769.46 2958.63 3761.18 2905.38 3697.72L2696.21 3448.44L2500.4 3681.8L2771.98 4005.46ZM2304.58 3448.44L2129.19 3239.42C2022.69 3112.5 2039.25 2923.27 2166.17 2816.77L3001.36 2115.96V2507.59L2473.91 2950.16C2410.45 3003.41 2402.17 3098.03 2455.43 3161.49L2500.4 3215.08L2304.58 3448.44Z" fill="#8E8FFA"/>
</svg>
