<svg width="711" height="368" viewBox="0 0 711 368" fill="none" xmlns="http://www.w3.org/2000/svg">
<g filter="url(#filter0_d_372_1886)">
<rect x="0.5" y="0.5" width="705" height="362" rx="10.5" fill="#252831" stroke="#393939"/>
<path d="M1 11C1 5.47715 5.47715 1 11 1H695C700.523 1 705 5.47715 705 11V36H1V11Z" fill="#15181F"/>
<ellipse cx="20.239" cy="20.3084" rx="5.41475" ry="5.70683" fill="#FF625B"/>
<ellipse cx="38.6726" cy="20.3084" rx="5.41475" ry="5.70683" fill="#FFBC34"/>
<ellipse cx="57.1062" cy="20.3084" rx="5.41475" ry="5.70683" fill="#24CB40"/>
<path d="M130.546 223.219V213.859H132.249V223.219H130.546ZM133.27 223.219V215.679H139.133C139.462 215.679 139.761 215.761 140.03 215.926C140.307 216.09 140.524 216.307 140.68 216.576C140.845 216.844 140.927 217.143 140.927 217.473V223.219H139.224V217.538C139.224 217.494 139.207 217.46 139.172 217.434C139.146 217.399 139.111 217.382 139.068 217.382H135.129C135.086 217.382 135.047 217.399 135.012 217.434C134.986 217.46 134.973 217.494 134.973 217.538V223.219H133.27ZM141.906 223.219V215.679H143.609V223.219H141.906ZM141.906 214.925V213.209H143.609V214.925H141.906ZM146.382 223.219C146.053 223.219 145.754 223.136 145.485 222.972C145.217 222.807 145 222.59 144.835 222.322C144.671 222.053 144.588 221.754 144.588 221.425V213.365H146.291V215.679H149.229V217.382H146.291V221.36C146.291 221.403 146.304 221.442 146.33 221.477C146.365 221.503 146.404 221.516 146.447 221.516H149.229V223.219H146.382ZM149.898 223.219V215.679H151.601V223.219H149.898ZM149.898 214.925V213.209H151.601V214.925H149.898ZM154.044 223.219C153.715 223.219 153.412 223.136 153.134 222.972C152.866 222.807 152.649 222.59 152.484 222.322C152.328 222.053 152.25 221.754 152.25 221.425V218.591H158.204V217.538C158.204 217.494 158.187 217.46 158.152 217.434C158.126 217.399 158.092 217.382 158.048 217.382H152.25V215.679H158.113C158.443 215.679 158.742 215.761 159.01 215.926C159.288 216.09 159.504 216.307 159.66 216.576C159.825 216.844 159.907 217.143 159.907 217.473V223.219H154.044ZM154.109 221.516H158.204V220.125H153.953V221.36C153.953 221.403 153.966 221.442 153.992 221.477C154.027 221.503 154.066 221.516 154.109 221.516ZM162.401 223.219C162.072 223.219 161.773 223.136 161.504 222.972C161.236 222.807 161.019 222.59 160.854 222.322C160.69 222.053 160.607 221.754 160.607 221.425V213.196H162.323V221.36C162.323 221.403 162.336 221.442 162.362 221.477C162.397 221.503 162.436 221.516 162.479 221.516H163.922V223.219H162.401ZM130.546 243.219V233.859H132.249V243.219H130.546ZM133.27 243.219V235.679H139.133C139.462 235.679 139.761 235.761 140.03 235.926C140.307 236.09 140.524 236.307 140.68 236.576C140.845 236.844 140.927 237.143 140.927 237.473V243.219H139.224V237.538C139.224 237.494 139.207 237.46 139.172 237.434C139.146 237.399 139.111 237.382 139.068 237.382H135.129C135.086 237.382 135.047 237.399 135.012 237.434C134.986 237.46 134.973 237.494 134.973 237.538V243.219H133.27ZM145.65 243.219L141.503 235.679H143.466L146.443 241.152L149.407 235.679H151.37L147.21 243.219H145.65ZM153.174 243.219C152.844 243.219 152.545 243.136 152.277 242.972C152.008 242.807 151.791 242.59 151.627 242.322C151.462 242.053 151.38 241.754 151.38 241.425V237.473C151.38 237.143 151.462 236.844 151.627 236.576C151.791 236.307 152.008 236.09 152.277 235.926C152.545 235.761 152.844 235.679 153.174 235.679H157.243C157.572 235.679 157.871 235.761 158.14 235.926C158.417 236.09 158.634 236.307 158.79 236.576C158.954 236.844 159.037 237.143 159.037 237.473V240.307H153.083V241.36C153.083 241.403 153.096 241.442 153.122 241.477C153.156 241.503 153.195 241.516 153.239 241.516H159.037V243.219H153.174ZM153.083 238.773H157.334V237.538C157.334 237.494 157.316 237.46 157.282 237.434C157.256 237.399 157.221 237.382 157.178 237.382H153.239C153.195 237.382 153.156 237.399 153.122 237.434C153.096 237.46 153.083 237.494 153.083 237.538V238.773ZM161.657 243.219C161.327 243.219 161.028 243.136 160.76 242.972C160.491 242.807 160.274 242.59 160.11 242.322C159.945 242.053 159.863 241.754 159.863 241.425V241.139H161.566V241.36C161.566 241.403 161.579 241.442 161.605 241.477C161.639 241.503 161.678 241.516 161.722 241.516H165.661C165.704 241.516 165.739 241.503 165.765 241.477C165.799 241.442 165.817 241.403 165.817 241.36V240.463C165.817 240.419 165.799 240.385 165.765 240.359C165.739 240.324 165.704 240.307 165.661 240.307H161.657C161.327 240.307 161.028 240.224 160.76 240.06C160.491 239.895 160.274 239.678 160.11 239.41C159.945 239.141 159.863 238.842 159.863 238.513V237.473C159.863 237.143 159.945 236.844 160.11 236.576C160.274 236.307 160.491 236.09 160.76 235.926C161.028 235.761 161.327 235.679 161.657 235.679H165.726C166.064 235.679 166.367 235.761 166.636 235.926C166.904 236.09 167.121 236.307 167.286 236.576C167.45 236.844 167.533 237.143 167.533 237.473V237.759H165.817V237.538C165.817 237.494 165.799 237.46 165.765 237.434C165.739 237.399 165.704 237.382 165.661 237.382H161.722C161.678 237.382 161.639 237.399 161.605 237.434C161.579 237.46 161.566 237.494 161.566 237.538V238.435C161.566 238.478 161.579 238.517 161.605 238.552C161.639 238.578 161.678 238.591 161.722 238.591H165.726C166.064 238.591 166.367 238.673 166.636 238.838C166.904 239.002 167.121 239.219 167.286 239.488C167.45 239.756 167.533 240.055 167.533 240.385V241.425C167.533 241.754 167.45 242.053 167.286 242.322C167.121 242.59 166.904 242.807 166.636 242.972C166.367 243.136 166.064 243.219 165.726 243.219H161.657ZM170.244 243.219C169.915 243.219 169.616 243.136 169.347 242.972C169.078 242.807 168.862 242.59 168.697 242.322C168.532 242.053 168.45 241.754 168.45 241.425V233.365H170.153V235.679H173.091V237.382H170.153V241.36C170.153 241.403 170.166 241.442 170.192 241.477C170.227 241.503 170.266 241.516 170.309 241.516H173.091V243.219H170.244ZM173.76 243.219V235.679H175.463V243.219H173.76ZM173.76 234.925V233.209H175.463V234.925H173.76ZM177.37 246.196V244.48H181.907C181.95 244.48 181.985 244.462 182.011 244.428C182.045 244.402 182.063 244.367 182.063 244.324V243.219H177.903C177.582 243.219 177.283 243.136 177.006 242.972C176.737 242.807 176.52 242.59 176.356 242.322C176.191 242.053 176.109 241.754 176.109 241.425V237.473C176.109 237.143 176.191 236.844 176.356 236.576C176.52 236.307 176.737 236.09 177.006 235.926C177.283 235.761 177.582 235.679 177.903 235.679H181.985C182.314 235.679 182.613 235.761 182.882 235.926C183.15 236.09 183.363 236.307 183.519 236.576C183.683 236.844 183.766 237.143 183.766 237.473V244.402C183.766 244.74 183.688 245.043 183.532 245.312C183.376 245.58 183.159 245.793 182.882 245.949C182.613 246.113 182.314 246.196 181.985 246.196H177.37ZM177.968 241.516H181.907C181.95 241.516 181.985 241.503 182.011 241.477C182.045 241.442 182.063 241.403 182.063 241.36V237.538C182.063 237.494 182.045 237.46 182.011 237.434C181.985 237.399 181.95 237.382 181.907 237.382H177.968C177.924 237.382 177.885 237.399 177.851 237.434C177.825 237.46 177.812 237.494 177.812 237.538V241.36C177.812 241.403 177.825 241.442 177.851 241.477C177.885 241.503 177.924 241.516 177.968 241.516ZM186.25 243.219C185.921 243.219 185.618 243.136 185.34 242.972C185.072 242.807 184.855 242.59 184.69 242.322C184.534 242.053 184.456 241.754 184.456 241.425V238.591H190.41V237.538C190.41 237.494 190.393 237.46 190.358 237.434C190.332 237.399 190.298 237.382 190.254 237.382H184.456V235.679H190.319C190.649 235.679 190.948 235.761 191.216 235.926C191.494 236.09 191.71 236.307 191.866 236.576C192.031 236.844 192.113 237.143 192.113 237.473V243.219H186.25ZM186.315 241.516H190.41V240.125H186.159V241.36C186.159 241.403 186.172 241.442 186.198 241.477C186.233 241.503 186.272 241.516 186.315 241.516ZM194.9 243.219C194.57 243.219 194.271 243.136 194.003 242.972C193.734 242.807 193.517 242.59 193.353 242.322C193.188 242.053 193.106 241.754 193.106 241.425V233.365H194.809V235.679H197.747V237.382H194.809V241.36C194.809 241.403 194.822 241.442 194.848 241.477C194.882 241.503 194.921 241.516 194.965 241.516H197.747V243.219H194.9ZM198.416 243.219V235.679H200.119V243.219H198.416ZM198.416 234.925V233.209H200.119V234.925H198.416ZM202.688 243.219C202.359 243.219 202.06 243.136 201.791 242.972C201.523 242.807 201.306 242.59 201.141 242.322C200.977 242.053 200.894 241.754 200.894 241.425V237.473C200.894 237.143 200.977 236.844 201.141 236.576C201.306 236.307 201.523 236.09 201.791 235.926C202.06 235.761 202.359 235.679 202.688 235.679H206.757C207.087 235.679 207.386 235.761 207.654 235.926C207.932 236.09 208.148 236.307 208.304 236.576C208.469 236.844 208.551 237.143 208.551 237.473V241.425C208.551 241.754 208.469 242.053 208.304 242.322C208.148 242.59 207.936 242.807 207.667 242.972C207.399 243.136 207.095 243.219 206.757 243.219H202.688ZM202.753 241.516H206.692C206.736 241.516 206.77 241.503 206.796 241.477C206.831 241.442 206.848 241.403 206.848 241.36V237.538C206.848 237.494 206.831 237.46 206.796 237.434C206.77 237.399 206.736 237.382 206.692 237.382H202.753C202.71 237.382 202.671 237.399 202.636 237.434C202.61 237.46 202.597 237.494 202.597 237.538V241.36C202.597 241.403 202.61 241.442 202.636 241.477C202.671 241.503 202.71 241.516 202.753 241.516ZM209.227 243.219V235.679H215.09C215.419 235.679 215.718 235.761 215.987 235.926C216.264 236.09 216.481 236.307 216.637 236.576C216.802 236.844 216.884 237.143 216.884 237.473V243.219H215.181V237.538C215.181 237.494 215.164 237.46 215.129 237.434C215.103 237.399 215.068 237.382 215.025 237.382H211.086C211.043 237.382 211.004 237.399 210.969 237.434C210.943 237.46 210.93 237.494 210.93 237.538V243.219H209.227Z" fill="white"/>
<path d="M440.082 223.219V215.588H436.26V213.859H445.62V215.588H441.811V223.219H440.082ZM447.931 223.219C447.602 223.219 447.303 223.136 447.034 222.972C446.766 222.807 446.549 222.59 446.384 222.322C446.22 222.053 446.137 221.754 446.137 221.425V217.473C446.137 217.143 446.22 216.844 446.384 216.576C446.549 216.307 446.766 216.09 447.034 215.926C447.303 215.761 447.602 215.679 447.931 215.679H452C452.33 215.679 452.629 215.761 452.897 215.926C453.175 216.09 453.391 216.307 453.547 216.576C453.712 216.844 453.794 217.143 453.794 217.473V220.307H447.84V221.36C447.84 221.403 447.853 221.442 447.879 221.477C447.914 221.503 447.953 221.516 447.996 221.516H453.794V223.219H447.931ZM447.84 218.773H452.091V217.538C452.091 217.494 452.074 217.46 452.039 217.434C452.013 217.399 451.979 217.382 451.935 217.382H447.996C447.953 217.382 447.914 217.399 447.879 217.434C447.853 217.46 447.84 217.494 447.84 217.538V218.773ZM456.414 223.219C456.085 223.219 455.786 223.136 455.517 222.972C455.249 222.807 455.032 222.59 454.867 222.322C454.703 222.053 454.62 221.754 454.62 221.425V221.139H456.323V221.36C456.323 221.403 456.336 221.442 456.362 221.477C456.397 221.503 456.436 221.516 456.479 221.516H460.418C460.462 221.516 460.496 221.503 460.522 221.477C460.557 221.442 460.574 221.403 460.574 221.36V220.463C460.574 220.419 460.557 220.385 460.522 220.359C460.496 220.324 460.462 220.307 460.418 220.307H456.414C456.085 220.307 455.786 220.224 455.517 220.06C455.249 219.895 455.032 219.678 454.867 219.41C454.703 219.141 454.62 218.842 454.62 218.513V217.473C454.62 217.143 454.703 216.844 454.867 216.576C455.032 216.307 455.249 216.09 455.517 215.926C455.786 215.761 456.085 215.679 456.414 215.679H460.483C460.821 215.679 461.125 215.761 461.393 215.926C461.662 216.09 461.879 216.307 462.043 216.576C462.208 216.844 462.29 217.143 462.29 217.473V217.759H460.574V217.538C460.574 217.494 460.557 217.46 460.522 217.434C460.496 217.399 460.462 217.382 460.418 217.382H456.479C456.436 217.382 456.397 217.399 456.362 217.434C456.336 217.46 456.323 217.494 456.323 217.538V218.435C456.323 218.478 456.336 218.517 456.362 218.552C456.397 218.578 456.436 218.591 456.479 218.591H460.483C460.821 218.591 461.125 218.673 461.393 218.838C461.662 219.002 461.879 219.219 462.043 219.488C462.208 219.756 462.29 220.055 462.29 220.385V221.425C462.29 221.754 462.208 222.053 462.043 222.322C461.879 222.59 461.662 222.807 461.393 222.972C461.125 223.136 460.821 223.219 460.483 223.219H456.414ZM465.001 223.219C464.672 223.219 464.373 223.136 464.104 222.972C463.836 222.807 463.619 222.59 463.454 222.322C463.29 222.053 463.207 221.754 463.207 221.425V213.365H464.91V215.679H467.848V217.382H464.91V221.36C464.91 221.403 464.923 221.442 464.949 221.477C464.984 221.503 465.023 221.516 465.066 221.516H467.848V223.219H465.001ZM468.517 223.219V215.679H470.22V223.219H468.517ZM468.517 214.925V213.209H470.22V214.925H468.517ZM471.34 223.219V215.679H477.203C477.532 215.679 477.831 215.761 478.1 215.926C478.377 216.09 478.594 216.307 478.75 216.576C478.915 216.844 478.997 217.143 478.997 217.473V223.219H477.294V217.538C477.294 217.494 477.277 217.46 477.242 217.434C477.216 217.399 477.181 217.382 477.138 217.382H473.199C473.156 217.382 473.117 217.399 473.082 217.434C473.056 217.46 473.043 217.494 473.043 217.538V223.219H471.34ZM481.005 226.196V224.48H485.542C485.585 224.48 485.62 224.462 485.646 224.428C485.68 224.402 485.698 224.367 485.698 224.324V223.219H481.538C481.217 223.219 480.918 223.136 480.641 222.972C480.372 222.807 480.155 222.59 479.991 222.322C479.826 222.053 479.744 221.754 479.744 221.425V217.473C479.744 217.143 479.826 216.844 479.991 216.576C480.155 216.307 480.372 216.09 480.641 215.926C480.918 215.761 481.217 215.679 481.538 215.679H485.62C485.949 215.679 486.248 215.761 486.517 215.926C486.785 216.09 486.998 216.307 487.154 216.576C487.318 216.844 487.401 217.143 487.401 217.473V224.402C487.401 224.74 487.323 225.043 487.167 225.312C487.011 225.58 486.794 225.793 486.517 225.949C486.248 226.113 485.949 226.196 485.62 226.196H481.005ZM481.603 221.516H485.542C485.585 221.516 485.62 221.503 485.646 221.477C485.68 221.442 485.698 221.403 485.698 221.36V217.538C485.698 217.494 485.68 217.46 485.646 217.434C485.62 217.399 485.585 217.382 485.542 217.382H481.603C481.559 217.382 481.52 217.399 481.486 217.434C481.46 217.46 481.447 217.494 481.447 217.538V221.36C481.447 221.403 481.46 221.442 481.486 221.477C481.52 221.503 481.559 221.516 481.603 221.516Z" fill="white"/>
<path d="M26.24 99V70.24H49.44C50.4533 70.24 51.3867 70.4933 52.24 71C53.0933 71.5067 53.7733 72.1867 54.28 73.04C54.7867 73.8667 55.04 74.7867 55.04 75.8V83.56C55.04 84.5733 54.7867 85.5067 54.28 86.36C53.7733 87.2133 53.0933 87.8933 52.24 88.4C51.3867 88.88 50.4533 89.12 49.44 89.12L31.52 89.16V99H26.24ZM32 83.8H49.2C49.3333 83.8 49.4533 83.76 49.56 83.68C49.6667 83.6 49.72 83.4933 49.72 83.36V76C49.72 75.8667 49.6667 75.76 49.56 75.68C49.4533 75.5733 49.3333 75.52 49.2 75.52H32C31.8667 75.52 31.7467 75.5733 31.64 75.68C31.56 75.76 31.52 75.8667 31.52 76V83.36C31.52 83.4933 31.56 83.6 31.64 83.68C31.7467 83.76 31.8667 83.8 32 83.8ZM56.5206 99V81.32C56.5206 80.3067 56.774 79.3867 57.2806 78.56C57.7873 77.7333 58.454 77.0667 59.2806 76.56C60.134 76.0533 61.054 75.8 62.0406 75.8H74.9206V81.04H62.2406C62.1073 81.04 61.9873 81.0933 61.8806 81.2C61.8006 81.28 61.7606 81.3867 61.7606 81.52V99H56.5206ZM81.7772 99C80.7639 99 79.8439 98.7467 79.0172 98.24C78.1905 97.7333 77.5239 97.0667 77.0172 96.24C76.5105 95.4133 76.2572 94.4933 76.2572 93.48V81.32C76.2572 80.3067 76.5105 79.3867 77.0172 78.56C77.5239 77.7333 78.1905 77.0667 79.0172 76.56C79.8439 76.0533 80.7639 75.8 81.7772 75.8H94.2972C95.3105 75.8 96.2305 76.0533 97.0572 76.56C97.9105 77.0667 98.5772 77.7333 99.0572 78.56C99.5639 79.3867 99.8172 80.3067 99.8172 81.32V93.48C99.8172 94.4933 99.5639 95.4133 99.0572 96.24C98.5772 97.0667 97.9239 97.7333 97.0972 98.24C96.2705 98.7467 95.3372 99 94.2972 99H81.7772ZM81.9772 93.76H94.0972C94.2305 93.76 94.3372 93.72 94.4172 93.64C94.5239 93.5333 94.5772 93.4133 94.5772 93.28V81.52C94.5772 81.3867 94.5239 81.28 94.4172 81.2C94.3372 81.0933 94.2305 81.04 94.0972 81.04H81.9772C81.8439 81.04 81.7239 81.0933 81.6172 81.2C81.5372 81.28 81.4972 81.3867 81.4972 81.52V93.28C81.4972 93.4133 81.5372 93.5333 81.6172 93.64C81.7239 93.72 81.8439 93.76 81.9772 93.76ZM107.571 99C106.558 99 105.638 98.7467 104.811 98.24C103.985 97.7333 103.318 97.0667 102.811 96.24C102.305 95.4133 102.051 94.4933 102.051 93.48V68.68H107.291V75.8H116.331V81.04H107.291V93.28C107.291 93.4133 107.331 93.5333 107.411 93.64C107.518 93.72 107.638 93.76 107.771 93.76H116.331V99H107.571ZM123.83 99C122.817 99 121.897 98.7467 121.07 98.24C120.244 97.7333 119.577 97.0667 119.07 96.24C118.564 95.4133 118.31 94.4933 118.31 93.48V81.32C118.31 80.3067 118.564 79.3867 119.07 78.56C119.577 77.7333 120.244 77.0667 121.07 76.56C121.897 76.0533 122.817 75.8 123.83 75.8H136.35C137.364 75.8 138.284 76.0533 139.11 76.56C139.964 77.0667 140.63 77.7333 141.11 78.56C141.617 79.3867 141.87 80.3067 141.87 81.32V93.48C141.87 94.4933 141.617 95.4133 141.11 96.24C140.63 97.0667 139.977 97.7333 139.15 98.24C138.324 98.7467 137.39 99 136.35 99H123.83ZM124.03 93.76H136.15C136.284 93.76 136.39 93.72 136.47 93.64C136.577 93.5333 136.63 93.4133 136.63 93.28V81.52C136.63 81.3867 136.577 81.28 136.47 81.2C136.39 81.0933 136.284 81.04 136.15 81.04H124.03C123.897 81.04 123.777 81.0933 123.67 81.2C123.59 81.28 123.55 81.3867 123.55 81.52V93.28C123.55 93.4133 123.59 93.5333 123.67 93.64C123.777 93.72 123.897 93.76 124.03 93.76ZM149.624 99C148.611 99 147.691 98.7467 146.864 98.24C146.038 97.7333 145.371 97.0667 144.864 96.24C144.358 95.4133 144.104 94.4933 144.104 93.48V68.68H149.344V75.8H158.384V81.04H149.344V93.28C149.344 93.4133 149.384 93.5333 149.464 93.64C149.571 93.72 149.691 93.76 149.824 93.76H158.384V99H149.624ZM164.157 107.6V102.32H178.117C178.25 102.32 178.357 102.267 178.437 102.16C178.544 102.08 178.597 101.973 178.597 101.84V99H165.797C164.81 99 163.89 98.7467 163.037 98.24C162.21 97.7333 161.544 97.0667 161.037 96.24C160.53 95.4133 160.277 94.4933 160.277 93.48V75.88H165.517V93.28C165.517 93.4133 165.557 93.5333 165.637 93.64C165.744 93.72 165.864 93.76 165.997 93.76H178.117C178.25 93.76 178.357 93.72 178.437 93.64C178.544 93.5333 178.597 93.4133 178.597 93.28V75.88H183.837V102.08C183.837 103.093 183.597 104.013 183.117 104.84C182.637 105.693 181.97 106.36 181.117 106.84C180.29 107.347 179.37 107.6 178.357 107.6H164.157ZM186.666 108.2V75.8H204.706C205.72 75.8 206.64 76.0533 207.466 76.56C208.32 77.0667 208.986 77.7333 209.466 78.56C209.973 79.3867 210.226 80.3067 210.226 81.32V93.48C210.226 94.4933 209.973 95.4133 209.466 96.24C208.986 97.0667 208.32 97.7333 207.466 98.24C206.64 98.7467 205.72 99 204.706 99H191.906V108.2H186.666ZM192.386 93.76H204.506C204.64 93.76 204.746 93.72 204.826 93.64C204.933 93.5333 204.986 93.4133 204.986 93.28V81.52C204.986 81.3867 204.933 81.28 204.826 81.2C204.746 81.0933 204.64 81.04 204.506 81.04H192.386C192.253 81.04 192.133 81.0933 192.026 81.2C191.946 81.28 191.906 81.3867 191.906 81.52V93.28C191.906 93.4133 191.946 93.5333 192.026 93.64C192.133 93.72 192.253 93.76 192.386 93.76ZM212.105 99V75.8H217.345V99H212.105ZM212.105 73.48V68.2H217.345V73.48H212.105ZM220.79 99V75.8H238.83C239.843 75.8 240.763 76.0533 241.59 76.56C242.443 77.0667 243.11 77.7333 243.59 78.56C244.096 79.3867 244.35 80.3067 244.35 81.32V99H239.11V81.52C239.11 81.3867 239.056 81.28 238.95 81.2C238.87 81.0933 238.763 81.04 238.63 81.04H226.51C226.376 81.04 226.256 81.0933 226.15 81.2C226.07 81.28 226.03 81.3867 226.03 81.52V99H220.79ZM250.528 108.16V102.88H264.488C264.621 102.88 264.728 102.827 264.808 102.72C264.914 102.64 264.968 102.533 264.968 102.4V99H252.168C251.181 99 250.261 98.7467 249.408 98.24C248.581 97.7333 247.914 97.0667 247.408 96.24C246.901 95.4133 246.648 94.4933 246.648 93.48V81.32C246.648 80.3067 246.901 79.3867 247.408 78.56C247.914 77.7333 248.581 77.0667 249.408 76.56C250.261 76.0533 251.181 75.8 252.168 75.8H264.728C265.741 75.8 266.661 76.0533 267.488 76.56C268.314 77.0667 268.968 77.7333 269.448 78.56C269.954 79.3867 270.208 80.3067 270.208 81.32V102.64C270.208 103.68 269.968 104.613 269.488 105.44C269.008 106.267 268.341 106.92 267.488 107.4C266.661 107.907 265.741 108.16 264.728 108.16H250.528ZM252.368 93.76H264.488C264.621 93.76 264.728 93.72 264.808 93.64C264.914 93.5333 264.968 93.4133 264.968 93.28V81.52C264.968 81.3867 264.914 81.28 264.808 81.2C264.728 81.0933 264.621 81.04 264.488 81.04H252.368C252.234 81.04 252.114 81.0933 252.008 81.2C251.928 81.28 251.888 81.3867 251.888 81.52V93.28C251.888 93.4133 251.928 93.5333 252.008 93.64C252.114 93.72 252.234 93.76 252.368 93.76Z" fill="white"/>
<path d="M196.19 156L193.369 152.633H195.618L198.062 155.519V156H196.19ZM188.728 156V146.653H196.268C196.597 146.653 196.901 146.735 197.178 146.9C197.455 147.065 197.676 147.286 197.841 147.563C198.006 147.832 198.088 148.131 198.088 148.46V150.982C198.088 151.311 198.006 151.615 197.841 151.892C197.676 152.169 197.455 152.39 197.178 152.555C196.901 152.711 196.597 152.789 196.268 152.789L190.444 152.802V156H188.728ZM190.6 151.06H196.19C196.233 151.06 196.272 151.047 196.307 151.021C196.342 150.995 196.359 150.96 196.359 150.917V148.525C196.359 148.482 196.342 148.447 196.307 148.421C196.272 148.386 196.233 148.369 196.19 148.369H190.6C190.557 148.369 190.518 148.386 190.483 148.421C190.457 148.447 190.444 148.482 190.444 148.525V150.917C190.444 150.96 190.457 150.995 190.483 151.021C190.518 151.047 190.557 151.06 190.6 151.06ZM200.795 156C200.465 156 200.166 155.918 199.898 155.753C199.629 155.588 199.412 155.372 199.248 155.103C199.083 154.834 199.001 154.535 199.001 154.206V150.254C199.001 149.925 199.083 149.626 199.248 149.357C199.412 149.088 199.629 148.872 199.898 148.707C200.166 148.542 200.465 148.46 200.795 148.46H204.864C205.193 148.46 205.492 148.542 205.761 148.707C206.038 148.872 206.255 149.088 206.411 149.357C206.575 149.626 206.658 149.925 206.658 150.254V153.088H200.704V154.141C200.704 154.184 200.717 154.223 200.743 154.258C200.777 154.284 200.816 154.297 200.86 154.297H206.658V156H200.795ZM200.704 151.554H204.955V150.319C204.955 150.276 204.937 150.241 204.903 150.215C204.877 150.18 204.842 150.163 204.799 150.163H200.86C200.816 150.163 200.777 150.18 200.743 150.215C200.717 150.241 200.704 150.276 200.704 150.319V151.554ZM213.176 158.99V156H209.003C208.665 156 208.361 155.918 208.093 155.753C207.824 155.588 207.607 155.372 207.443 155.103C207.287 154.834 207.209 154.535 207.209 154.206V150.254C207.209 149.925 207.287 149.626 207.443 149.357C207.607 149.088 207.824 148.872 208.093 148.707C208.361 148.542 208.665 148.46 209.003 148.46H214.879V158.99H213.176ZM209.081 154.297H213.02C213.063 154.297 213.098 154.284 213.124 154.258C213.158 154.223 213.176 154.184 213.176 154.141V150.319C213.176 150.276 213.158 150.241 213.124 150.215C213.098 150.18 213.063 150.163 213.02 150.163H209.081C209.037 150.163 208.998 150.18 208.964 150.215C208.938 150.241 208.925 150.276 208.925 150.319V154.141C208.925 154.184 208.938 154.223 208.964 154.258C208.998 154.284 209.037 154.297 209.081 154.297ZM217.42 156C217.091 156 216.788 155.918 216.51 155.753C216.242 155.588 216.025 155.372 215.86 155.103C215.704 154.834 215.626 154.535 215.626 154.206V148.46H217.329V154.141C217.329 154.184 217.342 154.223 217.368 154.258C217.403 154.284 217.442 154.297 217.485 154.297H221.424C221.468 154.297 221.502 154.284 221.528 154.258C221.563 154.223 221.58 154.184 221.58 154.141V148.46H223.283V154.206C223.283 154.535 223.201 154.834 223.036 155.103C222.88 155.372 222.668 155.588 222.399 155.753C222.131 155.918 221.827 156 221.489 156H217.42ZM224.262 156V148.46H225.965V156H224.262ZM224.262 147.706V145.99H225.965V147.706H224.262ZM227.021 156V150.254C227.021 149.925 227.103 149.626 227.268 149.357C227.433 149.088 227.649 148.872 227.918 148.707C228.195 148.542 228.494 148.46 228.815 148.46H233.001V150.163H228.88C228.837 150.163 228.798 150.18 228.763 150.215C228.737 150.241 228.724 150.276 228.724 150.319V156H227.021ZM235.293 156C234.963 156 234.664 155.918 234.396 155.753C234.127 155.588 233.91 155.372 233.746 155.103C233.581 154.834 233.499 154.535 233.499 154.206V150.254C233.499 149.925 233.581 149.626 233.746 149.357C233.91 149.088 234.127 148.872 234.396 148.707C234.664 148.542 234.963 148.46 235.293 148.46H239.362C239.691 148.46 239.99 148.542 240.259 148.707C240.536 148.872 240.753 149.088 240.909 149.357C241.073 149.626 241.156 149.925 241.156 150.254V153.088H235.202V154.141C235.202 154.184 235.215 154.223 235.241 154.258C235.275 154.284 235.314 154.297 235.358 154.297H241.156V156H235.293ZM235.202 151.554H239.453V150.319C239.453 150.276 239.435 150.241 239.401 150.215C239.375 150.18 239.34 150.163 239.297 150.163H235.358C235.314 150.163 235.275 150.18 235.241 150.215C235.215 150.241 235.202 150.276 235.202 150.319V151.554ZM242.149 156V148.46H251.496C251.834 148.46 252.137 148.542 252.406 148.707C252.674 148.872 252.887 149.088 253.043 149.357C253.207 149.626 253.29 149.925 253.29 150.254V156H251.6V150.319C251.6 150.276 251.582 150.241 251.548 150.215C251.513 150.18 251.474 150.163 251.431 150.163H248.74C248.696 150.163 248.657 150.18 248.623 150.215C248.597 150.241 248.584 150.276 248.584 150.319V156H246.868V150.319C246.868 150.276 246.85 150.241 246.816 150.215C246.79 150.18 246.755 150.163 246.712 150.163H244.008C243.964 150.163 243.925 150.18 243.891 150.215C243.865 150.241 243.852 150.276 243.852 150.319V156H242.149ZM255.866 156C255.537 156 255.238 155.918 254.969 155.753C254.701 155.588 254.484 155.372 254.319 155.103C254.155 154.834 254.072 154.535 254.072 154.206V150.254C254.072 149.925 254.155 149.626 254.319 149.357C254.484 149.088 254.701 148.872 254.969 148.707C255.238 148.542 255.537 148.46 255.866 148.46H259.935C260.265 148.46 260.564 148.542 260.832 148.707C261.11 148.872 261.326 149.088 261.482 149.357C261.647 149.626 261.729 149.925 261.729 150.254V153.088H255.775V154.141C255.775 154.184 255.788 154.223 255.814 154.258C255.849 154.284 255.888 154.297 255.931 154.297H261.729V156H255.866ZM255.775 151.554H260.026V150.319C260.026 150.276 260.009 150.241 259.974 150.215C259.948 150.18 259.914 150.163 259.87 150.163H255.931C255.888 150.163 255.849 150.18 255.814 150.215C255.788 150.241 255.775 150.276 255.775 150.319V151.554ZM262.722 156V148.46H268.585C268.915 148.46 269.214 148.542 269.482 148.707C269.76 148.872 269.976 149.088 270.132 149.357C270.297 149.626 270.379 149.925 270.379 150.254V156H268.676V150.319C268.676 150.276 268.659 150.241 268.624 150.215C268.598 150.18 268.564 150.163 268.52 150.163H264.581C264.538 150.163 264.499 150.18 264.464 150.215C264.438 150.241 264.425 150.276 264.425 150.319V156H262.722ZM273.165 156C272.836 156 272.537 155.918 272.268 155.753C271.999 155.588 271.783 155.372 271.618 155.103C271.453 154.834 271.371 154.535 271.371 154.206V146.146H273.074V148.46H276.012V150.163H273.074V154.141C273.074 154.184 273.087 154.223 273.113 154.258C273.148 154.284 273.187 154.297 273.23 154.297H276.012V156H273.165ZM278.499 156C278.17 156 277.871 155.918 277.602 155.753C277.333 155.588 277.117 155.372 276.952 155.103C276.787 154.834 276.705 154.535 276.705 154.206V153.92H278.408V154.141C278.408 154.184 278.421 154.223 278.447 154.258C278.482 154.284 278.521 154.297 278.564 154.297H282.503C282.546 154.297 282.581 154.284 282.607 154.258C282.642 154.223 282.659 154.184 282.659 154.141V153.244C282.659 153.201 282.642 153.166 282.607 153.14C282.581 153.105 282.546 153.088 282.503 153.088H278.499C278.17 153.088 277.871 153.006 277.602 152.841C277.333 152.676 277.117 152.46 276.952 152.191C276.787 151.922 276.705 151.623 276.705 151.294V150.254C276.705 149.925 276.787 149.626 276.952 149.357C277.117 149.088 277.333 148.872 277.602 148.707C277.871 148.542 278.17 148.46 278.499 148.46H282.568C282.906 148.46 283.209 148.542 283.478 148.707C283.747 148.872 283.963 149.088 284.128 149.357C284.293 149.626 284.375 149.925 284.375 150.254V150.54H282.659V150.319C282.659 150.276 282.642 150.241 282.607 150.215C282.581 150.18 282.546 150.163 282.503 150.163H278.564C278.521 150.163 278.482 150.18 278.447 150.215C278.421 150.241 278.408 150.276 278.408 150.319V151.216C278.408 151.259 278.421 151.298 278.447 151.333C278.482 151.359 278.521 151.372 278.564 151.372H282.568C282.906 151.372 283.209 151.454 283.478 151.619C283.747 151.784 283.963 152 284.128 152.269C284.293 152.538 284.375 152.837 284.375 153.166V154.206C284.375 154.535 284.293 154.834 284.128 155.103C283.963 155.372 283.747 155.588 283.478 155.753C283.209 155.918 282.906 156 282.568 156H278.499ZM188.754 176V166.64H196.294C196.623 166.64 196.927 166.722 197.204 166.887C197.481 167.052 197.702 167.273 197.867 167.55C198.032 167.819 198.114 168.118 198.114 168.447V174.193C198.114 174.522 198.032 174.826 197.867 175.103C197.702 175.372 197.481 175.588 197.204 175.753C196.927 175.918 196.623 176 196.294 176H188.754ZM190.613 174.271H196.216C196.259 174.271 196.298 174.258 196.333 174.232C196.368 174.197 196.385 174.158 196.385 174.115V168.525C196.385 168.482 196.368 168.447 196.333 168.421C196.298 168.386 196.259 168.369 196.216 168.369H190.613C190.57 168.369 190.531 168.386 190.496 168.421C190.47 168.447 190.457 168.482 190.457 168.525V174.115C190.457 174.158 190.47 174.197 190.496 174.232C190.531 174.258 190.57 174.271 190.613 174.271ZM200.909 176C200.579 176 200.28 175.918 200.012 175.753C199.743 175.588 199.526 175.372 199.362 175.103C199.197 174.834 199.115 174.535 199.115 174.206V170.254C199.115 169.925 199.197 169.626 199.362 169.357C199.526 169.088 199.743 168.872 200.012 168.707C200.28 168.542 200.579 168.46 200.909 168.46H204.978C205.307 168.46 205.606 168.542 205.875 168.707C206.152 168.872 206.369 169.088 206.525 169.357C206.689 169.626 206.772 169.925 206.772 170.254V173.088H200.818V174.141C200.818 174.184 200.831 174.223 200.857 174.258C200.891 174.284 200.93 174.297 200.974 174.297H206.772V176H200.909ZM200.818 171.554H205.069V170.319C205.069 170.276 205.051 170.241 205.017 170.215C204.991 170.18 204.956 170.163 204.913 170.163H200.974C200.93 170.163 200.891 170.18 200.857 170.215C200.831 170.241 200.818 170.276 200.818 170.319V171.554ZM207.752 176V167.784C207.752 167.455 207.834 167.156 207.999 166.887C208.163 166.618 208.38 166.402 208.649 166.237C208.917 166.072 209.216 165.99 209.546 165.99H212.393V167.706H209.611C209.567 167.706 209.528 167.723 209.494 167.758C209.468 167.784 209.455 167.819 209.455 167.862V168.46H212.393V170.163H209.455V176H207.752ZM212.935 176V168.46H214.638V176H212.935ZM212.935 167.706V165.99H214.638V167.706H212.935ZM215.757 176V168.46H221.62C221.95 168.46 222.249 168.542 222.517 168.707C222.795 168.872 223.011 169.088 223.167 169.357C223.332 169.626 223.414 169.925 223.414 170.254V176H221.711V170.319C221.711 170.276 221.694 170.241 221.659 170.215C221.633 170.18 221.599 170.163 221.555 170.163H217.616C217.573 170.163 217.534 170.18 217.499 170.215C217.473 170.241 217.46 170.276 217.46 170.319V176H215.757ZM224.393 176V168.46H226.096V176H224.393ZM224.393 167.706V165.99H226.096V167.706H224.393ZM228.87 176C228.54 176 228.241 175.918 227.973 175.753C227.704 175.588 227.487 175.372 227.323 175.103C227.158 174.834 227.076 174.535 227.076 174.206V166.146H228.779V168.46H231.717V170.163H228.779V174.141C228.779 174.184 228.792 174.223 228.818 174.258C228.852 174.284 228.891 174.297 228.935 174.297H231.717V176H228.87ZM232.385 176V168.46H234.088V176H232.385ZM232.385 167.706V165.99H234.088V167.706H232.385ZM236.658 176C236.329 176 236.03 175.918 235.761 175.753C235.493 175.588 235.276 175.372 235.111 175.103C234.947 174.834 234.864 174.535 234.864 174.206V170.254C234.864 169.925 234.947 169.626 235.111 169.357C235.276 169.088 235.493 168.872 235.761 168.707C236.03 168.542 236.329 168.46 236.658 168.46H240.727C241.057 168.46 241.356 168.542 241.624 168.707C241.902 168.872 242.118 169.088 242.274 169.357C242.439 169.626 242.521 169.925 242.521 170.254V174.206C242.521 174.535 242.439 174.834 242.274 175.103C242.118 175.372 241.906 175.588 241.637 175.753C241.369 175.918 241.065 176 240.727 176H236.658ZM236.723 174.297H240.662C240.706 174.297 240.74 174.284 240.766 174.258C240.801 174.223 240.818 174.184 240.818 174.141V170.319C240.818 170.276 240.801 170.241 240.766 170.215C240.74 170.18 240.706 170.163 240.662 170.163H236.723C236.68 170.163 236.641 170.18 236.606 170.215C236.58 170.241 236.567 170.276 236.567 170.319V174.141C236.567 174.184 236.58 174.223 236.606 174.258C236.641 174.284 236.68 174.297 236.723 174.297ZM243.197 176V168.46H249.06C249.389 168.46 249.688 168.542 249.957 168.707C250.234 168.872 250.451 169.088 250.607 169.357C250.772 169.626 250.854 169.925 250.854 170.254V176H249.151V170.319C249.151 170.276 249.134 170.241 249.099 170.215C249.073 170.18 249.038 170.163 248.995 170.163H245.056C245.013 170.163 244.974 170.18 244.939 170.215C244.913 170.241 244.9 170.276 244.9 170.319V176H243.197Z" fill="white"/>
<path d="M292.496 315C292.167 315 291.863 314.918 291.586 314.753C291.317 314.588 291.101 314.372 290.936 314.103C290.771 313.826 290.689 313.522 290.689 313.193V312.478H292.405V313.115C292.405 313.158 292.418 313.197 292.444 313.232C292.479 313.258 292.518 313.271 292.561 313.271H298.164C298.207 313.271 298.242 313.258 298.268 313.232C298.303 313.197 298.32 313.158 298.32 313.115V311.334C298.32 311.291 298.303 311.256 298.268 311.23C298.242 311.204 298.207 311.191 298.164 311.191H292.496C292.167 311.191 291.863 311.109 291.586 310.944C291.317 310.779 291.101 310.563 290.936 310.294C290.771 310.017 290.689 309.709 290.689 309.371V307.447C290.689 307.118 290.771 306.819 290.936 306.55C291.101 306.273 291.317 306.052 291.586 305.887C291.863 305.722 292.167 305.64 292.496 305.64H298.242C298.571 305.64 298.87 305.722 299.139 305.887C299.416 306.052 299.637 306.273 299.802 306.55C299.967 306.819 300.049 307.118 300.049 307.447V308.162H298.32V307.525C298.32 307.482 298.303 307.447 298.268 307.421C298.242 307.386 298.207 307.369 298.164 307.369H292.561C292.518 307.369 292.479 307.386 292.444 307.421C292.418 307.447 292.405 307.482 292.405 307.525V309.306C292.405 309.349 292.418 309.384 292.444 309.41C292.479 309.436 292.518 309.449 292.561 309.449H298.242C298.571 309.449 298.87 309.531 299.139 309.696C299.416 309.861 299.637 310.082 299.802 310.359C299.967 310.628 300.049 310.931 300.049 311.269V313.193C300.049 313.522 299.967 313.826 299.802 314.103C299.637 314.372 299.416 314.588 299.139 314.753C298.87 314.918 298.571 315 298.242 315H292.496ZM302.157 317.795V316.079H306.694C306.738 316.079 306.772 316.062 306.798 316.027C306.833 316.001 306.85 315.966 306.85 315.923V315H302.69C302.37 315 302.071 314.918 301.793 314.753C301.525 314.588 301.308 314.372 301.143 314.103C300.979 313.834 300.896 313.535 300.896 313.206V307.486H302.599V313.141C302.599 313.184 302.612 313.223 302.638 313.258C302.673 313.284 302.712 313.297 302.755 313.297H306.694C306.738 313.297 306.772 313.284 306.798 313.258C306.833 313.223 306.85 313.184 306.85 313.141V307.486H308.553V316.001C308.553 316.33 308.475 316.629 308.319 316.898C308.163 317.175 307.947 317.392 307.669 317.548C307.401 317.713 307.102 317.795 306.772 317.795H302.157ZM311.189 315C310.859 315 310.56 314.918 310.292 314.753C310.023 314.588 309.806 314.372 309.642 314.103C309.477 313.834 309.395 313.535 309.395 313.206V312.92H311.098V313.141C311.098 313.184 311.111 313.223 311.137 313.258C311.171 313.284 311.21 313.297 311.254 313.297H315.193C315.236 313.297 315.271 313.284 315.297 313.258C315.331 313.223 315.349 313.184 315.349 313.141V312.244C315.349 312.201 315.331 312.166 315.297 312.14C315.271 312.105 315.236 312.088 315.193 312.088H311.189C310.859 312.088 310.56 312.006 310.292 311.841C310.023 311.676 309.806 311.46 309.642 311.191C309.477 310.922 309.395 310.623 309.395 310.294V309.254C309.395 308.925 309.477 308.626 309.642 308.357C309.806 308.088 310.023 307.872 310.292 307.707C310.56 307.542 310.859 307.46 311.189 307.46H315.258C315.596 307.46 315.899 307.542 316.168 307.707C316.436 307.872 316.653 308.088 316.818 308.357C316.982 308.626 317.065 308.925 317.065 309.254V309.54H315.349V309.319C315.349 309.276 315.331 309.241 315.297 309.215C315.271 309.18 315.236 309.163 315.193 309.163H311.254C311.21 309.163 311.171 309.18 311.137 309.215C311.111 309.241 311.098 309.276 311.098 309.319V310.216C311.098 310.259 311.111 310.298 311.137 310.333C311.171 310.359 311.21 310.372 311.254 310.372H315.258C315.596 310.372 315.899 310.454 316.168 310.619C316.436 310.784 316.653 311 316.818 311.269C316.982 311.538 317.065 311.837 317.065 312.166V313.206C317.065 313.535 316.982 313.834 316.818 314.103C316.653 314.372 316.436 314.588 316.168 314.753C315.899 314.918 315.596 315 315.258 315H311.189ZM319.776 315C319.447 315 319.148 314.918 318.879 314.753C318.61 314.588 318.394 314.372 318.229 314.103C318.064 313.834 317.982 313.535 317.982 313.206V305.146H319.685V307.46H322.623V309.163H319.685V313.141C319.685 313.184 319.698 313.223 319.724 313.258C319.759 313.284 319.798 313.297 319.841 313.297H322.623V315H319.776ZM325.06 315C324.731 315 324.432 314.918 324.163 314.753C323.894 314.588 323.678 314.372 323.513 314.103C323.348 313.834 323.266 313.535 323.266 313.206V309.254C323.266 308.925 323.348 308.626 323.513 308.357C323.678 308.088 323.894 307.872 324.163 307.707C324.432 307.542 324.731 307.46 325.06 307.46H329.129C329.458 307.46 329.757 307.542 330.026 307.707C330.303 307.872 330.52 308.088 330.676 308.357C330.841 308.626 330.923 308.925 330.923 309.254V312.088H324.969V313.141C324.969 313.184 324.982 313.223 325.008 313.258C325.043 313.284 325.082 313.297 325.125 313.297H330.923V315H325.06ZM324.969 310.554H329.22V309.319C329.22 309.276 329.203 309.241 329.168 309.215C329.142 309.18 329.107 309.163 329.064 309.163H325.125C325.082 309.163 325.043 309.18 325.008 309.215C324.982 309.241 324.969 309.276 324.969 309.319V310.554ZM331.916 315V307.46H341.263C341.601 307.46 341.904 307.542 342.173 307.707C342.442 307.872 342.654 308.088 342.81 308.357C342.975 308.626 343.057 308.925 343.057 309.254V315H341.367V309.319C341.367 309.276 341.35 309.241 341.315 309.215C341.28 309.18 341.241 309.163 341.198 309.163H338.507C338.464 309.163 338.425 309.18 338.39 309.215C338.364 309.241 338.351 309.276 338.351 309.319V315H336.635V309.319C336.635 309.276 336.618 309.241 336.583 309.215C336.557 309.18 336.522 309.163 336.479 309.163H333.775C333.732 309.163 333.693 309.18 333.658 309.215C333.632 309.241 333.619 309.276 333.619 309.319V315H331.916ZM347.87 315V305.64H355.41C355.739 305.64 356.042 305.722 356.32 305.887C356.597 306.052 356.818 306.273 356.983 306.55C357.147 306.819 357.23 307.118 357.23 307.447V313.193C357.23 313.522 357.147 313.826 356.983 314.103C356.818 314.372 356.597 314.588 356.32 314.753C356.042 314.918 355.739 315 355.41 315H347.87ZM349.729 313.271H355.332C355.375 313.271 355.414 313.258 355.449 313.232C355.483 313.197 355.501 313.158 355.501 313.115V307.525C355.501 307.482 355.483 307.447 355.449 307.421C355.414 307.386 355.375 307.369 355.332 307.369H349.729C349.685 307.369 349.646 307.386 349.612 307.421C349.586 307.447 349.573 307.482 349.573 307.525V313.115C349.573 313.158 349.586 313.197 349.612 313.232C349.646 313.258 349.685 313.271 349.729 313.271ZM360.024 315C359.695 315 359.396 314.918 359.127 314.753C358.859 314.588 358.642 314.372 358.477 314.103C358.313 313.834 358.23 313.535 358.23 313.206V309.254C358.23 308.925 358.313 308.626 358.477 308.357C358.642 308.088 358.859 307.872 359.127 307.707C359.396 307.542 359.695 307.46 360.024 307.46H364.093C364.423 307.46 364.722 307.542 364.99 307.707C365.268 307.872 365.484 308.088 365.64 308.357C365.805 308.626 365.887 308.925 365.887 309.254V312.088H359.933V313.141C359.933 313.184 359.946 313.223 359.972 313.258C360.007 313.284 360.046 313.297 360.089 313.297H365.887V315H360.024ZM359.933 310.554H364.184V309.319C364.184 309.276 364.167 309.241 364.132 309.215C364.106 309.18 364.072 309.163 364.028 309.163H360.089C360.046 309.163 360.007 309.18 359.972 309.215C359.946 309.241 359.933 309.276 359.933 309.319V310.554ZM368.508 315C368.178 315 367.879 314.918 367.611 314.753C367.342 314.588 367.125 314.372 366.961 314.103C366.796 313.834 366.714 313.535 366.714 313.206V312.92H368.417V313.141C368.417 313.184 368.43 313.223 368.456 313.258C368.49 313.284 368.529 313.297 368.573 313.297H372.512C372.555 313.297 372.59 313.284 372.616 313.258C372.65 313.223 372.668 313.184 372.668 313.141V312.244C372.668 312.201 372.65 312.166 372.616 312.14C372.59 312.105 372.555 312.088 372.512 312.088H368.508C368.178 312.088 367.879 312.006 367.611 311.841C367.342 311.676 367.125 311.46 366.961 311.191C366.796 310.922 366.714 310.623 366.714 310.294V309.254C366.714 308.925 366.796 308.626 366.961 308.357C367.125 308.088 367.342 307.872 367.611 307.707C367.879 307.542 368.178 307.46 368.508 307.46H372.577C372.915 307.46 373.218 307.542 373.487 307.707C373.755 307.872 373.972 308.088 374.137 308.357C374.301 308.626 374.384 308.925 374.384 309.254V309.54H372.668V309.319C372.668 309.276 372.65 309.241 372.616 309.215C372.59 309.18 372.555 309.163 372.512 309.163H368.573C368.529 309.163 368.49 309.18 368.456 309.215C368.43 309.241 368.417 309.276 368.417 309.319V310.216C368.417 310.259 368.43 310.298 368.456 310.333C368.49 310.359 368.529 310.372 368.573 310.372H372.577C372.915 310.372 373.218 310.454 373.487 310.619C373.755 310.784 373.972 311 374.137 311.269C374.301 311.538 374.384 311.837 374.384 312.166V313.206C374.384 313.535 374.301 313.834 374.137 314.103C373.972 314.372 373.755 314.588 373.487 314.753C373.218 314.918 372.915 315 372.577 315H368.508ZM375.288 315V307.46H376.991V315H375.288ZM375.288 306.706V304.99H376.991V306.706H375.288ZM378.898 317.977V316.261H383.435C383.478 316.261 383.513 316.244 383.539 316.209C383.573 316.183 383.591 316.148 383.591 316.105V315H379.431C379.11 315 378.811 314.918 378.534 314.753C378.265 314.588 378.048 314.372 377.884 314.103C377.719 313.834 377.637 313.535 377.637 313.206V309.254C377.637 308.925 377.719 308.626 377.884 308.357C378.048 308.088 378.265 307.872 378.534 307.707C378.811 307.542 379.11 307.46 379.431 307.46H383.513C383.842 307.46 384.141 307.542 384.41 307.707C384.678 307.872 384.891 308.088 385.047 308.357C385.211 308.626 385.294 308.925 385.294 309.254V316.183C385.294 316.521 385.216 316.824 385.06 317.093C384.904 317.362 384.687 317.574 384.41 317.73C384.141 317.895 383.842 317.977 383.513 317.977H378.898ZM379.496 313.297H383.435C383.478 313.297 383.513 313.284 383.539 313.258C383.573 313.223 383.591 313.184 383.591 313.141V309.319C383.591 309.276 383.573 309.241 383.539 309.215C383.513 309.18 383.478 309.163 383.435 309.163H379.496C379.452 309.163 379.413 309.18 379.379 309.215C379.353 309.241 379.34 309.276 379.34 309.319V313.141C379.34 313.184 379.353 313.223 379.379 313.258C379.413 313.284 379.452 313.297 379.496 313.297ZM386.29 315V307.46H392.153C392.482 307.46 392.781 307.542 393.05 307.707C393.327 307.872 393.544 308.088 393.7 308.357C393.864 308.626 393.947 308.925 393.947 309.254V315H392.244V309.319C392.244 309.276 392.226 309.241 392.192 309.215C392.166 309.18 392.131 309.163 392.088 309.163H388.149C388.105 309.163 388.066 309.18 388.032 309.215C388.006 309.241 387.993 309.276 387.993 309.319V315H386.29Z" fill="white"/>
<path d="M420.754 163V153.64H428.294C428.623 153.64 428.927 153.722 429.204 153.887C429.481 154.052 429.702 154.273 429.867 154.55C430.032 154.819 430.114 155.118 430.114 155.447V161.193C430.114 161.522 430.032 161.826 429.867 162.103C429.702 162.372 429.481 162.588 429.204 162.753C428.927 162.918 428.623 163 428.294 163H420.754ZM422.613 161.271H428.216C428.259 161.271 428.298 161.258 428.333 161.232C428.368 161.197 428.385 161.158 428.385 161.115V155.525C428.385 155.482 428.368 155.447 428.333 155.421C428.298 155.386 428.259 155.369 428.216 155.369H422.613C422.57 155.369 422.531 155.386 422.496 155.421C422.47 155.447 422.457 155.482 422.457 155.525V161.115C422.457 161.158 422.47 161.197 422.496 161.232C422.531 161.258 422.57 161.271 422.613 161.271ZM432.909 163C432.579 163 432.28 162.918 432.012 162.753C431.743 162.588 431.526 162.372 431.362 162.103C431.197 161.834 431.115 161.535 431.115 161.206V157.254C431.115 156.925 431.197 156.626 431.362 156.357C431.526 156.088 431.743 155.872 432.012 155.707C432.28 155.542 432.579 155.46 432.909 155.46H436.978C437.307 155.46 437.606 155.542 437.875 155.707C438.152 155.872 438.369 156.088 438.525 156.357C438.689 156.626 438.772 156.925 438.772 157.254V160.088H432.818V161.141C432.818 161.184 432.831 161.223 432.857 161.258C432.891 161.284 432.93 161.297 432.974 161.297H438.772V163H432.909ZM432.818 158.554H437.069V157.319C437.069 157.276 437.051 157.241 437.017 157.215C436.991 157.18 436.956 157.163 436.913 157.163H432.974C432.93 157.163 432.891 157.18 432.857 157.215C432.831 157.241 432.818 157.276 432.818 157.319V158.554ZM442.899 163L438.752 155.46H440.715L443.692 160.933L446.656 155.46H448.619L444.459 163H442.899ZM450.423 163C450.093 163 449.794 162.918 449.526 162.753C449.257 162.588 449.04 162.372 448.876 162.103C448.711 161.834 448.629 161.535 448.629 161.206V157.254C448.629 156.925 448.711 156.626 448.876 156.357C449.04 156.088 449.257 155.872 449.526 155.707C449.794 155.542 450.093 155.46 450.423 155.46H454.492C454.821 155.46 455.12 155.542 455.389 155.707C455.666 155.872 455.883 156.088 456.039 156.357C456.203 156.626 456.286 156.925 456.286 157.254V160.088H450.332V161.141C450.332 161.184 450.345 161.223 450.371 161.258C450.405 161.284 450.444 161.297 450.488 161.297H456.286V163H450.423ZM450.332 158.554H454.583V157.319C454.583 157.276 454.565 157.241 454.531 157.215C454.505 157.18 454.47 157.163 454.427 157.163H450.488C450.444 157.163 450.405 157.18 450.371 157.215C450.345 157.241 450.332 157.276 450.332 157.319V158.554ZM458.742 163C458.413 163 458.114 162.918 457.845 162.753C457.576 162.588 457.36 162.372 457.195 162.103C457.03 161.834 456.948 161.535 456.948 161.206V152.977H458.664V161.141C458.664 161.184 458.677 161.223 458.703 161.258C458.738 161.284 458.777 161.297 458.82 161.297H460.263V163H458.742ZM462.63 163C462.301 163 462.002 162.918 461.733 162.753C461.464 162.588 461.248 162.372 461.083 162.103C460.918 161.834 460.836 161.535 460.836 161.206V157.254C460.836 156.925 460.918 156.626 461.083 156.357C461.248 156.088 461.464 155.872 461.733 155.707C462.002 155.542 462.301 155.46 462.63 155.46H466.699C467.028 155.46 467.327 155.542 467.596 155.707C467.873 155.872 468.09 156.088 468.246 156.357C468.411 156.626 468.493 156.925 468.493 157.254V161.206C468.493 161.535 468.411 161.834 468.246 162.103C468.09 162.372 467.878 162.588 467.609 162.753C467.34 162.918 467.037 163 466.699 163H462.63ZM462.695 161.297H466.634C466.677 161.297 466.712 161.284 466.738 161.258C466.773 161.223 466.79 161.184 466.79 161.141V157.319C466.79 157.276 466.773 157.241 466.738 157.215C466.712 157.18 466.677 157.163 466.634 157.163H462.695C462.652 157.163 462.613 157.18 462.578 157.215C462.552 157.241 462.539 157.276 462.539 157.319V161.141C462.539 161.184 462.552 161.223 462.578 161.258C462.613 161.284 462.652 161.297 462.695 161.297ZM469.486 165.99V155.46H475.349C475.678 155.46 475.977 155.542 476.246 155.707C476.523 155.872 476.74 156.088 476.896 156.357C477.061 156.626 477.143 156.925 477.143 157.254V161.206C477.143 161.535 477.061 161.834 476.896 162.103C476.74 162.372 476.523 162.588 476.246 162.753C475.977 162.918 475.678 163 475.349 163H471.189V165.99H469.486ZM471.345 161.297H475.284C475.327 161.297 475.362 161.284 475.388 161.258C475.423 161.223 475.44 161.184 475.44 161.141V157.319C475.44 157.276 475.423 157.241 475.388 157.215C475.362 157.18 475.327 157.163 475.284 157.163H471.345C471.302 157.163 471.263 157.18 471.228 157.215C471.202 157.241 471.189 157.276 471.189 157.319V161.141C471.189 161.184 471.202 161.223 471.228 161.258C471.263 161.284 471.302 161.297 471.345 161.297ZM477.729 163V155.46H487.076C487.414 155.46 487.717 155.542 487.986 155.707C488.255 155.872 488.467 156.088 488.623 156.357C488.788 156.626 488.87 156.925 488.87 157.254V163H487.18V157.319C487.18 157.276 487.163 157.241 487.128 157.215C487.093 157.18 487.054 157.163 487.011 157.163H484.32C484.277 157.163 484.238 157.18 484.203 157.215C484.177 157.241 484.164 157.276 484.164 157.319V163H482.448V157.319C482.448 157.276 482.431 157.241 482.396 157.215C482.37 157.18 482.335 157.163 482.292 157.163H479.588C479.545 157.163 479.506 157.18 479.471 157.215C479.445 157.241 479.432 157.276 479.432 157.319V163H477.729ZM491.446 163C491.117 163 490.818 162.918 490.549 162.753C490.281 162.588 490.064 162.372 489.899 162.103C489.735 161.834 489.652 161.535 489.652 161.206V157.254C489.652 156.925 489.735 156.626 489.899 156.357C490.064 156.088 490.281 155.872 490.549 155.707C490.818 155.542 491.117 155.46 491.446 155.46H495.515C495.845 155.46 496.144 155.542 496.412 155.707C496.69 155.872 496.906 156.088 497.062 156.357C497.227 156.626 497.309 156.925 497.309 157.254V160.088H491.355V161.141C491.355 161.184 491.368 161.223 491.394 161.258C491.429 161.284 491.468 161.297 491.511 161.297H497.309V163H491.446ZM491.355 158.554H495.606V157.319C495.606 157.276 495.589 157.241 495.554 157.215C495.528 157.18 495.494 157.163 495.45 157.163H491.511C491.468 157.163 491.429 157.18 491.394 157.215C491.368 157.241 491.355 157.276 491.355 157.319V158.554ZM498.302 163V155.46H504.165C504.495 155.46 504.794 155.542 505.062 155.707C505.34 155.872 505.556 156.088 505.712 156.357C505.877 156.626 505.959 156.925 505.959 157.254V163H504.256V157.319C504.256 157.276 504.239 157.241 504.204 157.215C504.178 157.18 504.144 157.163 504.1 157.163H500.161C500.118 157.163 500.079 157.18 500.044 157.215C500.018 157.241 500.005 157.276 500.005 157.319V163H498.302ZM508.745 163C508.416 163 508.117 162.918 507.848 162.753C507.579 162.588 507.363 162.372 507.198 162.103C507.033 161.834 506.951 161.535 506.951 161.206V153.146H508.654V155.46H511.592V157.163H508.654V161.141C508.654 161.184 508.667 161.223 508.693 161.258C508.728 161.284 508.767 161.297 508.81 161.297H511.592V163H508.745Z" fill="white"/>
</g>
<path d="M402.689 252.25C396.651 262.708 387.991 271.413 377.565 277.506C367.138 283.599 355.304 286.87 343.228 286.996C331.152 287.123 319.252 284.1 308.7 278.227C298.148 272.354 289.308 263.833 283.052 253.503L297.914 244.502C302.606 252.249 309.236 258.64 317.15 263.045C325.064 267.45 333.989 269.717 343.046 269.622C352.103 269.527 360.978 267.074 368.799 262.504C376.619 257.935 383.113 251.406 387.642 243.563L402.689 252.25Z" fill="#190482"/>
<path d="M342.5 148C354.576 148 366.444 151.147 376.934 157.13C387.424 163.113 396.174 171.727 402.322 182.122C408.469 192.516 411.802 204.333 411.991 216.408C412.181 228.483 409.221 240.399 403.403 250.982L388.177 242.611C392.541 234.674 394.761 225.737 394.619 216.681C394.476 207.625 391.977 198.762 387.366 190.966C382.756 183.17 376.193 176.71 368.326 172.223C360.458 167.735 351.557 165.375 342.5 165.375V148Z" fill="#8E8FFA"/>
<path d="M282.311 252.25C276.273 241.792 273.064 229.94 273.001 217.864C272.938 205.788 276.022 193.903 281.951 183.382C287.879 172.861 296.447 164.066 306.809 157.864C317.171 151.663 328.971 148.268 341.045 148.015L341.408 165.386C332.353 165.576 323.503 168.122 315.732 172.773C307.96 177.425 301.534 184.021 297.088 191.912C292.642 199.802 290.328 208.716 290.376 217.773C290.423 226.83 292.83 235.719 297.358 243.562L282.311 252.25Z" fill="#7752FE"/>
<path d="M344.102 277.669C344.334 277.901 344.334 278.278 344.102 278.51L340.538 282.073C340.306 282.305 339.929 282.305 339.697 282.073C339.465 281.841 339.465 281.464 339.697 281.232L342.841 278.088L339.699 274.944C339.467 274.712 339.467 274.336 339.699 274.104C339.931 273.872 340.308 273.872 340.54 274.104L344.103 277.667L344.102 277.669Z" fill="white"/>
<path d="M289.586 188.798C289.269 188.883 288.943 188.695 288.858 188.378L287.554 183.51C287.469 183.193 287.657 182.867 287.974 182.782C288.291 182.697 288.617 182.886 288.702 183.202L289.853 187.497L294.147 186.348C294.463 186.263 294.79 186.452 294.875 186.768C294.96 187.085 294.771 187.412 294.454 187.497L289.587 188.801L289.586 188.798Z" fill="white"/>
<path d="M394.059 185.056C394.144 184.739 394.47 184.551 394.787 184.636L399.654 185.94C399.971 186.025 400.16 186.351 400.075 186.668C399.99 186.985 399.664 187.174 399.347 187.089L395.052 185.938L393.9 190.231C393.815 190.548 393.489 190.736 393.172 190.651C392.855 190.566 392.667 190.24 392.752 189.923L394.056 185.056L394.059 185.056Z" fill="white"/>
<path d="M253.061 205.061C253.646 204.475 253.646 203.525 253.061 202.939L243.515 193.393C242.929 192.808 241.979 192.808 241.393 193.393C240.808 193.979 240.808 194.929 241.393 195.515L249.879 204L241.393 212.485C240.808 213.071 240.808 214.021 241.393 214.607C241.979 215.192 242.929 215.192 243.515 214.607L253.061 205.061ZM129 205.5H252V202.5H129V205.5Z" fill="white"/>
<path d="M559.061 205.061C559.646 204.475 559.646 203.525 559.061 202.939L549.515 193.393C548.929 192.808 547.979 192.808 547.393 193.393C546.808 193.979 546.808 194.929 547.393 195.515L555.879 204L547.393 212.485C546.808 213.071 546.808 214.021 547.393 214.607C547.979 215.192 548.929 215.192 549.515 214.607L559.061 205.061ZM435 205.5H558V202.5H435V205.5Z" fill="white"/>
<defs>
<filter id="filter0_d_372_1886" x="0" y="0" width="711" height="368" filterUnits="userSpaceOnUse" color-interpolation-filters="sRGB">
<feFlood flood-opacity="0" result="BackgroundImageFix"/>
<feColorMatrix in="SourceAlpha" type="matrix" values="0 0 0 0 0 0 0 0 0 0 0 0 0 0 0 0 0 0 127 0" result="hardAlpha"/>
<feOffset dx="5" dy="5"/>
<feComposite in2="hardAlpha" operator="out"/>
<feColorMatrix type="matrix" values="0 0 0 0 0.356863 0 0 0 0 0.262745 0 0 0 0 0.956863 0 0 0 1 0"/>
<feBlend mode="normal" in2="BackgroundImageFix" result="effect1_dropShadow_372_1886"/>
<feBlend mode="normal" in="SourceGraphic" in2="effect1_dropShadow_372_1886" result="shape"/>
</filter>
</defs>
</svg>
