<svg width="711" height="368" viewBox="0 0 711 368" fill="none" xmlns="http://www.w3.org/2000/svg">
<g filter="url(#filter0_d_372_1721)">
<rect x="0.5" y="0.5" width="705" height="362" rx="10.5" fill="#252831" stroke="#393939"/>
<path d="M1 11C1 5.47715 5.47715 1 11 1H695C700.523 1 705 5.47715 705 11V36H1V11Z" fill="#15181F"/>
<ellipse cx="20.239" cy="20.3084" rx="5.41475" ry="5.70683" fill="#FF625B"/>
<ellipse cx="38.6726" cy="20.3084" rx="5.41475" ry="5.70683" fill="#FFBC34"/>
<ellipse cx="57.1062" cy="20.3084" rx="5.41475" ry="5.70683" fill="#24CB40"/>
<path d="M65.546 191.219V181.859H67.249V191.219H65.546ZM68.27 191.219V183.679H74.133C74.4623 183.679 74.7613 183.761 75.03 183.926C75.3073 184.09 75.524 184.307 75.68 184.576C75.8447 184.844 75.927 185.143 75.927 185.473V191.219H74.224V185.538C74.224 185.494 74.2067 185.46 74.172 185.434C74.146 185.399 74.1113 185.382 74.068 185.382H70.129C70.0857 185.382 70.0467 185.399 70.012 185.434C69.986 185.46 69.973 185.494 69.973 185.538V191.219H68.27ZM76.9058 191.219V183.679H78.6088V191.219H76.9058ZM76.9058 182.925V181.209H78.6088V182.925H76.9058ZM81.3823 191.219C81.053 191.219 80.754 191.136 80.4853 190.972C80.2167 190.807 80 190.59 79.8353 190.322C79.6707 190.053 79.5883 189.754 79.5883 189.425V181.365H81.2913V183.679H84.2293V185.382H81.2913V189.36C81.2913 189.403 81.3043 189.442 81.3303 189.477C81.365 189.503 81.404 189.516 81.4473 189.516H84.2293V191.219H81.3823ZM84.8982 191.219V183.679H86.6012V191.219H84.8982ZM84.8982 182.925V181.209H86.6012V182.925H84.8982ZM89.0444 191.219C88.7151 191.219 88.4117 191.136 88.1344 190.972C87.8657 190.807 87.6491 190.59 87.4844 190.322C87.3284 190.053 87.2504 189.754 87.2504 189.425V186.591H93.2044V185.538C93.2044 185.494 93.1871 185.46 93.1524 185.434C93.1264 185.399 93.0917 185.382 93.0484 185.382H87.2504V183.679H93.1134C93.4427 183.679 93.7417 183.761 94.0104 183.926C94.2877 184.09 94.5044 184.307 94.6604 184.576C94.8251 184.844 94.9074 185.143 94.9074 185.473V191.219H89.0444ZM89.1094 189.516H93.2044V188.125H88.9534V189.36C88.9534 189.403 88.9664 189.442 88.9924 189.477C89.0271 189.503 89.0661 189.516 89.1094 189.516ZM97.4015 191.219C97.0722 191.219 96.7732 191.136 96.5045 190.972C96.2358 190.807 96.0192 190.59 95.8545 190.322C95.6898 190.053 95.6075 189.754 95.6075 189.425V181.196H97.3235V189.36C97.3235 189.403 97.3365 189.442 97.3625 189.477C97.3972 189.503 97.4362 189.516 97.4795 189.516H98.9225V191.219H97.4015ZM65.546 211.219V201.859H67.249V211.219H65.546ZM68.27 211.219V203.679H74.133C74.4623 203.679 74.7613 203.761 75.03 203.926C75.3073 204.09 75.524 204.307 75.68 204.576C75.8447 204.844 75.927 205.143 75.927 205.473V211.219H74.224V205.538C74.224 205.494 74.2067 205.46 74.172 205.434C74.146 205.399 74.1113 205.382 74.068 205.382H70.129C70.0857 205.382 70.0467 205.399 70.012 205.434C69.986 205.46 69.973 205.494 69.973 205.538V211.219H68.27ZM80.6498 211.219L76.5028 203.679H78.4658L81.4428 209.152L84.4068 203.679H86.3698L82.2098 211.219H80.6498ZM88.1737 211.219C87.8444 211.219 87.5454 211.136 87.2767 210.972C87.0081 210.807 86.7914 210.59 86.6267 210.322C86.4621 210.053 86.3797 209.754 86.3797 209.425V205.473C86.3797 205.143 86.4621 204.844 86.6267 204.576C86.7914 204.307 87.0081 204.09 87.2767 203.926C87.5454 203.761 87.8444 203.679 88.1737 203.679H92.2427C92.5721 203.679 92.8711 203.761 93.1397 203.926C93.4171 204.09 93.6337 204.307 93.7897 204.576C93.9544 204.844 94.0367 205.143 94.0367 205.473V208.307H88.0827V209.36C88.0827 209.403 88.0957 209.442 88.1217 209.477C88.1564 209.503 88.1954 209.516 88.2387 209.516H94.0367V211.219H88.1737ZM88.0827 206.773H92.3337V205.538C92.3337 205.494 92.3164 205.46 92.2817 205.434C92.2557 205.399 92.2211 205.382 92.1777 205.382H88.2387C88.1954 205.382 88.1564 205.399 88.1217 205.434C88.0957 205.46 88.0827 205.494 88.0827 205.538V206.773ZM96.6568 211.219C96.3275 211.219 96.0285 211.136 95.7598 210.972C95.4912 210.807 95.2745 210.59 95.1098 210.322C94.9452 210.053 94.8628 209.754 94.8628 209.425V209.139H96.5658V209.36C96.5658 209.403 96.5788 209.442 96.6048 209.477C96.6395 209.503 96.6785 209.516 96.7218 209.516H100.661C100.704 209.516 100.739 209.503 100.765 209.477C100.799 209.442 100.817 209.403 100.817 209.36V208.463C100.817 208.419 100.799 208.385 100.765 208.359C100.739 208.324 100.704 208.307 100.661 208.307H96.6568C96.3275 208.307 96.0285 208.224 95.7598 208.06C95.4912 207.895 95.2745 207.678 95.1098 207.41C94.9452 207.141 94.8628 206.842 94.8628 206.513V205.473C94.8628 205.143 94.9452 204.844 95.1098 204.576C95.2745 204.307 95.4912 204.09 95.7598 203.926C96.0285 203.761 96.3275 203.679 96.6568 203.679H100.726C101.064 203.679 101.367 203.761 101.636 203.926C101.904 204.09 102.121 204.307 102.286 204.576C102.45 204.844 102.533 205.143 102.533 205.473V205.759H100.817V205.538C100.817 205.494 100.799 205.46 100.765 205.434C100.739 205.399 100.704 205.382 100.661 205.382H96.7218C96.6785 205.382 96.6395 205.399 96.6048 205.434C96.5788 205.46 96.5658 205.494 96.5658 205.538V206.435C96.5658 206.478 96.5788 206.517 96.6048 206.552C96.6395 206.578 96.6785 206.591 96.7218 206.591H100.726C101.064 206.591 101.367 206.673 101.636 206.838C101.904 207.002 102.121 207.219 102.286 207.488C102.45 207.756 102.533 208.055 102.533 208.385V209.425C102.533 209.754 102.45 210.053 102.286 210.322C102.121 210.59 101.904 210.807 101.636 210.972C101.367 211.136 101.064 211.219 100.726 211.219H96.6568ZM105.244 211.219C104.915 211.219 104.616 211.136 104.347 210.972C104.078 210.807 103.862 210.59 103.697 210.322C103.532 210.053 103.45 209.754 103.45 209.425V201.365H105.153V203.679H108.091V205.382H105.153V209.36C105.153 209.403 105.166 209.442 105.192 209.477C105.227 209.503 105.266 209.516 105.309 209.516H108.091V211.219H105.244ZM108.76 211.219V203.679H110.463V211.219H108.76ZM108.76 202.925V201.209H110.463V202.925H108.76ZM112.37 214.196V212.48H116.907C116.95 212.48 116.985 212.462 117.011 212.428C117.045 212.402 117.063 212.367 117.063 212.324V211.219H112.903C112.582 211.219 112.283 211.136 112.006 210.972C111.737 210.807 111.52 210.59 111.356 210.322C111.191 210.053 111.109 209.754 111.109 209.425V205.473C111.109 205.143 111.191 204.844 111.356 204.576C111.52 204.307 111.737 204.09 112.006 203.926C112.283 203.761 112.582 203.679 112.903 203.679H116.985C117.314 203.679 117.613 203.761 117.882 203.926C118.15 204.09 118.363 204.307 118.519 204.576C118.683 204.844 118.766 205.143 118.766 205.473V212.402C118.766 212.74 118.688 213.043 118.532 213.312C118.376 213.58 118.159 213.793 117.882 213.949C117.613 214.113 117.314 214.196 116.985 214.196H112.37ZM112.968 209.516H116.907C116.95 209.516 116.985 209.503 117.011 209.477C117.045 209.442 117.063 209.403 117.063 209.36V205.538C117.063 205.494 117.045 205.46 117.011 205.434C116.985 205.399 116.95 205.382 116.907 205.382H112.968C112.924 205.382 112.885 205.399 112.851 205.434C112.825 205.46 112.812 205.494 112.812 205.538V209.36C112.812 209.403 112.825 209.442 112.851 209.477C112.885 209.503 112.924 209.516 112.968 209.516ZM121.25 211.219C120.921 211.219 120.618 211.136 120.34 210.972C120.072 210.807 119.855 210.59 119.69 210.322C119.534 210.053 119.456 209.754 119.456 209.425V206.591H125.41V205.538C125.41 205.494 125.393 205.46 125.358 205.434C125.332 205.399 125.298 205.382 125.254 205.382H119.456V203.679H125.319C125.649 203.679 125.948 203.761 126.216 203.926C126.494 204.09 126.71 204.307 126.866 204.576C127.031 204.844 127.113 205.143 127.113 205.473V211.219H121.25ZM121.315 209.516H125.41V208.125H121.159V209.36C121.159 209.403 121.172 209.442 121.198 209.477C121.233 209.503 121.272 209.516 121.315 209.516ZM129.9 211.219C129.57 211.219 129.271 211.136 129.003 210.972C128.734 210.807 128.517 210.59 128.353 210.322C128.188 210.053 128.106 209.754 128.106 209.425V201.365H129.809V203.679H132.747V205.382H129.809V209.36C129.809 209.403 129.822 209.442 129.848 209.477C129.882 209.503 129.921 209.516 129.965 209.516H132.747V211.219H129.9ZM133.416 211.219V203.679H135.119V211.219H133.416ZM133.416 202.925V201.209H135.119V202.925H133.416ZM137.688 211.219C137.359 211.219 137.06 211.136 136.791 210.972C136.523 210.807 136.306 210.59 136.141 210.322C135.977 210.053 135.894 209.754 135.894 209.425V205.473C135.894 205.143 135.977 204.844 136.141 204.576C136.306 204.307 136.523 204.09 136.791 203.926C137.06 203.761 137.359 203.679 137.688 203.679H141.757C142.087 203.679 142.386 203.761 142.654 203.926C142.932 204.09 143.148 204.307 143.304 204.576C143.469 204.844 143.551 205.143 143.551 205.473V209.425C143.551 209.754 143.469 210.053 143.304 210.322C143.148 210.59 142.936 210.807 142.667 210.972C142.399 211.136 142.095 211.219 141.757 211.219H137.688ZM137.753 209.516H141.692C141.736 209.516 141.77 209.503 141.796 209.477C141.831 209.442 141.848 209.403 141.848 209.36V205.538C141.848 205.494 141.831 205.46 141.796 205.434C141.77 205.399 141.736 205.382 141.692 205.382H137.753C137.71 205.382 137.671 205.399 137.636 205.434C137.61 205.46 137.597 205.494 137.597 205.538V209.36C137.597 209.403 137.61 209.442 137.636 209.477C137.671 209.503 137.71 209.516 137.753 209.516ZM144.227 211.219V203.679H150.09C150.419 203.679 150.718 203.761 150.987 203.926C151.264 204.09 151.481 204.307 151.637 204.576C151.802 204.844 151.884 205.143 151.884 205.473V211.219H150.181V205.538C150.181 205.494 150.164 205.46 150.129 205.434C150.103 205.399 150.068 205.382 150.025 205.382H146.086C146.043 205.382 146.004 205.399 145.969 205.434C145.943 205.46 145.93 205.494 145.93 205.538V211.219H144.227Z" fill="white"/>
<path d="M190.19 216.508L187.369 213.141H189.618L192.062 216.027V216.508H190.19ZM182.728 216.508V207.161H190.268C190.597 207.161 190.901 207.243 191.178 207.408C191.455 207.572 191.676 207.793 191.841 208.071C192.006 208.339 192.088 208.638 192.088 208.968V211.49C192.088 211.819 192.006 212.122 191.841 212.4C191.676 212.677 191.455 212.898 191.178 213.063C190.901 213.219 190.597 213.297 190.268 213.297L184.444 213.31V216.508H182.728ZM184.6 211.568H190.19C190.233 211.568 190.272 211.555 190.307 211.529C190.342 211.503 190.359 211.468 190.359 211.425V209.033C190.359 208.989 190.342 208.955 190.307 208.929C190.272 208.894 190.233 208.877 190.19 208.877H184.6C184.557 208.877 184.518 208.894 184.483 208.929C184.457 208.955 184.444 208.989 184.444 209.033V211.425C184.444 211.468 184.457 211.503 184.483 211.529C184.518 211.555 184.557 211.568 184.6 211.568ZM194.795 216.508C194.465 216.508 194.166 216.425 193.898 216.261C193.629 216.096 193.412 215.879 193.248 215.611C193.083 215.342 193.001 215.043 193.001 214.714V210.762C193.001 210.432 193.083 210.133 193.248 209.865C193.412 209.596 193.629 209.379 193.898 209.215C194.166 209.05 194.465 208.968 194.795 208.968H198.864C199.193 208.968 199.492 209.05 199.761 209.215C200.038 209.379 200.255 209.596 200.411 209.865C200.575 210.133 200.658 210.432 200.658 210.762V213.596H194.704V214.649C194.704 214.692 194.717 214.731 194.743 214.766C194.777 214.792 194.816 214.805 194.86 214.805H200.658V216.508H194.795ZM194.704 212.062H198.955V210.827C198.955 210.783 198.937 210.749 198.903 210.723C198.877 210.688 198.842 210.671 198.799 210.671H194.86C194.816 210.671 194.777 210.688 194.743 210.723C194.717 210.749 194.704 210.783 194.704 210.827V212.062ZM207.176 219.498V216.508H203.003C202.665 216.508 202.361 216.425 202.093 216.261C201.824 216.096 201.607 215.879 201.443 215.611C201.287 215.342 201.209 215.043 201.209 214.714V210.762C201.209 210.432 201.287 210.133 201.443 209.865C201.607 209.596 201.824 209.379 202.093 209.215C202.361 209.05 202.665 208.968 203.003 208.968H208.879V219.498H207.176ZM203.081 214.805H207.02C207.063 214.805 207.098 214.792 207.124 214.766C207.158 214.731 207.176 214.692 207.176 214.649V210.827C207.176 210.783 207.158 210.749 207.124 210.723C207.098 210.688 207.063 210.671 207.02 210.671H203.081C203.037 210.671 202.998 210.688 202.964 210.723C202.938 210.749 202.925 210.783 202.925 210.827V214.649C202.925 214.692 202.938 214.731 202.964 214.766C202.998 214.792 203.037 214.805 203.081 214.805ZM211.42 216.508C211.091 216.508 210.788 216.425 210.51 216.261C210.242 216.096 210.025 215.879 209.86 215.611C209.704 215.342 209.626 215.043 209.626 214.714V208.968H211.329V214.649C211.329 214.692 211.342 214.731 211.368 214.766C211.403 214.792 211.442 214.805 211.485 214.805H215.424C215.468 214.805 215.502 214.792 215.528 214.766C215.563 214.731 215.58 214.692 215.58 214.649V208.968H217.283V214.714C217.283 215.043 217.201 215.342 217.036 215.611C216.88 215.879 216.668 216.096 216.399 216.261C216.131 216.425 215.827 216.508 215.489 216.508H211.42ZM218.262 216.508V208.968H219.965V216.508H218.262ZM218.262 208.214V206.498H219.965V208.214H218.262ZM221.021 216.508V210.762C221.021 210.432 221.103 210.133 221.268 209.865C221.433 209.596 221.649 209.379 221.918 209.215C222.195 209.05 222.494 208.968 222.815 208.968H227.001V210.671H222.88C222.837 210.671 222.798 210.688 222.763 210.723C222.737 210.749 222.724 210.783 222.724 210.827V216.508H221.021ZM229.293 216.508C228.963 216.508 228.664 216.425 228.396 216.261C228.127 216.096 227.91 215.879 227.746 215.611C227.581 215.342 227.499 215.043 227.499 214.714V210.762C227.499 210.432 227.581 210.133 227.746 209.865C227.91 209.596 228.127 209.379 228.396 209.215C228.664 209.05 228.963 208.968 229.293 208.968H233.362C233.691 208.968 233.99 209.05 234.259 209.215C234.536 209.379 234.753 209.596 234.909 209.865C235.073 210.133 235.156 210.432 235.156 210.762V213.596H229.202V214.649C229.202 214.692 229.215 214.731 229.241 214.766C229.275 214.792 229.314 214.805 229.358 214.805H235.156V216.508H229.293ZM229.202 212.062H233.453V210.827C233.453 210.783 233.435 210.749 233.401 210.723C233.375 210.688 233.34 210.671 233.297 210.671H229.358C229.314 210.671 229.275 210.688 229.241 210.723C229.215 210.749 229.202 210.783 229.202 210.827V212.062ZM236.149 216.508V208.968H245.496C245.834 208.968 246.137 209.05 246.406 209.215C246.674 209.379 246.887 209.596 247.043 209.865C247.207 210.133 247.29 210.432 247.29 210.762V216.508H245.6V210.827C245.6 210.783 245.582 210.749 245.548 210.723C245.513 210.688 245.474 210.671 245.431 210.671H242.74C242.696 210.671 242.657 210.688 242.623 210.723C242.597 210.749 242.584 210.783 242.584 210.827V216.508H240.868V210.827C240.868 210.783 240.85 210.749 240.816 210.723C240.79 210.688 240.755 210.671 240.712 210.671H238.008C237.964 210.671 237.925 210.688 237.891 210.723C237.865 210.749 237.852 210.783 237.852 210.827V216.508H236.149ZM249.866 216.508C249.537 216.508 249.238 216.425 248.969 216.261C248.701 216.096 248.484 215.879 248.319 215.611C248.155 215.342 248.072 215.043 248.072 214.714V210.762C248.072 210.432 248.155 210.133 248.319 209.865C248.484 209.596 248.701 209.379 248.969 209.215C249.238 209.05 249.537 208.968 249.866 208.968H253.935C254.265 208.968 254.564 209.05 254.832 209.215C255.11 209.379 255.326 209.596 255.482 209.865C255.647 210.133 255.729 210.432 255.729 210.762V213.596H249.775V214.649C249.775 214.692 249.788 214.731 249.814 214.766C249.849 214.792 249.888 214.805 249.931 214.805H255.729V216.508H249.866ZM249.775 212.062H254.026V210.827C254.026 210.783 254.009 210.749 253.974 210.723C253.948 210.688 253.914 210.671 253.87 210.671H249.931C249.888 210.671 249.849 210.688 249.814 210.723C249.788 210.749 249.775 210.783 249.775 210.827V212.062ZM256.722 216.508V208.968H262.585C262.915 208.968 263.214 209.05 263.482 209.215C263.76 209.379 263.976 209.596 264.132 209.865C264.297 210.133 264.379 210.432 264.379 210.762V216.508H262.676V210.827C262.676 210.783 262.659 210.749 262.624 210.723C262.598 210.688 262.564 210.671 262.52 210.671H258.581C258.538 210.671 258.499 210.688 258.464 210.723C258.438 210.749 258.425 210.783 258.425 210.827V216.508H256.722ZM267.165 216.508C266.836 216.508 266.537 216.425 266.268 216.261C265.999 216.096 265.783 215.879 265.618 215.611C265.453 215.342 265.371 215.043 265.371 214.714V206.654H267.074V208.968H270.012V210.671H267.074V214.649C267.074 214.692 267.087 214.731 267.113 214.766C267.148 214.792 267.187 214.805 267.23 214.805H270.012V216.508H267.165ZM272.499 216.508C272.17 216.508 271.871 216.425 271.602 216.261C271.333 216.096 271.117 215.879 270.952 215.611C270.787 215.342 270.705 215.043 270.705 214.714V214.428H272.408V214.649C272.408 214.692 272.421 214.731 272.447 214.766C272.482 214.792 272.521 214.805 272.564 214.805H276.503C276.546 214.805 276.581 214.792 276.607 214.766C276.642 214.731 276.659 214.692 276.659 214.649V213.752C276.659 213.708 276.642 213.674 276.607 213.648C276.581 213.613 276.546 213.596 276.503 213.596H272.499C272.17 213.596 271.871 213.513 271.602 213.349C271.333 213.184 271.117 212.967 270.952 212.699C270.787 212.43 270.705 212.131 270.705 211.802V210.762C270.705 210.432 270.787 210.133 270.952 209.865C271.117 209.596 271.333 209.379 271.602 209.215C271.871 209.05 272.17 208.968 272.499 208.968H276.568C276.906 208.968 277.209 209.05 277.478 209.215C277.747 209.379 277.963 209.596 278.128 209.865C278.293 210.133 278.375 210.432 278.375 210.762V211.048H276.659V210.827C276.659 210.783 276.642 210.749 276.607 210.723C276.581 210.688 276.546 210.671 276.503 210.671H272.564C272.521 210.671 272.482 210.688 272.447 210.723C272.421 210.749 272.408 210.783 272.408 210.827V211.724C272.408 211.767 272.421 211.806 272.447 211.841C272.482 211.867 272.521 211.88 272.564 211.88H276.568C276.906 211.88 277.209 211.962 277.478 212.127C277.747 212.291 277.963 212.508 278.128 212.777C278.293 213.045 278.375 213.344 278.375 213.674V214.714C278.375 215.043 278.293 215.342 278.128 215.611C277.963 215.879 277.747 216.096 277.478 216.261C277.209 216.425 276.906 216.508 276.568 216.508H272.499ZM182.754 236.508V227.148H190.294C190.623 227.148 190.927 227.23 191.204 227.395C191.481 227.559 191.702 227.78 191.867 228.058C192.032 228.326 192.114 228.625 192.114 228.955V234.701C192.114 235.03 192.032 235.333 191.867 235.611C191.702 235.879 191.481 236.096 191.204 236.261C190.927 236.425 190.623 236.508 190.294 236.508H182.754ZM184.613 234.779H190.216C190.259 234.779 190.298 234.766 190.333 234.74C190.368 234.705 190.385 234.666 190.385 234.623V229.033C190.385 228.989 190.368 228.955 190.333 228.929C190.298 228.894 190.259 228.877 190.216 228.877H184.613C184.57 228.877 184.531 228.894 184.496 228.929C184.47 228.955 184.457 228.989 184.457 229.033V234.623C184.457 234.666 184.47 234.705 184.496 234.74C184.531 234.766 184.57 234.779 184.613 234.779ZM194.909 236.508C194.579 236.508 194.28 236.425 194.012 236.261C193.743 236.096 193.526 235.879 193.362 235.611C193.197 235.342 193.115 235.043 193.115 234.714V230.762C193.115 230.432 193.197 230.133 193.362 229.865C193.526 229.596 193.743 229.379 194.012 229.215C194.28 229.05 194.579 228.968 194.909 228.968H198.978C199.307 228.968 199.606 229.05 199.875 229.215C200.152 229.379 200.369 229.596 200.525 229.865C200.689 230.133 200.772 230.432 200.772 230.762V233.596H194.818V234.649C194.818 234.692 194.831 234.731 194.857 234.766C194.891 234.792 194.93 234.805 194.974 234.805H200.772V236.508H194.909ZM194.818 232.062H199.069V230.827C199.069 230.783 199.051 230.749 199.017 230.723C198.991 230.688 198.956 230.671 198.913 230.671H194.974C194.93 230.671 194.891 230.688 194.857 230.723C194.831 230.749 194.818 230.783 194.818 230.827V232.062ZM201.752 236.508V228.292C201.752 227.962 201.834 227.663 201.999 227.395C202.163 227.126 202.38 226.909 202.649 226.745C202.917 226.58 203.216 226.498 203.546 226.498H206.393V228.214H203.611C203.567 228.214 203.528 228.231 203.494 228.266C203.468 228.292 203.455 228.326 203.455 228.37V228.968H206.393V230.671H203.455V236.508H201.752ZM206.935 236.508V228.968H208.638V236.508H206.935ZM206.935 228.214V226.498H208.638V228.214H206.935ZM209.757 236.508V228.968H215.62C215.95 228.968 216.249 229.05 216.517 229.215C216.795 229.379 217.011 229.596 217.167 229.865C217.332 230.133 217.414 230.432 217.414 230.762V236.508H215.711V230.827C215.711 230.783 215.694 230.749 215.659 230.723C215.633 230.688 215.599 230.671 215.555 230.671H211.616C211.573 230.671 211.534 230.688 211.499 230.723C211.473 230.749 211.46 230.783 211.46 230.827V236.508H209.757ZM218.393 236.508V228.968H220.096V236.508H218.393ZM218.393 228.214V226.498H220.096V228.214H218.393ZM222.87 236.508C222.54 236.508 222.241 236.425 221.973 236.261C221.704 236.096 221.487 235.879 221.323 235.611C221.158 235.342 221.076 235.043 221.076 234.714V226.654H222.779V228.968H225.717V230.671H222.779V234.649C222.779 234.692 222.792 234.731 222.818 234.766C222.852 234.792 222.891 234.805 222.935 234.805H225.717V236.508H222.87ZM226.385 236.508V228.968H228.088V236.508H226.385ZM226.385 228.214V226.498H228.088V228.214H226.385ZM230.658 236.508C230.329 236.508 230.03 236.425 229.761 236.261C229.493 236.096 229.276 235.879 229.111 235.611C228.947 235.342 228.864 235.043 228.864 234.714V230.762C228.864 230.432 228.947 230.133 229.111 229.865C229.276 229.596 229.493 229.379 229.761 229.215C230.03 229.05 230.329 228.968 230.658 228.968H234.727C235.057 228.968 235.356 229.05 235.624 229.215C235.902 229.379 236.118 229.596 236.274 229.865C236.439 230.133 236.521 230.432 236.521 230.762V234.714C236.521 235.043 236.439 235.342 236.274 235.611C236.118 235.879 235.906 236.096 235.637 236.261C235.369 236.425 235.065 236.508 234.727 236.508H230.658ZM230.723 234.805H234.662C234.706 234.805 234.74 234.792 234.766 234.766C234.801 234.731 234.818 234.692 234.818 234.649V230.827C234.818 230.783 234.801 230.749 234.766 230.723C234.74 230.688 234.706 230.671 234.662 230.671H230.723C230.68 230.671 230.641 230.688 230.606 230.723C230.58 230.749 230.567 230.783 230.567 230.827V234.649C230.567 234.692 230.58 234.731 230.606 234.766C230.641 234.792 230.68 234.805 230.723 234.805ZM237.197 236.508V228.968H243.06C243.389 228.968 243.688 229.05 243.957 229.215C244.234 229.379 244.451 229.596 244.607 229.865C244.772 230.133 244.854 230.432 244.854 230.762V236.508H243.151V230.827C243.151 230.783 243.134 230.749 243.099 230.723C243.073 230.688 243.038 230.671 242.995 230.671H239.056C239.013 230.671 238.974 230.688 238.939 230.723C238.913 230.749 238.9 230.783 238.9 230.827V236.508H237.197Z" fill="white"/>
<path d="M301.496 241.805C301.167 241.805 300.863 241.722 300.586 241.558C300.317 241.393 300.101 241.176 299.936 240.908C299.771 240.63 299.689 240.327 299.689 239.998V239.283H301.405V239.92C301.405 239.963 301.418 240.002 301.444 240.037C301.479 240.063 301.518 240.076 301.561 240.076H307.164C307.207 240.076 307.242 240.063 307.268 240.037C307.303 240.002 307.32 239.963 307.32 239.92V238.139C307.32 238.095 307.303 238.061 307.268 238.035C307.242 238.009 307.207 237.996 307.164 237.996H301.496C301.167 237.996 300.863 237.913 300.586 237.749C300.317 237.584 300.101 237.367 299.936 237.099C299.771 236.821 299.689 236.514 299.689 236.176V234.252C299.689 233.922 299.771 233.623 299.936 233.355C300.101 233.077 300.317 232.856 300.586 232.692C300.863 232.527 301.167 232.445 301.496 232.445H307.242C307.571 232.445 307.87 232.527 308.139 232.692C308.416 232.856 308.637 233.077 308.802 233.355C308.967 233.623 309.049 233.922 309.049 234.252V234.967H307.32V234.33C307.32 234.286 307.303 234.252 307.268 234.226C307.242 234.191 307.207 234.174 307.164 234.174H301.561C301.518 234.174 301.479 234.191 301.444 234.226C301.418 234.252 301.405 234.286 301.405 234.33V236.111C301.405 236.154 301.418 236.189 301.444 236.215C301.479 236.241 301.518 236.254 301.561 236.254H307.242C307.571 236.254 307.87 236.336 308.139 236.501C308.416 236.665 308.637 236.886 308.802 237.164C308.967 237.432 309.049 237.736 309.049 238.074V239.998C309.049 240.327 308.967 240.63 308.802 240.908C308.637 241.176 308.416 241.393 308.139 241.558C307.87 241.722 307.571 241.805 307.242 241.805H301.496ZM311.157 244.6V242.884H315.694C315.738 242.884 315.772 242.866 315.798 242.832C315.833 242.806 315.85 242.771 315.85 242.728V241.805H311.69C311.37 241.805 311.071 241.722 310.793 241.558C310.525 241.393 310.308 241.176 310.143 240.908C309.979 240.639 309.896 240.34 309.896 240.011V234.291H311.599V239.946C311.599 239.989 311.612 240.028 311.638 240.063C311.673 240.089 311.712 240.102 311.755 240.102H315.694C315.738 240.102 315.772 240.089 315.798 240.063C315.833 240.028 315.85 239.989 315.85 239.946V234.291H317.553V242.806C317.553 243.135 317.475 243.434 317.319 243.703C317.163 243.98 316.947 244.197 316.669 244.353C316.401 244.517 316.102 244.6 315.772 244.6H311.157ZM320.189 241.805C319.859 241.805 319.56 241.722 319.292 241.558C319.023 241.393 318.806 241.176 318.642 240.908C318.477 240.639 318.395 240.34 318.395 240.011V239.725H320.098V239.946C320.098 239.989 320.111 240.028 320.137 240.063C320.171 240.089 320.21 240.102 320.254 240.102H324.193C324.236 240.102 324.271 240.089 324.297 240.063C324.331 240.028 324.349 239.989 324.349 239.946V239.049C324.349 239.005 324.331 238.971 324.297 238.945C324.271 238.91 324.236 238.893 324.193 238.893H320.189C319.859 238.893 319.56 238.81 319.292 238.646C319.023 238.481 318.806 238.264 318.642 237.996C318.477 237.727 318.395 237.428 318.395 237.099V236.059C318.395 235.729 318.477 235.43 318.642 235.162C318.806 234.893 319.023 234.676 319.292 234.512C319.56 234.347 319.859 234.265 320.189 234.265H324.258C324.596 234.265 324.899 234.347 325.168 234.512C325.436 234.676 325.653 234.893 325.818 235.162C325.982 235.43 326.065 235.729 326.065 236.059V236.345H324.349V236.124C324.349 236.08 324.331 236.046 324.297 236.02C324.271 235.985 324.236 235.968 324.193 235.968H320.254C320.21 235.968 320.171 235.985 320.137 236.02C320.111 236.046 320.098 236.08 320.098 236.124V237.021C320.098 237.064 320.111 237.103 320.137 237.138C320.171 237.164 320.21 237.177 320.254 237.177H324.258C324.596 237.177 324.899 237.259 325.168 237.424C325.436 237.588 325.653 237.805 325.818 238.074C325.982 238.342 326.065 238.641 326.065 238.971V240.011C326.065 240.34 325.982 240.639 325.818 240.908C325.653 241.176 325.436 241.393 325.168 241.558C324.899 241.722 324.596 241.805 324.258 241.805H320.189ZM328.776 241.805C328.447 241.805 328.148 241.722 327.879 241.558C327.61 241.393 327.394 241.176 327.229 240.908C327.064 240.639 326.982 240.34 326.982 240.011V231.951H328.685V234.265H331.623V235.968H328.685V239.946C328.685 239.989 328.698 240.028 328.724 240.063C328.759 240.089 328.798 240.102 328.841 240.102H331.623V241.805H328.776ZM334.06 241.805C333.731 241.805 333.432 241.722 333.163 241.558C332.894 241.393 332.678 241.176 332.513 240.908C332.348 240.639 332.266 240.34 332.266 240.011V236.059C332.266 235.729 332.348 235.43 332.513 235.162C332.678 234.893 332.894 234.676 333.163 234.512C333.432 234.347 333.731 234.265 334.06 234.265H338.129C338.458 234.265 338.757 234.347 339.026 234.512C339.303 234.676 339.52 234.893 339.676 235.162C339.841 235.43 339.923 235.729 339.923 236.059V238.893H333.969V239.946C333.969 239.989 333.982 240.028 334.008 240.063C334.043 240.089 334.082 240.102 334.125 240.102H339.923V241.805H334.06ZM333.969 237.359H338.22V236.124C338.22 236.08 338.203 236.046 338.168 236.02C338.142 235.985 338.107 235.968 338.064 235.968H334.125C334.082 235.968 334.043 235.985 334.008 236.02C333.982 236.046 333.969 236.08 333.969 236.124V237.359ZM340.916 241.805V234.265H350.263C350.601 234.265 350.904 234.347 351.173 234.512C351.442 234.676 351.654 234.893 351.81 235.162C351.975 235.43 352.057 235.729 352.057 236.059V241.805H350.367V236.124C350.367 236.08 350.35 236.046 350.315 236.02C350.28 235.985 350.241 235.968 350.198 235.968H347.507C347.464 235.968 347.425 235.985 347.39 236.02C347.364 236.046 347.351 236.08 347.351 236.124V241.805H345.635V236.124C345.635 236.08 345.618 236.046 345.583 236.02C345.557 235.985 345.522 235.968 345.479 235.968H342.775C342.732 235.968 342.693 235.985 342.658 236.02C342.632 236.046 342.619 236.08 342.619 236.124V241.805H340.916ZM356.87 241.805V232.445H364.41C364.739 232.445 365.042 232.527 365.32 232.692C365.597 232.856 365.818 233.077 365.983 233.355C366.147 233.623 366.23 233.922 366.23 234.252V239.998C366.23 240.327 366.147 240.63 365.983 240.908C365.818 241.176 365.597 241.393 365.32 241.558C365.042 241.722 364.739 241.805 364.41 241.805H356.87ZM358.729 240.076H364.332C364.375 240.076 364.414 240.063 364.449 240.037C364.483 240.002 364.501 239.963 364.501 239.92V234.33C364.501 234.286 364.483 234.252 364.449 234.226C364.414 234.191 364.375 234.174 364.332 234.174H358.729C358.685 234.174 358.646 234.191 358.612 234.226C358.586 234.252 358.573 234.286 358.573 234.33V239.92C358.573 239.963 358.586 240.002 358.612 240.037C358.646 240.063 358.685 240.076 358.729 240.076ZM369.024 241.805C368.695 241.805 368.396 241.722 368.127 241.558C367.859 241.393 367.642 241.176 367.477 240.908C367.313 240.639 367.23 240.34 367.23 240.011V236.059C367.23 235.729 367.313 235.43 367.477 235.162C367.642 234.893 367.859 234.676 368.127 234.512C368.396 234.347 368.695 234.265 369.024 234.265H373.093C373.423 234.265 373.722 234.347 373.99 234.512C374.268 234.676 374.484 234.893 374.64 235.162C374.805 235.43 374.887 235.729 374.887 236.059V238.893H368.933V239.946C368.933 239.989 368.946 240.028 368.972 240.063C369.007 240.089 369.046 240.102 369.089 240.102H374.887V241.805H369.024ZM368.933 237.359H373.184V236.124C373.184 236.08 373.167 236.046 373.132 236.02C373.106 235.985 373.072 235.968 373.028 235.968H369.089C369.046 235.968 369.007 235.985 368.972 236.02C368.946 236.046 368.933 236.08 368.933 236.124V237.359ZM377.508 241.805C377.178 241.805 376.879 241.722 376.611 241.558C376.342 241.393 376.125 241.176 375.961 240.908C375.796 240.639 375.714 240.34 375.714 240.011V239.725H377.417V239.946C377.417 239.989 377.43 240.028 377.456 240.063C377.49 240.089 377.529 240.102 377.573 240.102H381.512C381.555 240.102 381.59 240.089 381.616 240.063C381.65 240.028 381.668 239.989 381.668 239.946V239.049C381.668 239.005 381.65 238.971 381.616 238.945C381.59 238.91 381.555 238.893 381.512 238.893H377.508C377.178 238.893 376.879 238.81 376.611 238.646C376.342 238.481 376.125 238.264 375.961 237.996C375.796 237.727 375.714 237.428 375.714 237.099V236.059C375.714 235.729 375.796 235.43 375.961 235.162C376.125 234.893 376.342 234.676 376.611 234.512C376.879 234.347 377.178 234.265 377.508 234.265H381.577C381.915 234.265 382.218 234.347 382.487 234.512C382.755 234.676 382.972 234.893 383.137 235.162C383.301 235.43 383.384 235.729 383.384 236.059V236.345H381.668V236.124C381.668 236.08 381.65 236.046 381.616 236.02C381.59 235.985 381.555 235.968 381.512 235.968H377.573C377.529 235.968 377.49 235.985 377.456 236.02C377.43 236.046 377.417 236.08 377.417 236.124V237.021C377.417 237.064 377.43 237.103 377.456 237.138C377.49 237.164 377.529 237.177 377.573 237.177H381.577C381.915 237.177 382.218 237.259 382.487 237.424C382.755 237.588 382.972 237.805 383.137 238.074C383.301 238.342 383.384 238.641 383.384 238.971V240.011C383.384 240.34 383.301 240.639 383.137 240.908C382.972 241.176 382.755 241.393 382.487 241.558C382.218 241.722 381.915 241.805 381.577 241.805H377.508ZM384.288 241.805V234.265H385.991V241.805H384.288ZM384.288 233.511V231.795H385.991V233.511H384.288ZM387.898 244.782V243.066H392.435C392.478 243.066 392.513 243.048 392.539 243.014C392.573 242.988 392.591 242.953 392.591 242.91V241.805H388.431C388.11 241.805 387.811 241.722 387.534 241.558C387.265 241.393 387.048 241.176 386.884 240.908C386.719 240.639 386.637 240.34 386.637 240.011V236.059C386.637 235.729 386.719 235.43 386.884 235.162C387.048 234.893 387.265 234.676 387.534 234.512C387.811 234.347 388.11 234.265 388.431 234.265H392.513C392.842 234.265 393.141 234.347 393.41 234.512C393.678 234.676 393.891 234.893 394.047 235.162C394.211 235.43 394.294 235.729 394.294 236.059V242.988C394.294 243.326 394.216 243.629 394.06 243.898C393.904 244.166 393.687 244.379 393.41 244.535C393.141 244.699 392.842 244.782 392.513 244.782H387.898ZM388.496 240.102H392.435C392.478 240.102 392.513 240.089 392.539 240.063C392.573 240.028 392.591 239.989 392.591 239.946V236.124C392.591 236.08 392.573 236.046 392.539 236.02C392.513 235.985 392.478 235.968 392.435 235.968H388.496C388.452 235.968 388.413 235.985 388.379 236.02C388.353 236.046 388.34 236.08 388.34 236.124V239.946C388.34 239.989 388.353 240.028 388.379 240.063C388.413 240.089 388.452 240.102 388.496 240.102ZM395.29 241.805V234.265H401.153C401.482 234.265 401.781 234.347 402.05 234.512C402.327 234.676 402.544 234.893 402.7 235.162C402.864 235.43 402.947 235.729 402.947 236.059V241.805H401.244V236.124C401.244 236.08 401.226 236.046 401.192 236.02C401.166 235.985 401.131 235.968 401.088 235.968H397.149C397.105 235.968 397.066 235.985 397.032 236.02C397.006 236.046 396.993 236.08 396.993 236.124V241.805H395.29Z" fill="white"/>
<path d="M416.754 267.102V257.742H424.294C424.623 257.742 424.927 257.824 425.204 257.989C425.481 258.153 425.702 258.374 425.867 258.652C426.032 258.92 426.114 259.219 426.114 259.549V265.295C426.114 265.624 426.032 265.927 425.867 266.205C425.702 266.473 425.481 266.69 425.204 266.855C424.927 267.019 424.623 267.102 424.294 267.102H416.754ZM418.613 265.373H424.216C424.259 265.373 424.298 265.36 424.333 265.334C424.368 265.299 424.385 265.26 424.385 265.217V259.627C424.385 259.583 424.368 259.549 424.333 259.523C424.298 259.488 424.259 259.471 424.216 259.471H418.613C418.57 259.471 418.531 259.488 418.496 259.523C418.47 259.549 418.457 259.583 418.457 259.627V265.217C418.457 265.26 418.47 265.299 418.496 265.334C418.531 265.36 418.57 265.373 418.613 265.373ZM428.909 267.102C428.579 267.102 428.28 267.019 428.012 266.855C427.743 266.69 427.526 266.473 427.362 266.205C427.197 265.936 427.115 265.637 427.115 265.308V261.356C427.115 261.026 427.197 260.727 427.362 260.459C427.526 260.19 427.743 259.973 428.012 259.809C428.28 259.644 428.579 259.562 428.909 259.562H432.978C433.307 259.562 433.606 259.644 433.875 259.809C434.152 259.973 434.369 260.19 434.525 260.459C434.689 260.727 434.772 261.026 434.772 261.356V264.19H428.818V265.243C428.818 265.286 428.831 265.325 428.857 265.36C428.891 265.386 428.93 265.399 428.974 265.399H434.772V267.102H428.909ZM428.818 262.656H433.069V261.421C433.069 261.377 433.051 261.343 433.017 261.317C432.991 261.282 432.956 261.265 432.913 261.265H428.974C428.93 261.265 428.891 261.282 428.857 261.317C428.831 261.343 428.818 261.377 428.818 261.421V262.656ZM438.899 267.102L434.752 259.562H436.715L439.692 265.035L442.656 259.562H444.619L440.459 267.102H438.899ZM446.423 267.102C446.093 267.102 445.794 267.019 445.526 266.855C445.257 266.69 445.04 266.473 444.876 266.205C444.711 265.936 444.629 265.637 444.629 265.308V261.356C444.629 261.026 444.711 260.727 444.876 260.459C445.04 260.19 445.257 259.973 445.526 259.809C445.794 259.644 446.093 259.562 446.423 259.562H450.492C450.821 259.562 451.12 259.644 451.389 259.809C451.666 259.973 451.883 260.19 452.039 260.459C452.203 260.727 452.286 261.026 452.286 261.356V264.19H446.332V265.243C446.332 265.286 446.345 265.325 446.371 265.36C446.405 265.386 446.444 265.399 446.488 265.399H452.286V267.102H446.423ZM446.332 262.656H450.583V261.421C450.583 261.377 450.565 261.343 450.531 261.317C450.505 261.282 450.47 261.265 450.427 261.265H446.488C446.444 261.265 446.405 261.282 446.371 261.317C446.345 261.343 446.332 261.377 446.332 261.421V262.656ZM454.742 267.102C454.413 267.102 454.114 267.019 453.845 266.855C453.576 266.69 453.36 266.473 453.195 266.205C453.03 265.936 452.948 265.637 452.948 265.308V257.079H454.664V265.243C454.664 265.286 454.677 265.325 454.703 265.36C454.738 265.386 454.777 265.399 454.82 265.399H456.263V267.102H454.742ZM458.63 267.102C458.301 267.102 458.002 267.019 457.733 266.855C457.464 266.69 457.248 266.473 457.083 266.205C456.918 265.936 456.836 265.637 456.836 265.308V261.356C456.836 261.026 456.918 260.727 457.083 260.459C457.248 260.19 457.464 259.973 457.733 259.809C458.002 259.644 458.301 259.562 458.63 259.562H462.699C463.028 259.562 463.327 259.644 463.596 259.809C463.873 259.973 464.09 260.19 464.246 260.459C464.411 260.727 464.493 261.026 464.493 261.356V265.308C464.493 265.637 464.411 265.936 464.246 266.205C464.09 266.473 463.878 266.69 463.609 266.855C463.34 267.019 463.037 267.102 462.699 267.102H458.63ZM458.695 265.399H462.634C462.677 265.399 462.712 265.386 462.738 265.36C462.773 265.325 462.79 265.286 462.79 265.243V261.421C462.79 261.377 462.773 261.343 462.738 261.317C462.712 261.282 462.677 261.265 462.634 261.265H458.695C458.652 261.265 458.613 261.282 458.578 261.317C458.552 261.343 458.539 261.377 458.539 261.421V265.243C458.539 265.286 458.552 265.325 458.578 265.36C458.613 265.386 458.652 265.399 458.695 265.399ZM465.486 270.092V259.562H471.349C471.678 259.562 471.977 259.644 472.246 259.809C472.523 259.973 472.74 260.19 472.896 260.459C473.061 260.727 473.143 261.026 473.143 261.356V265.308C473.143 265.637 473.061 265.936 472.896 266.205C472.74 266.473 472.523 266.69 472.246 266.855C471.977 267.019 471.678 267.102 471.349 267.102H467.189V270.092H465.486ZM467.345 265.399H471.284C471.327 265.399 471.362 265.386 471.388 265.36C471.423 265.325 471.44 265.286 471.44 265.243V261.421C471.44 261.377 471.423 261.343 471.388 261.317C471.362 261.282 471.327 261.265 471.284 261.265H467.345C467.302 261.265 467.263 261.282 467.228 261.317C467.202 261.343 467.189 261.377 467.189 261.421V265.243C467.189 265.286 467.202 265.325 467.228 265.36C467.263 265.386 467.302 265.399 467.345 265.399ZM473.729 267.102V259.562H483.076C483.414 259.562 483.717 259.644 483.986 259.809C484.255 259.973 484.467 260.19 484.623 260.459C484.788 260.727 484.87 261.026 484.87 261.356V267.102H483.18V261.421C483.18 261.377 483.163 261.343 483.128 261.317C483.093 261.282 483.054 261.265 483.011 261.265H480.32C480.277 261.265 480.238 261.282 480.203 261.317C480.177 261.343 480.164 261.377 480.164 261.421V267.102H478.448V261.421C478.448 261.377 478.431 261.343 478.396 261.317C478.37 261.282 478.335 261.265 478.292 261.265H475.588C475.545 261.265 475.506 261.282 475.471 261.317C475.445 261.343 475.432 261.377 475.432 261.421V267.102H473.729ZM487.446 267.102C487.117 267.102 486.818 267.019 486.549 266.855C486.281 266.69 486.064 266.473 485.899 266.205C485.735 265.936 485.652 265.637 485.652 265.308V261.356C485.652 261.026 485.735 260.727 485.899 260.459C486.064 260.19 486.281 259.973 486.549 259.809C486.818 259.644 487.117 259.562 487.446 259.562H491.515C491.845 259.562 492.144 259.644 492.412 259.809C492.69 259.973 492.906 260.19 493.062 260.459C493.227 260.727 493.309 261.026 493.309 261.356V264.19H487.355V265.243C487.355 265.286 487.368 265.325 487.394 265.36C487.429 265.386 487.468 265.399 487.511 265.399H493.309V267.102H487.446ZM487.355 262.656H491.606V261.421C491.606 261.377 491.589 261.343 491.554 261.317C491.528 261.282 491.494 261.265 491.45 261.265H487.511C487.468 261.265 487.429 261.282 487.394 261.317C487.368 261.343 487.355 261.377 487.355 261.421V262.656ZM494.302 267.102V259.562H500.165C500.495 259.562 500.794 259.644 501.062 259.809C501.34 259.973 501.556 260.19 501.712 260.459C501.877 260.727 501.959 261.026 501.959 261.356V267.102H500.256V261.421C500.256 261.377 500.239 261.343 500.204 261.317C500.178 261.282 500.144 261.265 500.1 261.265H496.161C496.118 261.265 496.079 261.282 496.044 261.317C496.018 261.343 496.005 261.377 496.005 261.421V267.102H494.302ZM504.745 267.102C504.416 267.102 504.117 267.019 503.848 266.855C503.579 266.69 503.363 266.473 503.198 266.205C503.033 265.936 502.951 265.637 502.951 265.308V257.248H504.654V259.562H507.592V261.265H504.654V265.243C504.654 265.286 504.667 265.325 504.693 265.36C504.728 265.386 504.767 265.399 504.81 265.399H507.592V267.102H504.745Z" fill="white"/>
<path d="M537.082 292.516V284.885H533.26V283.156H542.62V284.885H538.811V292.516H537.082ZM544.931 292.516C544.602 292.516 544.303 292.433 544.034 292.269C543.766 292.104 543.549 291.887 543.384 291.619C543.22 291.35 543.137 291.051 543.137 290.722V286.77C543.137 286.44 543.22 286.141 543.384 285.873C543.549 285.604 543.766 285.387 544.034 285.223C544.303 285.058 544.602 284.976 544.931 284.976H549C549.33 284.976 549.629 285.058 549.897 285.223C550.175 285.387 550.391 285.604 550.547 285.873C550.712 286.141 550.794 286.44 550.794 286.77V289.604H544.84V290.657C544.84 290.7 544.853 290.739 544.879 290.774C544.914 290.8 544.953 290.813 544.996 290.813H550.794V292.516H544.931ZM544.84 288.07H549.091V286.835C549.091 286.791 549.074 286.757 549.039 286.731C549.013 286.696 548.979 286.679 548.935 286.679H544.996C544.953 286.679 544.914 286.696 544.879 286.731C544.853 286.757 544.84 286.791 544.84 286.835V288.07ZM553.414 292.516C553.085 292.516 552.786 292.433 552.517 292.269C552.249 292.104 552.032 291.887 551.867 291.619C551.703 291.35 551.62 291.051 551.62 290.722V290.436H553.323V290.657C553.323 290.7 553.336 290.739 553.362 290.774C553.397 290.8 553.436 290.813 553.479 290.813H557.418C557.462 290.813 557.496 290.8 557.522 290.774C557.557 290.739 557.574 290.7 557.574 290.657V289.76C557.574 289.716 557.557 289.682 557.522 289.656C557.496 289.621 557.462 289.604 557.418 289.604H553.414C553.085 289.604 552.786 289.521 552.517 289.357C552.249 289.192 552.032 288.975 551.867 288.707C551.703 288.438 551.62 288.139 551.62 287.81V286.77C551.62 286.44 551.703 286.141 551.867 285.873C552.032 285.604 552.249 285.387 552.517 285.223C552.786 285.058 553.085 284.976 553.414 284.976H557.483C557.821 284.976 558.125 285.058 558.393 285.223C558.662 285.387 558.879 285.604 559.043 285.873C559.208 286.141 559.29 286.44 559.29 286.77V287.056H557.574V286.835C557.574 286.791 557.557 286.757 557.522 286.731C557.496 286.696 557.462 286.679 557.418 286.679H553.479C553.436 286.679 553.397 286.696 553.362 286.731C553.336 286.757 553.323 286.791 553.323 286.835V287.732C553.323 287.775 553.336 287.814 553.362 287.849C553.397 287.875 553.436 287.888 553.479 287.888H557.483C557.821 287.888 558.125 287.97 558.393 288.135C558.662 288.299 558.879 288.516 559.043 288.785C559.208 289.053 559.29 289.352 559.29 289.682V290.722C559.29 291.051 559.208 291.35 559.043 291.619C558.879 291.887 558.662 292.104 558.393 292.269C558.125 292.433 557.821 292.516 557.483 292.516H553.414ZM562.001 292.516C561.672 292.516 561.373 292.433 561.104 292.269C560.836 292.104 560.619 291.887 560.454 291.619C560.29 291.35 560.207 291.051 560.207 290.722V282.662H561.91V284.976H564.848V286.679H561.91V290.657C561.91 290.7 561.923 290.739 561.949 290.774C561.984 290.8 562.023 290.813 562.066 290.813H564.848V292.516H562.001ZM565.517 292.516V284.976H567.22V292.516H565.517ZM565.517 284.222V282.506H567.22V284.222H565.517ZM568.34 292.516V284.976H574.203C574.532 284.976 574.831 285.058 575.1 285.223C575.377 285.387 575.594 285.604 575.75 285.873C575.915 286.141 575.997 286.44 575.997 286.77V292.516H574.294V286.835C574.294 286.791 574.277 286.757 574.242 286.731C574.216 286.696 574.181 286.679 574.138 286.679H570.199C570.156 286.679 570.117 286.696 570.082 286.731C570.056 286.757 570.043 286.791 570.043 286.835V292.516H568.34ZM578.005 295.493V293.777H582.542C582.585 293.777 582.62 293.759 582.646 293.725C582.68 293.699 582.698 293.664 582.698 293.621V292.516H578.538C578.217 292.516 577.918 292.433 577.641 292.269C577.372 292.104 577.155 291.887 576.991 291.619C576.826 291.35 576.744 291.051 576.744 290.722V286.77C576.744 286.44 576.826 286.141 576.991 285.873C577.155 285.604 577.372 285.387 577.641 285.223C577.918 285.058 578.217 284.976 578.538 284.976H582.62C582.949 284.976 583.248 285.058 583.517 285.223C583.785 285.387 583.998 285.604 584.154 285.873C584.318 286.141 584.401 286.44 584.401 286.77V293.699C584.401 294.037 584.323 294.34 584.167 294.609C584.011 294.877 583.794 295.09 583.517 295.246C583.248 295.41 582.949 295.493 582.62 295.493H578.005ZM578.603 290.813H582.542C582.585 290.813 582.62 290.8 582.646 290.774C582.68 290.739 582.698 290.7 582.698 290.657V286.835C582.698 286.791 582.68 286.757 582.646 286.731C582.62 286.696 582.585 286.679 582.542 286.679H578.603C578.559 286.679 578.52 286.696 578.486 286.731C578.46 286.757 578.447 286.791 578.447 286.835V290.657C578.447 290.7 578.46 290.739 578.486 290.774C578.52 290.8 578.559 290.813 578.603 290.813Z" fill="white"/>
<path d="M188.061 173.061C188.646 172.475 188.646 171.525 188.061 170.939L178.515 161.393C177.929 160.808 176.979 160.808 176.393 161.393C175.808 161.979 175.808 162.929 176.393 163.515L184.879 172L176.393 180.485C175.808 181.071 175.808 182.021 176.393 182.607C176.979 183.192 177.929 183.192 178.515 182.607L188.061 173.061ZM64 173.5H187V170.5H64V173.5Z" fill="white"/>
<path d="M305.061 198.358C305.646 197.772 305.646 196.822 305.061 196.236L295.515 186.69C294.929 186.104 293.979 186.104 293.393 186.69C292.808 187.276 292.808 188.226 293.393 188.812L301.879 197.297L293.393 205.782C292.808 206.368 292.808 207.318 293.393 207.903C293.979 208.489 294.929 208.489 295.515 207.903L305.061 198.358ZM181 198.797H304V195.797H181V198.797Z" fill="white"/>
<path d="M422.061 223.647C422.646 223.061 422.646 222.111 422.061 221.525L412.515 211.979C411.929 211.394 410.979 211.394 410.393 211.979C409.808 212.565 409.808 213.515 410.393 214.101L418.879 222.586L410.393 231.071C409.808 231.657 409.808 232.607 410.393 233.193C410.979 233.778 411.929 233.778 412.515 233.193L422.061 223.647ZM298 224.086H421V221.086H298V224.086Z" fill="white"/>
<path d="M539.061 248.858C539.646 248.272 539.646 247.322 539.061 246.736L529.515 237.19C528.929 236.604 527.979 236.604 527.393 237.19C526.808 237.776 526.808 238.726 527.393 239.312L535.879 247.797L527.393 256.282C526.808 256.868 526.808 257.818 527.393 258.403C527.979 258.989 528.929 258.989 529.515 258.403L539.061 248.858ZM415 249.297H538V246.297H415V249.297Z" fill="white"/>
<path d="M35.88 98.9688L25.4 70.1687H31L37.96 89.1687L44.92 70.1687H50.08L57.04 89.1687L63.96 70.1687H69.6L59.12 98.9688H54.96L47.48 78.5687L40.04 98.9688H35.88ZM75.7125 98.9688C74.6992 98.9688 73.7658 98.7154 72.9125 98.2087C72.0858 97.7021 71.4192 97.0354 70.9125 96.2087C70.4325 95.3821 70.1925 94.4621 70.1925 93.4487V84.7287H88.5125V81.4887C88.5125 81.3554 88.4592 81.2487 88.3525 81.1687C88.2725 81.0621 88.1658 81.0087 88.0325 81.0087H70.1925V75.7687H88.2325C89.2458 75.7687 90.1658 76.0221 90.9925 76.5287C91.8458 77.0354 92.5125 77.7021 92.9925 78.5287C93.4992 79.3554 93.7525 80.2754 93.7525 81.2887V98.9688H75.7125ZM75.9125 93.7287H88.5125V89.4487H75.4325V93.2487C75.4325 93.3821 75.4725 93.5021 75.5525 93.6087C75.6592 93.6887 75.7792 93.7287 75.9125 93.7287ZM102.326 98.9688C101.313 98.9688 100.393 98.7154 99.5659 98.2087C98.7393 97.7021 98.0726 97.0354 97.5659 96.2087C97.0593 95.3821 96.8059 94.4621 96.8059 93.4487V68.6487H102.046V75.7687H111.086V81.0087H102.046V93.2487C102.046 93.3821 102.086 93.5021 102.166 93.6087C102.273 93.6887 102.393 93.7287 102.526 93.7287H111.086V98.9688H102.326ZM118.585 98.9688C117.572 98.9688 116.652 98.7154 115.825 98.2087C114.998 97.7021 114.332 97.0354 113.825 96.2087C113.318 95.3821 113.065 94.4621 113.065 93.4487V81.2887C113.065 80.2754 113.318 79.3554 113.825 78.5287C114.332 77.7021 114.998 77.0354 115.825 76.5287C116.652 76.0221 117.572 75.7687 118.585 75.7687H131.105C132.118 75.7687 133.038 76.0221 133.865 76.5287C134.718 77.0354 135.385 77.7021 135.865 78.5287C136.372 79.3554 136.625 80.2754 136.625 81.2887V90.0087H118.305V93.2487C118.305 93.3821 118.345 93.5021 118.425 93.6087C118.532 93.6887 118.652 93.7287 118.785 93.7287H136.625V98.9688H118.585ZM118.305 85.2887H131.385V81.4887C131.385 81.3554 131.332 81.2487 131.225 81.1687C131.145 81.0621 131.038 81.0087 130.905 81.0087H118.785C118.652 81.0087 118.532 81.0621 118.425 81.1687C118.345 81.2487 118.305 81.3554 118.305 81.4887V85.2887ZM139.366 98.9688V81.2887C139.366 80.2754 139.619 79.3554 140.126 78.5287C140.633 77.7021 141.299 77.0354 142.126 76.5287C142.979 76.0221 143.899 75.7687 144.886 75.7687H157.766V81.0087H145.086C144.953 81.0087 144.833 81.0621 144.726 81.1687C144.646 81.2487 144.606 81.3554 144.606 81.4887V98.9688H139.366ZM159.651 98.9688V73.6887C159.651 72.6754 159.905 71.7554 160.411 70.9287C160.918 70.1021 161.585 69.4354 162.411 68.9287C163.238 68.4221 164.158 68.1687 165.171 68.1687H173.931V73.4487H165.371C165.238 73.4487 165.118 73.5021 165.011 73.6087C164.931 73.6887 164.891 73.7954 164.891 73.9287V75.7687H173.931V81.0087H164.891V98.9688H159.651ZM181.392 98.9688C180.379 98.9688 179.446 98.7154 178.592 98.2087C177.766 97.7021 177.099 97.0354 176.592 96.2087C176.112 95.3821 175.872 94.4621 175.872 93.4487V84.7287H194.192V81.4887C194.192 81.3554 194.139 81.2487 194.032 81.1687C193.952 81.0621 193.846 81.0087 193.712 81.0087H175.872V75.7687H193.912C194.926 75.7687 195.846 76.0221 196.672 76.5287C197.526 77.0354 198.192 77.7021 198.672 78.5287C199.179 79.3554 199.432 80.2754 199.432 81.2887V98.9688H181.392ZM181.592 93.7287H194.192V89.4487H181.112V93.2487C181.112 93.3821 181.152 93.5021 181.232 93.6087C181.339 93.6887 181.459 93.7287 181.592 93.7287ZM207.106 98.9688C206.093 98.9688 205.173 98.7154 204.346 98.2087C203.52 97.7021 202.853 97.0354 202.346 96.2087C201.84 95.3821 201.586 94.4621 201.586 93.4487V68.1287H206.866V93.2487C206.866 93.3821 206.906 93.5021 206.986 93.6087C207.093 93.6887 207.213 93.7287 207.346 93.7287H211.786V98.9688H207.106ZM219.227 98.9688C218.213 98.9688 217.293 98.7154 216.467 98.2087C215.64 97.7021 214.973 97.0354 214.467 96.2087C213.96 95.3821 213.707 94.4621 213.707 93.4487V68.1287H218.987V93.2487C218.987 93.3821 219.027 93.5021 219.107 93.6087C219.213 93.6887 219.333 93.7287 219.467 93.7287H223.907V98.9688H219.227Z" fill="white"/>
<path d="M656.061 274.358C656.646 273.772 656.646 272.822 656.061 272.236L646.515 262.69C645.929 262.104 644.979 262.104 644.393 262.69C643.808 263.276 643.808 264.226 644.393 264.812L652.879 273.297L644.393 281.782C643.808 282.368 643.808 283.318 644.393 283.903C644.979 284.489 645.929 284.489 646.515 283.903L656.061 274.358ZM532 274.797H655V271.797H532V274.797Z" fill="white"/>
</g>
<defs>
<filter id="filter0_d_372_1721" x="0" y="0" width="711" height="368" filterUnits="userSpaceOnUse" color-interpolation-filters="sRGB">
<feFlood flood-opacity="0" result="BackgroundImageFix"/>
<feColorMatrix in="SourceAlpha" type="matrix" values="0 0 0 0 0 0 0 0 0 0 0 0 0 0 0 0 0 0 127 0" result="hardAlpha"/>
<feOffset dx="5" dy="5"/>
<feComposite in2="hardAlpha" operator="out"/>
<feColorMatrix type="matrix" values="0 0 0 0 0.356863 0 0 0 0 0.262745 0 0 0 0 0.956863 0 0 0 1 0"/>
<feBlend mode="normal" in2="BackgroundImageFix" result="effect1_dropShadow_372_1721"/>
<feBlend mode="normal" in="SourceGraphic" in2="effect1_dropShadow_372_1721" result="shape"/>
</filter>
</defs>
</svg>
