<svg width="711" height="368" viewBox="0 0 711 368" fill="none" xmlns="http://www.w3.org/2000/svg">
<g filter="url(#filter0_d_372_1813)">
<rect x="0.5" y="0.5" width="705" height="362" rx="10.5" fill="#252831" stroke="#393939"/>
<path d="M1 11C1 5.47715 5.47715 1 11 1H695C700.523 1 705 5.47715 705 11V36H1V11Z" fill="#15181F"/>
<ellipse cx="20.239" cy="20.3084" rx="5.41475" ry="5.70683" fill="#FF625B"/>
<ellipse cx="38.6726" cy="20.3084" rx="5.41475" ry="5.70683" fill="#FFBC34"/>
<ellipse cx="57.1062" cy="20.3084" rx="5.41475" ry="5.70683" fill="#24CB40"/>
<path d="M31.68 99C30.6667 99 29.7333 98.7467 28.88 98.24C28.0533 97.7333 27.3867 97.0667 26.88 96.24C26.3733 95.3867 26.12 94.4533 26.12 93.44V91.24H31.4V93.2C31.4 93.3333 31.44 93.4533 31.52 93.56C31.6267 93.64 31.7467 93.68 31.88 93.68H49.12C49.2533 93.68 49.36 93.64 49.44 93.56C49.5467 93.4533 49.6 93.3333 49.6 93.2V87.72C49.6 87.5867 49.5467 87.48 49.44 87.4C49.36 87.32 49.2533 87.28 49.12 87.28H31.68C30.6667 87.28 29.7333 87.0267 28.88 86.52C28.0533 86.0133 27.3867 85.3467 26.88 84.52C26.3733 83.6667 26.12 82.72 26.12 81.68V75.76C26.12 74.7467 26.3733 73.8267 26.88 73C27.3867 72.1467 28.0533 71.4667 28.88 70.96C29.7333 70.4533 30.6667 70.2 31.68 70.2H49.36C50.3733 70.2 51.2933 70.4533 52.12 70.96C52.9733 71.4667 53.6533 72.1467 54.16 73C54.6667 73.8267 54.92 74.7467 54.92 75.76V77.96H49.6V76C49.6 75.8667 49.5467 75.76 49.44 75.68C49.36 75.5733 49.2533 75.52 49.12 75.52H31.88C31.7467 75.52 31.6267 75.5733 31.52 75.68C31.44 75.76 31.4 75.8667 31.4 76V81.48C31.4 81.6133 31.44 81.72 31.52 81.8C31.6267 81.88 31.7467 81.92 31.88 81.92H49.36C50.3733 81.92 51.2933 82.1733 52.12 82.68C52.9733 83.1867 53.6533 83.8667 54.16 84.72C54.6667 85.5467 54.92 86.48 54.92 87.52V93.44C54.92 94.4533 54.6667 95.3867 54.16 96.24C53.6533 97.0667 52.9733 97.7333 52.12 98.24C51.2933 98.7467 50.3733 99 49.36 99H31.68ZM63.4069 99C62.3935 99 61.4735 98.7467 60.6469 98.24C59.8202 97.7333 59.1535 97.0667 58.6469 96.24C58.1402 95.4133 57.8869 94.4933 57.8869 93.48V81.32C57.8869 80.3067 58.1402 79.3867 58.6469 78.56C59.1535 77.7333 59.8202 77.0667 60.6469 76.56C61.4735 76.0533 62.3935 75.8 63.4069 75.8H81.4069V81.04H63.6069C63.4735 81.04 63.3535 81.0933 63.2469 81.2C63.1669 81.28 63.1269 81.3867 63.1269 81.52V93.28C63.1269 93.4133 63.1669 93.5333 63.2469 93.64C63.3535 93.72 63.4735 93.76 63.6069 93.76H81.4469V99H63.4069ZM84.2659 99V81.32C84.2659 80.3067 84.5193 79.3867 85.0259 78.56C85.5326 77.7333 86.1993 77.0667 87.0259 76.56C87.8793 76.0533 88.7993 75.8 89.7859 75.8H102.666V81.04H89.9859C89.8526 81.04 89.7326 81.0933 89.6259 81.2C89.5459 81.28 89.5059 81.3867 89.5059 81.52V99H84.2659ZM110.071 99C109.058 99 108.125 98.7467 107.271 98.24C106.445 97.7333 105.778 97.0667 105.271 96.24C104.791 95.4133 104.551 94.4933 104.551 93.48V75.8H109.791V93.28C109.791 93.4133 109.831 93.5333 109.911 93.64C110.018 93.72 110.138 93.76 110.271 93.76H122.391C122.525 93.76 122.631 93.72 122.711 93.64C122.818 93.5333 122.871 93.4133 122.871 93.28V75.8H128.111V93.48C128.111 94.4933 127.858 95.4133 127.351 96.24C126.871 97.0667 126.218 97.7333 125.391 98.24C124.565 98.7467 123.631 99 122.591 99H110.071ZM130.227 99V75.8H158.987C160.027 75.8 160.961 76.0533 161.787 76.56C162.614 77.0667 163.267 77.7333 163.747 78.56C164.254 79.3867 164.507 80.3067 164.507 81.32V99H159.307V81.52C159.307 81.3867 159.254 81.28 159.147 81.2C159.041 81.0933 158.921 81.04 158.787 81.04H150.507C150.374 81.04 150.254 81.0933 150.147 81.2C150.067 81.28 150.027 81.3867 150.027 81.52V99H144.747V81.52C144.747 81.3867 144.694 81.28 144.587 81.2C144.507 81.0933 144.401 81.04 144.267 81.04H135.947C135.814 81.04 135.694 81.0933 135.587 81.2C135.507 81.28 135.467 81.3867 135.467 81.52V99H130.227Z" fill="white"/>
<path d="M80.728 154V144.64H82.613L86.006 148.683L89.386 144.64H91.284V154H89.555V147.136L86.006 151.361L82.444 147.149V154H80.728ZM94.0517 154C93.7223 154 93.419 153.918 93.1417 153.753C92.873 153.588 92.6563 153.372 92.4917 153.103C92.3357 152.834 92.2577 152.535 92.2577 152.206V149.372H98.2117V148.319C98.2117 148.276 98.1943 148.241 98.1597 148.215C98.1337 148.18 98.099 148.163 98.0557 148.163H92.2577V146.46H98.1207C98.45 146.46 98.749 146.542 99.0177 146.707C99.295 146.872 99.5117 147.088 99.6677 147.357C99.8323 147.626 99.9147 147.925 99.9147 148.254V154H94.0517ZM94.1167 152.297H98.2117V150.906H93.9607V152.141C93.9607 152.184 93.9737 152.223 93.9997 152.258C94.0343 152.284 94.0733 152.297 94.1167 152.297ZM102.357 154C102.027 154 101.728 153.918 101.46 153.753C101.191 153.588 100.974 153.372 100.81 153.103C100.645 152.834 100.563 152.535 100.563 152.206V151.92H102.266V152.141C102.266 152.184 102.279 152.223 102.305 152.258C102.339 152.284 102.378 152.297 102.422 152.297H106.361C106.404 152.297 106.439 152.284 106.465 152.258C106.499 152.223 106.517 152.184 106.517 152.141V151.244C106.517 151.201 106.499 151.166 106.465 151.14C106.439 151.105 106.404 151.088 106.361 151.088H102.357C102.027 151.088 101.728 151.006 101.46 150.841C101.191 150.676 100.974 150.46 100.81 150.191C100.645 149.922 100.563 149.623 100.563 149.294V148.254C100.563 147.925 100.645 147.626 100.81 147.357C100.974 147.088 101.191 146.872 101.46 146.707C101.728 146.542 102.027 146.46 102.357 146.46H106.426C106.764 146.46 107.067 146.542 107.336 146.707C107.604 146.872 107.821 147.088 107.986 147.357C108.15 147.626 108.233 147.925 108.233 148.254V148.54H106.517V148.319C106.517 148.276 106.499 148.241 106.465 148.215C106.439 148.18 106.404 148.163 106.361 148.163H102.422C102.378 148.163 102.339 148.18 102.305 148.215C102.279 148.241 102.266 148.276 102.266 148.319V149.216C102.266 149.259 102.279 149.298 102.305 149.333C102.339 149.359 102.378 149.372 102.422 149.372H106.426C106.764 149.372 107.067 149.454 107.336 149.619C107.604 149.784 107.821 150 107.986 150.269C108.15 150.538 108.233 150.837 108.233 151.166V152.206C108.233 152.535 108.15 152.834 107.986 153.103C107.821 153.372 107.604 153.588 107.336 153.753C107.067 153.918 106.764 154 106.426 154H102.357ZM110.944 154C110.615 154 110.316 153.918 110.047 153.753C109.778 153.588 109.562 153.372 109.397 153.103C109.232 152.834 109.15 152.535 109.15 152.206V144.146H110.853V146.46H113.791V148.163H110.853V152.141C110.853 152.184 110.866 152.223 110.892 152.258C110.927 152.284 110.966 152.297 111.009 152.297H113.791V154H110.944ZM116.228 154C115.899 154 115.6 153.918 115.331 153.753C115.062 153.588 114.846 153.372 114.681 153.103C114.516 152.834 114.434 152.535 114.434 152.206V148.254C114.434 147.925 114.516 147.626 114.681 147.357C114.846 147.088 115.062 146.872 115.331 146.707C115.6 146.542 115.899 146.46 116.228 146.46H120.297C120.626 146.46 120.925 146.542 121.194 146.707C121.471 146.872 121.688 147.088 121.844 147.357C122.009 147.626 122.091 147.925 122.091 148.254V151.088H116.137V152.141C116.137 152.184 116.15 152.223 116.176 152.258C116.211 152.284 116.25 152.297 116.293 152.297H122.091V154H116.228ZM116.137 149.554H120.388V148.319C120.388 148.276 120.371 148.241 120.336 148.215C120.31 148.18 120.275 148.163 120.232 148.163H116.293C116.25 148.163 116.211 148.18 116.176 148.215C116.15 148.241 116.137 148.276 116.137 148.319V149.554ZM122.982 154V148.254C122.982 147.925 123.064 147.626 123.229 147.357C123.394 147.088 123.61 146.872 123.879 146.707C124.156 146.542 124.455 146.46 124.776 146.46H128.962V148.163H124.841C124.798 148.163 124.759 148.18 124.724 148.215C124.698 148.241 124.685 148.276 124.685 148.319V154H122.982ZM134.787 154C134.458 154 134.155 153.918 133.877 153.753C133.609 153.588 133.392 153.372 133.227 153.103C133.063 152.826 132.98 152.522 132.98 152.193V151.478H134.696V152.115C134.696 152.158 134.709 152.197 134.735 152.232C134.77 152.258 134.809 152.271 134.852 152.271H140.455C140.499 152.271 140.533 152.258 140.559 152.232C140.594 152.197 140.611 152.158 140.611 152.115V150.334C140.611 150.291 140.594 150.256 140.559 150.23C140.533 150.204 140.499 150.191 140.455 150.191H134.787C134.458 150.191 134.155 150.109 133.877 149.944C133.609 149.779 133.392 149.563 133.227 149.294C133.063 149.017 132.98 148.709 132.98 148.371V146.447C132.98 146.118 133.063 145.819 133.227 145.55C133.392 145.273 133.609 145.052 133.877 144.887C134.155 144.722 134.458 144.64 134.787 144.64H140.533C140.863 144.64 141.162 144.722 141.43 144.887C141.708 145.052 141.929 145.273 142.093 145.55C142.258 145.819 142.34 146.118 142.34 146.447V147.162H140.611V146.525C140.611 146.482 140.594 146.447 140.559 146.421C140.533 146.386 140.499 146.369 140.455 146.369H134.852C134.809 146.369 134.77 146.386 134.735 146.421C134.709 146.447 134.696 146.482 134.696 146.525V148.306C134.696 148.349 134.709 148.384 134.735 148.41C134.77 148.436 134.809 148.449 134.852 148.449H140.533C140.863 148.449 141.162 148.531 141.43 148.696C141.708 148.861 141.929 149.082 142.093 149.359C142.258 149.628 142.34 149.931 142.34 150.269V152.193C142.34 152.522 142.258 152.826 142.093 153.103C141.929 153.372 141.708 153.588 141.43 153.753C141.162 153.918 140.863 154 140.533 154H134.787ZM145.099 154C144.769 154 144.47 153.918 144.202 153.753C143.933 153.588 143.716 153.372 143.552 153.103C143.387 152.834 143.305 152.535 143.305 152.206V148.254C143.305 147.925 143.387 147.626 143.552 147.357C143.716 147.088 143.933 146.872 144.202 146.707C144.47 146.542 144.769 146.46 145.099 146.46H150.949V148.163H145.164C145.12 148.163 145.081 148.18 145.047 148.215C145.021 148.241 145.008 148.276 145.008 148.319V152.141C145.008 152.184 145.021 152.223 145.047 152.258C145.081 152.284 145.12 152.297 145.164 152.297H150.962V154H145.099ZM151.878 154V148.254C151.878 147.925 151.96 147.626 152.125 147.357C152.29 147.088 152.506 146.872 152.775 146.707C153.052 146.542 153.351 146.46 153.672 146.46H157.858V148.163H153.737C153.694 148.163 153.655 148.18 153.62 148.215C153.594 148.241 153.581 148.276 153.581 148.319V154H151.878ZM160.265 154C159.935 154 159.632 153.918 159.355 153.753C159.086 153.588 158.869 153.372 158.705 153.103C158.549 152.834 158.471 152.535 158.471 152.206V146.46H160.174V152.141C160.174 152.184 160.187 152.223 160.213 152.258C160.247 152.284 160.286 152.297 160.33 152.297H164.269C164.312 152.297 164.347 152.284 164.373 152.258C164.407 152.223 164.425 152.184 164.425 152.141V146.46H166.128V152.206C166.128 152.535 166.045 152.834 165.881 153.103C165.725 153.372 165.512 153.588 165.244 153.753C164.975 153.918 164.672 154 164.334 154H160.265ZM166.815 154V146.46H176.162C176.5 146.46 176.804 146.542 177.072 146.707C177.341 146.872 177.553 147.088 177.709 147.357C177.874 147.626 177.956 147.925 177.956 148.254V154H176.266V148.319C176.266 148.276 176.249 148.241 176.214 148.215C176.18 148.18 176.141 148.163 176.097 148.163H173.406C173.363 148.163 173.324 148.18 173.289 148.215C173.263 148.241 173.25 148.276 173.25 148.319V154H171.534V148.319C171.534 148.276 171.517 148.241 171.482 148.215C171.456 148.18 171.422 148.163 171.378 148.163H168.674C168.631 148.163 168.592 148.18 168.557 148.215C168.531 148.241 168.518 148.276 168.518 148.319V154H166.815Z" fill="white"/>
<path d="M80.728 195V185.653H88.268C88.5973 185.653 88.9007 185.735 89.178 185.9C89.4553 186.065 89.6763 186.286 89.841 186.563C90.0057 186.832 90.088 187.131 90.088 187.46V189.982C90.088 190.311 90.0057 190.615 89.841 190.892C89.6763 191.169 89.4553 191.39 89.178 191.555C88.9007 191.711 88.5973 191.789 88.268 191.789L82.444 191.802V195H80.728ZM82.6 190.06H88.19C88.2333 190.06 88.2723 190.047 88.307 190.021C88.3417 189.995 88.359 189.96 88.359 189.917V187.525C88.359 187.482 88.3417 187.447 88.307 187.421C88.2723 187.386 88.2333 187.369 88.19 187.369H82.6C82.5567 187.369 82.5177 187.386 82.483 187.421C82.457 187.447 82.444 187.482 82.444 187.525V189.917C82.444 189.96 82.457 189.995 82.483 190.021C82.5177 190.047 82.5567 190.06 82.6 190.06ZM90.5692 195V189.254C90.5692 188.925 90.6515 188.626 90.8162 188.357C90.9809 188.088 91.1975 187.872 91.4662 187.707C91.7435 187.542 92.0425 187.46 92.3632 187.46H96.5492V189.163H92.4282C92.3849 189.163 92.3459 189.18 92.3112 189.215C92.2852 189.241 92.2722 189.276 92.2722 189.319V195H90.5692ZM98.7776 195C98.4483 195 98.1493 194.918 97.8806 194.753C97.6119 194.588 97.3953 194.372 97.2306 194.103C97.0659 193.834 96.9836 193.535 96.9836 193.206V189.254C96.9836 188.925 97.0659 188.626 97.2306 188.357C97.3953 188.088 97.6119 187.872 97.8806 187.707C98.1493 187.542 98.4483 187.46 98.7776 187.46H102.847C103.176 187.46 103.475 187.542 103.744 187.707C104.021 187.872 104.238 188.088 104.394 188.357C104.558 188.626 104.641 188.925 104.641 189.254V193.206C104.641 193.535 104.558 193.834 104.394 194.103C104.238 194.372 104.025 194.588 103.757 194.753C103.488 194.918 103.185 195 102.847 195H98.7776ZM98.8426 193.297H102.782C102.825 193.297 102.86 193.284 102.886 193.258C102.92 193.223 102.938 193.184 102.938 193.141V189.319C102.938 189.276 102.92 189.241 102.886 189.215C102.86 189.18 102.825 189.163 102.782 189.163H98.8426C98.7993 189.163 98.7603 189.18 98.7256 189.215C98.6996 189.241 98.6866 189.276 98.6866 189.319V193.141C98.6866 193.184 98.6996 193.223 98.7256 193.258C98.7603 193.284 98.7993 193.297 98.8426 193.297ZM107.025 195C106.687 195 106.383 194.918 106.115 194.753C105.846 194.588 105.629 194.372 105.465 194.103C105.309 193.834 105.231 193.535 105.231 193.206V189.254C105.231 188.925 105.309 188.626 105.465 188.357C105.629 188.088 105.846 187.872 106.115 187.707C106.383 187.542 106.687 187.46 107.025 187.46H111.198V184.99H112.901V195H107.025ZM107.103 193.297H111.042C111.085 193.297 111.12 193.284 111.146 193.258C111.18 193.223 111.198 193.184 111.198 193.141V189.319C111.198 189.276 111.18 189.241 111.146 189.215C111.12 189.18 111.085 189.163 111.042 189.163H107.103C107.059 189.163 107.02 189.18 106.986 189.215C106.96 189.241 106.947 189.276 106.947 189.319V193.141C106.947 193.184 106.96 193.223 106.986 193.258C107.02 193.284 107.059 193.297 107.103 193.297ZM115.378 195C115.049 195 114.745 194.918 114.468 194.753C114.199 194.588 113.983 194.372 113.818 194.103C113.662 193.834 113.584 193.535 113.584 193.206V187.46H115.287V193.141C115.287 193.184 115.3 193.223 115.326 193.258C115.361 193.284 115.4 193.297 115.443 193.297H119.382C119.425 193.297 119.46 193.284 119.486 193.258C119.521 193.223 119.538 193.184 119.538 193.141V187.46H121.241V193.206C121.241 193.535 121.159 193.834 120.994 194.103C120.838 194.372 120.626 194.588 120.357 194.753C120.088 194.918 119.785 195 119.447 195H115.378ZM123.696 195C123.367 195 123.068 194.918 122.799 194.753C122.531 194.588 122.314 194.372 122.149 194.103C121.985 193.834 121.902 193.535 121.902 193.206V189.254C121.902 188.925 121.985 188.626 122.149 188.357C122.314 188.088 122.531 187.872 122.799 187.707C123.068 187.542 123.367 187.46 123.696 187.46H129.546V189.163H123.761C123.718 189.163 123.679 189.18 123.644 189.215C123.618 189.241 123.605 189.276 123.605 189.319V193.141C123.605 193.184 123.618 193.223 123.644 193.258C123.679 193.284 123.718 193.297 123.761 193.297H129.559V195H123.696ZM132.029 195C131.699 195 131.4 194.918 131.132 194.753C130.863 194.588 130.646 194.372 130.482 194.103C130.317 193.834 130.235 193.535 130.235 193.206V185.146H131.938V187.46H134.876V189.163H131.938V193.141C131.938 193.184 131.951 193.223 131.977 193.258C132.011 193.284 132.05 193.297 132.094 193.297H134.876V195H132.029ZM140.949 195C140.619 195 140.316 194.918 140.039 194.753C139.77 194.588 139.553 194.372 139.389 194.103C139.224 193.826 139.142 193.522 139.142 193.193V187.447C139.142 187.118 139.224 186.819 139.389 186.55C139.553 186.273 139.77 186.052 140.039 185.887C140.316 185.722 140.619 185.64 140.949 185.64H146.695C147.024 185.64 147.323 185.722 147.592 185.887C147.869 186.052 148.09 186.273 148.255 186.55C148.419 186.819 148.502 187.118 148.502 187.447V193.193C148.502 193.522 148.419 193.826 148.255 194.103C148.09 194.372 147.869 194.588 147.592 194.753C147.323 194.918 147.024 195 146.695 195H140.949ZM141.014 193.271H146.604C146.647 193.271 146.686 193.258 146.721 193.232C146.755 193.197 146.773 193.158 146.773 193.115V187.525C146.773 187.482 146.755 187.447 146.721 187.421C146.686 187.386 146.647 187.369 146.604 187.369H141.014C140.97 187.369 140.931 187.386 140.897 187.421C140.871 187.447 140.858 187.482 140.858 187.525V193.115C140.858 193.158 140.871 193.197 140.897 193.232C140.931 193.258 140.97 193.271 141.014 193.271ZM152.234 195L149.27 187.46H151.077L152.91 191.906L154.834 187.46H156.602L158.656 191.932L160.359 187.46H162.166L159.332 195H158.006L155.731 189.969L153.56 195H152.234ZM162.648 195V187.46H168.511C168.84 187.46 169.139 187.542 169.408 187.707C169.685 187.872 169.902 188.088 170.058 188.357C170.222 188.626 170.305 188.925 170.305 189.254V195H168.602V189.319C168.602 189.276 168.584 189.241 168.55 189.215C168.524 189.18 168.489 189.163 168.446 189.163H164.507C164.463 189.163 164.424 189.18 164.39 189.215C164.364 189.241 164.351 189.276 164.351 189.319V195H162.648ZM172.798 195C172.469 195 172.17 194.918 171.901 194.753C171.632 194.588 171.416 194.372 171.251 194.103C171.086 193.834 171.004 193.535 171.004 193.206V189.254C171.004 188.925 171.086 188.626 171.251 188.357C171.416 188.088 171.632 187.872 171.901 187.707C172.17 187.542 172.469 187.46 172.798 187.46H176.867C177.196 187.46 177.495 187.542 177.764 187.707C178.041 187.872 178.258 188.088 178.414 188.357C178.579 188.626 178.661 188.925 178.661 189.254V192.088H172.707V193.141C172.707 193.184 172.72 193.223 172.746 193.258C172.781 193.284 172.82 193.297 172.863 193.297H178.661V195H172.798ZM172.707 190.554H176.958V189.319C176.958 189.276 176.941 189.241 176.906 189.215C176.88 189.18 176.845 189.163 176.802 189.163H172.863C172.82 189.163 172.781 189.18 172.746 189.215C172.72 189.241 172.707 189.276 172.707 189.319V190.554ZM179.552 195V189.254C179.552 188.925 179.634 188.626 179.799 188.357C179.963 188.088 180.18 187.872 180.449 187.707C180.726 187.542 181.025 187.46 181.346 187.46H185.532V189.163H181.411C181.367 189.163 181.328 189.18 181.294 189.215C181.268 189.241 181.255 189.276 181.255 189.319V195H179.552Z" fill="white"/>
<path d="M80.754 236V226.64H88.294C88.6233 226.64 88.9267 226.722 89.204 226.887C89.4813 227.052 89.7023 227.273 89.867 227.55C90.0317 227.819 90.114 228.118 90.114 228.447V234.193C90.114 234.522 90.0317 234.826 89.867 235.103C89.7023 235.372 89.4813 235.588 89.204 235.753C88.9267 235.918 88.6233 236 88.294 236H80.754ZM82.613 234.271H88.216C88.2593 234.271 88.2983 234.258 88.333 234.232C88.3677 234.197 88.385 234.158 88.385 234.115V228.525C88.385 228.482 88.3677 228.447 88.333 228.421C88.2983 228.386 88.2593 228.369 88.216 228.369H82.613C82.5697 228.369 82.5307 228.386 82.496 228.421C82.47 228.447 82.457 228.482 82.457 228.525V234.115C82.457 234.158 82.47 234.197 82.496 234.232C82.5307 234.258 82.5697 234.271 82.613 234.271ZM92.9088 236C92.5795 236 92.2805 235.918 92.0118 235.753C91.7431 235.588 91.5265 235.372 91.3618 235.103C91.1971 234.834 91.1148 234.535 91.1148 234.206V230.254C91.1148 229.925 91.1971 229.626 91.3618 229.357C91.5265 229.088 91.7431 228.872 92.0118 228.707C92.2805 228.542 92.5795 228.46 92.9088 228.46H96.9778C97.3071 228.46 97.6061 228.542 97.8748 228.707C98.1521 228.872 98.3688 229.088 98.5248 229.357C98.6895 229.626 98.7718 229.925 98.7718 230.254V233.088H92.8178V234.141C92.8178 234.184 92.8308 234.223 92.8568 234.258C92.8915 234.284 92.9305 234.297 92.9738 234.297H98.7718V236H92.9088ZM92.8178 231.554H97.0688V230.319C97.0688 230.276 97.0515 230.241 97.0168 230.215C96.9908 230.18 96.9561 230.163 96.9128 230.163H92.9738C92.9305 230.163 92.8915 230.18 92.8568 230.215C92.8308 230.241 92.8178 230.276 92.8178 230.319V231.554ZM102.899 236L98.7518 228.46H100.715L103.692 233.933L106.656 228.46H108.619L104.459 236H102.899ZM116.025 236V228.369H112.203V226.64H121.563V228.369H117.754V236H116.025ZM123.874 236C123.545 236 123.246 235.918 122.977 235.753C122.709 235.588 122.492 235.372 122.327 235.103C122.163 234.834 122.08 234.535 122.08 234.206V230.254C122.08 229.925 122.163 229.626 122.327 229.357C122.492 229.088 122.709 228.872 122.977 228.707C123.246 228.542 123.545 228.46 123.874 228.46H127.943C128.273 228.46 128.572 228.542 128.84 228.707C129.118 228.872 129.334 229.088 129.49 229.357C129.655 229.626 129.737 229.925 129.737 230.254V233.088H123.783V234.141C123.783 234.184 123.796 234.223 123.822 234.258C123.857 234.284 123.896 234.297 123.939 234.297H129.737V236H123.874ZM123.783 231.554H128.034V230.319C128.034 230.276 128.017 230.241 127.982 230.215C127.956 230.18 127.922 230.163 127.878 230.163H123.939C123.896 230.163 123.857 230.18 123.822 230.215C123.796 230.241 123.783 230.276 123.783 230.319V231.554ZM132.498 236C132.169 236 131.865 235.918 131.588 235.753C131.319 235.588 131.103 235.372 130.938 235.103C130.782 234.834 130.704 234.535 130.704 234.206V231.372H136.658V230.319C136.658 230.276 136.641 230.241 136.606 230.215C136.58 230.18 136.545 230.163 136.502 230.163H130.704V228.46H136.567C136.896 228.46 137.195 228.542 137.464 228.707C137.741 228.872 137.958 229.088 138.114 229.357C138.279 229.626 138.361 229.925 138.361 230.254V236H132.498ZM132.563 234.297H136.658V232.906H132.407V234.141C132.407 234.184 132.42 234.223 132.446 234.258C132.481 234.284 132.52 234.297 132.563 234.297ZM139.036 236V228.46H148.383C148.721 228.46 149.025 228.542 149.293 228.707C149.562 228.872 149.774 229.088 149.93 229.357C150.095 229.626 150.177 229.925 150.177 230.254V236H148.487V230.319C148.487 230.276 148.47 230.241 148.435 230.215C148.401 230.18 148.362 230.163 148.318 230.163H145.627C145.584 230.163 145.545 230.18 145.51 230.215C145.484 230.241 145.471 230.276 145.471 230.319V236H143.755V230.319C143.755 230.276 143.738 230.241 143.703 230.215C143.677 230.18 143.643 230.163 143.599 230.163H140.895C140.852 230.163 140.813 230.18 140.778 230.215C140.752 230.241 140.739 230.276 140.739 230.319V236H139.036ZM153.07 236C152.741 236 152.442 235.918 152.173 235.753C151.905 235.588 151.688 235.372 151.523 235.103C151.359 234.834 151.276 234.535 151.276 234.206V233.92H152.979V234.141C152.979 234.184 152.992 234.223 153.018 234.258C153.053 234.284 153.092 234.297 153.135 234.297H157.074C157.118 234.297 157.152 234.284 157.178 234.258C157.213 234.223 157.23 234.184 157.23 234.141V233.244C157.23 233.201 157.213 233.166 157.178 233.14C157.152 233.105 157.118 233.088 157.074 233.088H153.07C152.741 233.088 152.442 233.006 152.173 232.841C151.905 232.676 151.688 232.46 151.523 232.191C151.359 231.922 151.276 231.623 151.276 231.294V230.254C151.276 229.925 151.359 229.626 151.523 229.357C151.688 229.088 151.905 228.872 152.173 228.707C152.442 228.542 152.741 228.46 153.07 228.46H157.139C157.477 228.46 157.781 228.542 158.049 228.707C158.318 228.872 158.535 229.088 158.699 229.357C158.864 229.626 158.946 229.925 158.946 230.254V230.54H157.23V230.319C157.23 230.276 157.213 230.241 157.178 230.215C157.152 230.18 157.118 230.163 157.074 230.163H153.135C153.092 230.163 153.053 230.18 153.018 230.215C152.992 230.241 152.979 230.276 152.979 230.319V231.216C152.979 231.259 152.992 231.298 153.018 231.333C153.053 231.359 153.092 231.372 153.135 231.372H157.139C157.477 231.372 157.781 231.454 158.049 231.619C158.318 231.784 158.535 232 158.699 232.269C158.864 232.538 158.946 232.837 158.946 233.166V234.206C158.946 234.535 158.864 234.834 158.699 235.103C158.535 235.372 158.318 235.588 158.049 235.753C157.781 235.918 157.477 236 157.139 236H153.07Z" fill="white"/>
</g>
<path d="M165.546 310.219V300.859H167.249V310.219H165.546ZM168.27 310.219V302.679H174.133C174.462 302.679 174.761 302.761 175.03 302.926C175.307 303.09 175.524 303.307 175.68 303.576C175.845 303.844 175.927 304.143 175.927 304.473V310.219H174.224V304.538C174.224 304.494 174.207 304.46 174.172 304.434C174.146 304.399 174.111 304.382 174.068 304.382H170.129C170.086 304.382 170.047 304.399 170.012 304.434C169.986 304.46 169.973 304.494 169.973 304.538V310.219H168.27ZM176.906 310.219V302.679H178.609V310.219H176.906ZM176.906 301.925V300.209H178.609V301.925H176.906ZM181.382 310.219C181.053 310.219 180.754 310.136 180.485 309.972C180.217 309.807 180 309.59 179.835 309.322C179.671 309.053 179.588 308.754 179.588 308.425V300.365H181.291V302.679H184.229V304.382H181.291V308.36C181.291 308.403 181.304 308.442 181.33 308.477C181.365 308.503 181.404 308.516 181.447 308.516H184.229V310.219H181.382ZM184.898 310.219V302.679H186.601V310.219H184.898ZM184.898 301.925V300.209H186.601V301.925H184.898ZM189.044 310.219C188.715 310.219 188.412 310.136 188.134 309.972C187.866 309.807 187.649 309.59 187.484 309.322C187.328 309.053 187.25 308.754 187.25 308.425V305.591H193.204V304.538C193.204 304.494 193.187 304.46 193.152 304.434C193.126 304.399 193.092 304.382 193.048 304.382H187.25V302.679H193.113C193.443 302.679 193.742 302.761 194.01 302.926C194.288 303.09 194.504 303.307 194.66 303.576C194.825 303.844 194.907 304.143 194.907 304.473V310.219H189.044ZM189.109 308.516H193.204V307.125H188.953V308.36C188.953 308.403 188.966 308.442 188.992 308.477C189.027 308.503 189.066 308.516 189.109 308.516ZM197.401 310.219C197.072 310.219 196.773 310.136 196.504 309.972C196.236 309.807 196.019 309.59 195.854 309.322C195.69 309.053 195.607 308.754 195.607 308.425V300.196H197.323V308.36C197.323 308.403 197.336 308.442 197.362 308.477C197.397 308.503 197.436 308.516 197.479 308.516H198.922V310.219H197.401ZM165.546 330.219V320.859H167.249V330.219H165.546ZM168.27 330.219V322.679H174.133C174.462 322.679 174.761 322.761 175.03 322.926C175.307 323.09 175.524 323.307 175.68 323.576C175.845 323.844 175.927 324.143 175.927 324.473V330.219H174.224V324.538C174.224 324.494 174.207 324.46 174.172 324.434C174.146 324.399 174.111 324.382 174.068 324.382H170.129C170.086 324.382 170.047 324.399 170.012 324.434C169.986 324.46 169.973 324.494 169.973 324.538V330.219H168.27ZM180.65 330.219L176.503 322.679H178.466L181.443 328.152L184.407 322.679H186.37L182.21 330.219H180.65ZM188.174 330.219C187.844 330.219 187.545 330.136 187.277 329.972C187.008 329.807 186.791 329.59 186.627 329.322C186.462 329.053 186.38 328.754 186.38 328.425V324.473C186.38 324.143 186.462 323.844 186.627 323.576C186.791 323.307 187.008 323.09 187.277 322.926C187.545 322.761 187.844 322.679 188.174 322.679H192.243C192.572 322.679 192.871 322.761 193.14 322.926C193.417 323.09 193.634 323.307 193.79 323.576C193.954 323.844 194.037 324.143 194.037 324.473V327.307H188.083V328.36C188.083 328.403 188.096 328.442 188.122 328.477C188.156 328.503 188.195 328.516 188.239 328.516H194.037V330.219H188.174ZM188.083 325.773H192.334V324.538C192.334 324.494 192.316 324.46 192.282 324.434C192.256 324.399 192.221 324.382 192.178 324.382H188.239C188.195 324.382 188.156 324.399 188.122 324.434C188.096 324.46 188.083 324.494 188.083 324.538V325.773ZM196.657 330.219C196.327 330.219 196.028 330.136 195.76 329.972C195.491 329.807 195.274 329.59 195.11 329.322C194.945 329.053 194.863 328.754 194.863 328.425V328.139H196.566V328.36C196.566 328.403 196.579 328.442 196.605 328.477C196.639 328.503 196.678 328.516 196.722 328.516H200.661C200.704 328.516 200.739 328.503 200.765 328.477C200.799 328.442 200.817 328.403 200.817 328.36V327.463C200.817 327.419 200.799 327.385 200.765 327.359C200.739 327.324 200.704 327.307 200.661 327.307H196.657C196.327 327.307 196.028 327.224 195.76 327.06C195.491 326.895 195.274 326.678 195.11 326.41C194.945 326.141 194.863 325.842 194.863 325.513V324.473C194.863 324.143 194.945 323.844 195.11 323.576C195.274 323.307 195.491 323.09 195.76 322.926C196.028 322.761 196.327 322.679 196.657 322.679H200.726C201.064 322.679 201.367 322.761 201.636 322.926C201.904 323.09 202.121 323.307 202.286 323.576C202.45 323.844 202.533 324.143 202.533 324.473V324.759H200.817V324.538C200.817 324.494 200.799 324.46 200.765 324.434C200.739 324.399 200.704 324.382 200.661 324.382H196.722C196.678 324.382 196.639 324.399 196.605 324.434C196.579 324.46 196.566 324.494 196.566 324.538V325.435C196.566 325.478 196.579 325.517 196.605 325.552C196.639 325.578 196.678 325.591 196.722 325.591H200.726C201.064 325.591 201.367 325.673 201.636 325.838C201.904 326.002 202.121 326.219 202.286 326.488C202.45 326.756 202.533 327.055 202.533 327.385V328.425C202.533 328.754 202.45 329.053 202.286 329.322C202.121 329.59 201.904 329.807 201.636 329.972C201.367 330.136 201.064 330.219 200.726 330.219H196.657ZM205.244 330.219C204.915 330.219 204.616 330.136 204.347 329.972C204.078 329.807 203.862 329.59 203.697 329.322C203.532 329.053 203.45 328.754 203.45 328.425V320.365H205.153V322.679H208.091V324.382H205.153V328.36C205.153 328.403 205.166 328.442 205.192 328.477C205.227 328.503 205.266 328.516 205.309 328.516H208.091V330.219H205.244ZM208.76 330.219V322.679H210.463V330.219H208.76ZM208.76 321.925V320.209H210.463V321.925H208.76ZM212.37 333.196V331.48H216.907C216.95 331.48 216.985 331.462 217.011 331.428C217.045 331.402 217.063 331.367 217.063 331.324V330.219H212.903C212.582 330.219 212.283 330.136 212.006 329.972C211.737 329.807 211.52 329.59 211.356 329.322C211.191 329.053 211.109 328.754 211.109 328.425V324.473C211.109 324.143 211.191 323.844 211.356 323.576C211.52 323.307 211.737 323.09 212.006 322.926C212.283 322.761 212.582 322.679 212.903 322.679H216.985C217.314 322.679 217.613 322.761 217.882 322.926C218.15 323.09 218.363 323.307 218.519 323.576C218.683 323.844 218.766 324.143 218.766 324.473V331.402C218.766 331.74 218.688 332.043 218.532 332.312C218.376 332.58 218.159 332.793 217.882 332.949C217.613 333.113 217.314 333.196 216.985 333.196H212.37ZM212.968 328.516H216.907C216.95 328.516 216.985 328.503 217.011 328.477C217.045 328.442 217.063 328.403 217.063 328.36V324.538C217.063 324.494 217.045 324.46 217.011 324.434C216.985 324.399 216.95 324.382 216.907 324.382H212.968C212.924 324.382 212.885 324.399 212.851 324.434C212.825 324.46 212.812 324.494 212.812 324.538V328.36C212.812 328.403 212.825 328.442 212.851 328.477C212.885 328.503 212.924 328.516 212.968 328.516ZM221.25 330.219C220.921 330.219 220.618 330.136 220.34 329.972C220.072 329.807 219.855 329.59 219.69 329.322C219.534 329.053 219.456 328.754 219.456 328.425V325.591H225.41V324.538C225.41 324.494 225.393 324.46 225.358 324.434C225.332 324.399 225.298 324.382 225.254 324.382H219.456V322.679H225.319C225.649 322.679 225.948 322.761 226.216 322.926C226.494 323.09 226.71 323.307 226.866 323.576C227.031 323.844 227.113 324.143 227.113 324.473V330.219H221.25ZM221.315 328.516H225.41V327.125H221.159V328.36C221.159 328.403 221.172 328.442 221.198 328.477C221.233 328.503 221.272 328.516 221.315 328.516ZM229.9 330.219C229.57 330.219 229.271 330.136 229.003 329.972C228.734 329.807 228.517 329.59 228.353 329.322C228.188 329.053 228.106 328.754 228.106 328.425V320.365H229.809V322.679H232.747V324.382H229.809V328.36C229.809 328.403 229.822 328.442 229.848 328.477C229.882 328.503 229.921 328.516 229.965 328.516H232.747V330.219H229.9ZM233.416 330.219V322.679H235.119V330.219H233.416ZM233.416 321.925V320.209H235.119V321.925H233.416ZM237.688 330.219C237.359 330.219 237.06 330.136 236.791 329.972C236.523 329.807 236.306 329.59 236.141 329.322C235.977 329.053 235.894 328.754 235.894 328.425V324.473C235.894 324.143 235.977 323.844 236.141 323.576C236.306 323.307 236.523 323.09 236.791 322.926C237.06 322.761 237.359 322.679 237.688 322.679H241.757C242.087 322.679 242.386 322.761 242.654 322.926C242.932 323.09 243.148 323.307 243.304 323.576C243.469 323.844 243.551 324.143 243.551 324.473V328.425C243.551 328.754 243.469 329.053 243.304 329.322C243.148 329.59 242.936 329.807 242.667 329.972C242.399 330.136 242.095 330.219 241.757 330.219H237.688ZM237.753 328.516H241.692C241.736 328.516 241.77 328.503 241.796 328.477C241.831 328.442 241.848 328.403 241.848 328.36V324.538C241.848 324.494 241.831 324.46 241.796 324.434C241.77 324.399 241.736 324.382 241.692 324.382H237.753C237.71 324.382 237.671 324.399 237.636 324.434C237.61 324.46 237.597 324.494 237.597 324.538V328.36C237.597 328.403 237.61 328.442 237.636 328.477C237.671 328.503 237.71 328.516 237.753 328.516ZM244.227 330.219V322.679H250.09C250.419 322.679 250.718 322.761 250.987 322.926C251.264 323.09 251.481 323.307 251.637 323.576C251.802 323.844 251.884 324.143 251.884 324.473V330.219H250.181V324.538C250.181 324.494 250.164 324.46 250.129 324.434C250.103 324.399 250.068 324.382 250.025 324.382H246.086C246.043 324.382 246.004 324.399 245.969 324.434C245.943 324.46 245.93 324.494 245.93 324.538V330.219H244.227Z" fill="white"/>
<path d="M532.741 310.219V300.846H534.457V308.49H542.101V310.219H532.741ZM544.211 310.219C543.882 310.219 543.578 310.136 543.301 309.972C543.032 309.807 542.816 309.59 542.651 309.322C542.495 309.053 542.417 308.754 542.417 308.425V305.591H548.371V304.538C548.371 304.494 548.354 304.46 548.319 304.434C548.293 304.399 548.258 304.382 548.215 304.382H542.417V302.679H548.28C548.609 302.679 548.908 302.761 549.177 302.926C549.454 303.09 549.671 303.307 549.827 303.576C549.992 303.844 550.074 304.143 550.074 304.473V310.219H544.211ZM544.276 308.516H548.371V307.125H544.12V308.36C544.12 308.403 544.133 308.442 544.159 308.477C544.194 308.503 544.233 308.516 544.276 308.516ZM552.86 310.219C552.531 310.219 552.228 310.136 551.95 309.972C551.682 309.807 551.465 309.59 551.3 309.322C551.144 309.053 551.066 308.754 551.066 308.425V302.679H552.769V308.36C552.769 308.403 552.782 308.442 552.808 308.477C552.843 308.503 552.882 308.516 552.925 308.516H556.864C556.908 308.516 556.942 308.503 556.968 308.477C557.003 308.442 557.02 308.403 557.02 308.36V302.679H558.723V308.425C558.723 308.754 558.641 309.053 558.476 309.322C558.32 309.59 558.108 309.807 557.839 309.972C557.571 310.136 557.267 310.219 556.929 310.219H552.86ZM559.741 310.219V302.679H565.604C565.933 302.679 566.232 302.761 566.501 302.926C566.778 303.09 566.995 303.307 567.151 303.576C567.316 303.844 567.398 304.143 567.398 304.473V310.219H565.695V304.538C565.695 304.494 565.678 304.46 565.643 304.434C565.617 304.399 565.582 304.382 565.539 304.382H561.6C561.557 304.382 561.518 304.399 561.483 304.434C561.457 304.46 561.444 304.494 561.444 304.538V310.219H559.741ZM569.853 310.219C569.524 310.219 569.225 310.136 568.956 309.972C568.687 309.807 568.471 309.59 568.306 309.322C568.141 309.053 568.059 308.754 568.059 308.425V304.473C568.059 304.143 568.141 303.844 568.306 303.576C568.471 303.307 568.687 303.09 568.956 302.926C569.225 302.761 569.524 302.679 569.853 302.679H575.703V304.382H569.918C569.875 304.382 569.836 304.399 569.801 304.434C569.775 304.46 569.762 304.494 569.762 304.538V308.36C569.762 308.403 569.775 308.442 569.801 308.477C569.836 308.503 569.875 308.516 569.918 308.516H575.716V310.219H569.853ZM576.43 310.219V300.209H578.133V302.679H582.293C582.622 302.679 582.921 302.761 583.19 302.926C583.458 303.09 583.675 303.307 583.84 303.576C584.004 303.844 584.087 304.143 584.087 304.473V310.219H582.384V304.538C582.384 304.494 582.366 304.46 582.332 304.434C582.306 304.399 582.271 304.382 582.228 304.382H578.289C578.245 304.382 578.206 304.399 578.172 304.434C578.146 304.46 578.133 304.494 578.133 304.538V310.219H576.43Z" fill="white"/>
<path d="M278.082 259V251.369H274.26V249.64H283.62V251.369H279.811V259H278.082ZM285.931 259C285.602 259 285.303 258.918 285.034 258.753C284.766 258.588 284.549 258.372 284.384 258.103C284.22 257.834 284.137 257.535 284.137 257.206V253.254C284.137 252.925 284.22 252.626 284.384 252.357C284.549 252.088 284.766 251.872 285.034 251.707C285.303 251.542 285.602 251.46 285.931 251.46H290C290.33 251.46 290.629 251.542 290.897 251.707C291.175 251.872 291.391 252.088 291.547 252.357C291.712 252.626 291.794 252.925 291.794 253.254V256.088H285.84V257.141C285.84 257.184 285.853 257.223 285.879 257.258C285.914 257.284 285.953 257.297 285.996 257.297H291.794V259H285.931ZM285.84 254.554H290.091V253.319C290.091 253.276 290.074 253.241 290.039 253.215C290.013 253.18 289.979 253.163 289.935 253.163H285.996C285.953 253.163 285.914 253.18 285.879 253.215C285.853 253.241 285.84 253.276 285.84 253.319V254.554ZM294.414 259C294.085 259 293.786 258.918 293.517 258.753C293.249 258.588 293.032 258.372 292.867 258.103C292.703 257.834 292.62 257.535 292.62 257.206V256.92H294.323V257.141C294.323 257.184 294.336 257.223 294.362 257.258C294.397 257.284 294.436 257.297 294.479 257.297H298.418C298.462 257.297 298.496 257.284 298.522 257.258C298.557 257.223 298.574 257.184 298.574 257.141V256.244C298.574 256.201 298.557 256.166 298.522 256.14C298.496 256.105 298.462 256.088 298.418 256.088H294.414C294.085 256.088 293.786 256.006 293.517 255.841C293.249 255.676 293.032 255.46 292.867 255.191C292.703 254.922 292.62 254.623 292.62 254.294V253.254C292.62 252.925 292.703 252.626 292.867 252.357C293.032 252.088 293.249 251.872 293.517 251.707C293.786 251.542 294.085 251.46 294.414 251.46H298.483C298.821 251.46 299.125 251.542 299.393 251.707C299.662 251.872 299.879 252.088 300.043 252.357C300.208 252.626 300.29 252.925 300.29 253.254V253.54H298.574V253.319C298.574 253.276 298.557 253.241 298.522 253.215C298.496 253.18 298.462 253.163 298.418 253.163H294.479C294.436 253.163 294.397 253.18 294.362 253.215C294.336 253.241 294.323 253.276 294.323 253.319V254.216C294.323 254.259 294.336 254.298 294.362 254.333C294.397 254.359 294.436 254.372 294.479 254.372H298.483C298.821 254.372 299.125 254.454 299.393 254.619C299.662 254.784 299.879 255 300.043 255.269C300.208 255.538 300.29 255.837 300.29 256.166V257.206C300.29 257.535 300.208 257.834 300.043 258.103C299.879 258.372 299.662 258.588 299.393 258.753C299.125 258.918 298.821 259 298.483 259H294.414ZM303.001 259C302.672 259 302.373 258.918 302.104 258.753C301.836 258.588 301.619 258.372 301.454 258.103C301.29 257.834 301.207 257.535 301.207 257.206V249.146H302.91V251.46H305.848V253.163H302.91V257.141C302.91 257.184 302.923 257.223 302.949 257.258C302.984 257.284 303.023 257.297 303.066 257.297H305.848V259H303.001ZM306.517 259V251.46H308.22V259H306.517ZM306.517 250.706V248.99H308.22V250.706H306.517ZM309.34 259V251.46H315.203C315.532 251.46 315.831 251.542 316.1 251.707C316.377 251.872 316.594 252.088 316.75 252.357C316.915 252.626 316.997 252.925 316.997 253.254V259H315.294V253.319C315.294 253.276 315.277 253.241 315.242 253.215C315.216 253.18 315.181 253.163 315.138 253.163H311.199C311.156 253.163 311.117 253.18 311.082 253.215C311.056 253.241 311.043 253.276 311.043 253.319V259H309.34ZM319.005 261.977V260.261H323.542C323.585 260.261 323.62 260.244 323.646 260.209C323.68 260.183 323.698 260.148 323.698 260.105V259H319.538C319.217 259 318.918 258.918 318.641 258.753C318.372 258.588 318.155 258.372 317.991 258.103C317.826 257.834 317.744 257.535 317.744 257.206V253.254C317.744 252.925 317.826 252.626 317.991 252.357C318.155 252.088 318.372 251.872 318.641 251.707C318.918 251.542 319.217 251.46 319.538 251.46H323.62C323.949 251.46 324.248 251.542 324.517 251.707C324.785 251.872 324.998 252.088 325.154 252.357C325.318 252.626 325.401 252.925 325.401 253.254V260.183C325.401 260.521 325.323 260.824 325.167 261.093C325.011 261.362 324.794 261.574 324.517 261.73C324.248 261.895 323.949 261.977 323.62 261.977H319.005ZM319.603 257.297H323.542C323.585 257.297 323.62 257.284 323.646 257.258C323.68 257.223 323.698 257.184 323.698 257.141V253.319C323.698 253.276 323.68 253.241 323.646 253.215C323.62 253.18 323.585 253.163 323.542 253.163H319.603C319.559 253.163 319.52 253.18 319.486 253.215C319.46 253.241 319.447 253.276 319.447 253.319V257.141C319.447 257.184 319.46 257.223 319.486 257.258C319.52 257.284 319.559 257.297 319.603 257.297Z" fill="white"/>
<path d="M489.496 234C489.167 234 488.863 233.918 488.586 233.753C488.317 233.588 488.101 233.372 487.936 233.103C487.771 232.826 487.689 232.522 487.689 232.193V231.478H489.405V232.115C489.405 232.158 489.418 232.197 489.444 232.232C489.479 232.258 489.518 232.271 489.561 232.271H495.164C495.207 232.271 495.242 232.258 495.268 232.232C495.303 232.197 495.32 232.158 495.32 232.115V230.334C495.32 230.291 495.303 230.256 495.268 230.23C495.242 230.204 495.207 230.191 495.164 230.191H489.496C489.167 230.191 488.863 230.109 488.586 229.944C488.317 229.779 488.101 229.563 487.936 229.294C487.771 229.017 487.689 228.709 487.689 228.371V226.447C487.689 226.118 487.771 225.819 487.936 225.55C488.101 225.273 488.317 225.052 488.586 224.887C488.863 224.722 489.167 224.64 489.496 224.64H495.242C495.571 224.64 495.87 224.722 496.139 224.887C496.416 225.052 496.637 225.273 496.802 225.55C496.967 225.819 497.049 226.118 497.049 226.447V227.162H495.32V226.525C495.32 226.482 495.303 226.447 495.268 226.421C495.242 226.386 495.207 226.369 495.164 226.369H489.561C489.518 226.369 489.479 226.386 489.444 226.421C489.418 226.447 489.405 226.482 489.405 226.525V228.306C489.405 228.349 489.418 228.384 489.444 228.41C489.479 228.436 489.518 228.449 489.561 228.449H495.242C495.571 228.449 495.87 228.531 496.139 228.696C496.416 228.861 496.637 229.082 496.802 229.359C496.967 229.628 497.049 229.931 497.049 230.269V232.193C497.049 232.522 496.967 232.826 496.802 233.103C496.637 233.372 496.416 233.588 496.139 233.753C495.87 233.918 495.571 234 495.242 234H489.496ZM499.157 236.795V235.079H503.694C503.738 235.079 503.772 235.062 503.798 235.027C503.833 235.001 503.85 234.966 503.85 234.923V234H499.69C499.37 234 499.071 233.918 498.793 233.753C498.525 233.588 498.308 233.372 498.143 233.103C497.979 232.834 497.896 232.535 497.896 232.206V226.486H499.599V232.141C499.599 232.184 499.612 232.223 499.638 232.258C499.673 232.284 499.712 232.297 499.755 232.297H503.694C503.738 232.297 503.772 232.284 503.798 232.258C503.833 232.223 503.85 232.184 503.85 232.141V226.486H505.553V235.001C505.553 235.33 505.475 235.629 505.319 235.898C505.163 236.175 504.947 236.392 504.669 236.548C504.401 236.713 504.102 236.795 503.772 236.795H499.157ZM508.189 234C507.859 234 507.56 233.918 507.292 233.753C507.023 233.588 506.806 233.372 506.642 233.103C506.477 232.834 506.395 232.535 506.395 232.206V231.92H508.098V232.141C508.098 232.184 508.111 232.223 508.137 232.258C508.171 232.284 508.21 232.297 508.254 232.297H512.193C512.236 232.297 512.271 232.284 512.297 232.258C512.331 232.223 512.349 232.184 512.349 232.141V231.244C512.349 231.201 512.331 231.166 512.297 231.14C512.271 231.105 512.236 231.088 512.193 231.088H508.189C507.859 231.088 507.56 231.006 507.292 230.841C507.023 230.676 506.806 230.46 506.642 230.191C506.477 229.922 506.395 229.623 506.395 229.294V228.254C506.395 227.925 506.477 227.626 506.642 227.357C506.806 227.088 507.023 226.872 507.292 226.707C507.56 226.542 507.859 226.46 508.189 226.46H512.258C512.596 226.46 512.899 226.542 513.168 226.707C513.436 226.872 513.653 227.088 513.818 227.357C513.982 227.626 514.065 227.925 514.065 228.254V228.54H512.349V228.319C512.349 228.276 512.331 228.241 512.297 228.215C512.271 228.18 512.236 228.163 512.193 228.163H508.254C508.21 228.163 508.171 228.18 508.137 228.215C508.111 228.241 508.098 228.276 508.098 228.319V229.216C508.098 229.259 508.111 229.298 508.137 229.333C508.171 229.359 508.21 229.372 508.254 229.372H512.258C512.596 229.372 512.899 229.454 513.168 229.619C513.436 229.784 513.653 230 513.818 230.269C513.982 230.538 514.065 230.837 514.065 231.166V232.206C514.065 232.535 513.982 232.834 513.818 233.103C513.653 233.372 513.436 233.588 513.168 233.753C512.899 233.918 512.596 234 512.258 234H508.189ZM516.776 234C516.447 234 516.148 233.918 515.879 233.753C515.61 233.588 515.394 233.372 515.229 233.103C515.064 232.834 514.982 232.535 514.982 232.206V224.146H516.685V226.46H519.623V228.163H516.685V232.141C516.685 232.184 516.698 232.223 516.724 232.258C516.759 232.284 516.798 232.297 516.841 232.297H519.623V234H516.776ZM522.06 234C521.731 234 521.432 233.918 521.163 233.753C520.894 233.588 520.678 233.372 520.513 233.103C520.348 232.834 520.266 232.535 520.266 232.206V228.254C520.266 227.925 520.348 227.626 520.513 227.357C520.678 227.088 520.894 226.872 521.163 226.707C521.432 226.542 521.731 226.46 522.06 226.46H526.129C526.458 226.46 526.757 226.542 527.026 226.707C527.303 226.872 527.52 227.088 527.676 227.357C527.841 227.626 527.923 227.925 527.923 228.254V231.088H521.969V232.141C521.969 232.184 521.982 232.223 522.008 232.258C522.043 232.284 522.082 232.297 522.125 232.297H527.923V234H522.06ZM521.969 229.554H526.22V228.319C526.22 228.276 526.203 228.241 526.168 228.215C526.142 228.18 526.107 228.163 526.064 228.163H522.125C522.082 228.163 522.043 228.18 522.008 228.215C521.982 228.241 521.969 228.276 521.969 228.319V229.554ZM528.916 234V226.46H538.263C538.601 226.46 538.904 226.542 539.173 226.707C539.442 226.872 539.654 227.088 539.81 227.357C539.975 227.626 540.057 227.925 540.057 228.254V234H538.367V228.319C538.367 228.276 538.35 228.241 538.315 228.215C538.28 228.18 538.241 228.163 538.198 228.163H535.507C535.464 228.163 535.425 228.18 535.39 228.215C535.364 228.241 535.351 228.276 535.351 228.319V234H533.635V228.319C533.635 228.276 533.618 228.241 533.583 228.215C533.557 228.18 533.522 228.163 533.479 228.163H530.775C530.732 228.163 530.693 228.18 530.658 228.215C530.632 228.241 530.619 228.276 530.619 228.319V234H528.916ZM544.87 234V224.64H552.41C552.739 224.64 553.042 224.722 553.32 224.887C553.597 225.052 553.818 225.273 553.983 225.55C554.147 225.819 554.23 226.118 554.23 226.447V232.193C554.23 232.522 554.147 232.826 553.983 233.103C553.818 233.372 553.597 233.588 553.32 233.753C553.042 233.918 552.739 234 552.41 234H544.87ZM546.729 232.271H552.332C552.375 232.271 552.414 232.258 552.449 232.232C552.483 232.197 552.501 232.158 552.501 232.115V226.525C552.501 226.482 552.483 226.447 552.449 226.421C552.414 226.386 552.375 226.369 552.332 226.369H546.729C546.685 226.369 546.646 226.386 546.612 226.421C546.586 226.447 546.573 226.482 546.573 226.525V232.115C546.573 232.158 546.586 232.197 546.612 232.232C546.646 232.258 546.685 232.271 546.729 232.271ZM557.024 234C556.695 234 556.396 233.918 556.127 233.753C555.859 233.588 555.642 233.372 555.477 233.103C555.313 232.834 555.23 232.535 555.23 232.206V228.254C555.23 227.925 555.313 227.626 555.477 227.357C555.642 227.088 555.859 226.872 556.127 226.707C556.396 226.542 556.695 226.46 557.024 226.46H561.093C561.423 226.46 561.722 226.542 561.99 226.707C562.268 226.872 562.484 227.088 562.64 227.357C562.805 227.626 562.887 227.925 562.887 228.254V231.088H556.933V232.141C556.933 232.184 556.946 232.223 556.972 232.258C557.007 232.284 557.046 232.297 557.089 232.297H562.887V234H557.024ZM556.933 229.554H561.184V228.319C561.184 228.276 561.167 228.241 561.132 228.215C561.106 228.18 561.072 228.163 561.028 228.163H557.089C557.046 228.163 557.007 228.18 556.972 228.215C556.946 228.241 556.933 228.276 556.933 228.319V229.554ZM565.508 234C565.178 234 564.879 233.918 564.611 233.753C564.342 233.588 564.125 233.372 563.961 233.103C563.796 232.834 563.714 232.535 563.714 232.206V231.92H565.417V232.141C565.417 232.184 565.43 232.223 565.456 232.258C565.49 232.284 565.529 232.297 565.573 232.297H569.512C569.555 232.297 569.59 232.284 569.616 232.258C569.65 232.223 569.668 232.184 569.668 232.141V231.244C569.668 231.201 569.65 231.166 569.616 231.14C569.59 231.105 569.555 231.088 569.512 231.088H565.508C565.178 231.088 564.879 231.006 564.611 230.841C564.342 230.676 564.125 230.46 563.961 230.191C563.796 229.922 563.714 229.623 563.714 229.294V228.254C563.714 227.925 563.796 227.626 563.961 227.357C564.125 227.088 564.342 226.872 564.611 226.707C564.879 226.542 565.178 226.46 565.508 226.46H569.577C569.915 226.46 570.218 226.542 570.487 226.707C570.755 226.872 570.972 227.088 571.137 227.357C571.301 227.626 571.384 227.925 571.384 228.254V228.54H569.668V228.319C569.668 228.276 569.65 228.241 569.616 228.215C569.59 228.18 569.555 228.163 569.512 228.163H565.573C565.529 228.163 565.49 228.18 565.456 228.215C565.43 228.241 565.417 228.276 565.417 228.319V229.216C565.417 229.259 565.43 229.298 565.456 229.333C565.49 229.359 565.529 229.372 565.573 229.372H569.577C569.915 229.372 570.218 229.454 570.487 229.619C570.755 229.784 570.972 230 571.137 230.269C571.301 230.538 571.384 230.837 571.384 231.166V232.206C571.384 232.535 571.301 232.834 571.137 233.103C570.972 233.372 570.755 233.588 570.487 233.753C570.218 233.918 569.915 234 569.577 234H565.508ZM572.288 234V226.46H573.991V234H572.288ZM572.288 225.706V223.99H573.991V225.706H572.288ZM575.898 236.977V235.261H580.435C580.478 235.261 580.513 235.244 580.539 235.209C580.573 235.183 580.591 235.148 580.591 235.105V234H576.431C576.11 234 575.811 233.918 575.534 233.753C575.265 233.588 575.048 233.372 574.884 233.103C574.719 232.834 574.637 232.535 574.637 232.206V228.254C574.637 227.925 574.719 227.626 574.884 227.357C575.048 227.088 575.265 226.872 575.534 226.707C575.811 226.542 576.11 226.46 576.431 226.46H580.513C580.842 226.46 581.141 226.542 581.41 226.707C581.678 226.872 581.891 227.088 582.047 227.357C582.211 227.626 582.294 227.925 582.294 228.254V235.183C582.294 235.521 582.216 235.824 582.06 236.093C581.904 236.362 581.687 236.574 581.41 236.73C581.141 236.895 580.842 236.977 580.513 236.977H575.898ZM576.496 232.297H580.435C580.478 232.297 580.513 232.284 580.539 232.258C580.573 232.223 580.591 232.184 580.591 232.141V228.319C580.591 228.276 580.573 228.241 580.539 228.215C580.513 228.18 580.478 228.163 580.435 228.163H576.496C576.452 228.163 576.413 228.18 576.379 228.215C576.353 228.241 576.34 228.276 576.34 228.319V232.141C576.34 232.184 576.353 232.223 576.379 232.258C576.413 232.284 576.452 232.297 576.496 232.297ZM583.29 234V226.46H589.153C589.482 226.46 589.781 226.542 590.05 226.707C590.327 226.872 590.544 227.088 590.7 227.357C590.864 227.626 590.947 227.925 590.947 228.254V234H589.244V228.319C589.244 228.276 589.226 228.241 589.192 228.215C589.166 228.18 589.131 228.163 589.088 228.163H585.149C585.105 228.163 585.066 228.18 585.032 228.215C585.006 228.241 584.993 228.276 584.993 228.319V234H583.29Z" fill="white"/>
<path d="M252.754 177V167.64H260.294C260.623 167.64 260.927 167.722 261.204 167.887C261.481 168.052 261.702 168.273 261.867 168.55C262.032 168.819 262.114 169.118 262.114 169.447V175.193C262.114 175.522 262.032 175.826 261.867 176.103C261.702 176.372 261.481 176.588 261.204 176.753C260.927 176.918 260.623 177 260.294 177H252.754ZM254.613 175.271H260.216C260.259 175.271 260.298 175.258 260.333 175.232C260.368 175.197 260.385 175.158 260.385 175.115V169.525C260.385 169.482 260.368 169.447 260.333 169.421C260.298 169.386 260.259 169.369 260.216 169.369H254.613C254.57 169.369 254.531 169.386 254.496 169.421C254.47 169.447 254.457 169.482 254.457 169.525V175.115C254.457 175.158 254.47 175.197 254.496 175.232C254.531 175.258 254.57 175.271 254.613 175.271ZM264.909 177C264.579 177 264.28 176.918 264.012 176.753C263.743 176.588 263.526 176.372 263.362 176.103C263.197 175.834 263.115 175.535 263.115 175.206V171.254C263.115 170.925 263.197 170.626 263.362 170.357C263.526 170.088 263.743 169.872 264.012 169.707C264.28 169.542 264.579 169.46 264.909 169.46H268.978C269.307 169.46 269.606 169.542 269.875 169.707C270.152 169.872 270.369 170.088 270.525 170.357C270.689 170.626 270.772 170.925 270.772 171.254V174.088H264.818V175.141C264.818 175.184 264.831 175.223 264.857 175.258C264.891 175.284 264.93 175.297 264.974 175.297H270.772V177H264.909ZM264.818 172.554H269.069V171.319C269.069 171.276 269.051 171.241 269.017 171.215C268.991 171.18 268.956 171.163 268.913 171.163H264.974C264.93 171.163 264.891 171.18 264.857 171.215C264.831 171.241 264.818 171.276 264.818 171.319V172.554ZM274.899 177L270.752 169.46H272.715L275.692 174.933L278.656 169.46H280.619L276.459 177H274.899ZM282.423 177C282.093 177 281.794 176.918 281.526 176.753C281.257 176.588 281.04 176.372 280.876 176.103C280.711 175.834 280.629 175.535 280.629 175.206V171.254C280.629 170.925 280.711 170.626 280.876 170.357C281.04 170.088 281.257 169.872 281.526 169.707C281.794 169.542 282.093 169.46 282.423 169.46H286.492C286.821 169.46 287.12 169.542 287.389 169.707C287.666 169.872 287.883 170.088 288.039 170.357C288.203 170.626 288.286 170.925 288.286 171.254V174.088H282.332V175.141C282.332 175.184 282.345 175.223 282.371 175.258C282.405 175.284 282.444 175.297 282.488 175.297H288.286V177H282.423ZM282.332 172.554H286.583V171.319C286.583 171.276 286.565 171.241 286.531 171.215C286.505 171.18 286.47 171.163 286.427 171.163H282.488C282.444 171.163 282.405 171.18 282.371 171.215C282.345 171.241 282.332 171.276 282.332 171.319V172.554ZM290.742 177C290.413 177 290.114 176.918 289.845 176.753C289.576 176.588 289.36 176.372 289.195 176.103C289.03 175.834 288.948 175.535 288.948 175.206V166.977H290.664V175.141C290.664 175.184 290.677 175.223 290.703 175.258C290.738 175.284 290.777 175.297 290.82 175.297H292.263V177H290.742ZM294.63 177C294.301 177 294.002 176.918 293.733 176.753C293.464 176.588 293.248 176.372 293.083 176.103C292.918 175.834 292.836 175.535 292.836 175.206V171.254C292.836 170.925 292.918 170.626 293.083 170.357C293.248 170.088 293.464 169.872 293.733 169.707C294.002 169.542 294.301 169.46 294.63 169.46H298.699C299.028 169.46 299.327 169.542 299.596 169.707C299.873 169.872 300.09 170.088 300.246 170.357C300.411 170.626 300.493 170.925 300.493 171.254V175.206C300.493 175.535 300.411 175.834 300.246 176.103C300.09 176.372 299.878 176.588 299.609 176.753C299.34 176.918 299.037 177 298.699 177H294.63ZM294.695 175.297H298.634C298.677 175.297 298.712 175.284 298.738 175.258C298.773 175.223 298.79 175.184 298.79 175.141V171.319C298.79 171.276 298.773 171.241 298.738 171.215C298.712 171.18 298.677 171.163 298.634 171.163H294.695C294.652 171.163 294.613 171.18 294.578 171.215C294.552 171.241 294.539 171.276 294.539 171.319V175.141C294.539 175.184 294.552 175.223 294.578 175.258C294.613 175.284 294.652 175.297 294.695 175.297ZM301.486 179.99V169.46H307.349C307.678 169.46 307.977 169.542 308.246 169.707C308.523 169.872 308.74 170.088 308.896 170.357C309.061 170.626 309.143 170.925 309.143 171.254V175.206C309.143 175.535 309.061 175.834 308.896 176.103C308.74 176.372 308.523 176.588 308.246 176.753C307.977 176.918 307.678 177 307.349 177H303.189V179.99H301.486ZM303.345 175.297H307.284C307.327 175.297 307.362 175.284 307.388 175.258C307.423 175.223 307.44 175.184 307.44 175.141V171.319C307.44 171.276 307.423 171.241 307.388 171.215C307.362 171.18 307.327 171.163 307.284 171.163H303.345C303.302 171.163 303.263 171.18 303.228 171.215C303.202 171.241 303.189 171.276 303.189 171.319V175.141C303.189 175.184 303.202 175.223 303.228 175.258C303.263 175.284 303.302 175.297 303.345 175.297ZM309.729 177V169.46H319.076C319.414 169.46 319.717 169.542 319.986 169.707C320.255 169.872 320.467 170.088 320.623 170.357C320.788 170.626 320.87 170.925 320.87 171.254V177H319.18V171.319C319.18 171.276 319.163 171.241 319.128 171.215C319.093 171.18 319.054 171.163 319.011 171.163H316.32C316.277 171.163 316.238 171.18 316.203 171.215C316.177 171.241 316.164 171.276 316.164 171.319V177H314.448V171.319C314.448 171.276 314.431 171.241 314.396 171.215C314.37 171.18 314.335 171.163 314.292 171.163H311.588C311.545 171.163 311.506 171.18 311.471 171.215C311.445 171.241 311.432 171.276 311.432 171.319V177H309.729ZM323.446 177C323.117 177 322.818 176.918 322.549 176.753C322.281 176.588 322.064 176.372 321.899 176.103C321.735 175.834 321.652 175.535 321.652 175.206V171.254C321.652 170.925 321.735 170.626 321.899 170.357C322.064 170.088 322.281 169.872 322.549 169.707C322.818 169.542 323.117 169.46 323.446 169.46H327.515C327.845 169.46 328.144 169.542 328.412 169.707C328.69 169.872 328.906 170.088 329.062 170.357C329.227 170.626 329.309 170.925 329.309 171.254V174.088H323.355V175.141C323.355 175.184 323.368 175.223 323.394 175.258C323.429 175.284 323.468 175.297 323.511 175.297H329.309V177H323.446ZM323.355 172.554H327.606V171.319C327.606 171.276 327.589 171.241 327.554 171.215C327.528 171.18 327.494 171.163 327.45 171.163H323.511C323.468 171.163 323.429 171.18 323.394 171.215C323.368 171.241 323.355 171.276 323.355 171.319V172.554ZM330.302 177V169.46H336.165C336.495 169.46 336.794 169.542 337.062 169.707C337.34 169.872 337.556 170.088 337.712 170.357C337.877 170.626 337.959 170.925 337.959 171.254V177H336.256V171.319C336.256 171.276 336.239 171.241 336.204 171.215C336.178 171.18 336.144 171.163 336.1 171.163H332.161C332.118 171.163 332.079 171.18 332.044 171.215C332.018 171.241 332.005 171.276 332.005 171.319V177H330.302ZM340.745 177C340.416 177 340.117 176.918 339.848 176.753C339.579 176.588 339.363 176.372 339.198 176.103C339.033 175.834 338.951 175.535 338.951 175.206V167.146H340.654V169.46H343.592V171.163H340.654V175.141C340.654 175.184 340.667 175.223 340.693 175.258C340.728 175.284 340.767 175.297 340.81 175.297H343.592V177H340.745Z" fill="white"/>
<path d="M476.754 132V122.64H484.294C484.623 122.64 484.927 122.722 485.204 122.887C485.481 123.052 485.702 123.273 485.867 123.55C486.032 123.819 486.114 124.118 486.114 124.447V130.193C486.114 130.522 486.032 130.826 485.867 131.103C485.702 131.372 485.481 131.588 485.204 131.753C484.927 131.918 484.623 132 484.294 132H476.754ZM478.613 130.271H484.216C484.259 130.271 484.298 130.258 484.333 130.232C484.368 130.197 484.385 130.158 484.385 130.115V124.525C484.385 124.482 484.368 124.447 484.333 124.421C484.298 124.386 484.259 124.369 484.216 124.369H478.613C478.57 124.369 478.531 124.386 478.496 124.421C478.47 124.447 478.457 124.482 478.457 124.525V130.115C478.457 130.158 478.47 130.197 478.496 130.232C478.531 130.258 478.57 130.271 478.613 130.271ZM488.922 132C488.592 132 488.289 131.918 488.012 131.753C487.743 131.588 487.526 131.372 487.362 131.103C487.206 130.834 487.128 130.535 487.128 130.206V127.372H493.082V126.319C493.082 126.276 493.064 126.241 493.03 126.215C493.004 126.18 492.969 126.163 492.926 126.163H487.128V124.46H492.991C493.32 124.46 493.619 124.542 493.888 124.707C494.165 124.872 494.382 125.088 494.538 125.357C494.702 125.626 494.785 125.925 494.785 126.254V132H488.922ZM488.987 130.297H493.082V128.906H488.831V130.141C488.831 130.184 488.844 130.223 488.87 130.258C488.904 130.284 488.943 130.297 488.987 130.297ZM495.764 132V124.46H497.467V132H495.764ZM495.764 123.706V121.99H497.467V123.706H495.764ZM500.317 132C499.987 132 499.688 131.918 499.42 131.753C499.151 131.588 498.934 131.372 498.77 131.103C498.605 130.834 498.523 130.535 498.523 130.206V121.977H500.239V130.141C500.239 130.184 500.252 130.223 500.278 130.258C500.312 130.284 500.351 130.297 500.395 130.297H501.838V132H500.317ZM503.682 134.795V133.079H508.219C508.262 133.079 508.297 133.062 508.323 133.027C508.357 133.001 508.375 132.966 508.375 132.923V132H504.215C503.894 132 503.595 131.918 503.318 131.753C503.049 131.588 502.832 131.372 502.668 131.103C502.503 130.834 502.421 130.535 502.421 130.206V124.486H504.124V130.141C504.124 130.184 504.137 130.223 504.163 130.258C504.197 130.284 504.236 130.297 504.28 130.297H508.219C508.262 130.297 508.297 130.284 508.323 130.258C508.357 130.223 508.375 130.184 508.375 130.141V124.486H510.078V133.001C510.078 133.33 510 133.629 509.844 133.898C509.688 134.175 509.471 134.392 509.194 134.548C508.925 134.713 508.626 134.795 508.297 134.795H503.682ZM516.464 132C516.134 132 515.831 131.918 515.554 131.753C515.285 131.588 515.068 131.372 514.904 131.103C514.739 130.826 514.657 130.522 514.657 130.193V129.478H516.373V130.115C516.373 130.158 516.386 130.197 516.412 130.232C516.446 130.258 516.485 130.271 516.529 130.271H522.132C522.175 130.271 522.21 130.258 522.236 130.232C522.27 130.197 522.288 130.158 522.288 130.115V128.334C522.288 128.291 522.27 128.256 522.236 128.23C522.21 128.204 522.175 128.191 522.132 128.191H516.464C516.134 128.191 515.831 128.109 515.554 127.944C515.285 127.779 515.068 127.563 514.904 127.294C514.739 127.017 514.657 126.709 514.657 126.371V124.447C514.657 124.118 514.739 123.819 514.904 123.55C515.068 123.273 515.285 123.052 515.554 122.887C515.831 122.722 516.134 122.64 516.464 122.64H522.21C522.539 122.64 522.838 122.722 523.107 122.887C523.384 123.052 523.605 123.273 523.77 123.55C523.934 123.819 524.017 124.118 524.017 124.447V125.162H522.288V124.525C522.288 124.482 522.27 124.447 522.236 124.421C522.21 124.386 522.175 124.369 522.132 124.369H516.529C516.485 124.369 516.446 124.386 516.412 124.421C516.386 124.447 516.373 124.482 516.373 124.525V126.306C516.373 126.349 516.386 126.384 516.412 126.41C516.446 126.436 516.485 126.449 516.529 126.449H522.21C522.539 126.449 522.838 126.531 523.107 126.696C523.384 126.861 523.605 127.082 523.77 127.359C523.934 127.628 524.017 127.931 524.017 128.269V130.193C524.017 130.522 523.934 130.826 523.77 131.103C523.605 131.372 523.384 131.588 523.107 131.753C522.838 131.918 522.539 132 522.21 132H516.464ZM526.775 132C526.446 132 526.147 131.918 525.878 131.753C525.609 131.588 525.393 131.372 525.228 131.103C525.063 130.834 524.981 130.535 524.981 130.206V126.254C524.981 125.925 525.063 125.626 525.228 125.357C525.393 125.088 525.609 124.872 525.878 124.707C526.147 124.542 526.446 124.46 526.775 124.46H532.625V126.163H526.84C526.797 126.163 526.758 126.18 526.723 126.215C526.697 126.241 526.684 126.276 526.684 126.319V130.141C526.684 130.184 526.697 130.223 526.723 130.258C526.758 130.284 526.797 130.297 526.84 130.297H532.638V132H526.775ZM533.554 132V126.254C533.554 125.925 533.636 125.626 533.801 125.357C533.966 125.088 534.182 124.872 534.451 124.707C534.728 124.542 535.027 124.46 535.348 124.46H539.534V126.163H535.413C535.37 126.163 535.331 126.18 535.296 126.215C535.27 126.241 535.257 126.276 535.257 126.319V132H533.554ZM541.941 132C541.611 132 541.308 131.918 541.031 131.753C540.762 131.588 540.545 131.372 540.381 131.103C540.225 130.834 540.147 130.535 540.147 130.206V124.46H541.85V130.141C541.85 130.184 541.863 130.223 541.889 130.258C541.923 130.284 541.962 130.297 542.006 130.297H545.945C545.988 130.297 546.023 130.284 546.049 130.258C546.083 130.223 546.101 130.184 546.101 130.141V124.46H547.804V130.206C547.804 130.535 547.721 130.834 547.557 131.103C547.401 131.372 547.188 131.588 546.92 131.753C546.651 131.918 546.348 132 546.01 132H541.941ZM548.491 132V124.46H557.838C558.176 124.46 558.48 124.542 558.748 124.707C559.017 124.872 559.229 125.088 559.385 125.357C559.55 125.626 559.632 125.925 559.632 126.254V132H557.942V126.319C557.942 126.276 557.925 126.241 557.89 126.215C557.856 126.18 557.817 126.163 557.773 126.163H555.082C555.039 126.163 555 126.18 554.965 126.215C554.939 126.241 554.926 126.276 554.926 126.319V132H553.21V126.319C553.21 126.276 553.193 126.241 553.158 126.215C553.132 126.18 553.098 126.163 553.054 126.163H550.35C550.307 126.163 550.268 126.18 550.233 126.215C550.207 126.241 550.194 126.276 550.194 126.319V132H548.491Z" fill="white"/>
<path d="M288.061 292.061C288.646 291.475 288.646 290.525 288.061 289.939L278.515 280.393C277.929 279.808 276.979 279.808 276.393 280.393C275.808 280.979 275.808 281.929 276.393 282.515L284.879 291L276.393 299.485C275.808 300.071 275.808 301.021 276.393 301.607C276.979 302.192 277.929 302.192 278.515 301.607L288.061 292.061ZM164 292.5H287V289.5H164V292.5Z" fill="white"/>
<path d="M655.061 292.061C655.646 291.475 655.646 290.525 655.061 289.939L645.515 280.393C644.929 279.808 643.979 279.808 643.393 280.393C642.808 280.979 642.808 281.929 643.393 282.515L651.879 291L643.393 299.485C642.808 300.071 642.808 301.021 643.393 301.607C643.979 302.192 644.929 302.192 645.515 301.607L655.061 292.061ZM531 292.5H654V289.5H531V292.5Z" fill="white"/>
<path d="M486.094 203.663C485.601 203.663 485.121 203.507 484.721 203.219C484.321 202.93 484.021 202.523 483.865 202.055C483.709 201.586 483.705 201.081 483.852 200.61C483.999 200.139 484.29 199.726 484.685 199.43C488.216 196.796 491.016 193.302 492.819 189.28C494.623 185.259 495.369 180.843 494.988 176.451C494.607 172.06 493.112 167.839 490.643 164.188C488.174 160.538 484.814 157.58 480.882 155.594C476.95 153.608 472.576 152.661 468.176 152.843C463.775 153.024 459.494 154.328 455.739 156.631C451.983 158.933 448.878 162.158 446.718 165.999C444.557 169.841 443.413 174.171 443.394 178.579C443.394 179.202 443.147 179.801 442.706 180.242C442.266 180.683 441.668 180.93 441.045 180.93C440.422 180.93 439.824 180.683 439.383 180.242C438.943 179.801 438.695 179.202 438.695 178.579C438.694 173.362 440.026 168.232 442.566 163.677C445.105 159.122 448.766 155.292 453.202 152.553C457.637 149.814 462.699 148.257 467.906 148.029C473.113 147.801 478.292 148.911 482.949 151.252C487.606 153.593 491.588 157.088 494.514 161.405C497.441 165.721 499.215 170.715 499.669 175.912C500.122 181.108 499.24 186.334 497.105 191.093C494.97 195.852 491.654 199.985 487.473 203.098C487.089 203.435 486.604 203.634 486.094 203.663Z" fill="white"/>
<path d="M484.53 195.07L478.641 205.198L490.357 205.229L484.53 195.07Z" fill="white"/>
<path d="M469.24 185.633C467.846 185.633 466.483 185.219 465.324 184.444C464.165 183.669 463.261 182.567 462.728 181.278C462.194 179.989 462.055 178.57 462.327 177.202C462.599 175.833 463.27 174.576 464.256 173.59C465.242 172.603 466.498 171.931 467.865 171.659C469.232 171.387 470.65 171.526 471.938 172.06C473.226 172.594 474.327 173.499 475.101 174.659C475.876 175.819 476.289 177.183 476.289 178.578C476.289 180.449 475.546 182.244 474.224 183.567C472.903 184.89 471.11 185.633 469.24 185.633ZM469.24 176.227C468.775 176.227 468.321 176.365 467.935 176.623C467.548 176.881 467.247 177.249 467.069 177.678C466.892 178.108 466.845 178.581 466.936 179.037C467.026 179.493 467.25 179.912 467.579 180.241C467.907 180.57 468.326 180.794 468.782 180.885C469.238 180.975 469.71 180.929 470.139 180.751C470.569 180.573 470.936 180.272 471.194 179.885C471.452 179.498 471.59 179.043 471.59 178.578C471.582 177.957 471.332 177.364 470.893 176.924C470.454 176.485 469.861 176.235 469.24 176.227Z" fill="white"/>
<path d="M473.66 176.51C473.04 176.497 472.447 176.251 472 175.82C471.56 175.38 471.312 174.782 471.312 174.159C471.312 173.535 471.56 172.938 472 172.497L480.865 163.623C481.311 163.208 481.9 162.982 482.509 162.993C483.117 163.003 483.698 163.25 484.129 163.681C484.559 164.112 484.806 164.693 484.816 165.302C484.827 165.912 484.601 166.501 484.186 166.947L475.32 175.82C474.88 176.262 474.283 176.51 473.66 176.51Z" fill="white"/>
<path d="M496.024 289.575L488.975 280.168C488.684 279.779 488.305 279.463 487.87 279.245C487.435 279.027 486.956 278.914 486.469 278.914H469.239C468.33 280.262 467.359 281.579 466.357 282.833C459.159 292.008 449.822 299.276 439.164 303.998H486.469C486.956 303.998 487.435 303.885 487.87 303.667C488.305 303.449 488.684 303.133 488.975 302.744L496.024 293.337C496.431 292.795 496.651 292.134 496.651 291.456C496.651 290.778 496.431 290.118 496.024 289.575Z" fill="#8E8FFA"/>
<path d="M359.155 247.342L367.112 236.744C367.345 236.438 367.65 236.194 368 236.036C368.35 235.877 368.734 235.808 369.117 235.834C369.6 227.194 372.818 218.931 378.306 212.242C383.793 205.554 391.265 200.787 399.64 198.633C408.014 196.478 416.857 197.047 424.887 200.257C432.917 203.467 439.717 209.152 444.304 216.488L446.372 203.664C446.494 203.041 446.854 202.49 447.374 202.128C447.901 201.781 448.543 201.657 449.16 201.783L466.829 205.42C459.733 192.967 448.77 183.172 435.606 177.523C422.441 171.874 407.795 170.679 393.89 174.12C379.985 177.561 367.583 185.45 358.566 196.589C349.548 207.727 344.41 221.507 343.93 235.834C344.416 235.852 344.885 236.016 345.277 236.305L359.155 247.342Z" fill="#190482"/>
<path d="M369.176 241.822L361.469 252.107C361.281 252.362 361.042 252.575 360.767 252.731C360.492 252.888 360.186 252.985 359.871 253.016H359.589C359.058 253.007 358.543 252.832 358.117 252.514L344.082 241.289C344.602 252.393 347.933 263.182 353.762 272.644H388.035C382.735 269.304 378.277 264.785 375.006 259.44C371.735 254.094 369.74 248.065 369.176 241.822Z" fill="#8E8FFA"/>
<path d="M461.346 278.921C462.938 276.917 464.413 274.823 465.764 272.65C471.246 263.746 474.522 253.658 475.318 243.23C476.113 232.801 474.406 222.333 470.338 212.699L469.241 210.379C468.79 210.582 468.288 210.648 467.8 210.567L450.538 206.992L448.251 220.067C448.187 220.436 448.033 220.782 447.804 221.078C447.575 221.373 447.276 221.607 446.936 221.76C447.628 223.332 448.225 224.945 448.721 226.589C449.842 230.344 450.422 234.24 450.444 238.159C450.442 245.051 448.693 251.83 445.362 257.861C442.031 263.893 437.226 268.981 431.397 272.65C424.919 276.772 417.395 278.949 409.718 278.921H325.133C324.302 278.921 323.505 279.251 322.918 279.839C322.33 280.427 322 281.225 322 282.056V300.869C322 301.701 322.33 302.498 322.918 303.086C323.505 303.674 324.302 304.005 325.133 304.005H409.718C419.661 304.017 429.477 301.765 438.421 297.419C447.366 293.073 455.206 286.748 461.346 278.921Z" fill="#7752FE"/>
<path d="M429.737 222.883C430.169 222.438 430.411 221.842 430.411 221.221C430.411 220.601 430.169 220.005 429.737 219.56C429.302 219.193 428.748 218.997 428.179 219.008C427.611 219.019 427.065 219.236 426.644 219.619C426.223 220.002 425.955 220.525 425.89 221.091C425.825 221.657 425.968 222.227 426.291 222.695C426.505 222.941 426.77 223.139 427.068 223.274C427.365 223.409 427.687 223.479 428.014 223.479C428.643 223.51 429.261 223.297 429.737 222.883Z" fill="white"/>
<path d="M420.901 262.953C421.262 262.964 421.619 262.878 421.935 262.703C422.213 262.569 422.461 262.381 422.665 262.15C422.869 261.92 423.026 261.65 423.125 261.358C423.224 261.067 423.264 260.758 423.243 260.45C423.221 260.143 423.139 259.842 423 259.567C422.718 259.017 422.234 258.599 421.649 258.4C421.065 258.201 420.426 258.237 419.867 258.501C419.318 258.783 418.902 259.27 418.708 259.857C418.515 260.443 418.56 261.083 418.834 261.636C419.021 262.027 419.314 262.358 419.679 262.591C420.045 262.823 420.468 262.949 420.901 262.953Z" fill="white"/>
<path d="M420.78 217.989C421.218 217.99 421.648 217.867 422.02 217.634C422.391 217.401 422.689 217.067 422.879 216.672C423.142 216.113 423.178 215.474 422.979 214.889C422.78 214.304 422.362 213.819 421.813 213.536C421.253 213.262 420.606 213.222 420.015 213.425C419.425 213.627 418.939 214.057 418.665 214.618C418.391 215.179 418.351 215.827 418.553 216.418C418.756 217.009 419.185 217.495 419.746 217.769C420.07 217.919 420.423 217.994 420.78 217.989Z" fill="white"/>
<path d="M432.241 249.405C432.519 249.464 432.808 249.464 433.086 249.405C433.556 249.403 434.016 249.263 434.406 249C434.796 248.738 435.1 248.366 435.279 247.931C435.415 247.639 435.488 247.322 435.492 247C435.497 246.677 435.434 246.358 435.307 246.062C435.179 245.766 434.991 245.5 434.754 245.282C434.518 245.064 434.237 244.898 433.932 244.796C433.639 244.644 433.318 244.555 432.988 244.535C432.659 244.516 432.329 244.566 432.02 244.683C431.712 244.799 431.431 244.979 431.196 245.212C430.962 245.444 430.779 245.723 430.659 246.031C430.54 246.339 430.487 246.669 430.503 246.999C430.519 247.328 430.605 247.651 430.754 247.946C430.903 248.24 431.112 248.5 431.369 248.708C431.625 248.917 431.922 249.069 432.241 249.154V249.405Z" fill="white"/>
<path d="M428.234 257.405C428.706 257.405 429.167 257.262 429.558 256.996C429.948 256.73 430.249 256.352 430.421 255.912C430.594 255.472 430.63 254.99 430.524 254.529C430.419 254.068 430.178 253.65 429.831 253.328C429.391 252.888 428.794 252.641 428.171 252.641C427.548 252.641 426.951 252.888 426.511 253.328C426.213 253.669 426.019 254.086 425.95 254.533C425.881 254.979 425.94 255.436 426.121 255.85C426.301 256.265 426.596 256.619 426.97 256.872C427.344 257.125 427.782 257.266 428.234 257.279V257.405Z" fill="white"/>
<path d="M412.036 265.496H412.256C412.81 265.467 413.332 265.223 413.709 264.815C414.087 264.407 414.29 263.867 414.276 263.312C414.261 262.756 414.031 262.228 413.633 261.84C413.235 261.452 412.701 261.234 412.146 261.234C411.59 261.234 411.057 261.452 410.659 261.84C410.261 262.228 410.031 262.756 410.016 263.312C410.002 263.867 410.205 264.407 410.583 264.815C410.96 265.223 411.482 265.467 412.036 265.496Z" fill="white"/>
<path d="M433.028 231.288C433.317 231.35 433.616 231.35 433.905 231.288C434.202 231.174 434.473 231.002 434.701 230.781C434.929 230.56 435.11 230.295 435.233 230.002C435.356 229.708 435.418 229.394 435.416 229.076C435.414 228.758 435.348 228.444 435.221 228.152C434.959 227.623 434.509 227.212 433.959 227.001C433.409 226.789 432.799 226.792 432.251 227.009C431.703 227.226 431.256 227.641 431 228.172C430.743 228.704 430.696 229.312 430.866 229.877C431.05 230.297 431.352 230.655 431.736 230.906C432.12 231.157 432.569 231.289 433.028 231.288Z" fill="white"/>
<path d="M402.731 216.394C402.98 216.369 403.223 216.306 403.452 216.206C404.049 216.038 404.555 215.64 404.86 215.099C405.165 214.559 405.245 213.92 405.081 213.321C404.91 212.718 404.508 212.208 403.961 211.902C403.415 211.596 402.77 211.52 402.167 211.691C401.565 211.861 401.055 212.264 400.749 212.811C400.444 213.358 400.368 214.004 400.538 214.607C400.665 215.1 400.946 215.54 401.341 215.862C401.736 216.183 402.223 216.37 402.731 216.394Z" fill="white"/>
<path d="M384.656 240.511C384.068 240.606 383.538 240.922 383.174 241.394C382.81 241.866 382.638 242.458 382.694 243.052C382.75 243.645 383.028 244.195 383.474 244.591C383.92 244.986 384.499 245.198 385.094 245.182H385.533C386.141 245.054 386.676 244.695 387.026 244.181C387.376 243.666 387.515 243.037 387.412 242.423C387.36 242.115 387.246 241.821 387.078 241.557C386.911 241.293 386.692 241.066 386.435 240.888C386.178 240.71 385.889 240.585 385.583 240.52C385.278 240.455 384.962 240.452 384.656 240.511Z" fill="white"/>
<path d="M388.354 227.369C388.758 227.375 389.156 227.273 389.508 227.075C389.86 226.877 390.154 226.589 390.359 226.24C390.661 225.718 390.748 225.099 390.602 224.513C390.456 223.928 390.088 223.423 389.575 223.105C389.05 222.817 388.436 222.738 387.856 222.884C387.275 223.029 386.771 223.388 386.443 223.888C386.148 224.412 386.065 225.029 386.211 225.612C386.356 226.195 386.72 226.7 387.226 227.024C387.563 227.24 387.953 227.359 388.354 227.369Z" fill="white"/>
<path d="M411.913 215.517C412.536 215.542 413.144 215.318 413.602 214.894C414.06 214.471 414.332 213.883 414.357 213.259C414.382 212.636 414.158 212.027 413.735 211.569C413.312 211.11 412.724 210.838 412.101 210.814C411.478 210.759 410.859 210.955 410.38 211.358C409.901 211.761 409.602 212.338 409.548 212.961C409.494 213.585 409.69 214.205 410.092 214.684C410.495 215.163 411.071 215.463 411.694 215.517H411.913Z" fill="white"/>
<path d="M389.669 253.397C390.129 253.094 390.464 252.635 390.613 252.105C390.763 251.574 390.716 251.008 390.481 250.509C390.246 250.01 389.84 249.613 389.336 249.391C388.833 249.168 388.266 249.134 387.739 249.297C387.213 249.459 386.763 249.805 386.472 250.273C386.18 250.74 386.067 251.298 386.153 251.842C386.239 252.386 386.518 252.881 386.94 253.236C387.361 253.591 387.896 253.781 388.447 253.773C388.882 253.77 389.307 253.639 389.669 253.397Z" fill="white"/>
<path d="M382.744 233.201C382.634 233.812 382.77 234.442 383.122 234.953C383.475 235.464 384.014 235.815 384.624 235.929H385.062C385.614 235.924 386.147 235.727 386.57 235.373C386.992 235.018 387.279 234.528 387.381 233.985C387.436 233.68 387.431 233.368 387.366 233.065C387.301 232.762 387.177 232.475 387.001 232.22C386.825 231.966 386.6 231.748 386.34 231.58C386.08 231.412 385.79 231.297 385.485 231.241C385.181 231.186 384.869 231.191 384.566 231.256C384.264 231.321 383.977 231.446 383.722 231.622C383.208 231.977 382.856 232.523 382.744 233.138V233.201Z" fill="white"/>
<path d="M394.65 260.539C395.208 260.539 395.748 260.34 396.173 259.979C396.598 259.617 396.88 259.115 396.97 258.564C397.059 258.013 396.949 257.448 396.661 256.97C396.372 256.493 395.923 256.133 395.393 255.957C394.864 255.78 394.289 255.798 393.772 256.007C393.254 256.215 392.828 256.602 392.569 257.096C392.31 257.591 392.236 258.161 392.359 258.706C392.482 259.251 392.794 259.734 393.241 260.069C393.646 260.376 394.142 260.541 394.65 260.539Z" fill="white"/>
<path d="M402.263 264.55C402.471 264.583 402.682 264.583 402.89 264.55C403.489 264.47 404.035 264.166 404.418 263.698C404.801 263.23 404.992 262.634 404.952 262.031C404.912 261.427 404.645 260.861 404.203 260.448C403.762 260.035 403.181 259.805 402.576 259.805C401.972 259.805 401.39 260.035 400.949 260.448C400.508 260.861 400.24 261.427 400.2 262.031C400.161 262.634 400.352 263.23 400.735 263.698C401.118 264.166 401.664 264.47 402.263 264.55Z" fill="white"/>
<path d="M395.966 220.057C396.336 219.775 396.613 219.39 396.764 218.949C396.915 218.509 396.931 218.034 396.812 217.584C396.693 217.134 396.443 216.73 396.094 216.423C395.745 216.115 395.312 215.918 394.852 215.857C394.391 215.795 393.922 215.872 393.505 216.077C393.087 216.282 392.74 216.607 392.507 217.01C392.274 217.412 392.166 217.875 392.196 218.34C392.226 218.804 392.394 219.249 392.676 219.618C392.894 219.902 393.174 220.132 393.494 220.29C393.815 220.448 394.168 220.529 394.525 220.528C395.042 220.526 395.546 220.361 395.966 220.057Z" fill="white"/>
<path d="M437.132 238.15C437.124 237.778 437.028 237.414 436.851 237.087C436.675 236.759 436.424 236.479 436.118 236.268C435.812 236.056 435.461 235.921 435.093 235.872C434.724 235.823 434.35 235.862 434 235.986C433.433 236.222 432.982 236.673 432.747 237.24C432.622 237.527 432.558 237.837 432.559 238.15C432.559 238.773 432.807 239.371 433.248 239.812C433.465 240.024 433.72 240.194 434 240.313C434.35 240.437 434.724 240.476 435.093 240.428C435.461 240.379 435.812 240.243 436.118 240.032C436.424 239.821 436.675 239.54 436.851 239.213C437.028 238.886 437.124 238.521 437.132 238.15Z" fill="white"/>
<path d="M68.7901 150.675V152.82C68.7901 153.719 68.0573 154.452 67.1576 154.452C66.9729 154.452 66.812 154.565 66.7465 154.744C66.6691 154.935 66.6035 155.102 66.5261 155.268C66.4369 155.483 66.4849 155.659 66.6095 155.775C67.247 156.412 67.247 157.455 66.6095 158.092L65.0903 159.612C64.4647 160.225 63.3982 160.219 62.7846 159.612C62.6416 159.469 62.445 159.451 62.2663 159.528C62.1531 159.582 62.0279 159.63 61.9028 159.683C61.8426 159.722 61.45 159.792 61.45 160.154C61.45 161.059 60.7172 161.792 59.8176 161.792H57.6728C56.7731 161.792 56.0403 161.059 56.0403 160.16C56.0403 159.969 55.9152 159.808 55.7305 159.731C55.6786 159.713 55.2484 159.543 55.2419 159.54C55.0275 159.439 54.8726 159.475 54.7474 159.576L54.7117 159.612C54.0981 160.219 53.0257 160.219 52.412 159.612L50.8868 158.092C50.5829 157.783 50.4102 157.372 50.4102 156.931V156.853H52.1022C53.6333 156.853 54.9083 155.703 55.099 154.214C55.1169 154.208 55.1347 154.202 55.1585 154.196C55.4683 154.434 55.8258 154.601 56.2071 154.702C56.8923 155.298 57.7859 155.65 58.7511 155.65C60.9019 155.65 62.6475 153.904 62.6475 151.753C62.6475 150.794 62.302 149.906 61.7121 149.221C61.6109 148.846 61.4381 148.482 61.1938 148.155C61.1998 148.137 61.2117 148.119 61.2177 148.101C62.7012 147.911 63.851 146.636 63.851 145.098V143.424C64.2978 143.4 64.7625 143.555 65.0902 143.883L66.6095 145.402C66.9133 145.712 67.0861 146.123 67.0861 146.564C67.0861 146.999 66.9133 147.41 66.6095 147.72C66.4569 147.872 66.4484 148.065 66.5201 148.232C66.5976 148.393 66.669 148.566 66.7286 148.733C66.8001 148.917 66.961 149.037 67.1457 149.037C68.0573 149.037 68.7901 149.769 68.7901 150.675Z" fill="#8E8FFA"/>
<path d="M60.8175 140.716C60.5495 140.716 60.3171 140.549 60.2158 140.281C60.1384 140.079 60.055 139.876 59.9656 139.692C59.8583 139.447 59.8881 139.173 60.049 138.989C60.0609 138.977 60.0728 138.965 60.0847 138.953C60.4303 138.613 60.621 138.154 60.6269 137.666C60.6269 137.171 60.4363 136.713 60.0907 136.361L58.2855 134.556C57.6063 133.883 56.4445 133.865 55.7475 134.514C55.7296 134.526 55.7058 134.544 55.6879 134.562C55.5032 134.747 55.1993 134.788 54.961 134.681C54.7704 134.592 54.5678 134.508 54.3593 134.431C54.0971 134.335 53.9303 134.097 53.9303 133.829C53.9303 133.341 53.7396 132.882 53.3941 132.536C53.0486 132.197 52.5779 132 52.1012 132H49.5454C48.5385 132 47.7223 132.822 47.7223 133.829C47.7223 134.097 47.5495 134.335 47.2754 134.437C47.0788 134.508 46.8822 134.592 46.6916 134.681C46.4354 134.794 46.1375 134.747 45.9468 134.55C45.2497 133.871 44.0761 133.865 43.3671 134.556L41.5559 136.367C41.2104 136.719 41.0197 137.177 41.0197 137.666C41.0257 138.137 41.1984 138.577 41.5202 138.911C41.538 138.935 41.55 138.953 41.5678 138.971C41.7585 139.161 41.8062 139.447 41.7049 139.68C41.6036 139.876 41.5261 140.073 41.4427 140.287C41.3474 140.549 41.1091 140.716 40.8291 140.716C39.8222 140.716 39 141.538 39 142.545V145.095C39 146.108 39.8222 146.93 40.835 146.93C41.0972 146.93 41.3355 147.103 41.4308 147.353C41.5083 147.568 41.5976 147.764 41.687 147.961C41.8002 148.217 41.7525 148.503 41.5619 148.694C41.2163 149.045 41.0257 149.498 41.0257 149.987C41.0257 150.487 41.2163 150.946 41.5619 151.285L43.3671 153.091C44.0582 153.782 45.2617 153.782 45.9528 153.091C46.1018 152.936 46.2745 152.906 46.3937 152.906C46.489 152.906 46.5843 152.93 46.6916 152.978C46.8882 153.061 47.0848 153.144 47.2814 153.222C47.5495 153.317 47.7223 153.555 47.7223 153.829C47.7223 154.836 48.5385 155.659 49.5454 155.659H52.1013C53.1081 155.659 53.9303 154.836 53.9303 153.824C53.9303 153.555 54.0971 153.323 54.3771 153.222C54.4367 153.192 54.5023 153.168 54.5618 153.138C54.7049 153.091 54.8478 153.031 54.967 152.972C55.2172 152.858 55.5151 152.906 55.6938 153.085C55.7117 153.103 55.7355 153.126 55.7534 153.138C56.4505 153.782 57.6122 153.764 58.2855 153.091L60.0907 151.285C60.7997 150.571 60.7997 149.409 60.0907 148.694C59.9775 148.581 59.912 148.42 59.912 148.253C59.912 148.152 59.9358 148.05 59.9775 147.949L60.043 147.806C60.0788 147.729 60.1145 147.645 60.1503 147.556L60.2277 147.359C60.3231 147.097 60.5614 146.93 60.8295 146.93C61.8363 146.93 62.6585 146.108 62.6585 145.095V142.545C62.6585 141.538 61.8363 140.716 60.8175 140.716ZM56.2122 147.061C55.1159 148.884 53.1201 150.106 50.8323 150.106C48.5385 150.106 46.5426 148.884 45.4464 147.061C44.8744 146.114 44.5527 145.006 44.5527 143.832C44.5527 140.365 47.3648 137.553 50.8323 137.553C54.2938 137.553 57.1058 140.365 57.1058 143.832C57.1058 145.006 56.7841 146.114 56.2122 147.061Z" fill="#7752FE"/>
<path d="M53.1915 141.62C53.1915 142.921 52.1329 143.98 50.8321 143.98C49.5313 143.98 48.4727 142.921 48.4727 141.62C48.4727 140.324 49.5313 139.266 50.8321 139.266C52.1329 139.266 53.1915 140.324 53.1915 141.62Z" fill="white"/>
<path d="M55.2173 146.414C55.2054 146.426 55.1994 146.438 55.1935 146.449C54.264 147.993 52.6316 148.916 50.8324 148.916C49.0271 148.916 47.3947 147.993 46.4653 146.449C46.4593 146.438 46.4533 146.426 46.4414 146.414C47.6509 145.365 49.194 144.781 50.8324 144.781C52.4708 144.781 54.0079 145.365 55.2173 146.414Z" fill="white"/>
<path d="M62.7589 184.538L63.3846 182.852C63.5206 182.498 63.2486 182.117 62.8678 182.117H51.008C49.1039 182.117 47.5263 183.532 47.3358 185.436L46.8462 189.951C46.7918 190.386 47.091 190.794 47.5263 190.903C48.0159 191.012 48.6687 191.094 49.3215 191.175L49.7296 198.356C49.7568 198.955 50.2736 199.417 50.872 199.417H54.3266C54.925 199.417 55.4146 198.955 55.469 198.356L56.0674 186.034C56.0674 185.409 56.5843 184.919 57.1827 184.919H62.2149C62.4869 184.892 62.7045 184.756 62.7589 184.538Z" fill="#8E8FFA"/>
<path d="M52.6403 181.109C54.7285 181.109 56.4213 179.416 56.4213 177.328C56.4213 175.24 54.7285 173.547 52.6403 173.547C50.5522 173.547 48.8594 175.24 48.8594 177.328C48.8594 179.416 50.5522 181.109 52.6403 181.109Z" fill="#8E8FFA"/>
<path d="M63.4935 189.817C63.4935 188.239 62.2151 186.961 60.6374 186.961C59.0597 186.961 57.7812 188.239 57.7812 189.817C57.7812 191.096 58.6517 192.184 59.8213 192.537V194.795H58.7333C58.3797 194.795 58.1077 195.067 58.1077 195.421C58.1077 195.774 58.3797 196.046 58.7333 196.046H59.8213V196.835H58.7333C58.3797 196.835 58.1077 197.107 58.1077 197.461C58.1077 197.814 58.3797 198.086 58.7333 198.086H59.8213V198.44C59.8213 198.875 60.175 199.229 60.6102 199.229C61.0454 199.229 61.399 198.875 61.399 198.44V192.537C62.6231 192.184 63.4935 191.123 63.4935 189.817ZM60.6374 191.068C59.9573 191.068 59.3861 190.497 59.3861 189.817C59.3861 189.137 59.9573 188.566 60.6374 188.566C61.3174 188.566 61.8886 189.137 61.8886 189.817C61.8886 190.497 61.3446 191.068 60.6374 191.068Z" fill="white"/>
<path d="M49.2794 216.934C48.9361 216.347 48.4379 215.864 47.8391 215.541C47.2404 215.217 46.5642 215.064 45.8844 215.099C45.2047 215.133 44.5475 215.354 43.9846 215.737C43.4218 216.119 42.975 216.649 42.693 217.269C42.411 217.888 42.3048 218.573 42.3858 219.249C42.4668 219.925 42.732 220.566 43.1524 221.101C43.5729 221.636 44.1323 222.046 44.7697 222.284C45.4071 222.523 46.0978 222.582 46.7665 222.455C46.4452 221.387 46.523 220.238 46.9852 219.222C47.4474 218.207 48.2626 217.394 49.2794 216.934Z" fill="#8E8FFA"/>
<path d="M59.0441 229.445C58.2218 229.445 57.4181 229.689 56.7344 230.146C56.0507 230.603 55.5178 231.252 55.2032 232.012C54.8885 232.771 54.8062 233.607 54.9666 234.414C55.127 235.22 55.523 235.961 56.1044 236.542C56.6858 237.124 57.4266 237.52 58.233 237.68C59.0395 237.841 59.8754 237.758 60.635 237.444C61.3947 237.129 62.044 236.596 62.5008 235.912C62.9576 235.229 63.2014 234.425 63.2014 233.603C63.2002 232.5 62.7618 231.444 61.9824 230.664C61.203 229.885 60.1463 229.447 59.0441 229.445ZM59.0441 236.836C58.4046 236.836 57.7794 236.647 57.2476 236.291C56.7159 235.936 56.3015 235.431 56.0567 234.84C55.812 234.249 55.7479 233.599 55.8727 232.972C55.9975 232.345 56.3054 231.768 56.7576 231.316C57.2099 230.864 57.786 230.556 58.4133 230.431C59.0405 230.307 59.6906 230.371 60.2815 230.615C60.8723 230.86 61.3773 231.274 61.7326 231.806C62.0879 232.338 62.2776 232.963 62.2776 233.603C62.2765 234.46 61.9355 235.282 61.3293 235.888C60.7231 236.494 59.9013 236.835 59.0441 236.836Z" fill="#7752FE"/>
<path d="M59.044 235.916C60.3196 235.916 61.3537 234.882 61.3537 233.607C61.3537 232.331 60.3196 231.297 59.044 231.297C57.7684 231.297 56.7344 232.331 56.7344 233.607C56.7344 234.882 57.7684 235.916 59.044 235.916Z" fill="white"/>
<path d="M65.1431 232.484C65.0749 232.456 65.0142 232.413 64.966 232.358C64.9178 232.303 64.8835 232.237 64.8659 232.165C64.7223 231.584 64.4916 231.028 64.1818 230.515C64.144 230.452 64.1217 230.381 64.1167 230.308C64.1116 230.235 64.124 230.162 64.1527 230.095L64.6876 228.842C64.5583 228.684 64.4137 228.529 64.2659 228.378C64.1222 228.239 63.9675 228.093 63.804 227.959L62.5567 228.499C62.4895 228.527 62.4163 228.54 62.3433 228.535C62.2703 228.53 62.1995 228.507 62.1369 228.47C61.6244 228.161 61.0685 227.932 60.4878 227.79C60.4165 227.772 60.3505 227.738 60.2951 227.689C60.2398 227.641 60.1967 227.581 60.1695 227.512L59.6651 226.247C59.2502 226.209 58.8328 226.209 58.4179 226.247L57.9171 227.512C57.8899 227.581 57.8468 227.641 57.7915 227.689C57.7361 227.738 57.6701 227.772 57.5989 227.79C57.0175 227.933 56.4611 228.162 55.9484 228.471C55.8857 228.509 55.8149 228.531 55.7419 228.537C55.6689 228.542 55.5958 228.529 55.5285 228.5L54.2757 227.966C54.1173 228.095 53.9626 228.239 53.811 228.387C53.6725 228.531 53.5265 228.686 53.3925 228.849L53.9321 230.096C53.9608 230.164 53.9732 230.237 53.9681 230.31C53.9631 230.383 53.9407 230.454 53.903 230.516C53.5947 231.029 53.3655 231.585 53.223 232.165C53.2054 232.237 53.1711 232.303 53.1229 232.358C53.0747 232.413 53.014 232.456 52.9458 232.484L51.6802 232.988C51.6605 233.195 51.6512 233.402 51.6524 233.61C51.6524 233.845 51.6617 234.05 51.6802 234.238L52.9458 234.736C53.014 234.763 53.0747 234.806 53.1229 234.862C53.1711 234.917 53.2054 234.983 53.223 235.054C53.366 235.636 53.5958 236.192 53.9048 236.705C53.9426 236.767 53.9649 236.838 53.97 236.911C53.975 236.984 53.9627 237.057 53.9339 237.125L53.399 238.377C53.5283 238.536 53.6729 238.691 53.8207 238.842C53.9644 238.981 54.1191 239.127 54.2827 239.261L55.5299 238.721C55.5871 238.696 55.6487 238.684 55.711 238.684C55.7951 238.684 55.8777 238.707 55.9498 238.75C56.4618 239.06 57.0176 239.29 57.5984 239.434C57.6697 239.452 57.7357 239.486 57.791 239.534C57.8464 239.583 57.8895 239.643 57.9167 239.711L58.4211 240.975C58.836 241.012 59.2534 241.012 59.6683 240.975L60.1667 239.711C60.1939 239.643 60.237 239.583 60.2924 239.534C60.3477 239.486 60.4137 239.452 60.485 239.434C61.0675 239.29 61.6249 239.059 62.1382 238.748C62.2009 238.711 62.2717 238.688 62.3447 238.683C62.4177 238.678 62.4908 238.691 62.5581 238.719L63.8109 239.254C63.9693 239.125 64.1241 238.98 64.2756 238.832C64.4142 238.689 64.5601 238.534 64.6941 238.371L64.1546 237.123C64.1258 237.056 64.1134 236.983 64.1185 236.91C64.1236 236.837 64.1459 236.766 64.1837 236.703C64.4933 236.191 64.7239 235.636 64.8678 235.055C64.8854 234.984 64.9197 234.917 64.9679 234.862C65.0161 234.807 65.0768 234.764 65.1449 234.737L66.4083 234.232C66.4274 234.025 66.436 233.818 66.4342 233.61C66.4342 233.375 66.4249 233.17 66.4065 232.982L65.1431 232.484ZM59.0433 238.691C58.0383 238.691 57.0559 238.393 56.2203 237.835C55.3847 237.276 54.7335 236.483 54.3489 235.554C53.9643 234.626 53.8637 233.604 54.0597 232.619C54.2558 231.633 54.7397 230.728 55.4503 230.017C56.161 229.306 57.0664 228.822 58.052 228.626C59.0377 228.43 60.0593 228.531 60.9878 228.915C61.9163 229.3 62.7099 229.951 63.2682 230.787C63.8265 231.622 64.1245 232.605 64.1245 233.61C64.1229 234.957 63.5871 236.249 62.6345 237.201C61.682 238.154 60.3904 238.689 59.0433 238.691Z" fill="white"/>
<path d="M56.7784 227.076C56.9008 227.034 57.0205 226.984 57.148 226.948L57.5665 225.9C57.6294 225.743 57.734 225.606 57.869 225.504C58.004 225.403 58.1642 225.34 58.3323 225.323C58.8087 225.28 59.2879 225.28 59.7643 225.323C59.9305 225.341 60.0886 225.404 60.2217 225.506C60.3548 225.607 60.4579 225.743 60.52 225.898L60.9395 226.948C61.2315 227.034 61.5176 227.138 61.7959 227.261C61.71 226.222 61.2368 225.253 60.4701 224.546C59.7034 223.839 58.699 223.445 57.6561 223.444H56.2703C55.9283 223.443 55.5874 223.404 55.254 223.328C54.8938 223.991 54.3776 224.557 53.75 224.976C54.9864 225.273 56.0667 226.022 56.7784 227.076Z" fill="#8E8FFA"/>
<path d="M56.2713 222.516C56.9181 222.517 57.5538 222.348 58.1149 222.026C58.676 221.704 59.1429 221.241 59.4688 220.682C59.7947 220.124 59.9682 219.489 59.9721 218.842C59.9759 218.196 59.81 217.559 59.4908 216.997C59.1715 216.434 58.7103 215.965 58.1531 215.637C57.5958 215.308 56.9622 215.132 56.3154 215.125C55.6686 215.118 55.0314 215.282 54.4674 215.598C53.9035 215.915 53.4325 216.374 53.1016 216.93C54.1183 217.389 54.9335 218.202 55.3958 219.218C55.858 220.233 55.9357 221.382 55.6145 222.451C55.831 222.492 56.0509 222.514 56.2713 222.516Z" fill="#8E8FFA"/>
<path d="M53.1569 227.735C53.3352 227.561 53.5089 227.399 53.6913 227.249C53.821 227.141 53.9784 227.071 54.1457 227.047C54.313 227.024 54.4835 227.048 54.6378 227.117L55.6772 227.561C55.7534 227.518 55.8342 227.487 55.9118 227.447C55.5257 226.925 55.0227 226.5 54.443 226.206C53.8634 225.913 53.2231 225.759 52.5735 225.758H49.8019C48.6997 225.759 47.6429 226.197 46.8635 226.977C46.0842 227.756 45.6458 228.813 45.6445 229.915V232.687C45.6445 232.932 45.7419 233.167 45.9151 233.34C46.0884 233.513 46.3234 233.611 46.5684 233.611H50.7258C50.7258 233.346 50.7359 233.111 50.7576 232.892C50.7753 232.725 50.8382 232.566 50.9394 232.433C51.0407 232.299 51.1765 232.195 51.3323 232.132L52.3827 231.713C52.5277 231.203 52.7312 230.711 52.9892 230.247L52.5448 229.207C52.4761 229.052 52.4527 228.879 52.4772 228.711C52.5017 228.542 52.5732 228.384 52.6834 228.254C52.8289 228.079 52.9892 227.905 53.1569 227.735Z" fill="#8E8FFA"/>
<path d="M51.1915 224.828C53.2325 224.828 54.887 223.174 54.887 221.133C54.887 219.092 53.2325 217.438 51.1915 217.438C49.1506 217.438 47.4961 219.092 47.4961 221.133C47.4961 223.174 49.1506 224.828 51.1915 224.828Z" fill="#8E8FFA"/>
<path d="M41.4903 231.296H44.7238V229.911C44.7257 228.769 45.1117 227.661 45.8195 226.766C46.5273 225.87 47.5159 225.239 48.6261 224.973C48.0002 224.554 47.4854 223.99 47.1258 223.328C46.7924 223.404 46.4515 223.443 46.1096 223.444H44.7238C43.6215 223.445 42.5648 223.883 41.7854 224.663C41.006 225.442 40.5676 226.499 40.5664 227.601V230.373C40.5664 230.618 40.6637 230.853 40.837 231.026C41.0103 231.199 41.2452 231.296 41.4903 231.296Z" fill="#8E8FFA"/>
<defs>
<filter id="filter0_d_372_1813" x="0" y="0" width="711" height="368" filterUnits="userSpaceOnUse" color-interpolation-filters="sRGB">
<feFlood flood-opacity="0" result="BackgroundImageFix"/>
<feColorMatrix in="SourceAlpha" type="matrix" values="0 0 0 0 0 0 0 0 0 0 0 0 0 0 0 0 0 0 127 0" result="hardAlpha"/>
<feOffset dx="5" dy="5"/>
<feComposite in2="hardAlpha" operator="out"/>
<feColorMatrix type="matrix" values="0 0 0 0 0.356863 0 0 0 0 0.262745 0 0 0 0 0.956863 0 0 0 1 0"/>
<feBlend mode="normal" in2="BackgroundImageFix" result="effect1_dropShadow_372_1813"/>
<feBlend mode="normal" in="SourceGraphic" in2="effect1_dropShadow_372_1813" result="shape"/>
</filter>
</defs>
</svg>
