<svg width="711" height="368" viewBox="0 0 711 368" fill="none" xmlns="http://www.w3.org/2000/svg">
<g filter="url(#filter0_d_373_1400)">
<rect x="0.5" y="0.5" width="705" height="362" rx="10.5" fill="#252831" stroke="#393939"/>
<path d="M1 11C1 5.47715 5.47715 1 11 1H695C700.523 1 705 5.47715 705 11V36H1V11Z" fill="#15181F"/>
<ellipse cx="20.239" cy="20.3084" rx="5.41475" ry="5.70683" fill="#FF625B"/>
<ellipse cx="38.6726" cy="20.3084" rx="5.41475" ry="5.70683" fill="#FFBC34"/>
<ellipse cx="57.1062" cy="20.3084" rx="5.41475" ry="5.70683" fill="#24CB40"/>
<path d="M49.2 98L40.52 87.64H47.44L54.96 96.52V98H49.2ZM26.24 98V69.24H49.44C50.4533 69.24 51.3867 69.4933 52.24 70C53.0933 70.5067 53.7733 71.1867 54.28 72.04C54.7867 72.8667 55.04 73.7867 55.04 74.8V82.56C55.04 83.5733 54.7867 84.5067 54.28 85.36C53.7733 86.2133 53.0933 86.8933 52.24 87.4C51.3867 87.88 50.4533 88.12 49.44 88.12L31.52 88.16V98H26.24ZM32 82.8H49.2C49.3333 82.8 49.4533 82.76 49.56 82.68C49.6667 82.6 49.72 82.4933 49.72 82.36V75C49.72 74.8667 49.6667 74.76 49.56 74.68C49.4533 74.5733 49.3333 74.52 49.2 74.52H32C31.8667 74.52 31.7467 74.5733 31.64 74.68C31.56 74.76 31.52 74.8667 31.52 75V82.36C31.52 82.4933 31.56 82.6 31.64 82.68C31.7467 82.76 31.8667 82.8 32 82.8ZM57.9678 98V92.76H63.2078V98H57.9678ZM65.9903 98V74.76C65.9903 73.7467 66.2436 72.8267 66.7503 72C67.257 71.1467 67.9236 70.4667 68.7503 69.96C69.6036 69.4533 70.537 69.2 71.5503 69.2H89.1903C90.2036 69.2 91.137 69.4533 91.9903 69.96C92.8436 70.4667 93.5236 71.1467 94.0303 72C94.537 72.8267 94.7903 73.7467 94.7903 74.76V98H89.4703V88.32H71.2703V98H65.9903ZM71.2703 83.04H89.4703V75C89.4703 74.8667 89.417 74.76 89.3103 74.68C89.2036 74.5733 89.0836 74.52 88.9503 74.52H71.7503C71.617 74.52 71.497 74.5733 71.3903 74.68C71.3103 74.76 71.2703 74.8667 71.2703 75V83.04ZM98.0678 98V92.76H103.308V98H98.0678ZM106.09 98V69.2H129.29C130.304 69.2 131.237 69.4533 132.09 69.96C132.944 70.4667 133.624 71.1467 134.13 72C134.637 72.8267 134.89 73.7467 134.89 74.76V92.44C134.89 93.4533 134.637 94.3867 134.13 95.24C133.624 96.0667 132.944 96.7333 132.09 97.24C131.237 97.7467 130.304 98 129.29 98H106.09ZM111.81 92.68H129.05C129.184 92.68 129.304 92.64 129.41 92.56C129.517 92.4533 129.57 92.3333 129.57 92.2V75C129.57 74.8667 129.517 74.76 129.41 74.68C129.304 74.5733 129.184 74.52 129.05 74.52H111.81C111.677 74.52 111.557 74.5733 111.45 74.68C111.37 74.76 111.33 74.8667 111.33 75V92.2C111.33 92.3333 111.37 92.4533 111.45 92.56C111.557 92.64 111.677 92.68 111.81 92.68ZM138.09 98V92.76H143.33V98H138.09ZM26.09 113C25.8113 113 25.5547 112.93 25.32 112.791C25.0927 112.652 24.9093 112.468 24.77 112.241C24.638 112.014 24.572 111.761 24.572 111.482V106.598C24.572 106.312 24.638 106.055 24.77 105.828C24.9093 105.601 25.0927 105.421 25.32 105.289C25.5547 105.15 25.8113 105.08 26.09 105.08H26.684V106.521H26.145C26.1083 106.521 26.0753 106.536 26.046 106.565C26.024 106.587 26.013 106.616 26.013 106.653V111.427C26.013 111.464 26.024 111.497 26.046 111.526C26.0753 111.548 26.1083 111.559 26.145 111.559H26.684V113H26.09ZM36.812 113L34.425 110.151H36.328L38.396 112.593V113H36.812ZM30.498 113V105.091H36.878C37.1567 105.091 37.4133 105.161 37.648 105.3C37.8827 105.439 38.0697 105.626 38.209 105.861C38.3483 106.088 38.418 106.341 38.418 106.62V108.754C38.418 109.033 38.3483 109.289 38.209 109.524C38.0697 109.759 37.8827 109.946 37.648 110.085C37.4133 110.217 37.1567 110.283 36.878 110.283L31.95 110.294V113H30.498ZM32.082 108.82H36.812C36.8487 108.82 36.8817 108.809 36.911 108.787C36.9403 108.765 36.955 108.736 36.955 108.699V106.675C36.955 106.638 36.9403 106.609 36.911 106.587C36.8817 106.558 36.8487 106.543 36.812 106.543H32.082C32.0453 106.543 32.0123 106.558 31.983 106.587C31.961 106.609 31.95 106.638 31.95 106.675V108.699C31.95 108.736 31.961 108.765 31.983 108.787C32.0123 108.809 32.0453 108.82 32.082 108.82ZM40.7191 113C40.4405 113 40.1838 112.93 39.9491 112.791C39.7218 112.652 39.5385 112.468 39.3991 112.241C39.2671 112.014 39.2011 111.761 39.2011 111.482V109.084H44.2391V108.193C44.2391 108.156 44.2245 108.127 44.1951 108.105C44.1731 108.076 44.1438 108.061 44.1071 108.061H39.2011V106.62H44.1621C44.4408 106.62 44.6938 106.69 44.9211 106.829C45.1558 106.968 45.3391 107.152 45.4711 107.379C45.6105 107.606 45.6801 107.859 45.6801 108.138V113H40.7191ZM40.7741 111.559H44.2391V110.382H40.6421V111.427C40.6421 111.464 40.6531 111.497 40.6751 111.526C40.7045 111.548 40.7375 111.559 40.7741 111.559ZM46.5308 115.53V106.62H51.4918C51.7705 106.62 52.0235 106.69 52.2508 106.829C52.4855 106.968 52.6688 107.152 52.8008 107.379C52.9402 107.606 53.0098 107.859 53.0098 108.138V111.482C53.0098 111.761 52.9402 112.014 52.8008 112.241C52.6688 112.468 52.4855 112.652 52.2508 112.791C52.0235 112.93 51.7705 113 51.4918 113H47.9718V115.53H46.5308ZM48.1038 111.559H51.4368C51.4735 111.559 51.5028 111.548 51.5248 111.526C51.5542 111.497 51.5688 111.464 51.5688 111.427V108.193C51.5688 108.156 51.5542 108.127 51.5248 108.105C51.5028 108.076 51.4735 108.061 51.4368 108.061H48.1038C48.0672 108.061 48.0342 108.076 48.0048 108.105C47.9828 108.127 47.9718 108.156 47.9718 108.193V111.427C47.9718 111.464 47.9828 111.497 48.0048 111.526C48.0342 111.548 48.0672 111.559 48.1038 111.559ZM53.5265 113V106.62H54.9675V113H53.5265ZM53.5265 105.982V104.53H54.9675V105.982H53.5265ZM56.9844 113C56.6984 113 56.4417 112.93 56.2144 112.791C55.987 112.652 55.8037 112.468 55.6644 112.241C55.5324 112.014 55.4664 111.761 55.4664 111.482V108.138C55.4664 107.859 55.5324 107.606 55.6644 107.379C55.8037 107.152 55.987 106.968 56.2144 106.829C56.4417 106.69 56.6984 106.62 56.9844 106.62H60.5154V104.53H61.9564V113H56.9844ZM57.0504 111.559H60.3834C60.42 111.559 60.4494 111.548 60.4714 111.526C60.5007 111.497 60.5154 111.464 60.5154 111.427V108.193C60.5154 108.156 60.5007 108.127 60.4714 108.105C60.4494 108.076 60.42 108.061 60.3834 108.061H57.0504C57.0137 108.061 56.9807 108.076 56.9514 108.105C56.9294 108.127 56.9184 108.156 56.9184 108.193V111.427C56.9184 111.464 56.9294 111.497 56.9514 111.526C56.9807 111.548 57.0137 111.559 57.0504 111.559ZM65.8906 113V106.609C65.8906 106.33 65.9602 106.077 66.0996 105.85C66.2389 105.615 66.4222 105.428 66.6496 105.289C66.8842 105.15 67.1409 105.08 67.4196 105.08H72.2706C72.5492 105.08 72.8059 105.15 73.0406 105.289C73.2752 105.428 73.4622 105.615 73.6016 105.85C73.7409 106.077 73.8106 106.33 73.8106 106.609V113H72.3476V110.338H67.3426V113H65.8906ZM67.3426 108.886H72.3476V106.675C72.3476 106.638 72.3329 106.609 72.3036 106.587C72.2742 106.558 72.2412 106.543 72.2046 106.543H67.4746C67.4379 106.543 67.4049 106.558 67.3756 106.587C67.3536 106.609 67.3426 106.638 67.3426 106.675V108.886ZM74.7119 115.53V106.62H79.6729C79.9516 106.62 80.2046 106.69 80.4319 106.829C80.6666 106.968 80.8499 107.152 80.9819 107.379C81.1212 107.606 81.1909 107.859 81.1909 108.138V111.482C81.1909 111.761 81.1212 112.014 80.9819 112.241C80.8499 112.468 80.6666 112.652 80.4319 112.791C80.2046 112.93 79.9516 113 79.6729 113H76.1529V115.53H74.7119ZM76.2849 111.559H79.6179C79.6546 111.559 79.6839 111.548 79.7059 111.526C79.7352 111.497 79.7499 111.464 79.7499 111.427V108.193C79.7499 108.156 79.7352 108.127 79.7059 108.105C79.6839 108.076 79.6546 108.061 79.6179 108.061H76.2849C76.2482 108.061 76.2152 108.076 76.1859 108.105C76.1639 108.127 76.1529 108.156 76.1529 108.193V111.427C76.1529 111.464 76.1639 111.497 76.1859 111.526C76.2152 111.548 76.2482 111.559 76.2849 111.559ZM81.6866 115.53V106.62H86.6476C86.9262 106.62 87.1792 106.69 87.4066 106.829C87.6412 106.968 87.8246 107.152 87.9566 107.379C88.0959 107.606 88.1656 107.859 88.1656 108.138V111.482C88.1656 111.761 88.0959 112.014 87.9566 112.241C87.8246 112.468 87.6412 112.652 87.4066 112.791C87.1792 112.93 86.9262 113 86.6476 113H83.1276V115.53H81.6866ZM83.2596 111.559H86.5926C86.6292 111.559 86.6586 111.548 86.6806 111.526C86.7099 111.497 86.7246 111.464 86.7246 111.427V108.193C86.7246 108.156 86.7099 108.127 86.6806 108.105C86.6586 108.076 86.6292 108.061 86.5926 108.061H83.2596C83.2229 108.061 83.1899 108.076 83.1606 108.105C83.1386 108.127 83.1276 108.156 83.1276 108.193V111.427C83.1276 111.464 83.1386 111.497 83.1606 111.526C83.1899 111.548 83.2229 111.559 83.2596 111.559ZM90.1573 113C89.8786 113 89.6256 112.93 89.3983 112.791C89.1709 112.652 88.9876 112.468 88.8483 112.241C88.7089 112.014 88.6393 111.761 88.6393 111.482V104.519H90.0913V111.427C90.0913 111.464 90.1023 111.497 90.1243 111.526C90.1536 111.548 90.1866 111.559 90.2233 111.559H91.4443V113H90.1573ZM92.1227 113V106.62H93.5637V113H92.1227ZM92.1227 105.982V104.53H93.5637V105.982H92.1227ZM95.7704 113C95.4918 113 95.2388 112.93 95.0114 112.791C94.7841 112.652 94.6008 112.468 94.4614 112.241C94.3221 112.014 94.2524 111.761 94.2524 111.482V108.138C94.2524 107.859 94.3221 107.606 94.4614 107.379C94.6008 107.152 94.7841 106.968 95.0114 106.829C95.2388 106.69 95.4918 106.62 95.7704 106.62H100.72V108.061H95.8254C95.7888 108.061 95.7558 108.076 95.7264 108.105C95.7044 108.127 95.6934 108.156 95.6934 108.193V111.427C95.6934 111.464 95.7044 111.497 95.7264 111.526C95.7558 111.548 95.7888 111.559 95.8254 111.559H100.731V113H95.7704ZM103.025 113C102.746 113 102.489 112.93 102.255 112.791C102.027 112.652 101.844 112.468 101.705 112.241C101.573 112.014 101.507 111.761 101.507 111.482V109.084H106.545V108.193C106.545 108.156 106.53 108.127 106.501 108.105C106.479 108.076 106.449 108.061 106.413 108.061H101.507V106.62H106.468C106.746 106.62 106.999 106.69 107.227 106.829C107.461 106.968 107.645 107.152 107.777 107.379C107.916 107.606 107.986 107.859 107.986 108.138V113H103.025ZM103.08 111.559H106.545V110.382H102.948V111.427C102.948 111.464 102.959 111.497 102.981 111.526C103.01 111.548 103.043 111.559 103.08 111.559ZM110.343 113C110.065 113 109.812 112.93 109.584 112.791C109.357 112.652 109.174 112.468 109.034 112.241C108.895 112.014 108.825 111.761 108.825 111.482V104.662H110.266V106.62H112.752V108.061H110.266V111.427C110.266 111.464 110.277 111.497 110.299 111.526C110.329 111.548 110.362 111.559 110.398 111.559H112.752V113H110.343ZM113.318 113V106.62H114.759V113H113.318ZM113.318 105.982V104.53H114.759V105.982H113.318ZM116.934 113C116.655 113 116.402 112.93 116.175 112.791C115.948 112.652 115.764 112.468 115.625 112.241C115.486 112.014 115.416 111.761 115.416 111.482V108.138C115.416 107.859 115.486 107.606 115.625 107.379C115.764 107.152 115.948 106.968 116.175 106.829C116.402 106.69 116.655 106.62 116.934 106.62H120.377C120.656 106.62 120.909 106.69 121.136 106.829C121.371 106.968 121.554 107.152 121.686 107.379C121.825 107.606 121.895 107.859 121.895 108.138V111.482C121.895 111.761 121.825 112.014 121.686 112.241C121.554 112.468 121.374 112.652 121.147 112.791C120.92 112.93 120.663 113 120.377 113H116.934ZM116.989 111.559H120.322C120.359 111.559 120.388 111.548 120.41 111.526C120.439 111.497 120.454 111.464 120.454 111.427V108.193C120.454 108.156 120.439 108.127 120.41 108.105C120.388 108.076 120.359 108.061 120.322 108.061H116.989C116.952 108.061 116.919 108.076 116.89 108.105C116.868 108.127 116.857 108.156 116.857 108.193V111.427C116.857 111.464 116.868 111.497 116.89 111.526C116.919 111.548 116.952 111.559 116.989 111.559ZM122.466 113V106.62H127.427C127.706 106.62 127.959 106.69 128.186 106.829C128.421 106.968 128.604 107.152 128.736 107.379C128.876 107.606 128.945 107.859 128.945 108.138V113H127.504V108.193C127.504 108.156 127.49 108.127 127.46 108.105C127.438 108.076 127.409 108.061 127.372 108.061H124.039C124.003 108.061 123.97 108.076 123.94 108.105C123.918 108.127 123.907 108.156 123.907 108.193V113H122.466ZM132.872 113V105.08H139.252C139.531 105.08 139.787 105.15 140.022 105.289C140.257 105.428 140.444 105.615 140.583 105.85C140.722 106.077 140.792 106.33 140.792 106.609V111.471C140.792 111.75 140.722 112.006 140.583 112.241C140.444 112.468 140.257 112.652 140.022 112.791C139.787 112.93 139.531 113 139.252 113H132.872ZM134.445 111.537H139.186C139.223 111.537 139.256 111.526 139.285 111.504C139.314 111.475 139.329 111.442 139.329 111.405V106.675C139.329 106.638 139.314 106.609 139.285 106.587C139.256 106.558 139.223 106.543 139.186 106.543H134.445C134.408 106.543 134.375 106.558 134.346 106.587C134.324 106.609 134.313 106.638 134.313 106.675V111.405C134.313 111.442 134.324 111.475 134.346 111.504C134.375 111.526 134.408 111.537 134.445 111.537ZM143.157 113C142.878 113 142.625 112.93 142.398 112.791C142.17 112.652 141.987 112.468 141.848 112.241C141.708 112.014 141.639 111.761 141.639 111.482V108.138C141.639 107.859 141.708 107.606 141.848 107.379C141.987 107.152 142.17 106.968 142.398 106.829C142.625 106.69 142.878 106.62 143.157 106.62H146.6C146.878 106.62 147.131 106.69 147.359 106.829C147.593 106.968 147.777 107.152 147.909 107.379C148.048 107.606 148.118 107.859 148.118 108.138V110.536H143.08V111.427C143.08 111.464 143.091 111.497 143.113 111.526C143.142 111.548 143.175 111.559 143.212 111.559H148.118V113H143.157ZM143.08 109.238H146.677V108.193C146.677 108.156 146.662 108.127 146.633 108.105C146.611 108.076 146.581 108.061 146.545 108.061H143.212C143.175 108.061 143.142 108.076 143.113 108.105C143.091 108.127 143.08 108.156 143.08 108.193V109.238ZM151.61 113L148.101 106.62H149.762L152.281 111.251L154.789 106.62H156.45L152.93 113H151.61ZM157.976 113C157.698 113 157.445 112.93 157.217 112.791C156.99 112.652 156.807 112.468 156.667 112.241C156.528 112.014 156.458 111.761 156.458 111.482V108.138C156.458 107.859 156.528 107.606 156.667 107.379C156.807 107.152 156.99 106.968 157.217 106.829C157.445 106.69 157.698 106.62 157.976 106.62H161.419C161.698 106.62 161.951 106.69 162.178 106.829C162.413 106.968 162.596 107.152 162.728 107.379C162.868 107.606 162.937 107.859 162.937 108.138V110.536H157.899V111.427C157.899 111.464 157.91 111.497 157.932 111.526C157.962 111.548 157.995 111.559 158.031 111.559H162.937V113H157.976ZM157.899 109.238H161.496V108.193C161.496 108.156 161.482 108.127 161.452 108.105C161.43 108.076 161.401 108.061 161.364 108.061H158.031C157.995 108.061 157.962 108.076 157.932 108.105C157.91 108.127 157.899 108.156 157.899 108.193V109.238ZM165.016 113C164.737 113 164.484 112.93 164.257 112.791C164.029 112.652 163.846 112.468 163.707 112.241C163.567 112.014 163.498 111.761 163.498 111.482V104.519H164.95V111.427C164.95 111.464 164.961 111.497 164.983 111.526C165.012 111.548 165.045 111.559 165.082 111.559H166.303V113H165.016ZM168.306 113C168.027 113 167.774 112.93 167.547 112.791C167.319 112.652 167.136 112.468 166.997 112.241C166.857 112.014 166.788 111.761 166.788 111.482V108.138C166.788 107.859 166.857 107.606 166.997 107.379C167.136 107.152 167.319 106.968 167.547 106.829C167.774 106.69 168.027 106.62 168.306 106.62H171.749C172.027 106.62 172.28 106.69 172.508 106.829C172.742 106.968 172.926 107.152 173.058 107.379C173.197 107.606 173.267 107.859 173.267 108.138V111.482C173.267 111.761 173.197 112.014 173.058 112.241C172.926 112.468 172.746 112.652 172.519 112.791C172.291 112.93 172.035 113 171.749 113H168.306ZM168.361 111.559H171.694C171.73 111.559 171.76 111.548 171.782 111.526C171.811 111.497 171.826 111.464 171.826 111.427V108.193C171.826 108.156 171.811 108.127 171.782 108.105C171.76 108.076 171.73 108.061 171.694 108.061H168.361C168.324 108.061 168.291 108.076 168.262 108.105C168.24 108.127 168.229 108.156 168.229 108.193V111.427C168.229 111.464 168.24 111.497 168.262 111.526C168.291 111.548 168.324 111.559 168.361 111.559ZM174.107 115.53V106.62H179.068C179.346 106.62 179.599 106.69 179.827 106.829C180.061 106.968 180.245 107.152 180.377 107.379C180.516 107.606 180.586 107.859 180.586 108.138V111.482C180.586 111.761 180.516 112.014 180.377 112.241C180.245 112.468 180.061 112.652 179.827 112.791C179.599 112.93 179.346 113 179.068 113H175.548V115.53H174.107ZM175.68 111.559H179.013C179.049 111.559 179.079 111.548 179.101 111.526C179.13 111.497 179.145 111.464 179.145 111.427V108.193C179.145 108.156 179.13 108.127 179.101 108.105C179.079 108.076 179.049 108.061 179.013 108.061H175.68C175.643 108.061 175.61 108.076 175.581 108.105C175.559 108.127 175.548 108.156 175.548 108.193V111.427C175.548 111.464 175.559 111.497 175.581 111.526C175.61 111.548 175.643 111.559 175.68 111.559ZM181.081 113V106.62H188.99C189.276 106.62 189.533 106.69 189.76 106.829C189.988 106.968 190.167 107.152 190.299 107.379C190.439 107.606 190.508 107.859 190.508 108.138V113H189.078V108.193C189.078 108.156 189.064 108.127 189.034 108.105C189.005 108.076 188.972 108.061 188.935 108.061H186.658C186.622 108.061 186.589 108.076 186.559 108.105C186.537 108.127 186.526 108.156 186.526 108.193V113H185.074V108.193C185.074 108.156 185.06 108.127 185.03 108.105C185.008 108.076 184.979 108.061 184.942 108.061H182.654C182.618 108.061 182.585 108.076 182.555 108.105C182.533 108.127 182.522 108.156 182.522 108.193V113H181.081ZM192.689 113C192.41 113 192.157 112.93 191.93 112.791C191.702 112.652 191.519 112.468 191.38 112.241C191.24 112.014 191.171 111.761 191.171 111.482V108.138C191.171 107.859 191.24 107.606 191.38 107.379C191.519 107.152 191.702 106.968 191.93 106.829C192.157 106.69 192.41 106.62 192.689 106.62H196.132C196.41 106.62 196.663 106.69 196.891 106.829C197.125 106.968 197.309 107.152 197.441 107.379C197.58 107.606 197.65 107.859 197.65 108.138V110.536H192.612V111.427C192.612 111.464 192.623 111.497 192.645 111.526C192.674 111.548 192.707 111.559 192.744 111.559H197.65V113H192.689ZM192.612 109.238H196.209V108.193C196.209 108.156 196.194 108.127 196.165 108.105C196.143 108.076 196.113 108.061 196.077 108.061H192.744C192.707 108.061 192.674 108.076 192.645 108.105C192.623 108.127 192.612 108.156 192.612 108.193V109.238ZM198.49 113V106.62H203.451C203.729 106.62 203.982 106.69 204.21 106.829C204.444 106.968 204.628 107.152 204.76 107.379C204.899 107.606 204.969 107.859 204.969 108.138V113H203.528V108.193C203.528 108.156 203.513 108.127 203.484 108.105C203.462 108.076 203.432 108.061 203.396 108.061H200.063C200.026 108.061 199.993 108.076 199.964 108.105C199.942 108.127 199.931 108.156 199.931 108.193V113H198.49ZM207.326 113C207.047 113 206.794 112.93 206.567 112.791C206.34 112.652 206.156 112.468 206.017 112.241C205.878 112.014 205.808 111.761 205.808 111.482V104.662H207.249V106.62H209.735V108.061H207.249V111.427C207.249 111.464 207.26 111.497 207.282 111.526C207.311 111.548 207.344 111.559 207.381 111.559H209.735V113H207.326ZM213.367 113V111.559H213.906C213.942 111.559 213.972 111.548 213.994 111.526C214.023 111.497 214.038 111.464 214.038 111.427V106.653C214.038 106.616 214.023 106.587 213.994 106.565C213.972 106.536 213.942 106.521 213.906 106.521H213.367V105.08H213.972C214.243 105.08 214.492 105.15 214.72 105.289C214.954 105.421 215.141 105.601 215.281 105.828C215.42 106.055 215.49 106.312 215.49 106.598V111.482C215.49 111.761 215.42 112.014 215.281 112.241C215.141 112.468 214.954 112.652 214.72 112.791C214.492 112.93 214.243 113 213.972 113H213.367Z" fill="white"/>
</g>
<path d="M40.546 238.219V228.859H42.249V238.219H40.546ZM43.27 238.219V230.679H49.133C49.4623 230.679 49.7613 230.761 50.03 230.926C50.3073 231.09 50.524 231.307 50.68 231.576C50.8447 231.844 50.927 232.143 50.927 232.473V238.219H49.224V232.538C49.224 232.494 49.2067 232.46 49.172 232.434C49.146 232.399 49.1113 232.382 49.068 232.382H45.129C45.0857 232.382 45.0467 232.399 45.012 232.434C44.986 232.46 44.973 232.494 44.973 232.538V238.219H43.27ZM51.9058 238.219V230.679H53.6088V238.219H51.9058ZM51.9058 229.925V228.209H53.6088V229.925H51.9058ZM56.3823 238.219C56.053 238.219 55.754 238.136 55.4853 237.972C55.2167 237.807 55 237.59 54.8353 237.322C54.6707 237.053 54.5883 236.754 54.5883 236.425V228.365H56.2913V230.679H59.2293V232.382H56.2913V236.36C56.2913 236.403 56.3043 236.442 56.3303 236.477C56.365 236.503 56.404 236.516 56.4473 236.516H59.2293V238.219H56.3823ZM59.8982 238.219V230.679H61.6012V238.219H59.8982ZM59.8982 229.925V228.209H61.6012V229.925H59.8982ZM64.0444 238.219C63.7151 238.219 63.4117 238.136 63.1344 237.972C62.8657 237.807 62.6491 237.59 62.4844 237.322C62.3284 237.053 62.2504 236.754 62.2504 236.425V233.591H68.2044V232.538C68.2044 232.494 68.1871 232.46 68.1524 232.434C68.1264 232.399 68.0917 232.382 68.0484 232.382H62.2504V230.679H68.1134C68.4427 230.679 68.7417 230.761 69.0104 230.926C69.2877 231.09 69.5044 231.307 69.6604 231.576C69.8251 231.844 69.9074 232.143 69.9074 232.473V238.219H64.0444ZM64.1094 236.516H68.2044V235.125H63.9534V236.36C63.9534 236.403 63.9664 236.442 63.9924 236.477C64.0271 236.503 64.0661 236.516 64.1094 236.516ZM72.4015 238.219C72.0722 238.219 71.7732 238.136 71.5045 237.972C71.2358 237.807 71.0192 237.59 70.8545 237.322C70.6898 237.053 70.6075 236.754 70.6075 236.425V228.196H72.3235V236.36C72.3235 236.403 72.3365 236.442 72.3625 236.477C72.3972 236.503 72.4362 236.516 72.4795 236.516H73.9225V238.219H72.4015ZM40.546 258.219V248.859H42.249V258.219H40.546ZM43.27 258.219V250.679H49.133C49.4623 250.679 49.7613 250.761 50.03 250.926C50.3073 251.09 50.524 251.307 50.68 251.576C50.8447 251.844 50.927 252.143 50.927 252.473V258.219H49.224V252.538C49.224 252.494 49.2067 252.46 49.172 252.434C49.146 252.399 49.1113 252.382 49.068 252.382H45.129C45.0857 252.382 45.0467 252.399 45.012 252.434C44.986 252.46 44.973 252.494 44.973 252.538V258.219H43.27ZM55.6498 258.219L51.5028 250.679H53.4658L56.4428 256.152L59.4068 250.679H61.3698L57.2098 258.219H55.6498ZM63.1737 258.219C62.8444 258.219 62.5454 258.136 62.2767 257.972C62.0081 257.807 61.7914 257.59 61.6267 257.322C61.4621 257.053 61.3797 256.754 61.3797 256.425V252.473C61.3797 252.143 61.4621 251.844 61.6267 251.576C61.7914 251.307 62.0081 251.09 62.2767 250.926C62.5454 250.761 62.8444 250.679 63.1737 250.679H67.2427C67.5721 250.679 67.8711 250.761 68.1397 250.926C68.4171 251.09 68.6337 251.307 68.7897 251.576C68.9544 251.844 69.0367 252.143 69.0367 252.473V255.307H63.0827V256.36C63.0827 256.403 63.0957 256.442 63.1217 256.477C63.1564 256.503 63.1954 256.516 63.2387 256.516H69.0367V258.219H63.1737ZM63.0827 253.773H67.3337V252.538C67.3337 252.494 67.3164 252.46 67.2817 252.434C67.2557 252.399 67.2211 252.382 67.1777 252.382H63.2387C63.1954 252.382 63.1564 252.399 63.1217 252.434C63.0957 252.46 63.0827 252.494 63.0827 252.538V253.773ZM71.6568 258.219C71.3275 258.219 71.0285 258.136 70.7598 257.972C70.4912 257.807 70.2745 257.59 70.1098 257.322C69.9452 257.053 69.8628 256.754 69.8628 256.425V256.139H71.5658V256.36C71.5658 256.403 71.5788 256.442 71.6048 256.477C71.6395 256.503 71.6785 256.516 71.7218 256.516H75.6608C75.7042 256.516 75.7388 256.503 75.7648 256.477C75.7995 256.442 75.8168 256.403 75.8168 256.36V255.463C75.8168 255.419 75.7995 255.385 75.7648 255.359C75.7388 255.324 75.7042 255.307 75.6608 255.307H71.6568C71.3275 255.307 71.0285 255.224 70.7598 255.06C70.4912 254.895 70.2745 254.678 70.1098 254.41C69.9452 254.141 69.8628 253.842 69.8628 253.513V252.473C69.8628 252.143 69.9452 251.844 70.1098 251.576C70.2745 251.307 70.4912 251.09 70.7598 250.926C71.0285 250.761 71.3275 250.679 71.6568 250.679H75.7258C76.0638 250.679 76.3672 250.761 76.6358 250.926C76.9045 251.09 77.1212 251.307 77.2858 251.576C77.4505 251.844 77.5328 252.143 77.5328 252.473V252.759H75.8168V252.538C75.8168 252.494 75.7995 252.46 75.7648 252.434C75.7388 252.399 75.7042 252.382 75.6608 252.382H71.7218C71.6785 252.382 71.6395 252.399 71.6048 252.434C71.5788 252.46 71.5658 252.494 71.5658 252.538V253.435C71.5658 253.478 71.5788 253.517 71.6048 253.552C71.6395 253.578 71.6785 253.591 71.7218 253.591H75.7258C76.0638 253.591 76.3672 253.673 76.6358 253.838C76.9045 254.002 77.1212 254.219 77.2858 254.488C77.4505 254.756 77.5328 255.055 77.5328 255.385V256.425C77.5328 256.754 77.4505 257.053 77.2858 257.322C77.1212 257.59 76.9045 257.807 76.6358 257.972C76.3672 258.136 76.0638 258.219 75.7258 258.219H71.6568ZM80.2439 258.219C79.9146 258.219 79.6156 258.136 79.3469 257.972C79.0783 257.807 78.8616 257.59 78.6969 257.322C78.5323 257.053 78.4499 256.754 78.4499 256.425V248.365H80.1529V250.679H83.0909V252.382H80.1529V256.36C80.1529 256.403 80.1659 256.442 80.1919 256.477C80.2266 256.503 80.2656 256.516 80.3089 256.516H83.0909V258.219H80.2439ZM83.7598 258.219V250.679H85.4628V258.219H83.7598ZM83.7598 249.925V248.209H85.4628V249.925H83.7598ZM87.3697 261.196V259.48H91.9067C91.95 259.48 91.9847 259.462 92.0107 259.428C92.0453 259.402 92.0627 259.367 92.0627 259.324V258.219H87.9027C87.582 258.219 87.283 258.136 87.0057 257.972C86.737 257.807 86.5203 257.59 86.3557 257.322C86.191 257.053 86.1087 256.754 86.1087 256.425V252.473C86.1087 252.143 86.191 251.844 86.3557 251.576C86.5203 251.307 86.737 251.09 87.0057 250.926C87.283 250.761 87.582 250.679 87.9027 250.679H91.9847C92.314 250.679 92.613 250.761 92.8817 250.926C93.1503 251.09 93.3627 251.307 93.5187 251.576C93.6833 251.844 93.7657 252.143 93.7657 252.473V259.402C93.7657 259.74 93.6877 260.043 93.5317 260.312C93.3757 260.58 93.159 260.793 92.8817 260.949C92.613 261.113 92.314 261.196 91.9847 261.196H87.3697ZM87.9677 256.516H91.9067C91.95 256.516 91.9847 256.503 92.0107 256.477C92.0453 256.442 92.0627 256.403 92.0627 256.36V252.538C92.0627 252.494 92.0453 252.46 92.0107 252.434C91.9847 252.399 91.95 252.382 91.9067 252.382H87.9677C87.9243 252.382 87.8853 252.399 87.8507 252.434C87.8247 252.46 87.8117 252.494 87.8117 252.538V256.36C87.8117 256.403 87.8247 256.442 87.8507 256.477C87.8853 256.503 87.9243 256.516 87.9677 256.516ZM96.2504 258.219C95.9211 258.219 95.6177 258.136 95.3404 257.972C95.0717 257.807 94.8551 257.59 94.6904 257.322C94.5344 257.053 94.4564 256.754 94.4564 256.425V253.591H100.41V252.538C100.41 252.494 100.393 252.46 100.358 252.434C100.332 252.399 100.298 252.382 100.254 252.382H94.4564V250.679H100.319C100.649 250.679 100.948 250.761 101.216 250.926C101.494 251.09 101.71 251.307 101.866 251.576C102.031 251.844 102.113 252.143 102.113 252.473V258.219H96.2504ZM96.3154 256.516H100.41V255.125H96.1594V256.36C96.1594 256.403 96.1724 256.442 96.1984 256.477C96.2331 256.503 96.2721 256.516 96.3154 256.516ZM104.9 258.219C104.57 258.219 104.271 258.136 104.003 257.972C103.734 257.807 103.517 257.59 103.353 257.322C103.188 257.053 103.106 256.754 103.106 256.425V248.365H104.809V250.679H107.747V252.382H104.809V256.36C104.809 256.403 104.822 256.442 104.848 256.477C104.882 256.503 104.921 256.516 104.965 256.516H107.747V258.219H104.9ZM108.416 258.219V250.679H110.119V258.219H108.416ZM108.416 249.925V248.209H110.119V249.925H108.416ZM112.688 258.219C112.359 258.219 112.06 258.136 111.791 257.972C111.523 257.807 111.306 257.59 111.141 257.322C110.977 257.053 110.894 256.754 110.894 256.425V252.473C110.894 252.143 110.977 251.844 111.141 251.576C111.306 251.307 111.523 251.09 111.791 250.926C112.06 250.761 112.359 250.679 112.688 250.679H116.757C117.087 250.679 117.386 250.761 117.654 250.926C117.932 251.09 118.148 251.307 118.304 251.576C118.469 251.844 118.551 252.143 118.551 252.473V256.425C118.551 256.754 118.469 257.053 118.304 257.322C118.148 257.59 117.936 257.807 117.667 257.972C117.399 258.136 117.095 258.219 116.757 258.219H112.688ZM112.753 256.516H116.692C116.736 256.516 116.77 256.503 116.796 256.477C116.831 256.442 116.848 256.403 116.848 256.36V252.538C116.848 252.494 116.831 252.46 116.796 252.434C116.77 252.399 116.736 252.382 116.692 252.382H112.753C112.71 252.382 112.671 252.399 112.636 252.434C112.61 252.46 112.597 252.494 112.597 252.538V256.36C112.597 256.403 112.61 256.442 112.636 256.477C112.671 256.503 112.71 256.516 112.753 256.516ZM119.227 258.219V250.679H125.09C125.419 250.679 125.718 250.761 125.987 250.926C126.264 251.09 126.481 251.307 126.637 251.576C126.802 251.844 126.884 252.143 126.884 252.473V258.219H125.181V252.538C125.181 252.494 125.164 252.46 125.129 252.434C125.103 252.399 125.068 252.382 125.025 252.382H121.086C121.043 252.382 121.004 252.399 120.969 252.434C120.943 252.46 120.93 252.494 120.93 252.538V258.219H119.227Z" fill="white"/>
<path d="M404.082 238V230.369H400.26V228.64H409.62V230.369H405.811V238H404.082ZM411.931 238C411.602 238 411.303 237.918 411.034 237.753C410.766 237.588 410.549 237.372 410.384 237.103C410.22 236.834 410.137 236.535 410.137 236.206V232.254C410.137 231.925 410.22 231.626 410.384 231.357C410.549 231.088 410.766 230.872 411.034 230.707C411.303 230.542 411.602 230.46 411.931 230.46H416C416.33 230.46 416.629 230.542 416.897 230.707C417.175 230.872 417.391 231.088 417.547 231.357C417.712 231.626 417.794 231.925 417.794 232.254V235.088H411.84V236.141C411.84 236.184 411.853 236.223 411.879 236.258C411.914 236.284 411.953 236.297 411.996 236.297H417.794V238H411.931ZM411.84 233.554H416.091V232.319C416.091 232.276 416.074 232.241 416.039 232.215C416.013 232.18 415.979 232.163 415.935 232.163H411.996C411.953 232.163 411.914 232.18 411.879 232.215C411.853 232.241 411.84 232.276 411.84 232.319V233.554ZM420.414 238C420.085 238 419.786 237.918 419.517 237.753C419.249 237.588 419.032 237.372 418.867 237.103C418.703 236.834 418.62 236.535 418.62 236.206V235.92H420.323V236.141C420.323 236.184 420.336 236.223 420.362 236.258C420.397 236.284 420.436 236.297 420.479 236.297H424.418C424.462 236.297 424.496 236.284 424.522 236.258C424.557 236.223 424.574 236.184 424.574 236.141V235.244C424.574 235.201 424.557 235.166 424.522 235.14C424.496 235.105 424.462 235.088 424.418 235.088H420.414C420.085 235.088 419.786 235.006 419.517 234.841C419.249 234.676 419.032 234.46 418.867 234.191C418.703 233.922 418.62 233.623 418.62 233.294V232.254C418.62 231.925 418.703 231.626 418.867 231.357C419.032 231.088 419.249 230.872 419.517 230.707C419.786 230.542 420.085 230.46 420.414 230.46H424.483C424.821 230.46 425.125 230.542 425.393 230.707C425.662 230.872 425.879 231.088 426.043 231.357C426.208 231.626 426.29 231.925 426.29 232.254V232.54H424.574V232.319C424.574 232.276 424.557 232.241 424.522 232.215C424.496 232.18 424.462 232.163 424.418 232.163H420.479C420.436 232.163 420.397 232.18 420.362 232.215C420.336 232.241 420.323 232.276 420.323 232.319V233.216C420.323 233.259 420.336 233.298 420.362 233.333C420.397 233.359 420.436 233.372 420.479 233.372H424.483C424.821 233.372 425.125 233.454 425.393 233.619C425.662 233.784 425.879 234 426.043 234.269C426.208 234.538 426.29 234.837 426.29 235.166V236.206C426.29 236.535 426.208 236.834 426.043 237.103C425.879 237.372 425.662 237.588 425.393 237.753C425.125 237.918 424.821 238 424.483 238H420.414ZM429.001 238C428.672 238 428.373 237.918 428.104 237.753C427.836 237.588 427.619 237.372 427.454 237.103C427.29 236.834 427.207 236.535 427.207 236.206V228.146H428.91V230.46H431.848V232.163H428.91V236.141C428.91 236.184 428.923 236.223 428.949 236.258C428.984 236.284 429.023 236.297 429.066 236.297H431.848V238H429.001ZM432.517 238V230.46H434.22V238H432.517ZM432.517 229.706V227.99H434.22V229.706H432.517ZM435.34 238V230.46H441.203C441.532 230.46 441.831 230.542 442.1 230.707C442.377 230.872 442.594 231.088 442.75 231.357C442.915 231.626 442.997 231.925 442.997 232.254V238H441.294V232.319C441.294 232.276 441.277 232.241 441.242 232.215C441.216 232.18 441.181 232.163 441.138 232.163H437.199C437.156 232.163 437.117 232.18 437.082 232.215C437.056 232.241 437.043 232.276 437.043 232.319V238H435.34ZM445.005 240.977V239.261H449.542C449.585 239.261 449.62 239.244 449.646 239.209C449.68 239.183 449.698 239.148 449.698 239.105V238H445.538C445.217 238 444.918 237.918 444.641 237.753C444.372 237.588 444.155 237.372 443.991 237.103C443.826 236.834 443.744 236.535 443.744 236.206V232.254C443.744 231.925 443.826 231.626 443.991 231.357C444.155 231.088 444.372 230.872 444.641 230.707C444.918 230.542 445.217 230.46 445.538 230.46H449.62C449.949 230.46 450.248 230.542 450.517 230.707C450.785 230.872 450.998 231.088 451.154 231.357C451.318 231.626 451.401 231.925 451.401 232.254V239.183C451.401 239.521 451.323 239.824 451.167 240.093C451.011 240.362 450.794 240.574 450.517 240.73C450.248 240.895 449.949 240.977 449.62 240.977H445.005ZM445.603 236.297H449.542C449.585 236.297 449.62 236.284 449.646 236.258C449.68 236.223 449.698 236.184 449.698 236.141V232.319C449.698 232.276 449.68 232.241 449.646 232.215C449.62 232.18 449.585 232.163 449.542 232.163H445.603C445.559 232.163 445.52 232.18 445.486 232.215C445.46 232.241 445.447 232.276 445.447 232.319V236.141C445.447 236.184 445.46 236.223 445.486 236.258C445.52 236.284 445.559 236.297 445.603 236.297Z" fill="white"/>
<path d="M545.741 238V228.627H547.457V236.271H555.101V238H545.741ZM557.211 238C556.882 238 556.578 237.918 556.301 237.753C556.032 237.588 555.816 237.372 555.651 237.103C555.495 236.834 555.417 236.535 555.417 236.206V233.372H561.371V232.319C561.371 232.276 561.354 232.241 561.319 232.215C561.293 232.18 561.258 232.163 561.215 232.163H555.417V230.46H561.28C561.609 230.46 561.908 230.542 562.177 230.707C562.454 230.872 562.671 231.088 562.827 231.357C562.992 231.626 563.074 231.925 563.074 232.254V238H557.211ZM557.276 236.297H561.371V234.906H557.12V236.141C557.12 236.184 557.133 236.223 557.159 236.258C557.194 236.284 557.233 236.297 557.276 236.297ZM565.86 238C565.531 238 565.228 237.918 564.95 237.753C564.682 237.588 564.465 237.372 564.3 237.103C564.144 236.834 564.066 236.535 564.066 236.206V230.46H565.769V236.141C565.769 236.184 565.782 236.223 565.808 236.258C565.843 236.284 565.882 236.297 565.925 236.297H569.864C569.908 236.297 569.942 236.284 569.968 236.258C570.003 236.223 570.02 236.184 570.02 236.141V230.46H571.723V236.206C571.723 236.535 571.641 236.834 571.476 237.103C571.32 237.372 571.108 237.588 570.839 237.753C570.571 237.918 570.267 238 569.929 238H565.86ZM572.741 238V230.46H578.604C578.933 230.46 579.232 230.542 579.501 230.707C579.778 230.872 579.995 231.088 580.151 231.357C580.316 231.626 580.398 231.925 580.398 232.254V238H578.695V232.319C578.695 232.276 578.678 232.241 578.643 232.215C578.617 232.18 578.582 232.163 578.539 232.163H574.6C574.557 232.163 574.518 232.18 574.483 232.215C574.457 232.241 574.444 232.276 574.444 232.319V238H572.741ZM582.853 238C582.524 238 582.225 237.918 581.956 237.753C581.687 237.588 581.471 237.372 581.306 237.103C581.141 236.834 581.059 236.535 581.059 236.206V232.254C581.059 231.925 581.141 231.626 581.306 231.357C581.471 231.088 581.687 230.872 581.956 230.707C582.225 230.542 582.524 230.46 582.853 230.46H588.703V232.163H582.918C582.875 232.163 582.836 232.18 582.801 232.215C582.775 232.241 582.762 232.276 582.762 232.319V236.141C582.762 236.184 582.775 236.223 582.801 236.258C582.836 236.284 582.875 236.297 582.918 236.297H588.716V238H582.853ZM589.43 238V227.99H591.133V230.46H595.293C595.622 230.46 595.921 230.542 596.19 230.707C596.458 230.872 596.675 231.088 596.84 231.357C597.004 231.626 597.087 231.925 597.087 232.254V238H595.384V232.319C595.384 232.276 595.366 232.241 595.332 232.215C595.306 232.18 595.271 232.163 595.228 232.163H591.289C591.245 232.163 591.206 232.18 591.172 232.215C591.146 232.241 591.133 232.276 591.133 232.319V238H589.43Z" fill="white"/>
<path d="M230.496 168C230.167 168 229.863 167.918 229.586 167.753C229.317 167.588 229.101 167.372 228.936 167.103C228.771 166.826 228.689 166.522 228.689 166.193V165.478H230.405V166.115C230.405 166.158 230.418 166.197 230.444 166.232C230.479 166.258 230.518 166.271 230.561 166.271H236.164C236.207 166.271 236.242 166.258 236.268 166.232C236.303 166.197 236.32 166.158 236.32 166.115V164.334C236.32 164.291 236.303 164.256 236.268 164.23C236.242 164.204 236.207 164.191 236.164 164.191H230.496C230.167 164.191 229.863 164.109 229.586 163.944C229.317 163.779 229.101 163.563 228.936 163.294C228.771 163.017 228.689 162.709 228.689 162.371V160.447C228.689 160.118 228.771 159.819 228.936 159.55C229.101 159.273 229.317 159.052 229.586 158.887C229.863 158.722 230.167 158.64 230.496 158.64H236.242C236.571 158.64 236.87 158.722 237.139 158.887C237.416 159.052 237.637 159.273 237.802 159.55C237.967 159.819 238.049 160.118 238.049 160.447V161.162H236.32V160.525C236.32 160.482 236.303 160.447 236.268 160.421C236.242 160.386 236.207 160.369 236.164 160.369H230.561C230.518 160.369 230.479 160.386 230.444 160.421C230.418 160.447 230.405 160.482 230.405 160.525V162.306C230.405 162.349 230.418 162.384 230.444 162.41C230.479 162.436 230.518 162.449 230.561 162.449H236.242C236.571 162.449 236.87 162.531 237.139 162.696C237.416 162.861 237.637 163.082 237.802 163.359C237.967 163.628 238.049 163.931 238.049 164.269V166.193C238.049 166.522 237.967 166.826 237.802 167.103C237.637 167.372 237.416 167.588 237.139 167.753C236.87 167.918 236.571 168 236.242 168H230.496ZM240.157 170.795V169.079H244.694C244.738 169.079 244.772 169.062 244.798 169.027C244.833 169.001 244.85 168.966 244.85 168.923V168H240.69C240.37 168 240.071 167.918 239.793 167.753C239.525 167.588 239.308 167.372 239.143 167.103C238.979 166.834 238.896 166.535 238.896 166.206V160.486H240.599V166.141C240.599 166.184 240.612 166.223 240.638 166.258C240.673 166.284 240.712 166.297 240.755 166.297H244.694C244.738 166.297 244.772 166.284 244.798 166.258C244.833 166.223 244.85 166.184 244.85 166.141V160.486H246.553V169.001C246.553 169.33 246.475 169.629 246.319 169.898C246.163 170.175 245.947 170.392 245.669 170.548C245.401 170.713 245.102 170.795 244.772 170.795H240.157ZM249.189 168C248.859 168 248.56 167.918 248.292 167.753C248.023 167.588 247.806 167.372 247.642 167.103C247.477 166.834 247.395 166.535 247.395 166.206V165.92H249.098V166.141C249.098 166.184 249.111 166.223 249.137 166.258C249.171 166.284 249.21 166.297 249.254 166.297H253.193C253.236 166.297 253.271 166.284 253.297 166.258C253.331 166.223 253.349 166.184 253.349 166.141V165.244C253.349 165.201 253.331 165.166 253.297 165.14C253.271 165.105 253.236 165.088 253.193 165.088H249.189C248.859 165.088 248.56 165.006 248.292 164.841C248.023 164.676 247.806 164.46 247.642 164.191C247.477 163.922 247.395 163.623 247.395 163.294V162.254C247.395 161.925 247.477 161.626 247.642 161.357C247.806 161.088 248.023 160.872 248.292 160.707C248.56 160.542 248.859 160.46 249.189 160.46H253.258C253.596 160.46 253.899 160.542 254.168 160.707C254.436 160.872 254.653 161.088 254.818 161.357C254.982 161.626 255.065 161.925 255.065 162.254V162.54H253.349V162.319C253.349 162.276 253.331 162.241 253.297 162.215C253.271 162.18 253.236 162.163 253.193 162.163H249.254C249.21 162.163 249.171 162.18 249.137 162.215C249.111 162.241 249.098 162.276 249.098 162.319V163.216C249.098 163.259 249.111 163.298 249.137 163.333C249.171 163.359 249.21 163.372 249.254 163.372H253.258C253.596 163.372 253.899 163.454 254.168 163.619C254.436 163.784 254.653 164 254.818 164.269C254.982 164.538 255.065 164.837 255.065 165.166V166.206C255.065 166.535 254.982 166.834 254.818 167.103C254.653 167.372 254.436 167.588 254.168 167.753C253.899 167.918 253.596 168 253.258 168H249.189ZM257.776 168C257.447 168 257.148 167.918 256.879 167.753C256.61 167.588 256.394 167.372 256.229 167.103C256.064 166.834 255.982 166.535 255.982 166.206V158.146H257.685V160.46H260.623V162.163H257.685V166.141C257.685 166.184 257.698 166.223 257.724 166.258C257.759 166.284 257.798 166.297 257.841 166.297H260.623V168H257.776ZM263.06 168C262.731 168 262.432 167.918 262.163 167.753C261.894 167.588 261.678 167.372 261.513 167.103C261.348 166.834 261.266 166.535 261.266 166.206V162.254C261.266 161.925 261.348 161.626 261.513 161.357C261.678 161.088 261.894 160.872 262.163 160.707C262.432 160.542 262.731 160.46 263.06 160.46H267.129C267.458 160.46 267.757 160.542 268.026 160.707C268.303 160.872 268.52 161.088 268.676 161.357C268.841 161.626 268.923 161.925 268.923 162.254V165.088H262.969V166.141C262.969 166.184 262.982 166.223 263.008 166.258C263.043 166.284 263.082 166.297 263.125 166.297H268.923V168H263.06ZM262.969 163.554H267.22V162.319C267.22 162.276 267.203 162.241 267.168 162.215C267.142 162.18 267.107 162.163 267.064 162.163H263.125C263.082 162.163 263.043 162.18 263.008 162.215C262.982 162.241 262.969 162.276 262.969 162.319V163.554ZM269.916 168V160.46H279.263C279.601 160.46 279.904 160.542 280.173 160.707C280.442 160.872 280.654 161.088 280.81 161.357C280.975 161.626 281.057 161.925 281.057 162.254V168H279.367V162.319C279.367 162.276 279.35 162.241 279.315 162.215C279.28 162.18 279.241 162.163 279.198 162.163H276.507C276.464 162.163 276.425 162.18 276.39 162.215C276.364 162.241 276.351 162.276 276.351 162.319V168H274.635V162.319C274.635 162.276 274.618 162.241 274.583 162.215C274.557 162.18 274.522 162.163 274.479 162.163H271.775C271.732 162.163 271.693 162.18 271.658 162.215C271.632 162.241 271.619 162.276 271.619 162.319V168H269.916ZM285.87 168V158.64H293.41C293.739 158.64 294.042 158.722 294.32 158.887C294.597 159.052 294.818 159.273 294.983 159.55C295.147 159.819 295.23 160.118 295.23 160.447V166.193C295.23 166.522 295.147 166.826 294.983 167.103C294.818 167.372 294.597 167.588 294.32 167.753C294.042 167.918 293.739 168 293.41 168H285.87ZM287.729 166.271H293.332C293.375 166.271 293.414 166.258 293.449 166.232C293.483 166.197 293.501 166.158 293.501 166.115V160.525C293.501 160.482 293.483 160.447 293.449 160.421C293.414 160.386 293.375 160.369 293.332 160.369H287.729C287.685 160.369 287.646 160.386 287.612 160.421C287.586 160.447 287.573 160.482 287.573 160.525V166.115C287.573 166.158 287.586 166.197 287.612 166.232C287.646 166.258 287.685 166.271 287.729 166.271ZM298.024 168C297.695 168 297.396 167.918 297.127 167.753C296.859 167.588 296.642 167.372 296.477 167.103C296.313 166.834 296.23 166.535 296.23 166.206V162.254C296.23 161.925 296.313 161.626 296.477 161.357C296.642 161.088 296.859 160.872 297.127 160.707C297.396 160.542 297.695 160.46 298.024 160.46H302.093C302.423 160.46 302.722 160.542 302.99 160.707C303.268 160.872 303.484 161.088 303.64 161.357C303.805 161.626 303.887 161.925 303.887 162.254V165.088H297.933V166.141C297.933 166.184 297.946 166.223 297.972 166.258C298.007 166.284 298.046 166.297 298.089 166.297H303.887V168H298.024ZM297.933 163.554H302.184V162.319C302.184 162.276 302.167 162.241 302.132 162.215C302.106 162.18 302.072 162.163 302.028 162.163H298.089C298.046 162.163 298.007 162.18 297.972 162.215C297.946 162.241 297.933 162.276 297.933 162.319V163.554ZM306.508 168C306.178 168 305.879 167.918 305.611 167.753C305.342 167.588 305.125 167.372 304.961 167.103C304.796 166.834 304.714 166.535 304.714 166.206V165.92H306.417V166.141C306.417 166.184 306.43 166.223 306.456 166.258C306.49 166.284 306.529 166.297 306.573 166.297H310.512C310.555 166.297 310.59 166.284 310.616 166.258C310.65 166.223 310.668 166.184 310.668 166.141V165.244C310.668 165.201 310.65 165.166 310.616 165.14C310.59 165.105 310.555 165.088 310.512 165.088H306.508C306.178 165.088 305.879 165.006 305.611 164.841C305.342 164.676 305.125 164.46 304.961 164.191C304.796 163.922 304.714 163.623 304.714 163.294V162.254C304.714 161.925 304.796 161.626 304.961 161.357C305.125 161.088 305.342 160.872 305.611 160.707C305.879 160.542 306.178 160.46 306.508 160.46H310.577C310.915 160.46 311.218 160.542 311.487 160.707C311.755 160.872 311.972 161.088 312.137 161.357C312.301 161.626 312.384 161.925 312.384 162.254V162.54H310.668V162.319C310.668 162.276 310.65 162.241 310.616 162.215C310.59 162.18 310.555 162.163 310.512 162.163H306.573C306.529 162.163 306.49 162.18 306.456 162.215C306.43 162.241 306.417 162.276 306.417 162.319V163.216C306.417 163.259 306.43 163.298 306.456 163.333C306.49 163.359 306.529 163.372 306.573 163.372H310.577C310.915 163.372 311.218 163.454 311.487 163.619C311.755 163.784 311.972 164 312.137 164.269C312.301 164.538 312.384 164.837 312.384 165.166V166.206C312.384 166.535 312.301 166.834 312.137 167.103C311.972 167.372 311.755 167.588 311.487 167.753C311.218 167.918 310.915 168 310.577 168H306.508ZM313.288 168V160.46H314.991V168H313.288ZM313.288 159.706V157.99H314.991V159.706H313.288ZM316.898 170.977V169.261H321.435C321.478 169.261 321.513 169.244 321.539 169.209C321.573 169.183 321.591 169.148 321.591 169.105V168H317.431C317.11 168 316.811 167.918 316.534 167.753C316.265 167.588 316.048 167.372 315.884 167.103C315.719 166.834 315.637 166.535 315.637 166.206V162.254C315.637 161.925 315.719 161.626 315.884 161.357C316.048 161.088 316.265 160.872 316.534 160.707C316.811 160.542 317.11 160.46 317.431 160.46H321.513C321.842 160.46 322.141 160.542 322.41 160.707C322.678 160.872 322.891 161.088 323.047 161.357C323.211 161.626 323.294 161.925 323.294 162.254V169.183C323.294 169.521 323.216 169.824 323.06 170.093C322.904 170.362 322.687 170.574 322.41 170.73C322.141 170.895 321.842 170.977 321.513 170.977H316.898ZM317.496 166.297H321.435C321.478 166.297 321.513 166.284 321.539 166.258C321.573 166.223 321.591 166.184 321.591 166.141V162.319C321.591 162.276 321.573 162.241 321.539 162.215C321.513 162.18 321.478 162.163 321.435 162.163H317.496C317.452 162.163 317.413 162.18 317.379 162.215C317.353 162.241 317.34 162.276 317.34 162.319V166.141C317.34 166.184 317.353 166.223 317.379 166.258C317.413 166.284 317.452 166.297 317.496 166.297ZM324.29 168V160.46H330.153C330.482 160.46 330.781 160.542 331.05 160.707C331.327 160.872 331.544 161.088 331.7 161.357C331.864 161.626 331.947 161.925 331.947 162.254V168H330.244V162.319C330.244 162.276 330.226 162.241 330.192 162.215C330.166 162.18 330.131 162.163 330.088 162.163H326.149C326.105 162.163 326.066 162.18 326.032 162.215C326.006 162.241 325.993 162.276 325.993 162.319V168H324.29Z" fill="white"/>
<path d="M235.273 278V268.64H242.813C243.142 268.64 243.446 268.722 243.723 268.887C244 269.052 244.221 269.273 244.386 269.55C244.551 269.819 244.633 270.118 244.633 270.447V276.193C244.633 276.522 244.551 276.826 244.386 277.103C244.221 277.372 244 277.588 243.723 277.753C243.446 277.918 243.142 278 242.813 278H235.273ZM237.132 276.271H242.735C242.778 276.271 242.817 276.258 242.852 276.232C242.887 276.197 242.904 276.158 242.904 276.115V270.525C242.904 270.482 242.887 270.447 242.852 270.421C242.817 270.386 242.778 270.369 242.735 270.369H237.132C237.089 270.369 237.05 270.386 237.015 270.421C236.989 270.447 236.976 270.482 236.976 270.525V276.115C236.976 276.158 236.989 276.197 237.015 276.232C237.05 276.258 237.089 276.271 237.132 276.271ZM247.428 278C247.098 278 246.799 277.918 246.531 277.753C246.262 277.588 246.045 277.372 245.881 277.103C245.716 276.834 245.634 276.535 245.634 276.206V272.254C245.634 271.925 245.716 271.626 245.881 271.357C246.045 271.088 246.262 270.872 246.531 270.707C246.799 270.542 247.098 270.46 247.428 270.46H251.497C251.826 270.46 252.125 270.542 252.394 270.707C252.671 270.872 252.888 271.088 253.044 271.357C253.208 271.626 253.291 271.925 253.291 272.254V275.088H247.337V276.141C247.337 276.184 247.35 276.223 247.376 276.258C247.41 276.284 247.449 276.297 247.493 276.297H253.291V278H247.428ZM247.337 273.554H251.588V272.319C251.588 272.276 251.57 272.241 251.536 272.215C251.51 272.18 251.475 272.163 251.432 272.163H247.493C247.449 272.163 247.41 272.18 247.376 272.215C247.35 272.241 247.337 272.276 247.337 272.319V273.554ZM257.418 278L253.271 270.46H255.234L258.211 275.933L261.175 270.46H263.138L258.978 278H257.418ZM264.942 278C264.612 278 264.313 277.918 264.045 277.753C263.776 277.588 263.559 277.372 263.395 277.103C263.23 276.834 263.148 276.535 263.148 276.206V272.254C263.148 271.925 263.23 271.626 263.395 271.357C263.559 271.088 263.776 270.872 264.045 270.707C264.313 270.542 264.612 270.46 264.942 270.46H269.011C269.34 270.46 269.639 270.542 269.908 270.707C270.185 270.872 270.402 271.088 270.558 271.357C270.722 271.626 270.805 271.925 270.805 272.254V275.088H264.851V276.141C264.851 276.184 264.864 276.223 264.89 276.258C264.924 276.284 264.963 276.297 265.007 276.297H270.805V278H264.942ZM264.851 273.554H269.102V272.319C269.102 272.276 269.084 272.241 269.05 272.215C269.024 272.18 268.989 272.163 268.946 272.163H265.007C264.963 272.163 264.924 272.18 264.89 272.215C264.864 272.241 264.851 272.276 264.851 272.319V273.554ZM273.261 278C272.932 278 272.633 277.918 272.364 277.753C272.095 277.588 271.879 277.372 271.714 277.103C271.549 276.834 271.467 276.535 271.467 276.206V267.977H273.183V276.141C273.183 276.184 273.196 276.223 273.222 276.258C273.257 276.284 273.296 276.297 273.339 276.297H274.782V278H273.261ZM277.149 278C276.82 278 276.521 277.918 276.252 277.753C275.983 277.588 275.767 277.372 275.602 277.103C275.437 276.834 275.355 276.535 275.355 276.206V272.254C275.355 271.925 275.437 271.626 275.602 271.357C275.767 271.088 275.983 270.872 276.252 270.707C276.521 270.542 276.82 270.46 277.149 270.46H281.218C281.547 270.46 281.846 270.542 282.115 270.707C282.392 270.872 282.609 271.088 282.765 271.357C282.93 271.626 283.012 271.925 283.012 272.254V276.206C283.012 276.535 282.93 276.834 282.765 277.103C282.609 277.372 282.397 277.588 282.128 277.753C281.859 277.918 281.556 278 281.218 278H277.149ZM277.214 276.297H281.153C281.196 276.297 281.231 276.284 281.257 276.258C281.292 276.223 281.309 276.184 281.309 276.141V272.319C281.309 272.276 281.292 272.241 281.257 272.215C281.231 272.18 281.196 272.163 281.153 272.163H277.214C277.171 272.163 277.132 272.18 277.097 272.215C277.071 272.241 277.058 272.276 277.058 272.319V276.141C277.058 276.184 277.071 276.223 277.097 276.258C277.132 276.284 277.171 276.297 277.214 276.297ZM284.005 280.99V270.46H289.868C290.197 270.46 290.496 270.542 290.765 270.707C291.042 270.872 291.259 271.088 291.415 271.357C291.58 271.626 291.662 271.925 291.662 272.254V276.206C291.662 276.535 291.58 276.834 291.415 277.103C291.259 277.372 291.042 277.588 290.765 277.753C290.496 277.918 290.197 278 289.868 278H285.708V280.99H284.005ZM285.864 276.297H289.803C289.846 276.297 289.881 276.284 289.907 276.258C289.942 276.223 289.959 276.184 289.959 276.141V272.319C289.959 272.276 289.942 272.241 289.907 272.215C289.881 272.18 289.846 272.163 289.803 272.163H285.864C285.821 272.163 285.782 272.18 285.747 272.215C285.721 272.241 285.708 272.276 285.708 272.319V276.141C285.708 276.184 285.721 276.223 285.747 276.258C285.782 276.284 285.821 276.297 285.864 276.297ZM292.248 278V270.46H301.595C301.933 270.46 302.236 270.542 302.505 270.707C302.773 270.872 302.986 271.088 303.142 271.357C303.306 271.626 303.389 271.925 303.389 272.254V278H301.699V272.319C301.699 272.276 301.681 272.241 301.647 272.215C301.612 272.18 301.573 272.163 301.53 272.163H298.839C298.795 272.163 298.756 272.18 298.722 272.215C298.696 272.241 298.683 272.276 298.683 272.319V278H296.967V272.319C296.967 272.276 296.949 272.241 296.915 272.215C296.889 272.18 296.854 272.163 296.811 272.163H294.107C294.063 272.163 294.024 272.18 293.99 272.215C293.964 272.241 293.951 272.276 293.951 272.319V278H292.248ZM305.965 278C305.636 278 305.337 277.918 305.068 277.753C304.8 277.588 304.583 277.372 304.418 277.103C304.254 276.834 304.171 276.535 304.171 276.206V272.254C304.171 271.925 304.254 271.626 304.418 271.357C304.583 271.088 304.8 270.872 305.068 270.707C305.337 270.542 305.636 270.46 305.965 270.46H310.034C310.364 270.46 310.663 270.542 310.931 270.707C311.209 270.872 311.425 271.088 311.581 271.357C311.746 271.626 311.828 271.925 311.828 272.254V275.088H305.874V276.141C305.874 276.184 305.887 276.223 305.913 276.258C305.948 276.284 305.987 276.297 306.03 276.297H311.828V278H305.965ZM305.874 273.554H310.125V272.319C310.125 272.276 310.108 272.241 310.073 272.215C310.047 272.18 310.013 272.163 309.969 272.163H306.03C305.987 272.163 305.948 272.18 305.913 272.215C305.887 272.241 305.874 272.276 305.874 272.319V273.554ZM312.821 278V270.46H318.684C319.014 270.46 319.313 270.542 319.581 270.707C319.859 270.872 320.075 271.088 320.231 271.357C320.396 271.626 320.478 271.925 320.478 272.254V278H318.775V272.319C318.775 272.276 318.758 272.241 318.723 272.215C318.697 272.18 318.663 272.163 318.619 272.163H314.68C314.637 272.163 314.598 272.18 314.563 272.215C314.537 272.241 314.524 272.276 314.524 272.319V278H312.821ZM323.264 278C322.935 278 322.636 277.918 322.367 277.753C322.098 277.588 321.882 277.372 321.717 277.103C321.552 276.834 321.47 276.535 321.47 276.206V268.146H323.173V270.46H326.111V272.163H323.173V276.141C323.173 276.184 323.186 276.223 323.212 276.258C323.247 276.284 323.286 276.297 323.329 276.297H326.111V278H323.264Z" fill="white"/>
<path d="M163.061 220.061C163.646 219.475 163.646 218.525 163.061 217.939L153.515 208.393C152.929 207.808 151.979 207.808 151.393 208.393C150.808 208.979 150.808 209.929 151.393 210.515L159.879 219L151.393 227.485C150.808 228.071 150.808 229.021 151.393 229.607C151.979 230.192 152.929 230.192 153.515 229.607L163.061 220.061ZM39 220.5H162V217.5H39V220.5Z" fill="white"/>
<path d="M523.061 220.061C523.646 219.475 523.646 218.525 523.061 217.939L513.515 208.393C512.929 207.808 511.979 207.808 511.393 208.393C510.808 208.979 510.808 209.929 511.393 210.515L519.879 219L511.393 227.485C510.808 228.071 510.808 229.021 511.393 229.607C511.979 230.192 512.929 230.192 513.515 229.607L523.061 220.061ZM399 220.5H522V217.5H399V220.5Z" fill="white"/>
<path d="M668.061 220.061C668.646 219.475 668.646 218.525 668.061 217.939L658.515 208.393C657.929 207.808 656.979 207.808 656.393 208.393C655.808 208.979 655.808 209.929 656.393 210.515L664.879 219L656.393 227.485C655.808 228.071 655.808 229.021 656.393 229.607C656.979 230.192 657.929 230.192 658.515 229.607L668.061 220.061ZM544 220.5H667V217.5H544V220.5Z" fill="white"/>
<path d="M188 164H218" stroke="white" stroke-width="8"/>
<path d="M188 274H208" stroke="white" stroke-width="8"/>
<path d="M217.133 275.13C217.758 274.505 217.758 273.491 217.133 272.866L210.736 266.469C210.276 266.009 209.591 265.874 208.991 266.124C208.392 266.374 208.002 266.953 208.002 267.603V280.398C208.002 281.043 208.392 281.627 208.991 281.877C209.591 282.127 210.276 281.987 210.736 281.532L217.133 275.135V275.13Z" fill="white"/>
<path d="M184 160L184 278" stroke="white" stroke-width="8"/>
<path d="M371 274H341" stroke="white" stroke-width="8"/>
<path d="M371 164H351" stroke="white" stroke-width="8"/>
<path d="M341.867 162.87C341.242 163.495 341.242 164.509 341.867 165.134L348.264 171.531C348.724 171.991 349.409 172.126 350.009 171.876C350.608 171.626 350.998 171.047 350.998 170.397V157.602C350.998 156.957 350.608 156.373 350.009 156.123C349.409 155.873 348.724 156.013 348.264 156.468L341.867 162.865V162.87Z" fill="white"/>
<path d="M375 278L375 160" stroke="white" stroke-width="8"/>
<defs>
<filter id="filter0_d_373_1400" x="0" y="0" width="711" height="368" filterUnits="userSpaceOnUse" color-interpolation-filters="sRGB">
<feFlood flood-opacity="0" result="BackgroundImageFix"/>
<feColorMatrix in="SourceAlpha" type="matrix" values="0 0 0 0 0 0 0 0 0 0 0 0 0 0 0 0 0 0 127 0" result="hardAlpha"/>
<feOffset dx="5" dy="5"/>
<feComposite in2="hardAlpha" operator="out"/>
<feColorMatrix type="matrix" values="0 0 0 0 0.356863 0 0 0 0 0.262745 0 0 0 0 0.956863 0 0 0 1 0"/>
<feBlend mode="normal" in2="BackgroundImageFix" result="effect1_dropShadow_373_1400"/>
<feBlend mode="normal" in="SourceGraphic" in2="effect1_dropShadow_373_1400" result="shape"/>
</filter>
</defs>
</svg>
