<svg width="2639" height="363" viewBox="0 0 2639 363" fill="none" xmlns="http://www.w3.org/2000/svg">
<mask id="path-1-outside-1_326_954" maskUnits="userSpaceOnUse" x="17" y="66" width="2612" height="233" fill="black">
<rect fill="white" x="17" y="66" width="2612" height="233"/>
<path d="M22.0762 74H78.3965L137.881 219.125H140.412L199.896 74H256.217V290H211.92V149.41H210.127L154.229 288.945H124.064L68.166 148.883H66.3731V290H22.0762V74ZM293.843 290V74H439.39V111.652H339.511V163.121H431.901V200.773H339.511V252.348H439.812V290H293.843ZM467.471 111.652V74H644.869V111.652H578.74V290H533.6V111.652H467.471ZM674.084 290V74H719.752V163.121H812.459V74H858.021V290H812.459V200.773H719.752V290H674.084ZM1094.17 182C1094.17 205.555 1089.7 225.594 1080.77 242.117C1071.91 258.641 1059.82 271.262 1044.49 279.98C1029.23 288.629 1012.08 292.953 993.021 292.953C973.826 292.953 956.6 288.594 941.342 279.875C926.084 271.156 914.025 258.535 905.166 242.012C896.307 225.488 891.877 205.484 891.877 182C891.877 158.445 896.307 138.406 905.166 121.883C914.025 105.359 926.084 92.7734 941.342 84.125C956.6 75.4062 973.826 71.0469 993.021 71.0469C1012.08 71.0469 1029.23 75.4062 1044.49 84.125C1059.82 92.7734 1071.91 105.359 1080.77 121.883C1089.7 138.406 1094.17 158.445 1094.17 182ZM1047.87 182C1047.87 166.742 1045.58 153.875 1041.01 143.398C1036.51 132.922 1030.15 124.977 1021.92 119.563C1013.69 114.148 1004.06 111.441 993.021 111.441C981.982 111.441 972.35 114.148 964.123 119.563C955.896 124.977 949.498 132.922 944.928 143.398C940.428 153.875 938.178 166.742 938.178 182C938.178 197.258 940.428 210.125 944.928 220.602C949.498 231.078 955.896 239.023 964.123 244.437C972.35 249.852 981.982 252.559 993.021 252.559C1004.06 252.559 1013.69 249.852 1021.92 244.437C1030.15 239.023 1036.51 231.078 1041.01 220.602C1045.58 210.125 1047.87 197.258 1047.87 182ZM1204.57 290H1128V74H1205.2C1226.92 74 1245.63 78.3242 1261.31 86.9727C1276.99 95.5508 1289.05 107.891 1297.48 123.992C1305.99 140.094 1310.25 159.359 1310.25 181.789C1310.25 204.289 1305.99 223.625 1297.48 239.797C1289.05 255.969 1276.92 268.379 1261.1 277.027C1245.35 285.676 1226.5 290 1204.57 290ZM1173.66 250.871H1202.67C1216.17 250.871 1227.52 248.48 1236.73 243.699C1246.01 238.848 1252.98 231.359 1257.62 221.234C1262.33 211.039 1264.68 197.891 1264.68 181.789C1264.68 165.828 1262.33 152.785 1257.62 142.66C1252.98 132.535 1246.05 125.082 1236.84 120.301C1227.63 115.52 1216.27 113.129 1202.77 113.129H1173.66V250.871ZM1542.57 182C1542.57 205.555 1538.1 225.594 1529.17 242.117C1520.31 258.641 1508.22 271.262 1492.89 279.98C1477.63 288.629 1460.48 292.953 1441.42 292.953C1422.23 292.953 1405 288.594 1389.74 279.875C1374.48 271.156 1362.43 258.535 1353.57 242.012C1344.71 225.488 1340.28 205.484 1340.28 182C1340.28 158.445 1344.71 138.406 1353.57 121.883C1362.43 105.359 1374.48 92.7734 1389.74 84.125C1405 75.4062 1422.23 71.0469 1441.42 71.0469C1460.48 71.0469 1477.63 75.4062 1492.89 84.125C1508.22 92.7734 1520.31 105.359 1529.17 121.883C1538.1 138.406 1542.57 158.445 1542.57 182ZM1496.27 182C1496.27 166.742 1493.98 153.875 1489.41 143.398C1484.91 132.922 1478.55 124.977 1470.32 119.563C1462.09 114.148 1452.46 111.441 1441.42 111.441C1430.38 111.441 1420.75 114.148 1412.52 119.563C1404.3 124.977 1397.9 132.922 1393.33 143.398C1388.83 153.875 1386.58 166.742 1386.58 182C1386.58 197.258 1388.83 210.125 1393.33 220.602C1397.9 231.078 1404.3 239.023 1412.52 244.437C1420.75 249.852 1430.38 252.559 1441.42 252.559C1452.46 252.559 1462.09 249.852 1470.32 244.437C1478.55 239.023 1484.91 231.078 1489.41 220.602C1493.98 210.125 1496.27 197.258 1496.27 182ZM1576.4 290V74H1622.06V252.348H1714.67V290H1576.4ZM1934.99 182C1934.99 205.555 1930.52 225.594 1921.59 242.117C1912.74 258.641 1900.64 271.262 1885.31 279.98C1870.06 288.629 1852.9 292.953 1833.84 292.953C1814.65 292.953 1797.42 288.594 1782.17 279.875C1766.91 271.156 1754.85 258.535 1745.99 242.012C1737.13 225.488 1732.7 205.484 1732.7 182C1732.7 158.445 1737.13 138.406 1745.99 121.883C1754.85 105.359 1766.91 92.7734 1782.17 84.125C1797.42 75.4062 1814.65 71.0469 1833.84 71.0469C1852.9 71.0469 1870.06 75.4062 1885.31 84.125C1900.64 92.7734 1912.74 105.359 1921.59 121.883C1930.52 138.406 1934.99 158.445 1934.99 182ZM1888.69 182C1888.69 166.742 1886.4 153.875 1881.83 143.398C1877.33 132.922 1870.97 124.977 1862.74 119.563C1854.52 114.148 1844.88 111.441 1833.84 111.441C1822.81 111.441 1813.17 114.148 1804.95 119.563C1796.72 124.977 1790.32 132.922 1785.75 143.398C1781.25 153.875 1779 166.742 1779 182C1779 197.258 1781.25 210.125 1785.75 220.602C1790.32 231.078 1796.72 239.023 1804.95 244.437C1813.17 249.852 1822.81 252.559 1833.84 252.559C1844.88 252.559 1854.52 249.852 1862.74 244.437C1870.97 239.023 1877.33 231.078 1881.83 220.602C1886.4 210.125 1888.69 197.258 1888.69 182ZM2112.04 143.82C2110.57 138.687 2108.49 134.152 2105.82 130.215C2103.15 126.207 2099.88 122.832 2096.01 120.09C2092.22 117.277 2087.86 115.133 2082.94 113.656C2078.08 112.18 2072.71 111.441 2066.8 111.441C2055.76 111.441 2046.06 114.184 2037.69 119.668C2029.39 125.152 2022.92 133.133 2018.28 143.609C2013.64 154.016 2011.32 166.742 2011.32 181.789C2011.32 196.836 2013.61 209.633 2018.18 220.18C2022.75 230.727 2029.22 238.777 2037.58 244.332C2045.95 249.816 2055.83 252.559 2067.22 252.559C2077.56 252.559 2086.38 250.73 2093.69 247.074C2101.08 243.348 2106.7 238.109 2110.57 231.359C2114.51 224.609 2116.47 216.629 2116.47 207.418L2125.76 208.789H2070.07V174.406H2160.46V201.617C2160.46 220.602 2156.45 236.914 2148.43 250.555C2140.42 264.125 2129.38 274.602 2115.31 281.984C2101.25 289.297 2085.15 292.953 2067.01 292.953C2046.76 292.953 2028.97 288.488 2013.64 279.559C1998.31 270.559 1986.36 257.797 1977.78 241.273C1969.28 224.68 1965.02 204.992 1965.02 182.211C1965.02 164.703 1967.55 149.094 1972.62 135.383C1977.75 121.602 1984.92 109.93 1994.13 100.367C2003.34 90.8047 2014.06 83.5273 2026.3 78.5351C2038.53 73.543 2051.79 71.0469 2066.06 71.0469C2078.29 71.0469 2089.69 72.8398 2100.23 76.4258C2110.78 79.9414 2120.13 84.9336 2128.29 91.4023C2136.51 97.8711 2143.23 105.57 2148.43 114.5C2153.63 123.359 2156.97 133.133 2158.45 143.82H2112.04ZM2240.43 74V290H2194.76V74H2240.43ZM2278 290V74H2423.55V111.652H2323.67V163.121H2416.06V200.773H2323.67V252.348H2423.97V290H2278ZM2577.03 136.121C2576.19 127.613 2572.57 121.004 2566.17 116.293C2559.77 111.582 2551.08 109.227 2540.12 109.227C2532.66 109.227 2526.37 110.281 2521.24 112.391C2516.1 114.43 2512.17 117.277 2509.42 120.934C2506.75 124.59 2505.42 128.738 2505.42 133.379C2505.28 137.246 2506.08 140.621 2507.84 143.504C2509.67 146.387 2512.17 148.883 2515.33 150.992C2518.5 153.031 2522.15 154.824 2526.3 156.371C2530.45 157.848 2534.88 159.113 2539.59 160.168L2559 164.809C2568.42 166.918 2577.07 169.73 2584.94 173.246C2592.82 176.762 2599.64 181.086 2605.4 186.219C2611.17 191.352 2615.63 197.398 2618.8 204.359C2622.03 211.32 2623.68 219.301 2623.75 228.301C2623.68 241.52 2620.31 252.98 2613.63 262.684C2607.02 272.316 2597.46 279.805 2584.94 285.148C2572.5 290.422 2557.48 293.059 2539.91 293.059C2522.47 293.059 2507.28 290.387 2494.34 285.043C2481.48 279.699 2471.42 271.789 2464.18 261.312C2457.01 250.766 2453.25 237.723 2452.89 222.184H2497.08C2497.58 229.426 2499.65 235.473 2503.31 240.324C2507.03 245.105 2511.99 248.727 2518.18 251.187C2524.44 253.578 2531.5 254.773 2539.38 254.773C2547.11 254.773 2553.83 253.648 2559.52 251.398C2565.29 249.148 2569.75 246.02 2572.92 242.012C2576.08 238.004 2577.66 233.398 2577.66 228.195C2577.66 223.344 2576.22 219.266 2573.34 215.961C2570.53 212.656 2566.38 209.844 2560.89 207.523C2555.48 205.203 2548.83 203.094 2540.96 201.195L2517.44 195.289C2499.23 190.859 2484.85 183.934 2474.3 174.512C2463.76 165.09 2458.52 152.398 2458.59 136.437C2458.52 123.359 2462 111.934 2469.03 102.16C2476.13 92.3867 2485.87 84.7578 2498.25 79.2734C2510.62 73.7891 2524.68 71.0469 2540.43 71.0469C2556.46 71.0469 2570.46 73.7891 2582.41 79.2734C2594.43 84.7578 2603.78 92.3867 2610.46 102.16C2617.14 111.934 2620.59 123.254 2620.8 136.121H2577.03Z"/>
</mask>
<path d="M22.0762 74V69H17.0762V74H22.0762ZM78.3965 74L83.0229 72.1037L81.7508 69H78.3965V74ZM137.881 219.125L133.254 221.021L134.527 224.125H137.881V219.125ZM140.412 219.125V224.125H143.766L145.039 221.021L140.412 219.125ZM199.896 74V69H196.542L195.27 72.1037L199.896 74ZM256.217 74H261.217V69H256.217V74ZM256.217 290V295H261.217V290H256.217ZM211.92 290H206.92V295H211.92V290ZM211.92 149.41H216.92V144.41H211.92V149.41ZM210.127 149.41V144.41H206.744L205.486 147.551L210.127 149.41ZM154.229 288.945V293.945H157.612L158.87 290.805L154.229 288.945ZM124.064 288.945L119.421 290.799L120.676 293.945H124.064V288.945ZM68.166 148.883L72.8098 147.029L71.554 143.883H68.166V148.883ZM66.3731 148.883V143.883H61.3731V148.883H66.3731ZM66.3731 290V295H71.3731V290H66.3731ZM22.0762 290H17.0762V295H22.0762V290ZM22.0762 79H78.3965V69H22.0762V79ZM73.77 75.8963L133.254 221.021L142.507 217.229L83.0229 72.1037L73.77 75.8963ZM137.881 224.125H140.412V214.125H137.881V224.125ZM145.039 221.021L204.523 75.8963L195.27 72.1037L135.786 217.229L145.039 221.021ZM199.896 79H256.217V69H199.896V79ZM251.217 74V290H261.217V74H251.217ZM256.217 285H211.92V295H256.217V285ZM216.92 290V149.41H206.92V290H216.92ZM211.92 144.41H210.127V154.41H211.92V144.41ZM205.486 147.551L149.587 287.086L158.87 290.805L214.768 151.27L205.486 147.551ZM154.229 283.945H124.064V293.945H154.229V283.945ZM128.708 287.092L72.8098 147.029L63.5222 150.736L119.421 290.799L128.708 287.092ZM68.166 143.883H66.3731V153.883H68.166V143.883ZM61.3731 148.883V290H71.3731V148.883H61.3731ZM66.3731 285H22.0762V295H66.3731V285ZM27.0762 290V74H17.0762V290H27.0762ZM293.843 290H288.843V295H293.843V290ZM293.843 74V69H288.843V74H293.843ZM439.39 74H444.39V69H439.39V74ZM439.39 111.652V116.652H444.39V111.652H439.39ZM339.511 111.652V106.652H334.511V111.652H339.511ZM339.511 163.121H334.511V168.121H339.511V163.121ZM431.901 163.121H436.901V158.121H431.901V163.121ZM431.901 200.773V205.773H436.901V200.773H431.901ZM339.511 200.773V195.773H334.511V200.773H339.511ZM339.511 252.348H334.511V257.348H339.511V252.348ZM439.812 252.348H444.812V247.348H439.812V252.348ZM439.812 290V295H444.812V290H439.812ZM298.843 290V74H288.843V290H298.843ZM293.843 79H439.39V69H293.843V79ZM434.39 74V111.652H444.39V74H434.39ZM439.39 106.652H339.511V116.652H439.39V106.652ZM334.511 111.652V163.121H344.511V111.652H334.511ZM339.511 168.121H431.901V158.121H339.511V168.121ZM426.901 163.121V200.773H436.901V163.121H426.901ZM431.901 195.773H339.511V205.773H431.901V195.773ZM334.511 200.773V252.348H344.511V200.773H334.511ZM339.511 257.348H439.812V247.348H339.511V257.348ZM434.812 252.348V290H444.812V252.348H434.812ZM439.812 285H293.843V295H439.812V285ZM467.471 111.652H462.471V116.652H467.471V111.652ZM467.471 74V69H462.471V74H467.471ZM644.869 74H649.869V69H644.869V74ZM644.869 111.652V116.652H649.869V111.652H644.869ZM578.74 111.652V106.652H573.74V111.652H578.74ZM578.74 290V295H583.74V290H578.74ZM533.6 290H528.6V295H533.6V290ZM533.6 111.652H538.6V106.652H533.6V111.652ZM472.471 111.652V74H462.471V111.652H472.471ZM467.471 79H644.869V69H467.471V79ZM639.869 74V111.652H649.869V74H639.869ZM644.869 106.652H578.74V116.652H644.869V106.652ZM573.74 111.652V290H583.74V111.652H573.74ZM578.74 285H533.6V295H578.74V285ZM538.6 290V111.652H528.6V290H538.6ZM533.6 106.652H467.471V116.652H533.6V106.652ZM674.084 290H669.084V295H674.084V290ZM674.084 74V69H669.084V74H674.084ZM719.752 74H724.752V69H719.752V74ZM719.752 163.121H714.752V168.121H719.752V163.121ZM812.459 163.121V168.121H817.459V163.121H812.459ZM812.459 74V69H807.459V74H812.459ZM858.021 74H863.021V69H858.021V74ZM858.021 290V295H863.021V290H858.021ZM812.459 290H807.459V295H812.459V290ZM812.459 200.773H817.459V195.773H812.459V200.773ZM719.752 200.773V195.773H714.752V200.773H719.752ZM719.752 290V295H724.752V290H719.752ZM679.084 290V74H669.084V290H679.084ZM674.084 79H719.752V69H674.084V79ZM714.752 74V163.121H724.752V74H714.752ZM719.752 168.121H812.459V158.121H719.752V168.121ZM817.459 163.121V74H807.459V163.121H817.459ZM812.459 79H858.021V69H812.459V79ZM853.021 74V290H863.021V74H853.021ZM858.021 285H812.459V295H858.021V285ZM817.459 290V200.773H807.459V290H817.459ZM812.459 195.773H719.752V205.773H812.459V195.773ZM714.752 200.773V290H724.752V200.773H714.752ZM719.752 285H674.084V295H719.752V285ZM1080.77 242.117L1076.37 239.74L1076.37 239.747L1076.36 239.755L1080.77 242.117ZM1044.49 279.98L1046.96 284.33L1046.96 284.327L1044.49 279.98ZM941.342 279.875L943.822 275.534L941.342 279.875ZM905.166 242.012L900.759 244.374L900.759 244.374L905.166 242.012ZM905.166 121.883L909.573 124.245L909.573 124.245L905.166 121.883ZM941.342 84.125L943.807 88.4748L943.815 88.4705L943.822 88.4662L941.342 84.125ZM1044.49 84.125L1042.01 88.4662L1042.02 88.473L1042.03 88.4797L1044.49 84.125ZM1080.77 121.883L1076.36 124.245L1076.37 124.253L1076.37 124.26L1080.77 121.883ZM1041.01 143.398L1036.42 145.372L1036.42 145.385L1036.43 145.398L1041.01 143.398ZM1021.92 119.563L1019.17 123.739L1019.17 123.739L1021.92 119.563ZM964.123 119.563L966.872 123.739L966.872 123.739L964.123 119.563ZM944.928 143.398L940.345 141.399L940.339 141.412L940.334 141.425L944.928 143.398ZM944.928 220.602L940.334 222.575L940.339 222.588L940.345 222.601L944.928 220.602ZM964.123 244.437L966.872 240.261L966.872 240.261L964.123 244.437ZM1021.92 244.437L1019.17 240.261L1019.17 240.261L1021.92 244.437ZM1041.01 220.602L1036.43 218.602L1036.42 218.615L1036.42 218.628L1041.01 220.602ZM1089.17 182C1089.17 204.932 1084.82 224.109 1076.37 239.74L1085.17 244.494C1094.58 227.078 1099.17 206.178 1099.17 182H1089.17ZM1076.36 239.755C1067.92 255.503 1056.48 267.411 1042.02 275.634L1046.96 284.327C1063.16 275.112 1075.9 261.779 1085.18 244.48L1076.36 239.755ZM1042.02 275.631C1027.58 283.817 1011.29 287.953 993.021 287.953V297.953C1012.86 297.953 1030.88 293.441 1046.96 284.33L1042.02 275.631ZM993.021 287.953C974.614 287.953 958.256 283.782 943.822 275.534L938.861 284.216C954.943 293.406 973.039 297.953 993.021 297.953V287.953ZM943.822 275.534C929.435 267.312 918.019 255.403 909.573 239.649L900.759 244.374C910.031 261.667 922.733 275 938.861 284.216L943.822 275.534ZM909.573 239.649C901.189 224.013 896.877 204.864 896.877 182H886.877C886.877 206.104 891.424 226.963 900.759 244.374L909.573 239.649ZM896.877 182C896.877 159.063 901.19 139.879 909.573 124.245L900.759 119.52C891.423 136.933 886.877 157.828 886.877 182H896.877ZM909.573 124.245C918.018 108.494 929.429 96.625 943.807 88.4748L938.876 79.7752C922.739 88.9218 910.033 102.224 900.759 119.52L909.573 124.245ZM943.822 88.4662C958.256 80.2184 974.614 76.0469 993.021 76.0469V66.0469C973.039 66.0469 954.943 70.5941 938.861 79.7838L943.822 88.4662ZM993.021 76.0469C1011.28 76.0469 1027.57 80.2152 1042.01 88.4662L1046.97 79.7838C1030.89 70.5973 1012.87 66.0469 993.021 66.0469V76.0469ZM1042.03 88.4797C1056.48 96.6315 1067.92 108.5 1076.36 124.245L1085.18 119.52C1075.9 102.218 1063.16 88.9153 1046.95 79.7703L1042.03 88.4797ZM1076.37 124.26C1084.82 139.891 1089.17 159.068 1089.17 182H1099.17C1099.17 157.822 1094.58 136.922 1085.17 119.506L1076.37 124.26ZM1052.87 182C1052.87 166.272 1050.51 152.68 1045.59 141.399L1036.43 145.398C1040.65 155.07 1042.87 167.212 1042.87 182H1052.87ZM1045.6 141.425C1040.78 130.195 1033.84 121.419 1024.67 115.386L1019.17 123.739C1026.46 128.534 1032.24 135.649 1036.42 145.372L1045.6 141.425ZM1024.67 115.386C1015.53 109.371 1004.92 106.441 993.021 106.441V116.441C1003.21 116.441 1011.86 118.926 1019.17 123.739L1024.67 115.386ZM993.021 106.441C981.128 106.441 970.513 109.371 961.374 115.386L966.872 123.739C974.186 118.926 982.837 116.441 993.021 116.441V106.441ZM961.374 115.386C952.215 121.414 945.239 130.18 940.345 141.399L949.511 145.398C953.757 135.663 959.578 128.539 966.872 123.739L961.374 115.386ZM940.334 141.425C935.492 152.698 933.178 166.281 933.178 182H943.178C943.178 167.204 945.364 155.052 949.522 145.372L940.334 141.425ZM933.178 182C933.178 197.719 935.492 211.302 940.334 222.575L949.522 218.628C945.364 208.948 943.178 196.796 943.178 182H933.178ZM940.345 222.601C945.239 233.82 952.215 242.586 961.374 248.614L966.872 240.261C959.578 235.461 953.757 228.337 949.511 218.602L940.345 222.601ZM961.374 248.614C970.513 254.629 981.128 257.559 993.021 257.559V247.559C982.837 247.559 974.186 245.074 966.872 240.261L961.374 248.614ZM993.021 257.559C1004.92 257.559 1015.53 254.629 1024.67 248.614L1019.17 240.261C1011.86 245.074 1003.21 247.559 993.021 247.559V257.559ZM1024.67 248.614C1033.84 242.581 1040.78 233.805 1045.6 222.575L1036.42 218.628C1032.24 228.351 1026.46 235.466 1019.17 240.261L1024.67 248.614ZM1045.59 222.601C1050.51 211.32 1052.87 197.728 1052.87 182H1042.87C1042.87 196.788 1040.65 208.93 1036.43 218.602L1045.59 222.601ZM1128 290H1123V295H1128V290ZM1128 74V69H1123V74H1128ZM1261.31 86.9727L1258.89 91.3508L1258.9 91.355L1258.91 91.3591L1261.31 86.9727ZM1297.48 123.992L1293.05 126.313L1293.06 126.321L1293.06 126.328L1297.48 123.992ZM1297.48 239.797L1293.06 237.469L1293.05 237.476L1293.05 237.484L1297.48 239.797ZM1261.1 277.027L1258.7 272.64L1258.69 272.645L1261.1 277.027ZM1173.66 250.871H1168.66V255.871H1173.66V250.871ZM1236.73 243.699L1239.04 248.137L1239.04 248.134L1239.05 248.13L1236.73 243.699ZM1257.62 221.234L1253.08 219.137L1253.07 219.144L1253.07 219.151L1257.62 221.234ZM1257.62 142.66L1253.07 144.743L1253.08 144.756L1253.08 144.769L1257.62 142.66ZM1236.84 120.301L1239.14 115.863L1239.14 115.863L1236.84 120.301ZM1173.66 113.129V108.129H1168.66V113.129H1173.66ZM1204.57 285H1128V295H1204.57V285ZM1133 290V74H1123V290H1133ZM1128 79H1205.2V69H1128V79ZM1205.2 79C1226.26 79 1244.09 83.1888 1258.89 91.3508L1263.72 82.5945C1247.16 73.4596 1227.59 69 1205.2 69V79ZM1258.91 91.3591C1273.71 99.4553 1285.07 111.069 1293.05 126.313L1301.91 121.671C1293.03 104.712 1280.27 91.6462 1263.71 82.5862L1258.91 91.3591ZM1293.06 126.328C1301.11 141.562 1305.25 159.988 1305.25 181.789H1315.25C1315.25 158.731 1310.87 138.626 1301.9 121.656L1293.06 126.328ZM1305.25 181.789C1305.25 203.663 1301.11 222.162 1293.06 237.469L1301.91 242.125C1310.87 225.088 1315.25 204.915 1315.25 181.789H1305.25ZM1293.05 237.484C1285.07 252.789 1273.64 264.472 1258.7 272.64L1263.5 281.415C1280.19 272.285 1293.03 259.148 1301.92 242.11L1293.05 237.484ZM1258.69 272.645C1243.82 280.808 1225.85 285 1204.57 285V295C1227.16 295 1246.87 290.544 1263.5 281.41L1258.69 272.645ZM1173.66 255.871H1202.67V245.871H1173.66V255.871ZM1202.67 255.871C1216.74 255.871 1228.93 253.382 1239.04 248.137L1234.43 239.261C1226.11 243.579 1215.6 245.871 1202.67 245.871V255.871ZM1239.05 248.13C1249.38 242.731 1257.09 234.382 1262.16 223.318L1253.07 219.151C1248.86 228.336 1242.65 234.964 1234.42 239.268L1239.05 248.13ZM1262.16 223.332C1267.27 212.258 1269.68 198.324 1269.68 181.789H1259.68C1259.68 197.457 1257.38 209.82 1253.08 219.137L1262.16 223.332ZM1269.68 181.789C1269.68 165.39 1267.27 151.557 1262.15 140.551L1253.08 144.769C1257.38 154.013 1259.68 166.267 1259.68 181.789H1269.68ZM1262.16 140.577C1257.09 129.518 1249.42 121.196 1239.14 115.863L1234.54 124.739C1242.68 128.968 1248.86 135.552 1253.07 144.743L1262.16 140.577ZM1239.14 115.863C1229.04 110.618 1216.84 108.129 1202.77 108.129V118.129C1215.7 118.129 1226.22 120.421 1234.54 124.739L1239.14 115.863ZM1202.77 108.129H1173.66V118.129H1202.77V108.129ZM1168.66 113.129V250.871H1178.66V113.129H1168.66ZM1529.17 242.117L1524.77 239.74L1524.77 239.747L1524.77 239.755L1529.17 242.117ZM1492.89 279.98L1495.36 284.33L1495.36 284.327L1492.89 279.98ZM1389.74 279.875L1392.22 275.534L1389.74 279.875ZM1353.57 242.012L1349.16 244.374L1349.16 244.374L1353.57 242.012ZM1353.57 121.883L1357.97 124.245L1357.97 124.245L1353.57 121.883ZM1389.74 84.125L1392.21 88.4748L1392.22 88.4705L1392.22 88.4662L1389.74 84.125ZM1492.89 84.125L1490.41 88.4662L1490.42 88.473L1490.43 88.4797L1492.89 84.125ZM1529.17 121.883L1524.77 124.245L1524.77 124.253L1524.77 124.26L1529.17 121.883ZM1489.41 143.398L1484.82 145.372L1484.82 145.385L1484.83 145.398L1489.41 143.398ZM1470.32 119.563L1467.57 123.739L1467.57 123.739L1470.32 119.563ZM1412.52 119.563L1415.27 123.739L1415.27 123.739L1412.52 119.563ZM1393.33 143.398L1388.75 141.399L1388.74 141.412L1388.73 141.425L1393.33 143.398ZM1393.33 220.602L1388.73 222.575L1388.74 222.588L1388.75 222.601L1393.33 220.602ZM1412.52 244.437L1415.27 240.261L1415.27 240.261L1412.52 244.437ZM1470.32 244.437L1467.57 240.261L1467.57 240.261L1470.32 244.437ZM1489.41 220.602L1484.83 218.602L1484.82 218.615L1484.82 218.628L1489.41 220.602ZM1537.57 182C1537.57 204.932 1533.22 224.109 1524.77 239.74L1533.57 244.494C1542.98 227.078 1547.57 206.178 1547.57 182H1537.57ZM1524.77 239.755C1516.32 255.503 1504.88 267.411 1490.42 275.634L1495.36 284.327C1511.56 275.112 1524.3 261.779 1533.58 244.48L1524.77 239.755ZM1490.43 275.631C1475.98 283.817 1459.69 287.953 1441.42 287.953V297.953C1461.26 297.953 1479.28 293.441 1495.36 284.33L1490.43 275.631ZM1441.42 287.953C1423.01 287.953 1406.66 283.782 1392.22 275.534L1387.26 284.216C1403.34 293.406 1421.44 297.953 1441.42 297.953V287.953ZM1392.22 275.534C1377.84 267.312 1366.42 255.403 1357.97 239.649L1349.16 244.374C1358.43 261.667 1371.13 275 1387.26 284.216L1392.22 275.534ZM1357.97 239.649C1349.59 224.013 1345.28 204.864 1345.28 182H1335.28C1335.28 206.104 1339.82 226.963 1349.16 244.374L1357.97 239.649ZM1345.28 182C1345.28 159.063 1349.59 139.879 1357.97 124.245L1349.16 119.52C1339.82 136.933 1335.28 157.828 1335.28 182H1345.28ZM1357.97 124.245C1366.42 108.494 1377.83 96.625 1392.21 88.4748L1387.28 79.7752C1371.14 88.9218 1358.43 102.224 1349.16 119.52L1357.97 124.245ZM1392.22 88.4662C1406.66 80.2184 1423.01 76.0469 1441.42 76.0469V66.0469C1421.44 66.0469 1403.34 70.5941 1387.26 79.7838L1392.22 88.4662ZM1441.42 76.0469C1459.68 76.0469 1475.97 80.2152 1490.41 88.4662L1495.37 79.7838C1479.3 70.5973 1461.27 66.0469 1441.42 66.0469V76.0469ZM1490.43 88.4797C1504.88 96.6315 1516.32 108.5 1524.77 124.245L1533.58 119.52C1524.3 102.218 1511.56 88.9153 1495.35 79.7703L1490.43 88.4797ZM1524.77 124.26C1533.22 139.891 1537.57 159.068 1537.57 182H1547.57C1547.57 157.822 1542.98 136.922 1533.57 119.506L1524.77 124.26ZM1501.27 182C1501.27 166.272 1498.91 152.68 1493.99 141.399L1484.83 145.398C1489.05 155.07 1491.27 167.212 1491.27 182H1501.27ZM1494 141.425C1489.18 130.195 1482.24 121.419 1473.07 115.386L1467.57 123.739C1474.86 128.534 1480.64 135.649 1484.82 145.372L1494 141.425ZM1473.07 115.386C1463.93 109.371 1453.32 106.441 1441.42 106.441V116.441C1451.61 116.441 1460.26 118.926 1467.57 123.739L1473.07 115.386ZM1441.42 106.441C1429.53 106.441 1418.91 109.371 1409.77 115.386L1415.27 123.739C1422.59 118.926 1431.24 116.441 1441.42 116.441V106.441ZM1409.77 115.386C1400.62 121.414 1393.64 130.18 1388.75 141.399L1397.91 145.398C1402.16 135.663 1407.98 128.539 1415.27 123.739L1409.77 115.386ZM1388.73 141.425C1383.89 152.698 1381.58 166.281 1381.58 182H1391.58C1391.58 167.204 1393.76 155.052 1397.92 145.372L1388.73 141.425ZM1381.58 182C1381.58 197.719 1383.89 211.302 1388.73 222.575L1397.92 218.628C1393.76 208.948 1391.58 196.796 1391.58 182H1381.58ZM1388.75 222.601C1393.64 233.82 1400.62 242.586 1409.77 248.614L1415.27 240.261C1407.98 235.461 1402.16 228.337 1397.91 218.602L1388.75 222.601ZM1409.77 248.614C1418.91 254.629 1429.53 257.559 1441.42 257.559V247.559C1431.24 247.559 1422.59 245.074 1415.27 240.261L1409.77 248.614ZM1441.42 257.559C1453.32 257.559 1463.93 254.629 1473.07 248.614L1467.57 240.261C1460.26 245.074 1451.61 247.559 1441.42 247.559V257.559ZM1473.07 248.614C1482.24 242.581 1489.18 233.805 1494 222.575L1484.82 218.628C1480.64 228.351 1474.86 235.466 1467.57 240.261L1473.07 248.614ZM1493.99 222.601C1498.91 211.32 1501.27 197.728 1501.27 182H1491.27C1491.27 196.788 1489.05 208.93 1484.83 218.602L1493.99 222.601ZM1576.4 290H1571.4V295H1576.4V290ZM1576.4 74V69H1571.4V74H1576.4ZM1622.06 74H1627.06V69H1622.06V74ZM1622.06 252.348H1617.06V257.348H1622.06V252.348ZM1714.67 252.348H1719.67V247.348H1714.67V252.348ZM1714.67 290V295H1719.67V290H1714.67ZM1581.4 290V74H1571.4V290H1581.4ZM1576.4 79H1622.06V69H1576.4V79ZM1617.06 74V252.348H1627.06V74H1617.06ZM1622.06 257.348H1714.67V247.348H1622.06V257.348ZM1709.67 252.348V290H1719.67V252.348H1709.67ZM1714.67 285H1576.4V295H1714.67V285ZM1921.59 242.117L1917.2 239.74L1917.19 239.747L1917.19 239.755L1921.59 242.117ZM1885.31 279.98L1887.78 284.33L1887.79 284.327L1885.31 279.98ZM1782.17 279.875L1784.65 275.534L1782.17 279.875ZM1745.99 242.012L1741.58 244.374L1741.58 244.374L1745.99 242.012ZM1745.99 121.883L1750.4 124.245L1750.4 124.245L1745.99 121.883ZM1782.17 84.125L1784.63 88.4748L1784.64 88.4705L1784.65 88.4662L1782.17 84.125ZM1885.31 84.125L1882.83 88.4662L1882.84 88.473L1882.86 88.4797L1885.31 84.125ZM1921.59 121.883L1917.19 124.245L1917.19 124.253L1917.2 124.26L1921.59 121.883ZM1881.83 143.398L1877.24 145.372L1877.24 145.385L1877.25 145.398L1881.83 143.398ZM1862.74 119.563L1859.99 123.739L1859.99 123.739L1862.74 119.563ZM1804.95 119.563L1807.7 123.739L1807.7 123.739L1804.95 119.563ZM1785.75 143.398L1781.17 141.399L1781.16 141.412L1781.16 141.425L1785.75 143.398ZM1785.75 220.602L1781.16 222.575L1781.16 222.588L1781.17 222.601L1785.75 220.602ZM1804.95 244.437L1807.7 240.261L1807.7 240.261L1804.95 244.437ZM1862.74 244.437L1859.99 240.261L1859.99 240.261L1862.74 244.437ZM1881.83 220.602L1877.25 218.602L1877.24 218.615L1877.24 218.628L1881.83 220.602ZM1929.99 182C1929.99 204.932 1925.64 224.109 1917.2 239.74L1925.99 244.494C1935.41 227.078 1939.99 206.178 1939.99 182H1929.99ZM1917.19 239.755C1908.74 255.503 1897.3 267.411 1882.84 275.634L1887.79 284.327C1903.98 275.112 1916.73 261.779 1926 244.48L1917.19 239.755ZM1882.85 275.631C1868.41 283.817 1852.11 287.953 1833.84 287.953V297.953C1853.69 297.953 1871.71 293.441 1887.78 284.33L1882.85 275.631ZM1833.84 287.953C1815.44 287.953 1799.08 283.782 1784.65 275.534L1779.68 284.216C1795.77 293.406 1813.86 297.953 1833.84 297.953V287.953ZM1784.65 275.534C1770.26 267.312 1758.84 255.403 1750.4 239.649L1741.58 244.374C1750.85 261.667 1763.56 275 1779.68 284.216L1784.65 275.534ZM1750.4 239.649C1742.01 224.013 1737.7 204.864 1737.7 182H1727.7C1727.7 206.104 1732.25 226.963 1741.58 244.374L1750.4 239.649ZM1737.7 182C1737.7 159.063 1742.01 139.879 1750.4 124.245L1741.58 119.52C1732.25 136.933 1727.7 157.828 1727.7 182H1737.7ZM1750.4 124.245C1758.84 108.494 1770.25 96.625 1784.63 88.4748L1779.7 79.7752C1763.56 88.9218 1750.86 102.224 1741.58 119.52L1750.4 124.245ZM1784.65 88.4662C1799.08 80.2184 1815.44 76.0469 1833.84 76.0469V66.0469C1813.86 66.0469 1795.77 70.5941 1779.68 79.7838L1784.65 88.4662ZM1833.84 76.0469C1852.1 76.0469 1868.39 80.2152 1882.83 88.4662L1887.79 79.7838C1871.72 70.5973 1853.69 66.0469 1833.84 66.0469V76.0469ZM1882.86 88.4797C1897.3 96.6315 1908.75 108.5 1917.19 124.245L1926 119.52C1916.72 102.218 1903.98 88.9153 1887.77 79.7703L1882.86 88.4797ZM1917.2 124.26C1925.64 139.891 1929.99 159.068 1929.99 182H1939.99C1939.99 157.822 1935.41 136.922 1925.99 119.506L1917.2 124.26ZM1893.69 182C1893.69 166.272 1891.34 152.68 1886.42 141.399L1877.25 145.398C1881.47 155.07 1883.69 167.212 1883.69 182H1893.69ZM1886.43 141.425C1881.6 130.195 1874.66 121.419 1865.49 115.386L1859.99 123.739C1867.28 128.534 1873.06 135.649 1877.24 145.372L1886.43 141.425ZM1865.49 115.386C1856.35 109.371 1845.74 106.441 1833.84 106.441V116.441C1844.03 116.441 1852.68 118.926 1859.99 123.739L1865.49 115.386ZM1833.84 106.441C1821.95 106.441 1811.34 109.371 1802.2 115.386L1807.7 123.739C1815.01 118.926 1823.66 116.441 1833.84 116.441V106.441ZM1802.2 115.386C1793.04 121.414 1786.06 130.18 1781.17 141.399L1790.33 145.398C1794.58 135.663 1800.4 128.539 1807.7 123.739L1802.2 115.386ZM1781.16 141.425C1776.31 152.698 1774 166.281 1774 182H1784C1784 167.204 1786.19 155.052 1790.35 145.372L1781.16 141.425ZM1774 182C1774 197.719 1776.31 211.302 1781.16 222.575L1790.35 218.628C1786.19 208.948 1784 196.796 1784 182H1774ZM1781.17 222.601C1786.06 233.82 1793.04 242.586 1802.2 248.614L1807.7 240.261C1800.4 235.461 1794.58 228.337 1790.33 218.602L1781.17 222.601ZM1802.2 248.614C1811.34 254.629 1821.95 257.559 1833.84 257.559V247.559C1823.66 247.559 1815.01 245.074 1807.7 240.261L1802.2 248.614ZM1833.84 257.559C1845.74 257.559 1856.35 254.629 1865.49 248.614L1859.99 240.261C1852.68 245.074 1844.03 247.559 1833.84 247.559V257.559ZM1865.49 248.614C1874.66 242.581 1881.6 233.805 1886.43 222.575L1877.24 218.628C1873.06 228.351 1867.28 235.466 1859.99 240.261L1865.49 248.614ZM1886.42 222.601C1891.34 211.32 1893.69 197.728 1893.69 182H1883.69C1883.69 196.788 1881.47 208.93 1877.25 218.602L1886.42 222.601ZM2112.04 143.82L2107.24 145.203L2108.28 148.82H2112.04V143.82ZM2105.82 130.215L2101.66 132.988L2101.67 133.005L2101.68 133.022L2105.82 130.215ZM2096.01 120.09L2093.04 124.108L2093.08 124.139L2093.12 124.169L2096.01 120.09ZM2082.94 113.656L2081.48 118.44L2081.49 118.443L2081.5 118.445L2082.94 113.656ZM2037.69 119.668L2034.95 115.486L2034.94 115.492L2034.93 115.497L2037.69 119.668ZM2018.28 143.609L2022.85 145.646L2022.85 145.634L2018.28 143.609ZM2037.58 244.332L2034.82 248.498L2034.83 248.506L2034.84 248.514L2037.58 244.332ZM2093.69 247.074L2095.93 251.546L2095.94 251.542L2095.95 251.538L2093.69 247.074ZM2110.57 231.359L2106.25 228.84L2106.24 228.857L2106.23 228.874L2110.57 231.359ZM2116.47 207.418L2117.21 202.472L2111.47 201.625V207.418H2116.47ZM2125.76 208.789V213.789L2126.49 203.843L2125.76 208.789ZM2070.07 208.789H2065.07V213.789H2070.07V208.789ZM2070.07 174.406V169.406H2065.07V174.406H2070.07ZM2160.46 174.406H2165.46V169.406H2160.46V174.406ZM2148.43 250.555L2152.74 253.098L2152.74 253.088L2148.43 250.555ZM2115.31 281.984L2117.62 286.42L2117.63 286.416L2117.64 286.411L2115.31 281.984ZM2013.64 279.559L2011.11 283.87L2011.12 283.875L2011.13 283.879L2013.64 279.559ZM1977.78 241.273L1973.33 243.555L1973.34 243.566L1973.35 243.577L1977.78 241.273ZM1972.62 135.383L1967.93 133.638L1967.93 133.644L1967.92 133.651L1972.62 135.383ZM1994.13 100.367L1997.73 103.836L1997.73 103.836L1994.13 100.367ZM2026.3 78.5351L2024.41 73.9057L2024.41 73.9057L2026.3 78.5351ZM2100.23 76.4258L2098.62 81.1596L2098.64 81.1645L2098.65 81.1692L2100.23 76.4258ZM2128.29 91.4023L2125.18 95.3198L2125.19 95.3263L2125.2 95.3328L2128.29 91.4023ZM2148.43 114.5L2144.11 117.017L2144.12 117.025L2144.12 117.032L2148.43 114.5ZM2158.45 143.82V148.82H2164.19L2163.4 143.136L2158.45 143.82ZM2116.85 142.438C2115.25 136.859 2112.96 131.832 2109.96 127.407L2101.68 133.022C2104.03 136.473 2105.89 140.516 2107.24 145.203L2116.85 142.438ZM2109.98 127.441C2106.98 122.933 2103.28 119.113 2098.91 116.011L2093.12 124.169C2096.48 126.551 2099.32 129.481 2101.66 132.988L2109.98 127.441ZM2098.99 116.072C2094.69 112.886 2089.8 110.495 2084.37 108.867L2081.5 118.445C2085.92 119.77 2089.74 121.668 2093.04 124.108L2098.99 116.072ZM2084.39 108.873C2079 107.231 2073.12 106.441 2066.8 106.441V116.441C2072.29 116.441 2077.17 117.128 2081.48 118.44L2084.39 108.873ZM2066.8 106.441C2054.89 106.441 2044.21 109.413 2034.95 115.486L2040.43 123.85C2047.9 118.954 2056.63 116.441 2066.8 116.441V106.441ZM2034.93 115.497C2025.72 121.585 2018.68 130.37 2013.71 141.584L2022.85 145.634C2027.17 135.896 2033.06 128.72 2040.45 123.839L2034.93 115.497ZM2013.72 141.573C2008.71 152.79 2006.32 166.255 2006.32 181.789H2016.32C2016.32 167.23 2018.57 155.241 2022.85 145.646L2013.72 141.573ZM2006.32 181.789C2006.32 197.318 2008.68 210.832 2013.59 222.168L2022.77 218.192C2018.54 208.434 2016.32 196.354 2016.32 181.789H2006.32ZM2013.59 222.168C2018.49 233.47 2025.53 242.334 2034.82 248.498L2040.35 240.166C2032.9 235.22 2027.01 227.983 2022.77 218.192L2013.59 222.168ZM2034.84 248.514C2044.13 254.603 2055 257.559 2067.22 257.559V247.559C2056.67 247.559 2047.77 245.029 2040.32 240.15L2034.84 248.514ZM2067.22 257.559C2078.13 257.559 2087.76 255.629 2095.93 251.546L2091.46 242.602C2085 245.832 2076.98 247.559 2067.22 247.559V257.559ZM2095.95 251.538C2104.15 247.399 2110.52 241.499 2114.91 233.845L2106.23 228.874C2102.88 234.72 2098.01 239.296 2091.44 242.611L2095.95 251.538ZM2114.89 233.879C2119.34 226.237 2121.47 217.355 2121.47 207.418H2111.47C2111.47 215.903 2109.67 222.982 2106.25 228.84L2114.89 233.879ZM2115.74 212.364L2125.03 213.735L2126.49 203.843L2117.21 202.472L2115.74 212.364ZM2125.76 203.789H2070.07V213.789H2125.76V203.789ZM2075.07 208.789V174.406H2065.07V208.789H2075.07ZM2070.07 179.406H2160.46V169.406H2070.07V179.406ZM2155.46 174.406V201.617H2165.46V174.406H2155.46ZM2155.46 201.617C2155.46 219.889 2151.6 235.289 2144.12 248.022L2152.74 253.088C2161.29 238.539 2165.46 221.314 2165.46 201.617H2155.46ZM2144.13 248.012C2136.59 260.776 2126.24 270.603 2112.99 277.557L2117.64 286.411C2132.52 278.6 2144.24 267.474 2152.74 253.098L2144.13 248.012ZM2113.01 277.548C2099.75 284.44 2084.46 287.953 2067.01 287.953V297.953C2085.84 297.953 2102.75 294.154 2117.62 286.42L2113.01 277.548ZM2067.01 287.953C2047.52 287.953 2030.62 283.663 2016.16 275.238L2011.13 283.879C2027.32 293.314 2046 297.953 2067.01 297.953V287.953ZM2016.17 275.247C2001.7 266.747 1990.39 254.699 1982.22 238.97L1973.35 243.577C1982.34 260.894 1994.93 274.371 2011.11 283.87L2016.17 275.247ZM1982.23 238.992C1974.16 223.244 1970.02 204.372 1970.02 182.211H1960.02C1960.02 205.612 1964.39 226.115 1973.33 243.555L1982.23 238.992ZM1970.02 182.211C1970.02 165.18 1972.48 150.174 1977.31 137.115L1967.92 133.651C1962.62 148.014 1960.02 164.226 1960.02 182.211H1970.02ZM1977.3 137.128C1982.22 123.92 1989.05 112.854 1997.73 103.836L1990.53 96.8985C1980.79 107.006 1973.28 119.283 1967.93 133.638L1977.3 137.128ZM1997.73 103.836C2006.46 94.7729 2016.6 87.8921 2028.19 83.1646L2024.41 73.9057C2011.53 79.1625 2000.22 86.8364 1990.53 96.8985L1997.73 103.836ZM2028.19 83.1646C2039.78 78.4361 2052.38 76.0469 2066.06 76.0469V66.0469C2051.19 66.0469 2037.29 68.6498 2024.41 73.9057L2028.19 83.1646ZM2066.06 76.0469C2077.8 76.0469 2088.64 77.7664 2098.62 81.1596L2101.84 71.6919C2090.73 67.9133 2078.79 66.0469 2066.06 66.0469V76.0469ZM2098.65 81.1692C2108.68 84.5131 2117.51 89.2372 2125.18 95.3198L2131.39 87.4848C2122.75 80.63 2112.88 75.3697 2101.81 71.6824L2098.65 81.1692ZM2125.2 95.3328C2132.93 101.417 2139.23 108.639 2144.11 117.017L2152.75 111.983C2147.23 102.502 2140.09 94.325 2131.38 87.4719L2125.2 95.3328ZM2144.12 117.032C2148.97 125.296 2152.11 134.436 2153.5 144.505L2163.4 143.136C2161.84 131.83 2158.3 121.423 2152.74 111.968L2144.12 117.032ZM2158.45 138.82H2112.04V148.82H2158.45V138.82ZM2240.43 74H2245.43V69H2240.43V74ZM2240.43 290V295H2245.43V290H2240.43ZM2194.76 290H2189.76V295H2194.76V290ZM2194.76 74V69H2189.76V74H2194.76ZM2235.43 74V290H2245.43V74H2235.43ZM2240.43 285H2194.76V295H2240.43V285ZM2199.76 290V74H2189.76V290H2199.76ZM2194.76 79H2240.43V69H2194.76V79ZM2278 290H2273V295H2278V290ZM2278 74V69H2273V74H2278ZM2423.55 74H2428.55V69H2423.55V74ZM2423.55 111.652V116.652H2428.55V111.652H2423.55ZM2323.67 111.652V106.652H2318.67V111.652H2323.67ZM2323.67 163.121H2318.67V168.121H2323.67V163.121ZM2416.06 163.121H2421.06V158.121H2416.06V163.121ZM2416.06 200.773V205.773H2421.06V200.773H2416.06ZM2323.67 200.773V195.773H2318.67V200.773H2323.67ZM2323.67 252.348H2318.67V257.348H2323.67V252.348ZM2423.97 252.348H2428.97V247.348H2423.97V252.348ZM2423.97 290V295H2428.97V290H2423.97ZM2283 290V74H2273V290H2283ZM2278 79H2423.55V69H2278V79ZM2418.55 74V111.652H2428.55V74H2418.55ZM2423.55 106.652H2323.67V116.652H2423.55V106.652ZM2318.67 111.652V163.121H2328.67V111.652H2318.67ZM2323.67 168.121H2416.06V158.121H2323.67V168.121ZM2411.06 163.121V200.773H2421.06V163.121H2411.06ZM2416.06 195.773H2323.67V205.773H2416.06V195.773ZM2318.67 200.773V252.348H2328.67V200.773H2318.67ZM2323.67 257.348H2423.97V247.348H2323.67V257.348ZM2418.97 252.348V290H2428.97V252.348H2418.97ZM2423.97 285H2278V295H2423.97V285ZM2577.03 136.121L2572.05 136.615L2572.5 141.121H2577.03V136.121ZM2521.24 112.391L2523.08 117.037L2523.11 117.027L2523.14 117.015L2521.24 112.391ZM2509.42 120.934L2505.42 117.934L2505.41 117.958L2505.39 117.984L2509.42 120.934ZM2505.42 133.379L2510.41 133.561L2510.42 133.47V133.379H2505.42ZM2507.84 143.504L2503.57 146.107L2503.6 146.144L2503.62 146.182L2507.84 143.504ZM2515.33 150.992L2512.56 155.152L2512.59 155.174L2512.62 155.195L2515.33 150.992ZM2526.3 156.371L2524.55 161.056L2524.59 161.069L2524.62 161.082L2526.3 156.371ZM2539.59 160.168L2540.75 155.305L2540.72 155.297L2540.68 155.289L2539.59 160.168ZM2559 164.809L2557.83 169.671L2557.87 169.68L2557.9 169.688L2559 164.809ZM2584.94 173.246L2582.9 177.812L2582.9 177.812L2584.94 173.246ZM2605.4 186.219L2608.73 182.484L2608.73 182.484L2605.4 186.219ZM2618.8 204.359L2614.24 206.428L2614.25 206.447L2614.26 206.466L2618.8 204.359ZM2623.75 228.301L2628.75 228.327L2628.75 228.295L2628.75 228.262L2623.75 228.301ZM2613.63 262.684L2609.51 259.848L2609.51 259.855L2613.63 262.684ZM2584.94 285.148L2586.89 289.752L2586.9 289.747L2584.94 285.148ZM2494.34 285.043L2492.43 289.661L2492.43 289.664L2494.34 285.043ZM2464.18 261.312L2460.04 264.124L2460.05 264.14L2460.07 264.156L2464.18 261.312ZM2452.89 222.184V217.184H2447.78L2447.89 222.297L2452.89 222.184ZM2497.08 222.184L2502.07 221.845L2501.76 217.184H2497.08V222.184ZM2503.31 240.324L2499.31 243.333L2499.34 243.366L2499.36 243.398L2503.31 240.324ZM2518.18 251.187L2516.33 255.834L2516.36 255.846L2516.39 255.858L2518.18 251.187ZM2559.52 251.398L2557.7 246.741L2557.7 246.744L2557.69 246.748L2559.52 251.398ZM2572.92 242.012L2576.84 245.11L2576.84 245.11L2572.92 242.012ZM2573.34 215.961L2569.53 219.202L2569.55 219.225L2569.57 219.248L2573.34 215.961ZM2560.89 207.523L2558.92 212.119L2558.93 212.124L2558.95 212.128L2560.89 207.523ZM2540.96 201.195L2539.74 206.045L2539.77 206.051L2539.79 206.056L2540.96 201.195ZM2517.44 195.289L2518.66 190.44L2518.64 190.435L2518.62 190.431L2517.44 195.289ZM2474.3 174.512L2470.97 178.241L2470.97 178.241L2474.3 174.512ZM2458.59 136.437L2463.59 136.46L2463.59 136.435L2463.59 136.411L2458.59 136.437ZM2469.03 102.16L2464.99 99.221L2464.98 99.2306L2464.97 99.2402L2469.03 102.16ZM2582.41 79.2734L2580.32 83.8179L2580.33 83.8225L2582.41 79.2734ZM2610.46 102.16L2606.34 104.981L2606.34 104.981L2610.46 102.16ZM2620.8 136.121V141.121H2625.88L2625.8 136.039L2620.8 136.121ZM2582.01 135.628C2581.03 125.831 2576.76 117.886 2569.13 112.267L2563.2 120.319C2568.37 124.121 2571.34 129.396 2572.05 136.615L2582.01 135.628ZM2569.13 112.267C2561.6 106.723 2551.75 104.227 2540.12 104.227V114.227C2550.42 114.227 2557.94 116.442 2563.2 120.319L2569.13 112.267ZM2540.12 104.227C2532.22 104.227 2525.24 105.34 2519.34 107.766L2523.14 117.015C2527.5 115.223 2533.1 114.227 2540.12 114.227V104.227ZM2519.39 107.744C2513.58 110.052 2508.82 113.4 2505.42 117.934L2513.42 123.934C2515.51 121.155 2518.63 118.808 2523.08 117.037L2519.39 107.744ZM2505.39 117.984C2502.07 122.519 2500.42 127.706 2500.42 133.379H2510.42C2510.42 129.771 2511.43 126.661 2513.46 123.884L2505.39 117.984ZM2500.42 133.197C2500.25 137.897 2501.23 142.27 2503.57 146.107L2512.11 140.901C2510.94 138.972 2510.3 136.595 2510.41 133.561L2500.42 133.197ZM2503.62 146.182C2505.86 149.718 2508.88 152.7 2512.56 155.152L2518.1 146.832C2515.46 145.066 2513.48 143.055 2512.07 140.826L2503.62 146.182ZM2512.62 155.195C2516.14 157.459 2520.12 159.405 2524.55 161.056L2528.05 151.686C2524.18 150.244 2520.85 148.603 2518.04 146.789L2512.62 155.195ZM2524.62 161.082C2528.98 162.632 2533.61 163.952 2538.5 165.047L2540.68 155.289C2536.15 154.274 2531.92 153.063 2527.98 151.661L2524.62 161.082ZM2538.43 165.031L2557.83 169.671L2560.16 159.946L2540.75 155.305L2538.43 165.031ZM2557.9 169.688C2567.04 171.733 2575.36 174.447 2582.9 177.812L2586.98 168.68C2578.77 165.014 2569.8 162.103 2560.09 159.929L2557.9 169.688ZM2582.9 177.812C2590.36 181.142 2596.74 185.199 2602.08 189.953L2608.73 182.484C2602.53 176.973 2595.27 172.381 2586.98 168.68L2582.9 177.812ZM2602.08 189.953C2607.33 194.627 2611.37 200.108 2614.24 206.428L2623.35 202.29C2619.89 194.689 2615.01 188.076 2608.73 182.484L2602.08 189.953ZM2614.26 206.466C2617.15 212.677 2618.69 219.932 2618.75 228.34L2628.75 228.262C2628.68 218.669 2626.91 209.964 2623.33 202.252L2614.26 206.466ZM2618.75 228.274C2618.69 240.617 2615.55 251.071 2609.51 259.848L2617.75 265.519C2625.06 254.89 2628.68 242.422 2628.75 228.327L2618.75 228.274ZM2609.51 259.855C2603.52 268.583 2594.77 275.516 2582.98 280.55L2586.9 289.747C2600.15 284.093 2610.52 276.05 2617.75 265.512L2609.51 259.855ZM2582.99 280.545C2571.32 285.491 2557.01 288.059 2539.91 288.059V298.059C2557.96 298.059 2573.67 295.353 2586.89 289.752L2582.99 280.545ZM2539.91 288.059C2522.97 288.059 2508.45 285.462 2496.25 280.422L2492.43 289.664C2506.11 295.311 2521.97 298.059 2539.91 298.059V288.059ZM2496.26 280.425C2484.19 275.414 2474.94 268.082 2468.29 258.469L2460.07 264.156C2467.91 275.496 2478.76 283.984 2492.43 289.661L2496.26 280.425ZM2468.31 258.501C2461.79 248.91 2458.23 236.858 2457.89 222.07L2447.89 222.297C2448.26 238.588 2452.22 252.621 2460.04 264.124L2468.31 258.501ZM2452.89 227.184H2497.08V217.184H2452.89V227.184ZM2492.1 222.523C2492.64 230.541 2494.97 237.567 2499.31 243.333L2507.3 237.315C2504.33 233.378 2502.51 228.31 2502.07 221.845L2492.1 222.523ZM2499.36 243.398C2503.69 248.948 2509.4 253.077 2516.33 255.834L2520.03 246.541C2514.58 244.376 2510.38 241.263 2507.25 237.25L2499.36 243.398ZM2516.39 255.858C2523.31 258.501 2531 259.773 2539.38 259.773V249.773C2532.01 249.773 2525.56 248.655 2519.96 246.517L2516.39 255.858ZM2539.38 259.773C2547.58 259.773 2554.95 258.582 2561.36 256.049L2557.69 246.748C2552.71 248.715 2546.64 249.773 2539.38 249.773V259.773ZM2561.34 256.056C2567.76 253.552 2573.02 249.95 2576.84 245.11L2568.99 238.913C2566.49 242.089 2562.82 244.745 2557.7 246.741L2561.34 256.056ZM2576.84 245.11C2580.72 240.202 2582.66 234.5 2582.66 228.195H2572.66C2572.66 232.297 2571.45 235.806 2568.99 238.913L2576.84 245.11ZM2582.66 228.195C2582.66 222.273 2580.87 216.988 2577.11 212.674L2569.57 219.248C2571.57 221.543 2572.66 224.414 2572.66 228.195H2582.66ZM2577.15 212.72C2573.68 208.643 2568.79 205.436 2562.84 202.919L2558.95 212.128C2563.96 214.252 2567.38 216.669 2569.53 219.202L2577.15 212.72ZM2562.86 202.928C2557.12 200.464 2550.19 198.276 2542.13 196.335L2539.79 206.056C2547.48 207.911 2553.84 209.942 2558.92 212.119L2562.86 202.928ZM2542.18 196.346L2518.66 190.44L2516.22 200.138L2539.74 206.045L2542.18 196.346ZM2518.62 190.431C2500.96 186.134 2487.4 179.508 2477.63 170.783L2470.97 178.241C2482.3 188.359 2497.5 195.584 2516.26 200.147L2518.62 190.431ZM2477.63 170.783C2468.3 162.443 2463.52 151.194 2463.59 136.46L2453.59 136.415C2453.51 153.603 2459.21 167.736 2470.97 178.241L2477.63 170.783ZM2463.59 136.411C2463.52 124.293 2466.73 113.921 2473.09 105.08L2464.97 99.2402C2457.27 109.947 2453.51 122.425 2453.59 136.464L2463.59 136.411ZM2473.08 105.099C2479.6 96.121 2488.6 89.0162 2500.27 83.8446L2496.22 74.7022C2483.14 80.4995 2472.66 88.6524 2464.99 99.221L2473.08 105.099ZM2500.27 83.8446C2511.91 78.6855 2525.27 76.0469 2540.43 76.0469V66.0469C2524.1 66.0469 2509.33 68.8926 2496.22 74.7022L2500.27 83.8446ZM2540.43 76.0469C2555.9 76.0469 2569.15 78.692 2580.32 83.8179L2584.49 74.729C2571.76 68.8861 2557.03 66.0469 2540.43 66.0469V76.0469ZM2580.33 83.8225C2591.63 88.974 2600.23 96.0453 2606.34 104.981L2614.59 99.3389C2607.34 88.7281 2597.24 80.5417 2584.48 74.7243L2580.33 83.8225ZM2606.34 104.981C2612.42 113.876 2615.6 124.226 2615.8 136.203L2625.8 136.039C2625.57 122.282 2621.87 109.991 2614.59 99.3389L2606.34 104.981ZM2620.8 131.121H2577.03V141.121H2620.8V131.121Z" fill="#444444" mask="url(#path-1-outside-1_326_954)"/>
</svg>
