<svg width="711" height="368" viewBox="0 0 711 368" fill="none" xmlns="http://www.w3.org/2000/svg">
<g filter="url(#filter0_d_372_1738)">
<rect x="0.5" y="0.5" width="705" height="362" rx="10.5" fill="#252831" stroke="#393939"/>
<path d="M1 11C1 5.47715 5.47715 1 11 1H695C700.523 1 705 5.47715 705 11V36H1V11Z" fill="#15181F"/>
<ellipse cx="20.239" cy="20.3084" rx="5.41475" ry="5.70683" fill="#FF625B"/>
<ellipse cx="38.6726" cy="20.3084" rx="5.41475" ry="5.70683" fill="#FFBC34"/>
<ellipse cx="57.1062" cy="20.3084" rx="5.41475" ry="5.70683" fill="#24CB40"/>
<path d="M105.546 290.219V280.859H107.249V290.219H105.546ZM108.27 290.219V282.679H114.133C114.462 282.679 114.761 282.761 115.03 282.926C115.307 283.09 115.524 283.307 115.68 283.576C115.845 283.844 115.927 284.143 115.927 284.473V290.219H114.224V284.538C114.224 284.494 114.207 284.46 114.172 284.434C114.146 284.399 114.111 284.382 114.068 284.382H110.129C110.086 284.382 110.047 284.399 110.012 284.434C109.986 284.46 109.973 284.494 109.973 284.538V290.219H108.27ZM116.906 290.219V282.679H118.609V290.219H116.906ZM116.906 281.925V280.209H118.609V281.925H116.906ZM121.382 290.219C121.053 290.219 120.754 290.136 120.485 289.972C120.217 289.807 120 289.59 119.835 289.322C119.671 289.053 119.588 288.754 119.588 288.425V280.365H121.291V282.679H124.229V284.382H121.291V288.36C121.291 288.403 121.304 288.442 121.33 288.477C121.365 288.503 121.404 288.516 121.447 288.516H124.229V290.219H121.382ZM124.898 290.219V282.679H126.601V290.219H124.898ZM124.898 281.925V280.209H126.601V281.925H124.898ZM129.044 290.219C128.715 290.219 128.412 290.136 128.134 289.972C127.866 289.807 127.649 289.59 127.484 289.322C127.328 289.053 127.25 288.754 127.25 288.425V285.591H133.204V284.538C133.204 284.494 133.187 284.46 133.152 284.434C133.126 284.399 133.092 284.382 133.048 284.382H127.25V282.679H133.113C133.443 282.679 133.742 282.761 134.01 282.926C134.288 283.09 134.504 283.307 134.66 283.576C134.825 283.844 134.907 284.143 134.907 284.473V290.219H129.044ZM129.109 288.516H133.204V287.125H128.953V288.36C128.953 288.403 128.966 288.442 128.992 288.477C129.027 288.503 129.066 288.516 129.109 288.516ZM137.401 290.219C137.072 290.219 136.773 290.136 136.504 289.972C136.236 289.807 136.019 289.59 135.854 289.322C135.69 289.053 135.607 288.754 135.607 288.425V280.196H137.323V288.36C137.323 288.403 137.336 288.442 137.362 288.477C137.397 288.503 137.436 288.516 137.479 288.516H138.922V290.219H137.401ZM105.546 310.219V300.859H107.249V310.219H105.546ZM108.27 310.219V302.679H114.133C114.462 302.679 114.761 302.761 115.03 302.926C115.307 303.09 115.524 303.307 115.68 303.576C115.845 303.844 115.927 304.143 115.927 304.473V310.219H114.224V304.538C114.224 304.494 114.207 304.46 114.172 304.434C114.146 304.399 114.111 304.382 114.068 304.382H110.129C110.086 304.382 110.047 304.399 110.012 304.434C109.986 304.46 109.973 304.494 109.973 304.538V310.219H108.27ZM120.65 310.219L116.503 302.679H118.466L121.443 308.152L124.407 302.679H126.37L122.21 310.219H120.65ZM128.174 310.219C127.844 310.219 127.545 310.136 127.277 309.972C127.008 309.807 126.791 309.59 126.627 309.322C126.462 309.053 126.38 308.754 126.38 308.425V304.473C126.38 304.143 126.462 303.844 126.627 303.576C126.791 303.307 127.008 303.09 127.277 302.926C127.545 302.761 127.844 302.679 128.174 302.679H132.243C132.572 302.679 132.871 302.761 133.14 302.926C133.417 303.09 133.634 303.307 133.79 303.576C133.954 303.844 134.037 304.143 134.037 304.473V307.307H128.083V308.36C128.083 308.403 128.096 308.442 128.122 308.477C128.156 308.503 128.195 308.516 128.239 308.516H134.037V310.219H128.174ZM128.083 305.773H132.334V304.538C132.334 304.494 132.316 304.46 132.282 304.434C132.256 304.399 132.221 304.382 132.178 304.382H128.239C128.195 304.382 128.156 304.399 128.122 304.434C128.096 304.46 128.083 304.494 128.083 304.538V305.773ZM136.657 310.219C136.327 310.219 136.028 310.136 135.76 309.972C135.491 309.807 135.274 309.59 135.11 309.322C134.945 309.053 134.863 308.754 134.863 308.425V308.139H136.566V308.36C136.566 308.403 136.579 308.442 136.605 308.477C136.639 308.503 136.678 308.516 136.722 308.516H140.661C140.704 308.516 140.739 308.503 140.765 308.477C140.799 308.442 140.817 308.403 140.817 308.36V307.463C140.817 307.419 140.799 307.385 140.765 307.359C140.739 307.324 140.704 307.307 140.661 307.307H136.657C136.327 307.307 136.028 307.224 135.76 307.06C135.491 306.895 135.274 306.678 135.11 306.41C134.945 306.141 134.863 305.842 134.863 305.513V304.473C134.863 304.143 134.945 303.844 135.11 303.576C135.274 303.307 135.491 303.09 135.76 302.926C136.028 302.761 136.327 302.679 136.657 302.679H140.726C141.064 302.679 141.367 302.761 141.636 302.926C141.904 303.09 142.121 303.307 142.286 303.576C142.45 303.844 142.533 304.143 142.533 304.473V304.759H140.817V304.538C140.817 304.494 140.799 304.46 140.765 304.434C140.739 304.399 140.704 304.382 140.661 304.382H136.722C136.678 304.382 136.639 304.399 136.605 304.434C136.579 304.46 136.566 304.494 136.566 304.538V305.435C136.566 305.478 136.579 305.517 136.605 305.552C136.639 305.578 136.678 305.591 136.722 305.591H140.726C141.064 305.591 141.367 305.673 141.636 305.838C141.904 306.002 142.121 306.219 142.286 306.488C142.45 306.756 142.533 307.055 142.533 307.385V308.425C142.533 308.754 142.45 309.053 142.286 309.322C142.121 309.59 141.904 309.807 141.636 309.972C141.367 310.136 141.064 310.219 140.726 310.219H136.657ZM145.244 310.219C144.915 310.219 144.616 310.136 144.347 309.972C144.078 309.807 143.862 309.59 143.697 309.322C143.532 309.053 143.45 308.754 143.45 308.425V300.365H145.153V302.679H148.091V304.382H145.153V308.36C145.153 308.403 145.166 308.442 145.192 308.477C145.227 308.503 145.266 308.516 145.309 308.516H148.091V310.219H145.244ZM148.76 310.219V302.679H150.463V310.219H148.76ZM148.76 301.925V300.209H150.463V301.925H148.76ZM152.37 313.196V311.48H156.907C156.95 311.48 156.985 311.462 157.011 311.428C157.045 311.402 157.063 311.367 157.063 311.324V310.219H152.903C152.582 310.219 152.283 310.136 152.006 309.972C151.737 309.807 151.52 309.59 151.356 309.322C151.191 309.053 151.109 308.754 151.109 308.425V304.473C151.109 304.143 151.191 303.844 151.356 303.576C151.52 303.307 151.737 303.09 152.006 302.926C152.283 302.761 152.582 302.679 152.903 302.679H156.985C157.314 302.679 157.613 302.761 157.882 302.926C158.15 303.09 158.363 303.307 158.519 303.576C158.683 303.844 158.766 304.143 158.766 304.473V311.402C158.766 311.74 158.688 312.043 158.532 312.312C158.376 312.58 158.159 312.793 157.882 312.949C157.613 313.113 157.314 313.196 156.985 313.196H152.37ZM152.968 308.516H156.907C156.95 308.516 156.985 308.503 157.011 308.477C157.045 308.442 157.063 308.403 157.063 308.36V304.538C157.063 304.494 157.045 304.46 157.011 304.434C156.985 304.399 156.95 304.382 156.907 304.382H152.968C152.924 304.382 152.885 304.399 152.851 304.434C152.825 304.46 152.812 304.494 152.812 304.538V308.36C152.812 308.403 152.825 308.442 152.851 308.477C152.885 308.503 152.924 308.516 152.968 308.516ZM161.25 310.219C160.921 310.219 160.618 310.136 160.34 309.972C160.072 309.807 159.855 309.59 159.69 309.322C159.534 309.053 159.456 308.754 159.456 308.425V305.591H165.41V304.538C165.41 304.494 165.393 304.46 165.358 304.434C165.332 304.399 165.298 304.382 165.254 304.382H159.456V302.679H165.319C165.649 302.679 165.948 302.761 166.216 302.926C166.494 303.09 166.71 303.307 166.866 303.576C167.031 303.844 167.113 304.143 167.113 304.473V310.219H161.25ZM161.315 308.516H165.41V307.125H161.159V308.36C161.159 308.403 161.172 308.442 161.198 308.477C161.233 308.503 161.272 308.516 161.315 308.516ZM169.9 310.219C169.57 310.219 169.271 310.136 169.003 309.972C168.734 309.807 168.517 309.59 168.353 309.322C168.188 309.053 168.106 308.754 168.106 308.425V300.365H169.809V302.679H172.747V304.382H169.809V308.36C169.809 308.403 169.822 308.442 169.848 308.477C169.882 308.503 169.921 308.516 169.965 308.516H172.747V310.219H169.9ZM173.416 310.219V302.679H175.119V310.219H173.416ZM173.416 301.925V300.209H175.119V301.925H173.416ZM177.688 310.219C177.359 310.219 177.06 310.136 176.791 309.972C176.523 309.807 176.306 309.59 176.141 309.322C175.977 309.053 175.894 308.754 175.894 308.425V304.473C175.894 304.143 175.977 303.844 176.141 303.576C176.306 303.307 176.523 303.09 176.791 302.926C177.06 302.761 177.359 302.679 177.688 302.679H181.757C182.087 302.679 182.386 302.761 182.654 302.926C182.932 303.09 183.148 303.307 183.304 303.576C183.469 303.844 183.551 304.143 183.551 304.473V308.425C183.551 308.754 183.469 309.053 183.304 309.322C183.148 309.59 182.936 309.807 182.667 309.972C182.399 310.136 182.095 310.219 181.757 310.219H177.688ZM177.753 308.516H181.692C181.736 308.516 181.77 308.503 181.796 308.477C181.831 308.442 181.848 308.403 181.848 308.36V304.538C181.848 304.494 181.831 304.46 181.796 304.434C181.77 304.399 181.736 304.382 181.692 304.382H177.753C177.71 304.382 177.671 304.399 177.636 304.434C177.61 304.46 177.597 304.494 177.597 304.538V308.36C177.597 308.403 177.61 308.442 177.636 308.477C177.671 308.503 177.71 308.516 177.753 308.516ZM184.227 310.219V302.679H190.09C190.419 302.679 190.718 302.761 190.987 302.926C191.264 303.09 191.481 303.307 191.637 303.576C191.802 303.844 191.884 304.143 191.884 304.473V310.219H190.181V304.538C190.181 304.494 190.164 304.46 190.129 304.434C190.103 304.399 190.068 304.382 190.025 304.382H186.086C186.043 304.382 186.004 304.399 185.969 304.434C185.943 304.46 185.93 304.494 185.93 304.538V310.219H184.227Z" fill="white"/>
<path d="M472.741 290.219V280.846H474.457V288.49H482.101V290.219H472.741ZM484.211 290.219C483.882 290.219 483.578 290.136 483.301 289.972C483.032 289.807 482.816 289.59 482.651 289.322C482.495 289.053 482.417 288.754 482.417 288.425V285.591H488.371V284.538C488.371 284.494 488.354 284.46 488.319 284.434C488.293 284.399 488.258 284.382 488.215 284.382H482.417V282.679H488.28C488.609 282.679 488.908 282.761 489.177 282.926C489.454 283.09 489.671 283.307 489.827 283.576C489.992 283.844 490.074 284.143 490.074 284.473V290.219H484.211ZM484.276 288.516H488.371V287.125H484.12V288.36C484.12 288.403 484.133 288.442 484.159 288.477C484.194 288.503 484.233 288.516 484.276 288.516ZM492.86 290.219C492.531 290.219 492.228 290.136 491.95 289.972C491.682 289.807 491.465 289.59 491.3 289.322C491.144 289.053 491.066 288.754 491.066 288.425V282.679H492.769V288.36C492.769 288.403 492.782 288.442 492.808 288.477C492.843 288.503 492.882 288.516 492.925 288.516H496.864C496.908 288.516 496.942 288.503 496.968 288.477C497.003 288.442 497.02 288.403 497.02 288.36V282.679H498.723V288.425C498.723 288.754 498.641 289.053 498.476 289.322C498.32 289.59 498.108 289.807 497.839 289.972C497.571 290.136 497.267 290.219 496.929 290.219H492.86ZM499.741 290.219V282.679H505.604C505.933 282.679 506.232 282.761 506.501 282.926C506.778 283.09 506.995 283.307 507.151 283.576C507.316 283.844 507.398 284.143 507.398 284.473V290.219H505.695V284.538C505.695 284.494 505.678 284.46 505.643 284.434C505.617 284.399 505.582 284.382 505.539 284.382H501.6C501.557 284.382 501.518 284.399 501.483 284.434C501.457 284.46 501.444 284.494 501.444 284.538V290.219H499.741ZM509.853 290.219C509.524 290.219 509.225 290.136 508.956 289.972C508.687 289.807 508.471 289.59 508.306 289.322C508.141 289.053 508.059 288.754 508.059 288.425V284.473C508.059 284.143 508.141 283.844 508.306 283.576C508.471 283.307 508.687 283.09 508.956 282.926C509.225 282.761 509.524 282.679 509.853 282.679H515.703V284.382H509.918C509.875 284.382 509.836 284.399 509.801 284.434C509.775 284.46 509.762 284.494 509.762 284.538V288.36C509.762 288.403 509.775 288.442 509.801 288.477C509.836 288.503 509.875 288.516 509.918 288.516H515.716V290.219H509.853ZM516.43 290.219V280.209H518.133V282.679H522.293C522.622 282.679 522.921 282.761 523.19 282.926C523.458 283.09 523.675 283.307 523.84 283.576C524.004 283.844 524.087 284.143 524.087 284.473V290.219H522.384V284.538C522.384 284.494 522.366 284.46 522.332 284.434C522.306 284.399 522.271 284.382 522.228 284.382H518.289C518.245 284.382 518.206 284.399 518.172 284.434C518.146 284.46 518.133 284.494 518.133 284.538V290.219H516.43Z" fill="white"/>
<path d="M218.082 239V231.369H214.26V229.64H223.62V231.369H219.811V239H218.082ZM225.931 239C225.602 239 225.303 238.918 225.034 238.753C224.766 238.588 224.549 238.372 224.384 238.103C224.22 237.834 224.137 237.535 224.137 237.206V233.254C224.137 232.925 224.22 232.626 224.384 232.357C224.549 232.088 224.766 231.872 225.034 231.707C225.303 231.542 225.602 231.46 225.931 231.46H230C230.33 231.46 230.629 231.542 230.897 231.707C231.175 231.872 231.391 232.088 231.547 232.357C231.712 232.626 231.794 232.925 231.794 233.254V236.088H225.84V237.141C225.84 237.184 225.853 237.223 225.879 237.258C225.914 237.284 225.953 237.297 225.996 237.297H231.794V239H225.931ZM225.84 234.554H230.091V233.319C230.091 233.276 230.074 233.241 230.039 233.215C230.013 233.18 229.979 233.163 229.935 233.163H225.996C225.953 233.163 225.914 233.18 225.879 233.215C225.853 233.241 225.84 233.276 225.84 233.319V234.554ZM234.414 239C234.085 239 233.786 238.918 233.517 238.753C233.249 238.588 233.032 238.372 232.867 238.103C232.703 237.834 232.62 237.535 232.62 237.206V236.92H234.323V237.141C234.323 237.184 234.336 237.223 234.362 237.258C234.397 237.284 234.436 237.297 234.479 237.297H238.418C238.462 237.297 238.496 237.284 238.522 237.258C238.557 237.223 238.574 237.184 238.574 237.141V236.244C238.574 236.201 238.557 236.166 238.522 236.14C238.496 236.105 238.462 236.088 238.418 236.088H234.414C234.085 236.088 233.786 236.006 233.517 235.841C233.249 235.676 233.032 235.46 232.867 235.191C232.703 234.922 232.62 234.623 232.62 234.294V233.254C232.62 232.925 232.703 232.626 232.867 232.357C233.032 232.088 233.249 231.872 233.517 231.707C233.786 231.542 234.085 231.46 234.414 231.46H238.483C238.821 231.46 239.125 231.542 239.393 231.707C239.662 231.872 239.879 232.088 240.043 232.357C240.208 232.626 240.29 232.925 240.29 233.254V233.54H238.574V233.319C238.574 233.276 238.557 233.241 238.522 233.215C238.496 233.18 238.462 233.163 238.418 233.163H234.479C234.436 233.163 234.397 233.18 234.362 233.215C234.336 233.241 234.323 233.276 234.323 233.319V234.216C234.323 234.259 234.336 234.298 234.362 234.333C234.397 234.359 234.436 234.372 234.479 234.372H238.483C238.821 234.372 239.125 234.454 239.393 234.619C239.662 234.784 239.879 235 240.043 235.269C240.208 235.538 240.29 235.837 240.29 236.166V237.206C240.29 237.535 240.208 237.834 240.043 238.103C239.879 238.372 239.662 238.588 239.393 238.753C239.125 238.918 238.821 239 238.483 239H234.414ZM243.001 239C242.672 239 242.373 238.918 242.104 238.753C241.836 238.588 241.619 238.372 241.454 238.103C241.29 237.834 241.207 237.535 241.207 237.206V229.146H242.91V231.46H245.848V233.163H242.91V237.141C242.91 237.184 242.923 237.223 242.949 237.258C242.984 237.284 243.023 237.297 243.066 237.297H245.848V239H243.001ZM246.517 239V231.46H248.22V239H246.517ZM246.517 230.706V228.99H248.22V230.706H246.517ZM249.34 239V231.46H255.203C255.532 231.46 255.831 231.542 256.1 231.707C256.377 231.872 256.594 232.088 256.75 232.357C256.915 232.626 256.997 232.925 256.997 233.254V239H255.294V233.319C255.294 233.276 255.277 233.241 255.242 233.215C255.216 233.18 255.181 233.163 255.138 233.163H251.199C251.156 233.163 251.117 233.18 251.082 233.215C251.056 233.241 251.043 233.276 251.043 233.319V239H249.34ZM259.005 241.977V240.261H263.542C263.585 240.261 263.62 240.244 263.646 240.209C263.68 240.183 263.698 240.148 263.698 240.105V239H259.538C259.217 239 258.918 238.918 258.641 238.753C258.372 238.588 258.155 238.372 257.991 238.103C257.826 237.834 257.744 237.535 257.744 237.206V233.254C257.744 232.925 257.826 232.626 257.991 232.357C258.155 232.088 258.372 231.872 258.641 231.707C258.918 231.542 259.217 231.46 259.538 231.46H263.62C263.949 231.46 264.248 231.542 264.517 231.707C264.785 231.872 264.998 232.088 265.154 232.357C265.318 232.626 265.401 232.925 265.401 233.254V240.183C265.401 240.521 265.323 240.824 265.167 241.093C265.011 241.362 264.794 241.574 264.517 241.73C264.248 241.895 263.949 241.977 263.62 241.977H259.005ZM259.603 237.297H263.542C263.585 237.297 263.62 237.284 263.646 237.258C263.68 237.223 263.698 237.184 263.698 237.141V233.319C263.698 233.276 263.68 233.241 263.646 233.215C263.62 233.18 263.585 233.163 263.542 233.163H259.603C259.559 233.163 259.52 233.18 259.486 233.215C259.46 233.241 259.447 233.276 259.447 233.319V237.141C259.447 237.184 259.46 237.223 259.486 237.258C259.52 237.284 259.559 237.297 259.603 237.297Z" fill="white"/>
<path d="M26.32 99V75.76C26.32 74.7467 26.5733 73.8267 27.08 73C27.5867 72.1467 28.2533 71.4667 29.08 70.96C29.9333 70.4533 30.8667 70.2 31.88 70.2H49.52C50.5333 70.2 51.4667 70.4533 52.32 70.96C53.1733 71.4667 53.8533 72.1467 54.36 73C54.8667 73.8267 55.12 74.7467 55.12 75.76V99H49.8V89.32H31.6V99H26.32ZM31.6 84.04H49.8V76C49.8 75.8667 49.7467 75.76 49.64 75.68C49.5333 75.5733 49.4133 75.52 49.28 75.52H32.08C31.9467 75.52 31.8267 75.5733 31.72 75.68C31.64 75.76 31.6 75.8667 31.6 76V84.04ZM61.7575 108.16V102.88H75.7175C75.8508 102.88 75.9575 102.827 76.0375 102.72C76.1442 102.64 76.1975 102.533 76.1975 102.4V99H63.3975C62.4108 99 61.4908 98.7467 60.6375 98.24C59.8108 97.7333 59.1442 97.0667 58.6375 96.24C58.1308 95.4133 57.8775 94.4933 57.8775 93.48V81.32C57.8775 80.3067 58.1308 79.3867 58.6375 78.56C59.1442 77.7333 59.8108 77.0667 60.6375 76.56C61.4908 76.0533 62.4108 75.8 63.3975 75.8H75.9575C76.9708 75.8 77.8908 76.0533 78.7175 76.56C79.5442 77.0667 80.1975 77.7333 80.6775 78.56C81.1842 79.3867 81.4375 80.3067 81.4375 81.32V102.64C81.4375 103.68 81.1975 104.613 80.7175 105.44C80.2375 106.267 79.5708 106.92 78.7175 107.4C77.8908 107.907 76.9708 108.16 75.9575 108.16H61.7575ZM63.5975 93.76H75.7175C75.8508 93.76 75.9575 93.72 76.0375 93.64C76.1442 93.5333 76.1975 93.4133 76.1975 93.28V81.52C76.1975 81.3867 76.1442 81.28 76.0375 81.2C75.9575 81.0933 75.8508 81.04 75.7175 81.04H63.5975C63.4642 81.04 63.3442 81.0933 63.2375 81.2C63.1575 81.28 63.1175 81.3867 63.1175 81.52V93.28C63.1175 93.4133 63.1575 93.5333 63.2375 93.64C63.3442 93.72 63.4642 93.76 63.5975 93.76ZM84.4222 99V75.8H89.6622V99H84.4222ZM84.4222 73.48V68.2H89.6622V73.48H84.4222ZM98.4297 99C97.4164 99 96.4964 98.7467 95.6697 98.24C94.843 97.7333 94.1764 97.0667 93.6697 96.24C93.163 95.4133 92.9097 94.4933 92.9097 93.48V68.16H98.1897V93.28C98.1897 93.4133 98.2297 93.5333 98.3097 93.64C98.4164 93.72 98.5364 93.76 98.6697 93.76H103.11V99H98.4297ZM110.354 99C109.34 99 108.42 98.7467 107.594 98.24C106.767 97.7333 106.1 97.0667 105.594 96.24C105.087 95.4133 104.834 94.4933 104.834 93.48V81.32C104.834 80.3067 105.087 79.3867 105.594 78.56C106.1 77.7333 106.767 77.0667 107.594 76.56C108.42 76.0533 109.34 75.8 110.354 75.8H122.874C123.887 75.8 124.807 76.0533 125.634 76.56C126.487 77.0667 127.154 77.7333 127.634 78.56C128.14 79.3867 128.394 80.3067 128.394 81.32V90.04H110.074V93.28C110.074 93.4133 110.114 93.5333 110.194 93.64C110.3 93.72 110.42 93.76 110.554 93.76H128.394V99H110.354ZM110.074 85.32H123.154V81.52C123.154 81.3867 123.1 81.28 122.994 81.2C122.914 81.0933 122.807 81.04 122.674 81.04H110.554C110.42 81.04 110.3 81.0933 110.194 81.2C110.114 81.28 110.074 81.3867 110.074 81.52V85.32Z" fill="white"/>
<path d="M429.496 214C429.167 214 428.863 213.918 428.586 213.753C428.317 213.588 428.101 213.372 427.936 213.103C427.771 212.826 427.689 212.522 427.689 212.193V211.478H429.405V212.115C429.405 212.158 429.418 212.197 429.444 212.232C429.479 212.258 429.518 212.271 429.561 212.271H435.164C435.207 212.271 435.242 212.258 435.268 212.232C435.303 212.197 435.32 212.158 435.32 212.115V210.334C435.32 210.291 435.303 210.256 435.268 210.23C435.242 210.204 435.207 210.191 435.164 210.191H429.496C429.167 210.191 428.863 210.109 428.586 209.944C428.317 209.779 428.101 209.563 427.936 209.294C427.771 209.017 427.689 208.709 427.689 208.371V206.447C427.689 206.118 427.771 205.819 427.936 205.55C428.101 205.273 428.317 205.052 428.586 204.887C428.863 204.722 429.167 204.64 429.496 204.64H435.242C435.571 204.64 435.87 204.722 436.139 204.887C436.416 205.052 436.637 205.273 436.802 205.55C436.967 205.819 437.049 206.118 437.049 206.447V207.162H435.32V206.525C435.32 206.482 435.303 206.447 435.268 206.421C435.242 206.386 435.207 206.369 435.164 206.369H429.561C429.518 206.369 429.479 206.386 429.444 206.421C429.418 206.447 429.405 206.482 429.405 206.525V208.306C429.405 208.349 429.418 208.384 429.444 208.41C429.479 208.436 429.518 208.449 429.561 208.449H435.242C435.571 208.449 435.87 208.531 436.139 208.696C436.416 208.861 436.637 209.082 436.802 209.359C436.967 209.628 437.049 209.931 437.049 210.269V212.193C437.049 212.522 436.967 212.826 436.802 213.103C436.637 213.372 436.416 213.588 436.139 213.753C435.87 213.918 435.571 214 435.242 214H429.496ZM439.157 216.795V215.079H443.694C443.738 215.079 443.772 215.062 443.798 215.027C443.833 215.001 443.85 214.966 443.85 214.923V214H439.69C439.37 214 439.071 213.918 438.793 213.753C438.525 213.588 438.308 213.372 438.143 213.103C437.979 212.834 437.896 212.535 437.896 212.206V206.486H439.599V212.141C439.599 212.184 439.612 212.223 439.638 212.258C439.673 212.284 439.712 212.297 439.755 212.297H443.694C443.738 212.297 443.772 212.284 443.798 212.258C443.833 212.223 443.85 212.184 443.85 212.141V206.486H445.553V215.001C445.553 215.33 445.475 215.629 445.319 215.898C445.163 216.175 444.947 216.392 444.669 216.548C444.401 216.713 444.102 216.795 443.772 216.795H439.157ZM448.189 214C447.859 214 447.56 213.918 447.292 213.753C447.023 213.588 446.806 213.372 446.642 213.103C446.477 212.834 446.395 212.535 446.395 212.206V211.92H448.098V212.141C448.098 212.184 448.111 212.223 448.137 212.258C448.171 212.284 448.21 212.297 448.254 212.297H452.193C452.236 212.297 452.271 212.284 452.297 212.258C452.331 212.223 452.349 212.184 452.349 212.141V211.244C452.349 211.201 452.331 211.166 452.297 211.14C452.271 211.105 452.236 211.088 452.193 211.088H448.189C447.859 211.088 447.56 211.006 447.292 210.841C447.023 210.676 446.806 210.46 446.642 210.191C446.477 209.922 446.395 209.623 446.395 209.294V208.254C446.395 207.925 446.477 207.626 446.642 207.357C446.806 207.088 447.023 206.872 447.292 206.707C447.56 206.542 447.859 206.46 448.189 206.46H452.258C452.596 206.46 452.899 206.542 453.168 206.707C453.436 206.872 453.653 207.088 453.818 207.357C453.982 207.626 454.065 207.925 454.065 208.254V208.54H452.349V208.319C452.349 208.276 452.331 208.241 452.297 208.215C452.271 208.18 452.236 208.163 452.193 208.163H448.254C448.21 208.163 448.171 208.18 448.137 208.215C448.111 208.241 448.098 208.276 448.098 208.319V209.216C448.098 209.259 448.111 209.298 448.137 209.333C448.171 209.359 448.21 209.372 448.254 209.372H452.258C452.596 209.372 452.899 209.454 453.168 209.619C453.436 209.784 453.653 210 453.818 210.269C453.982 210.538 454.065 210.837 454.065 211.166V212.206C454.065 212.535 453.982 212.834 453.818 213.103C453.653 213.372 453.436 213.588 453.168 213.753C452.899 213.918 452.596 214 452.258 214H448.189ZM456.776 214C456.447 214 456.148 213.918 455.879 213.753C455.61 213.588 455.394 213.372 455.229 213.103C455.064 212.834 454.982 212.535 454.982 212.206V204.146H456.685V206.46H459.623V208.163H456.685V212.141C456.685 212.184 456.698 212.223 456.724 212.258C456.759 212.284 456.798 212.297 456.841 212.297H459.623V214H456.776ZM462.06 214C461.731 214 461.432 213.918 461.163 213.753C460.894 213.588 460.678 213.372 460.513 213.103C460.348 212.834 460.266 212.535 460.266 212.206V208.254C460.266 207.925 460.348 207.626 460.513 207.357C460.678 207.088 460.894 206.872 461.163 206.707C461.432 206.542 461.731 206.46 462.06 206.46H466.129C466.458 206.46 466.757 206.542 467.026 206.707C467.303 206.872 467.52 207.088 467.676 207.357C467.841 207.626 467.923 207.925 467.923 208.254V211.088H461.969V212.141C461.969 212.184 461.982 212.223 462.008 212.258C462.043 212.284 462.082 212.297 462.125 212.297H467.923V214H462.06ZM461.969 209.554H466.22V208.319C466.22 208.276 466.203 208.241 466.168 208.215C466.142 208.18 466.107 208.163 466.064 208.163H462.125C462.082 208.163 462.043 208.18 462.008 208.215C461.982 208.241 461.969 208.276 461.969 208.319V209.554ZM468.916 214V206.46H478.263C478.601 206.46 478.904 206.542 479.173 206.707C479.442 206.872 479.654 207.088 479.81 207.357C479.975 207.626 480.057 207.925 480.057 208.254V214H478.367V208.319C478.367 208.276 478.35 208.241 478.315 208.215C478.28 208.18 478.241 208.163 478.198 208.163H475.507C475.464 208.163 475.425 208.18 475.39 208.215C475.364 208.241 475.351 208.276 475.351 208.319V214H473.635V208.319C473.635 208.276 473.618 208.241 473.583 208.215C473.557 208.18 473.522 208.163 473.479 208.163H470.775C470.732 208.163 470.693 208.18 470.658 208.215C470.632 208.241 470.619 208.276 470.619 208.319V214H468.916ZM484.87 214V204.64H492.41C492.739 204.64 493.042 204.722 493.32 204.887C493.597 205.052 493.818 205.273 493.983 205.55C494.147 205.819 494.23 206.118 494.23 206.447V212.193C494.23 212.522 494.147 212.826 493.983 213.103C493.818 213.372 493.597 213.588 493.32 213.753C493.042 213.918 492.739 214 492.41 214H484.87ZM486.729 212.271H492.332C492.375 212.271 492.414 212.258 492.449 212.232C492.483 212.197 492.501 212.158 492.501 212.115V206.525C492.501 206.482 492.483 206.447 492.449 206.421C492.414 206.386 492.375 206.369 492.332 206.369H486.729C486.685 206.369 486.646 206.386 486.612 206.421C486.586 206.447 486.573 206.482 486.573 206.525V212.115C486.573 212.158 486.586 212.197 486.612 212.232C486.646 212.258 486.685 212.271 486.729 212.271ZM497.024 214C496.695 214 496.396 213.918 496.127 213.753C495.859 213.588 495.642 213.372 495.477 213.103C495.313 212.834 495.23 212.535 495.23 212.206V208.254C495.23 207.925 495.313 207.626 495.477 207.357C495.642 207.088 495.859 206.872 496.127 206.707C496.396 206.542 496.695 206.46 497.024 206.46H501.093C501.423 206.46 501.722 206.542 501.99 206.707C502.268 206.872 502.484 207.088 502.64 207.357C502.805 207.626 502.887 207.925 502.887 208.254V211.088H496.933V212.141C496.933 212.184 496.946 212.223 496.972 212.258C497.007 212.284 497.046 212.297 497.089 212.297H502.887V214H497.024ZM496.933 209.554H501.184V208.319C501.184 208.276 501.167 208.241 501.132 208.215C501.106 208.18 501.072 208.163 501.028 208.163H497.089C497.046 208.163 497.007 208.18 496.972 208.215C496.946 208.241 496.933 208.276 496.933 208.319V209.554ZM505.508 214C505.178 214 504.879 213.918 504.611 213.753C504.342 213.588 504.125 213.372 503.961 213.103C503.796 212.834 503.714 212.535 503.714 212.206V211.92H505.417V212.141C505.417 212.184 505.43 212.223 505.456 212.258C505.49 212.284 505.529 212.297 505.573 212.297H509.512C509.555 212.297 509.59 212.284 509.616 212.258C509.65 212.223 509.668 212.184 509.668 212.141V211.244C509.668 211.201 509.65 211.166 509.616 211.14C509.59 211.105 509.555 211.088 509.512 211.088H505.508C505.178 211.088 504.879 211.006 504.611 210.841C504.342 210.676 504.125 210.46 503.961 210.191C503.796 209.922 503.714 209.623 503.714 209.294V208.254C503.714 207.925 503.796 207.626 503.961 207.357C504.125 207.088 504.342 206.872 504.611 206.707C504.879 206.542 505.178 206.46 505.508 206.46H509.577C509.915 206.46 510.218 206.542 510.487 206.707C510.755 206.872 510.972 207.088 511.137 207.357C511.301 207.626 511.384 207.925 511.384 208.254V208.54H509.668V208.319C509.668 208.276 509.65 208.241 509.616 208.215C509.59 208.18 509.555 208.163 509.512 208.163H505.573C505.529 208.163 505.49 208.18 505.456 208.215C505.43 208.241 505.417 208.276 505.417 208.319V209.216C505.417 209.259 505.43 209.298 505.456 209.333C505.49 209.359 505.529 209.372 505.573 209.372H509.577C509.915 209.372 510.218 209.454 510.487 209.619C510.755 209.784 510.972 210 511.137 210.269C511.301 210.538 511.384 210.837 511.384 211.166V212.206C511.384 212.535 511.301 212.834 511.137 213.103C510.972 213.372 510.755 213.588 510.487 213.753C510.218 213.918 509.915 214 509.577 214H505.508ZM512.288 214V206.46H513.991V214H512.288ZM512.288 205.706V203.99H513.991V205.706H512.288ZM515.898 216.977V215.261H520.435C520.478 215.261 520.513 215.244 520.539 215.209C520.573 215.183 520.591 215.148 520.591 215.105V214H516.431C516.11 214 515.811 213.918 515.534 213.753C515.265 213.588 515.048 213.372 514.884 213.103C514.719 212.834 514.637 212.535 514.637 212.206V208.254C514.637 207.925 514.719 207.626 514.884 207.357C515.048 207.088 515.265 206.872 515.534 206.707C515.811 206.542 516.11 206.46 516.431 206.46H520.513C520.842 206.46 521.141 206.542 521.41 206.707C521.678 206.872 521.891 207.088 522.047 207.357C522.211 207.626 522.294 207.925 522.294 208.254V215.183C522.294 215.521 522.216 215.824 522.06 216.093C521.904 216.362 521.687 216.574 521.41 216.73C521.141 216.895 520.842 216.977 520.513 216.977H515.898ZM516.496 212.297H520.435C520.478 212.297 520.513 212.284 520.539 212.258C520.573 212.223 520.591 212.184 520.591 212.141V208.319C520.591 208.276 520.573 208.241 520.539 208.215C520.513 208.18 520.478 208.163 520.435 208.163H516.496C516.452 208.163 516.413 208.18 516.379 208.215C516.353 208.241 516.34 208.276 516.34 208.319V212.141C516.34 212.184 516.353 212.223 516.379 212.258C516.413 212.284 516.452 212.297 516.496 212.297ZM523.29 214V206.46H529.153C529.482 206.46 529.781 206.542 530.05 206.707C530.327 206.872 530.544 207.088 530.7 207.357C530.864 207.626 530.947 207.925 530.947 208.254V214H529.244V208.319C529.244 208.276 529.226 208.241 529.192 208.215C529.166 208.18 529.131 208.163 529.088 208.163H525.149C525.105 208.163 525.066 208.18 525.032 208.215C525.006 208.241 524.993 208.276 524.993 208.319V214H523.29Z" fill="white"/>
<path d="M192.754 157V147.64H200.294C200.623 147.64 200.927 147.722 201.204 147.887C201.481 148.052 201.702 148.273 201.867 148.55C202.032 148.819 202.114 149.118 202.114 149.447V155.193C202.114 155.522 202.032 155.826 201.867 156.103C201.702 156.372 201.481 156.588 201.204 156.753C200.927 156.918 200.623 157 200.294 157H192.754ZM194.613 155.271H200.216C200.259 155.271 200.298 155.258 200.333 155.232C200.368 155.197 200.385 155.158 200.385 155.115V149.525C200.385 149.482 200.368 149.447 200.333 149.421C200.298 149.386 200.259 149.369 200.216 149.369H194.613C194.57 149.369 194.531 149.386 194.496 149.421C194.47 149.447 194.457 149.482 194.457 149.525V155.115C194.457 155.158 194.47 155.197 194.496 155.232C194.531 155.258 194.57 155.271 194.613 155.271ZM204.909 157C204.579 157 204.28 156.918 204.012 156.753C203.743 156.588 203.526 156.372 203.362 156.103C203.197 155.834 203.115 155.535 203.115 155.206V151.254C203.115 150.925 203.197 150.626 203.362 150.357C203.526 150.088 203.743 149.872 204.012 149.707C204.28 149.542 204.579 149.46 204.909 149.46H208.978C209.307 149.46 209.606 149.542 209.875 149.707C210.152 149.872 210.369 150.088 210.525 150.357C210.689 150.626 210.772 150.925 210.772 151.254V154.088H204.818V155.141C204.818 155.184 204.831 155.223 204.857 155.258C204.891 155.284 204.93 155.297 204.974 155.297H210.772V157H204.909ZM204.818 152.554H209.069V151.319C209.069 151.276 209.051 151.241 209.017 151.215C208.991 151.18 208.956 151.163 208.913 151.163H204.974C204.93 151.163 204.891 151.18 204.857 151.215C204.831 151.241 204.818 151.276 204.818 151.319V152.554ZM214.899 157L210.752 149.46H212.715L215.692 154.933L218.656 149.46H220.619L216.459 157H214.899ZM222.423 157C222.093 157 221.794 156.918 221.526 156.753C221.257 156.588 221.04 156.372 220.876 156.103C220.711 155.834 220.629 155.535 220.629 155.206V151.254C220.629 150.925 220.711 150.626 220.876 150.357C221.04 150.088 221.257 149.872 221.526 149.707C221.794 149.542 222.093 149.46 222.423 149.46H226.492C226.821 149.46 227.12 149.542 227.389 149.707C227.666 149.872 227.883 150.088 228.039 150.357C228.203 150.626 228.286 150.925 228.286 151.254V154.088H222.332V155.141C222.332 155.184 222.345 155.223 222.371 155.258C222.405 155.284 222.444 155.297 222.488 155.297H228.286V157H222.423ZM222.332 152.554H226.583V151.319C226.583 151.276 226.565 151.241 226.531 151.215C226.505 151.18 226.47 151.163 226.427 151.163H222.488C222.444 151.163 222.405 151.18 222.371 151.215C222.345 151.241 222.332 151.276 222.332 151.319V152.554ZM230.742 157C230.413 157 230.114 156.918 229.845 156.753C229.576 156.588 229.36 156.372 229.195 156.103C229.03 155.834 228.948 155.535 228.948 155.206V146.977H230.664V155.141C230.664 155.184 230.677 155.223 230.703 155.258C230.738 155.284 230.777 155.297 230.82 155.297H232.263V157H230.742ZM234.63 157C234.301 157 234.002 156.918 233.733 156.753C233.464 156.588 233.248 156.372 233.083 156.103C232.918 155.834 232.836 155.535 232.836 155.206V151.254C232.836 150.925 232.918 150.626 233.083 150.357C233.248 150.088 233.464 149.872 233.733 149.707C234.002 149.542 234.301 149.46 234.63 149.46H238.699C239.028 149.46 239.327 149.542 239.596 149.707C239.873 149.872 240.09 150.088 240.246 150.357C240.411 150.626 240.493 150.925 240.493 151.254V155.206C240.493 155.535 240.411 155.834 240.246 156.103C240.09 156.372 239.878 156.588 239.609 156.753C239.34 156.918 239.037 157 238.699 157H234.63ZM234.695 155.297H238.634C238.677 155.297 238.712 155.284 238.738 155.258C238.773 155.223 238.79 155.184 238.79 155.141V151.319C238.79 151.276 238.773 151.241 238.738 151.215C238.712 151.18 238.677 151.163 238.634 151.163H234.695C234.652 151.163 234.613 151.18 234.578 151.215C234.552 151.241 234.539 151.276 234.539 151.319V155.141C234.539 155.184 234.552 155.223 234.578 155.258C234.613 155.284 234.652 155.297 234.695 155.297ZM241.486 159.99V149.46H247.349C247.678 149.46 247.977 149.542 248.246 149.707C248.523 149.872 248.74 150.088 248.896 150.357C249.061 150.626 249.143 150.925 249.143 151.254V155.206C249.143 155.535 249.061 155.834 248.896 156.103C248.74 156.372 248.523 156.588 248.246 156.753C247.977 156.918 247.678 157 247.349 157H243.189V159.99H241.486ZM243.345 155.297H247.284C247.327 155.297 247.362 155.284 247.388 155.258C247.423 155.223 247.44 155.184 247.44 155.141V151.319C247.44 151.276 247.423 151.241 247.388 151.215C247.362 151.18 247.327 151.163 247.284 151.163H243.345C243.302 151.163 243.263 151.18 243.228 151.215C243.202 151.241 243.189 151.276 243.189 151.319V155.141C243.189 155.184 243.202 155.223 243.228 155.258C243.263 155.284 243.302 155.297 243.345 155.297ZM249.729 157V149.46H259.076C259.414 149.46 259.717 149.542 259.986 149.707C260.255 149.872 260.467 150.088 260.623 150.357C260.788 150.626 260.87 150.925 260.87 151.254V157H259.18V151.319C259.18 151.276 259.163 151.241 259.128 151.215C259.093 151.18 259.054 151.163 259.011 151.163H256.32C256.277 151.163 256.238 151.18 256.203 151.215C256.177 151.241 256.164 151.276 256.164 151.319V157H254.448V151.319C254.448 151.276 254.431 151.241 254.396 151.215C254.37 151.18 254.335 151.163 254.292 151.163H251.588C251.545 151.163 251.506 151.18 251.471 151.215C251.445 151.241 251.432 151.276 251.432 151.319V157H249.729ZM263.446 157C263.117 157 262.818 156.918 262.549 156.753C262.281 156.588 262.064 156.372 261.899 156.103C261.735 155.834 261.652 155.535 261.652 155.206V151.254C261.652 150.925 261.735 150.626 261.899 150.357C262.064 150.088 262.281 149.872 262.549 149.707C262.818 149.542 263.117 149.46 263.446 149.46H267.515C267.845 149.46 268.144 149.542 268.412 149.707C268.69 149.872 268.906 150.088 269.062 150.357C269.227 150.626 269.309 150.925 269.309 151.254V154.088H263.355V155.141C263.355 155.184 263.368 155.223 263.394 155.258C263.429 155.284 263.468 155.297 263.511 155.297H269.309V157H263.446ZM263.355 152.554H267.606V151.319C267.606 151.276 267.589 151.241 267.554 151.215C267.528 151.18 267.494 151.163 267.45 151.163H263.511C263.468 151.163 263.429 151.18 263.394 151.215C263.368 151.241 263.355 151.276 263.355 151.319V152.554ZM270.302 157V149.46H276.165C276.495 149.46 276.794 149.542 277.062 149.707C277.34 149.872 277.556 150.088 277.712 150.357C277.877 150.626 277.959 150.925 277.959 151.254V157H276.256V151.319C276.256 151.276 276.239 151.241 276.204 151.215C276.178 151.18 276.144 151.163 276.1 151.163H272.161C272.118 151.163 272.079 151.18 272.044 151.215C272.018 151.241 272.005 151.276 272.005 151.319V157H270.302ZM280.745 157C280.416 157 280.117 156.918 279.848 156.753C279.579 156.588 279.363 156.372 279.198 156.103C279.033 155.834 278.951 155.535 278.951 155.206V147.146H280.654V149.46H283.592V151.163H280.654V155.141C280.654 155.184 280.667 155.223 280.693 155.258C280.728 155.284 280.767 155.297 280.81 155.297H283.592V157H280.745Z" fill="white"/>
<path d="M416.754 112V102.64H424.294C424.623 102.64 424.927 102.722 425.204 102.887C425.481 103.052 425.702 103.273 425.867 103.55C426.032 103.819 426.114 104.118 426.114 104.447V110.193C426.114 110.522 426.032 110.826 425.867 111.103C425.702 111.372 425.481 111.588 425.204 111.753C424.927 111.918 424.623 112 424.294 112H416.754ZM418.613 110.271H424.216C424.259 110.271 424.298 110.258 424.333 110.232C424.368 110.197 424.385 110.158 424.385 110.115V104.525C424.385 104.482 424.368 104.447 424.333 104.421C424.298 104.386 424.259 104.369 424.216 104.369H418.613C418.57 104.369 418.531 104.386 418.496 104.421C418.47 104.447 418.457 104.482 418.457 104.525V110.115C418.457 110.158 418.47 110.197 418.496 110.232C418.531 110.258 418.57 110.271 418.613 110.271ZM428.922 112C428.592 112 428.289 111.918 428.012 111.753C427.743 111.588 427.526 111.372 427.362 111.103C427.206 110.834 427.128 110.535 427.128 110.206V107.372H433.082V106.319C433.082 106.276 433.064 106.241 433.03 106.215C433.004 106.18 432.969 106.163 432.926 106.163H427.128V104.46H432.991C433.32 104.46 433.619 104.542 433.888 104.707C434.165 104.872 434.382 105.088 434.538 105.357C434.702 105.626 434.785 105.925 434.785 106.254V112H428.922ZM428.987 110.297H433.082V108.906H428.831V110.141C428.831 110.184 428.844 110.223 428.87 110.258C428.904 110.284 428.943 110.297 428.987 110.297ZM435.764 112V104.46H437.467V112H435.764ZM435.764 103.706V101.99H437.467V103.706H435.764ZM440.317 112C439.987 112 439.688 111.918 439.42 111.753C439.151 111.588 438.934 111.372 438.77 111.103C438.605 110.834 438.523 110.535 438.523 110.206V101.977H440.239V110.141C440.239 110.184 440.252 110.223 440.278 110.258C440.312 110.284 440.351 110.297 440.395 110.297H441.838V112H440.317ZM443.682 114.795V113.079H448.219C448.262 113.079 448.297 113.062 448.323 113.027C448.357 113.001 448.375 112.966 448.375 112.923V112H444.215C443.894 112 443.595 111.918 443.318 111.753C443.049 111.588 442.832 111.372 442.668 111.103C442.503 110.834 442.421 110.535 442.421 110.206V104.486H444.124V110.141C444.124 110.184 444.137 110.223 444.163 110.258C444.197 110.284 444.236 110.297 444.28 110.297H448.219C448.262 110.297 448.297 110.284 448.323 110.258C448.357 110.223 448.375 110.184 448.375 110.141V104.486H450.078V113.001C450.078 113.33 450 113.629 449.844 113.898C449.688 114.175 449.471 114.392 449.194 114.548C448.925 114.713 448.626 114.795 448.297 114.795H443.682ZM456.464 112C456.134 112 455.831 111.918 455.554 111.753C455.285 111.588 455.068 111.372 454.904 111.103C454.739 110.826 454.657 110.522 454.657 110.193V109.478H456.373V110.115C456.373 110.158 456.386 110.197 456.412 110.232C456.446 110.258 456.485 110.271 456.529 110.271H462.132C462.175 110.271 462.21 110.258 462.236 110.232C462.27 110.197 462.288 110.158 462.288 110.115V108.334C462.288 108.291 462.27 108.256 462.236 108.23C462.21 108.204 462.175 108.191 462.132 108.191H456.464C456.134 108.191 455.831 108.109 455.554 107.944C455.285 107.779 455.068 107.563 454.904 107.294C454.739 107.017 454.657 106.709 454.657 106.371V104.447C454.657 104.118 454.739 103.819 454.904 103.55C455.068 103.273 455.285 103.052 455.554 102.887C455.831 102.722 456.134 102.64 456.464 102.64H462.21C462.539 102.64 462.838 102.722 463.107 102.887C463.384 103.052 463.605 103.273 463.77 103.55C463.934 103.819 464.017 104.118 464.017 104.447V105.162H462.288V104.525C462.288 104.482 462.27 104.447 462.236 104.421C462.21 104.386 462.175 104.369 462.132 104.369H456.529C456.485 104.369 456.446 104.386 456.412 104.421C456.386 104.447 456.373 104.482 456.373 104.525V106.306C456.373 106.349 456.386 106.384 456.412 106.41C456.446 106.436 456.485 106.449 456.529 106.449H462.21C462.539 106.449 462.838 106.531 463.107 106.696C463.384 106.861 463.605 107.082 463.77 107.359C463.934 107.628 464.017 107.931 464.017 108.269V110.193C464.017 110.522 463.934 110.826 463.77 111.103C463.605 111.372 463.384 111.588 463.107 111.753C462.838 111.918 462.539 112 462.21 112H456.464ZM466.775 112C466.446 112 466.147 111.918 465.878 111.753C465.609 111.588 465.393 111.372 465.228 111.103C465.063 110.834 464.981 110.535 464.981 110.206V106.254C464.981 105.925 465.063 105.626 465.228 105.357C465.393 105.088 465.609 104.872 465.878 104.707C466.147 104.542 466.446 104.46 466.775 104.46H472.625V106.163H466.84C466.797 106.163 466.758 106.18 466.723 106.215C466.697 106.241 466.684 106.276 466.684 106.319V110.141C466.684 110.184 466.697 110.223 466.723 110.258C466.758 110.284 466.797 110.297 466.84 110.297H472.638V112H466.775ZM473.554 112V106.254C473.554 105.925 473.636 105.626 473.801 105.357C473.966 105.088 474.182 104.872 474.451 104.707C474.728 104.542 475.027 104.46 475.348 104.46H479.534V106.163H475.413C475.37 106.163 475.331 106.18 475.296 106.215C475.27 106.241 475.257 106.276 475.257 106.319V112H473.554ZM481.941 112C481.611 112 481.308 111.918 481.031 111.753C480.762 111.588 480.545 111.372 480.381 111.103C480.225 110.834 480.147 110.535 480.147 110.206V104.46H481.85V110.141C481.85 110.184 481.863 110.223 481.889 110.258C481.923 110.284 481.962 110.297 482.006 110.297H485.945C485.988 110.297 486.023 110.284 486.049 110.258C486.083 110.223 486.101 110.184 486.101 110.141V104.46H487.804V110.206C487.804 110.535 487.721 110.834 487.557 111.103C487.401 111.372 487.188 111.588 486.92 111.753C486.651 111.918 486.348 112 486.01 112H481.941ZM488.491 112V104.46H497.838C498.176 104.46 498.48 104.542 498.748 104.707C499.017 104.872 499.229 105.088 499.385 105.357C499.55 105.626 499.632 105.925 499.632 106.254V112H497.942V106.319C497.942 106.276 497.925 106.241 497.89 106.215C497.856 106.18 497.817 106.163 497.773 106.163H495.082C495.039 106.163 495 106.18 494.965 106.215C494.939 106.241 494.926 106.276 494.926 106.319V112H493.21V106.319C493.21 106.276 493.193 106.241 493.158 106.215C493.132 106.18 493.098 106.163 493.054 106.163H490.35C490.307 106.163 490.268 106.18 490.233 106.215C490.207 106.241 490.194 106.276 490.194 106.319V112H488.491Z" fill="white"/>
</g>
<path d="M227.061 272.061C227.646 271.475 227.646 270.525 227.061 269.939L217.515 260.393C216.929 259.808 215.979 259.808 215.393 260.393C214.808 260.979 214.808 261.929 215.393 262.515L223.879 271L215.393 279.485C214.808 280.071 214.808 281.021 215.393 281.607C215.979 282.192 216.929 282.192 217.515 281.607L227.061 272.061ZM103 272.5H226V269.5H103V272.5Z" fill="white"/>
<path d="M594.061 272.061C594.646 271.475 594.646 270.525 594.061 269.939L584.515 260.393C583.929 259.808 582.979 259.808 582.393 260.393C581.808 260.979 581.808 261.929 582.393 262.515L590.879 271L582.393 279.485C581.808 280.071 581.808 281.021 582.393 281.607C582.979 282.192 583.929 282.192 584.515 281.607L594.061 272.061ZM470 272.5H593V269.5H470V272.5Z" fill="white"/>
<path d="M425.094 183.663C424.601 183.663 424.121 183.507 423.721 183.219C423.321 182.93 423.021 182.523 422.865 182.055C422.709 181.586 422.705 181.081 422.852 180.61C422.999 180.139 423.29 179.726 423.685 179.43C427.216 176.796 430.016 173.302 431.819 169.28C433.623 165.259 434.369 160.843 433.988 156.451C433.607 152.06 432.112 147.839 429.643 144.188C427.174 140.538 423.814 137.58 419.882 135.594C415.95 133.608 411.576 132.661 407.176 132.843C402.775 133.024 398.494 134.328 394.739 136.631C390.983 138.933 387.878 142.158 385.718 145.999C383.557 149.841 382.413 154.171 382.394 158.579C382.394 159.202 382.147 159.801 381.706 160.242C381.266 160.683 380.668 160.93 380.045 160.93C379.422 160.93 378.824 160.683 378.383 160.242C377.943 159.801 377.695 159.202 377.695 158.579C377.694 153.362 379.026 148.232 381.566 143.677C384.105 139.122 387.766 135.292 392.202 132.553C396.637 129.814 401.699 128.257 406.906 128.029C412.113 127.801 417.292 128.911 421.949 131.252C426.606 133.593 430.588 137.088 433.514 141.405C436.441 145.721 438.215 150.715 438.669 155.912C439.122 161.108 438.24 166.334 436.105 171.093C433.97 175.852 430.654 179.985 426.473 183.098C426.089 183.435 425.604 183.634 425.094 183.663Z" fill="white"/>
<path d="M423.53 175.07L417.641 185.198L429.357 185.229L423.53 175.07Z" fill="white"/>
<path d="M408.24 165.633C406.846 165.633 405.483 165.219 404.324 164.444C403.165 163.669 402.261 162.567 401.728 161.278C401.194 159.989 401.055 158.57 401.327 157.202C401.599 155.833 402.27 154.576 403.256 153.59C404.242 152.603 405.498 151.931 406.865 151.659C408.232 151.387 409.65 151.526 410.938 152.06C412.226 152.594 413.327 153.499 414.101 154.659C414.876 155.819 415.289 157.183 415.289 158.578C415.289 160.449 414.546 162.244 413.224 163.567C411.903 164.89 410.11 165.633 408.24 165.633ZM408.24 156.227C407.775 156.227 407.321 156.365 406.935 156.623C406.548 156.881 406.247 157.249 406.069 157.678C405.892 158.108 405.845 158.581 405.936 159.037C406.026 159.493 406.25 159.912 406.579 160.241C406.907 160.57 407.326 160.794 407.782 160.885C408.238 160.975 408.71 160.929 409.139 160.751C409.569 160.573 409.936 160.272 410.194 159.885C410.452 159.498 410.59 159.043 410.59 158.578C410.582 157.957 410.332 157.364 409.893 156.924C409.454 156.485 408.861 156.235 408.24 156.227Z" fill="white"/>
<path d="M412.66 156.51C412.04 156.497 411.447 156.251 411 155.82C410.56 155.38 410.312 154.782 410.312 154.159C410.312 153.535 410.56 152.938 411 152.497L419.865 143.623C420.311 143.208 420.9 142.982 421.509 142.993C422.117 143.003 422.698 143.25 423.129 143.681C423.559 144.112 423.806 144.693 423.816 145.302C423.827 145.912 423.601 146.501 423.186 146.947L414.32 155.82C413.88 156.262 413.283 156.51 412.66 156.51Z" fill="white"/>
<path d="M435.024 269.575L427.975 260.168C427.684 259.779 427.305 259.463 426.87 259.245C426.435 259.027 425.956 258.914 425.469 258.914H408.239C407.33 260.262 406.359 261.579 405.357 262.833C398.159 272.008 388.822 279.276 378.164 283.998H425.469C425.956 283.998 426.435 283.885 426.87 283.667C427.305 283.449 427.684 283.133 427.975 282.744L435.024 273.337C435.431 272.795 435.651 272.134 435.651 271.456C435.651 270.778 435.431 270.118 435.024 269.575Z" fill="#8E8FFA"/>
<path d="M298.155 227.342L306.112 216.744C306.345 216.438 306.65 216.194 307 216.036C307.35 215.877 307.734 215.808 308.117 215.834C308.6 207.194 311.818 198.931 317.306 192.242C322.793 185.554 330.265 180.787 338.64 178.633C347.014 176.478 355.857 177.047 363.887 180.257C371.917 183.467 378.717 189.152 383.304 196.488L385.372 183.664C385.494 183.041 385.854 182.49 386.374 182.128C386.901 181.781 387.543 181.657 388.16 181.783L405.829 185.42C398.733 172.967 387.77 163.172 374.606 157.523C361.441 151.874 346.795 150.679 332.89 154.12C318.985 157.561 306.583 165.45 297.566 176.589C288.548 187.727 283.41 201.507 282.93 215.834C283.416 215.852 283.885 216.016 284.277 216.305L298.155 227.342Z" fill="#190482"/>
<path d="M308.176 221.822L300.469 232.107C300.281 232.362 300.042 232.575 299.767 232.731C299.492 232.888 299.186 232.985 298.871 233.016H298.589C298.058 233.007 297.543 232.832 297.117 232.514L283.082 221.289C283.602 232.393 286.933 243.182 292.762 252.644H327.035C321.735 249.304 317.277 244.785 314.006 239.44C310.735 234.094 308.74 228.065 308.176 221.822Z" fill="#8E8FFA"/>
<path d="M400.346 258.921C401.938 256.917 403.413 254.823 404.764 252.65C410.246 243.746 413.522 233.658 414.318 223.23C415.113 212.801 413.406 202.333 409.338 192.699L408.241 190.379C407.79 190.582 407.288 190.648 406.8 190.567L389.538 186.992L387.251 200.067C387.187 200.436 387.033 200.782 386.804 201.078C386.575 201.373 386.276 201.607 385.936 201.76C386.628 203.332 387.225 204.945 387.721 206.589C388.842 210.344 389.422 214.24 389.444 218.159C389.442 225.051 387.693 231.83 384.362 237.861C381.031 243.893 376.226 248.981 370.397 252.65C363.919 256.772 356.395 258.949 348.718 258.921H264.133C263.302 258.921 262.505 259.251 261.918 259.839C261.33 260.427 261 261.225 261 262.056V280.869C261 281.701 261.33 282.498 261.918 283.086C262.505 283.674 263.302 284.005 264.133 284.005H348.718C358.661 284.017 368.477 281.765 377.421 277.419C386.366 273.073 394.206 266.748 400.346 258.921Z" fill="#7752FE"/>
<path d="M368.737 202.883C369.169 202.438 369.411 201.842 369.411 201.221C369.411 200.601 369.169 200.005 368.737 199.56C368.302 199.193 367.748 198.997 367.179 199.008C366.611 199.019 366.065 199.236 365.644 199.619C365.223 200.002 364.955 200.525 364.89 201.091C364.825 201.657 364.968 202.227 365.291 202.695C365.505 202.941 365.77 203.139 366.068 203.274C366.365 203.409 366.687 203.479 367.014 203.479C367.643 203.51 368.261 203.297 368.737 202.883Z" fill="white"/>
<path d="M359.901 242.953C360.262 242.964 360.619 242.878 360.935 242.703C361.213 242.569 361.461 242.381 361.665 242.15C361.869 241.92 362.026 241.65 362.125 241.358C362.224 241.067 362.264 240.758 362.243 240.45C362.221 240.143 362.139 239.842 362 239.567C361.718 239.017 361.234 238.599 360.649 238.4C360.065 238.201 359.426 238.237 358.867 238.501C358.318 238.783 357.902 239.27 357.708 239.857C357.515 240.443 357.56 241.083 357.834 241.636C358.021 242.027 358.314 242.358 358.679 242.591C359.045 242.823 359.468 242.949 359.901 242.953Z" fill="white"/>
<path d="M359.78 197.989C360.218 197.99 360.648 197.867 361.02 197.634C361.391 197.401 361.689 197.067 361.879 196.672C362.142 196.113 362.178 195.474 361.979 194.889C361.78 194.304 361.362 193.819 360.813 193.536C360.253 193.262 359.606 193.222 359.015 193.425C358.425 193.627 357.939 194.057 357.665 194.618C357.391 195.179 357.351 195.827 357.553 196.418C357.756 197.009 358.185 197.495 358.746 197.769C359.07 197.919 359.423 197.994 359.78 197.989Z" fill="white"/>
<path d="M371.241 229.405C371.519 229.464 371.808 229.464 372.086 229.405C372.556 229.403 373.016 229.263 373.406 229C373.796 228.738 374.1 228.366 374.279 227.931C374.415 227.639 374.488 227.322 374.492 227C374.497 226.677 374.434 226.358 374.307 226.062C374.179 225.766 373.991 225.5 373.754 225.282C373.518 225.064 373.237 224.898 372.932 224.796C372.639 224.644 372.318 224.555 371.988 224.535C371.659 224.516 371.329 224.566 371.02 224.683C370.712 224.799 370.431 224.979 370.196 225.212C369.962 225.444 369.779 225.723 369.659 226.031C369.54 226.339 369.487 226.669 369.503 226.999C369.519 227.328 369.605 227.651 369.754 227.946C369.903 228.24 370.112 228.5 370.369 228.708C370.625 228.917 370.922 229.069 371.241 229.154V229.405Z" fill="white"/>
<path d="M367.234 237.405C367.706 237.405 368.167 237.262 368.558 236.996C368.948 236.73 369.249 236.352 369.421 235.912C369.594 235.472 369.63 234.99 369.524 234.529C369.419 234.068 369.178 233.65 368.831 233.328C368.391 232.888 367.794 232.641 367.171 232.641C366.548 232.641 365.951 232.888 365.511 233.328C365.213 233.669 365.019 234.086 364.95 234.533C364.881 234.979 364.94 235.436 365.121 235.85C365.301 236.265 365.596 236.619 365.97 236.872C366.344 237.125 366.782 237.266 367.234 237.279V237.405Z" fill="white"/>
<path d="M351.036 245.496H351.256C351.81 245.467 352.332 245.223 352.709 244.815C353.087 244.407 353.29 243.867 353.276 243.312C353.261 242.756 353.031 242.228 352.633 241.84C352.235 241.452 351.701 241.234 351.146 241.234C350.59 241.234 350.057 241.452 349.659 241.84C349.261 242.228 349.031 242.756 349.016 243.312C349.002 243.867 349.205 244.407 349.583 244.815C349.96 245.223 350.482 245.467 351.036 245.496Z" fill="white"/>
<path d="M372.028 211.288C372.317 211.35 372.616 211.35 372.905 211.288C373.202 211.174 373.473 211.002 373.701 210.781C373.929 210.56 374.11 210.295 374.233 210.002C374.356 209.708 374.418 209.394 374.416 209.076C374.414 208.758 374.348 208.444 374.221 208.152C373.959 207.623 373.509 207.212 372.959 207.001C372.409 206.789 371.799 206.792 371.251 207.009C370.703 207.226 370.256 207.641 370 208.172C369.743 208.704 369.696 209.312 369.866 209.877C370.05 210.297 370.352 210.655 370.736 210.906C371.12 211.157 371.569 211.289 372.028 211.288Z" fill="white"/>
<path d="M341.731 196.394C341.98 196.369 342.223 196.306 342.452 196.206C343.049 196.038 343.555 195.64 343.86 195.099C344.165 194.559 344.245 193.92 344.081 193.321C343.91 192.718 343.508 192.208 342.961 191.902C342.415 191.596 341.77 191.52 341.167 191.691C340.565 191.861 340.055 192.264 339.749 192.811C339.444 193.358 339.368 194.004 339.538 194.607C339.665 195.1 339.946 195.54 340.341 195.862C340.736 196.183 341.223 196.37 341.731 196.394Z" fill="white"/>
<path d="M323.656 220.511C323.068 220.606 322.538 220.922 322.174 221.394C321.81 221.866 321.638 222.458 321.694 223.052C321.75 223.645 322.028 224.195 322.474 224.591C322.92 224.986 323.499 225.198 324.094 225.182H324.533C325.141 225.054 325.676 224.695 326.026 224.181C326.376 223.666 326.515 223.037 326.412 222.423C326.36 222.115 326.246 221.821 326.078 221.557C325.911 221.293 325.692 221.066 325.435 220.888C325.178 220.71 324.889 220.585 324.583 220.52C324.278 220.455 323.962 220.452 323.656 220.511Z" fill="white"/>
<path d="M327.354 207.369C327.758 207.375 328.156 207.273 328.508 207.075C328.86 206.877 329.154 206.589 329.359 206.24C329.661 205.718 329.748 205.099 329.602 204.513C329.456 203.928 329.088 203.423 328.575 203.105C328.05 202.817 327.436 202.738 326.856 202.884C326.275 203.029 325.771 203.388 325.443 203.888C325.148 204.412 325.065 205.029 325.211 205.612C325.356 206.195 325.72 206.7 326.226 207.024C326.563 207.24 326.953 207.359 327.354 207.369Z" fill="white"/>
<path d="M350.913 195.517C351.536 195.542 352.144 195.318 352.602 194.894C353.06 194.471 353.332 193.883 353.357 193.259C353.382 192.636 353.158 192.027 352.735 191.569C352.312 191.11 351.724 190.838 351.101 190.814C350.478 190.759 349.859 190.955 349.38 191.358C348.901 191.761 348.602 192.338 348.548 192.961C348.494 193.585 348.69 194.205 349.092 194.684C349.495 195.163 350.071 195.463 350.694 195.517H350.913Z" fill="white"/>
<path d="M328.669 233.397C329.129 233.094 329.464 232.635 329.613 232.105C329.763 231.574 329.716 231.008 329.481 230.509C329.246 230.01 328.84 229.613 328.336 229.391C327.833 229.168 327.266 229.134 326.739 229.297C326.213 229.459 325.763 229.805 325.472 230.273C325.18 230.74 325.067 231.298 325.153 231.842C325.239 232.386 325.518 232.881 325.94 233.236C326.361 233.591 326.896 233.781 327.447 233.773C327.882 233.77 328.307 233.639 328.669 233.397Z" fill="white"/>
<path d="M321.744 213.201C321.634 213.812 321.77 214.442 322.122 214.953C322.475 215.464 323.014 215.815 323.624 215.929H324.062C324.614 215.924 325.147 215.727 325.57 215.373C325.992 215.018 326.279 214.528 326.381 213.985C326.436 213.68 326.431 213.368 326.366 213.065C326.301 212.762 326.177 212.475 326.001 212.22C325.825 211.966 325.6 211.748 325.34 211.58C325.08 211.412 324.79 211.297 324.485 211.241C324.181 211.186 323.869 211.191 323.566 211.256C323.264 211.321 322.977 211.446 322.722 211.622C322.208 211.977 321.856 212.523 321.744 213.138V213.201Z" fill="white"/>
<path d="M333.65 240.539C334.208 240.539 334.748 240.34 335.173 239.979C335.598 239.617 335.88 239.115 335.97 238.564C336.059 238.013 335.949 237.448 335.661 236.97C335.372 236.493 334.923 236.133 334.393 235.957C333.864 235.78 333.289 235.798 332.772 236.007C332.254 236.215 331.828 236.602 331.569 237.096C331.31 237.591 331.236 238.161 331.359 238.706C331.482 239.251 331.794 239.734 332.241 240.069C332.646 240.376 333.142 240.541 333.65 240.539Z" fill="white"/>
<path d="M341.263 244.55C341.471 244.583 341.682 244.583 341.89 244.55C342.489 244.47 343.035 244.166 343.418 243.698C343.801 243.23 343.992 242.634 343.952 242.031C343.912 241.427 343.645 240.861 343.203 240.448C342.762 240.035 342.181 239.805 341.576 239.805C340.972 239.805 340.39 240.035 339.949 240.448C339.508 240.861 339.24 241.427 339.2 242.031C339.161 242.634 339.352 243.23 339.735 243.698C340.118 244.166 340.664 244.47 341.263 244.55Z" fill="white"/>
<path d="M334.966 200.057C335.336 199.775 335.613 199.39 335.764 198.949C335.915 198.509 335.931 198.034 335.812 197.584C335.693 197.134 335.443 196.73 335.094 196.423C334.745 196.115 334.312 195.918 333.852 195.857C333.391 195.795 332.922 195.872 332.505 196.077C332.087 196.282 331.74 196.607 331.507 197.01C331.274 197.412 331.166 197.875 331.196 198.34C331.226 198.804 331.394 199.249 331.676 199.618C331.894 199.902 332.174 200.132 332.494 200.29C332.815 200.448 333.168 200.529 333.525 200.528C334.042 200.526 334.546 200.361 334.966 200.057Z" fill="white"/>
<path d="M376.132 218.15C376.124 217.778 376.028 217.414 375.851 217.087C375.675 216.759 375.424 216.479 375.118 216.268C374.812 216.056 374.461 215.921 374.093 215.872C373.724 215.823 373.35 215.862 373 215.986C372.433 216.222 371.982 216.673 371.747 217.24C371.622 217.527 371.558 217.837 371.559 218.15C371.559 218.773 371.807 219.371 372.248 219.812C372.465 220.024 372.72 220.194 373 220.313C373.35 220.437 373.724 220.476 374.093 220.428C374.461 220.379 374.812 220.243 375.118 220.032C375.424 219.821 375.675 219.54 375.851 219.213C376.028 218.886 376.124 218.521 376.132 218.15Z" fill="white"/>
<defs>
<filter id="filter0_d_372_1738" x="0" y="0" width="711" height="368" filterUnits="userSpaceOnUse" color-interpolation-filters="sRGB">
<feFlood flood-opacity="0" result="BackgroundImageFix"/>
<feColorMatrix in="SourceAlpha" type="matrix" values="0 0 0 0 0 0 0 0 0 0 0 0 0 0 0 0 0 0 127 0" result="hardAlpha"/>
<feOffset dx="5" dy="5"/>
<feComposite in2="hardAlpha" operator="out"/>
<feColorMatrix type="matrix" values="0 0 0 0 0.356863 0 0 0 0 0.262745 0 0 0 0 0.956863 0 0 0 1 0"/>
<feBlend mode="normal" in2="BackgroundImageFix" result="effect1_dropShadow_372_1738"/>
<feBlend mode="normal" in="SourceGraphic" in2="effect1_dropShadow_372_1738" result="shape"/>
</filter>
</defs>
</svg>
