<svg width="1945" height="363" viewBox="0 0 1945 363" fill="none" xmlns="http://www.w3.org/2000/svg">
<mask id="path-1-outside-1_421_943" maskUnits="userSpaceOnUse" x="21" y="66" width="1907" height="232" fill="black">
<rect fill="white" x="21" y="66" width="1907" height="232"/>
<path d="M26.0234 290V74H111.242C127.625 74 141.582 77.1289 153.113 83.3867C164.645 89.5742 173.434 98.1875 179.48 109.227C185.598 120.195 188.656 132.852 188.656 147.195C188.656 161.539 185.563 174.195 179.375 185.164C173.188 196.133 164.223 204.676 152.48 210.793C140.809 216.91 126.676 219.969 110.082 219.969H55.7656V183.371H102.699C111.488 183.371 118.73 181.859 124.426 178.836C130.191 175.742 134.48 171.488 137.293 166.074C140.176 160.59 141.617 154.297 141.617 147.195C141.617 140.023 140.176 133.766 137.293 128.422C134.48 123.008 130.191 118.824 124.426 115.871C118.66 112.848 111.348 111.336 102.488 111.336H71.6914V290H26.0234ZM416.812 182C416.812 205.555 412.347 225.594 403.417 242.117C394.558 258.641 382.464 271.262 367.136 279.98C351.878 288.629 334.722 292.953 315.667 292.953C296.472 292.953 279.245 288.594 263.987 279.875C248.729 271.156 236.671 258.535 227.812 242.012C218.952 225.488 214.522 205.484 214.522 182C214.522 158.445 218.952 138.406 227.812 121.883C236.671 105.359 248.729 92.7734 263.987 84.125C279.245 75.4062 296.472 71.0469 315.667 71.0469C334.722 71.0469 351.878 75.4062 367.136 84.125C382.464 92.7734 394.558 105.359 403.417 121.883C412.347 138.406 416.812 158.445 416.812 182ZM370.511 182C370.511 166.742 368.226 153.875 363.655 143.398C359.155 132.922 352.792 124.977 344.565 119.563C336.339 114.148 326.706 111.441 315.667 111.441C304.628 111.441 294.995 114.148 286.769 119.563C278.542 124.977 272.144 132.922 267.573 143.398C263.073 153.875 260.823 166.742 260.823 182C260.823 197.258 263.073 210.125 267.573 220.602C272.144 231.078 278.542 239.023 286.769 244.437C294.995 249.852 304.628 252.559 315.667 252.559C326.706 252.559 336.339 249.852 344.565 244.437C352.792 239.023 359.155 231.078 363.655 220.602C368.226 210.125 370.511 197.258 370.511 182ZM450.641 290V74H535.859C552.172 74 566.094 76.918 577.625 82.7539C589.227 88.5195 598.051 96.7109 604.098 107.328C610.215 117.875 613.273 130.285 613.273 144.559C613.273 158.902 610.18 171.242 603.992 181.578C597.805 191.844 588.84 199.719 577.098 205.203C565.426 210.687 551.293 213.43 534.699 213.43H477.641V176.727H527.316C536.035 176.727 543.277 175.531 549.043 173.141C554.809 170.75 559.098 167.164 561.91 162.383C564.793 157.602 566.234 151.66 566.234 144.559C566.234 137.387 564.793 131.34 561.91 126.418C559.098 121.496 554.773 117.77 548.938 115.238C543.172 112.637 535.895 111.336 527.105 111.336H496.309V290H450.641ZM567.289 191.703L620.973 290H570.559L518.035 191.703H567.289ZM637.32 111.652V74H814.719V111.652H748.59V290H703.449V111.652H637.32ZM1032.56 182C1032.56 205.555 1028.1 225.594 1019.17 242.117C1010.31 258.641 998.217 271.262 982.889 279.98C967.631 288.629 950.475 292.953 931.42 292.953C912.225 292.953 894.998 288.594 879.74 279.875C864.482 271.156 852.424 258.535 843.564 242.012C834.705 225.488 830.275 205.484 830.275 182C830.275 158.445 834.705 138.406 843.564 121.883C852.424 105.359 864.482 92.7734 879.74 84.125C894.998 75.4062 912.225 71.0469 931.42 71.0469C950.475 71.0469 967.631 75.4062 982.889 84.125C998.217 92.7734 1010.31 105.359 1019.17 121.883C1028.1 138.406 1032.56 158.445 1032.56 182ZM986.264 182C986.264 166.742 983.979 153.875 979.408 143.398C974.908 132.922 968.545 124.977 960.318 119.563C952.092 114.148 942.459 111.441 931.42 111.441C920.381 111.441 910.748 114.148 902.521 119.563C894.295 124.977 887.896 132.922 883.326 143.398C878.826 153.875 876.576 166.742 876.576 182C876.576 197.258 878.826 210.125 883.326 220.602C887.896 231.078 894.295 239.023 902.521 244.437C910.748 249.852 920.381 252.559 931.42 252.559C942.459 252.559 952.092 249.852 960.318 244.437C968.545 239.023 974.908 231.078 979.408 220.602C983.979 210.125 986.264 197.258 986.264 182ZM1066.39 290V74H1209.41V111.652H1112.06V163.121H1199.92V200.773H1112.06V290H1066.39ZM1438.62 182C1438.62 205.555 1434.15 225.594 1425.22 242.117C1416.37 258.641 1404.27 271.262 1388.94 279.98C1373.69 288.629 1356.53 292.953 1337.47 292.953C1318.28 292.953 1301.05 288.594 1285.79 279.875C1270.54 271.156 1258.48 258.535 1249.62 242.012C1240.76 225.488 1236.33 205.484 1236.33 182C1236.33 158.445 1240.76 138.406 1249.62 121.883C1258.48 105.359 1270.54 92.7734 1285.79 84.125C1301.05 75.4062 1318.28 71.0469 1337.47 71.0469C1356.53 71.0469 1373.69 75.4062 1388.94 84.125C1404.27 92.7734 1416.37 105.359 1425.22 121.883C1434.15 138.406 1438.62 158.445 1438.62 182ZM1392.32 182C1392.32 166.742 1390.03 153.875 1385.46 143.398C1380.96 132.922 1374.6 124.977 1366.37 119.563C1358.15 114.148 1348.51 111.441 1337.47 111.441C1326.44 111.441 1316.8 114.148 1308.58 119.563C1300.35 124.977 1293.95 132.922 1289.38 143.398C1284.88 153.875 1282.63 166.742 1282.63 182C1282.63 197.258 1284.88 210.125 1289.38 220.602C1293.95 231.078 1300.35 239.023 1308.58 244.437C1316.8 249.852 1326.44 252.559 1337.47 252.559C1348.51 252.559 1358.15 249.852 1366.37 244.437C1374.6 239.023 1380.96 231.078 1385.46 220.602C1390.03 210.125 1392.32 197.258 1392.32 182ZM1472.45 290V74H1518.12V252.348H1610.72V290H1472.45ZM1686.63 74V290H1640.96V74H1686.63ZM1922.69 182C1922.69 205.555 1918.23 225.594 1909.3 242.117C1900.44 258.641 1888.35 271.262 1873.02 279.98C1857.76 288.629 1840.6 292.953 1821.55 292.953C1802.35 292.953 1785.13 288.594 1769.87 279.875C1754.61 271.156 1742.55 258.535 1733.69 242.012C1724.83 225.488 1720.41 205.484 1720.41 182C1720.41 158.445 1724.83 138.406 1733.69 121.883C1742.55 105.359 1754.61 92.7734 1769.87 84.125C1785.13 75.4062 1802.35 71.0469 1821.55 71.0469C1840.6 71.0469 1857.76 75.4062 1873.02 84.125C1888.35 92.7734 1900.44 105.359 1909.3 121.883C1918.23 138.406 1922.69 158.445 1922.69 182ZM1876.39 182C1876.39 166.742 1874.11 153.875 1869.54 143.398C1865.04 132.922 1858.67 124.977 1850.45 119.563C1842.22 114.148 1832.59 111.441 1821.55 111.441C1810.51 111.441 1800.88 114.148 1792.65 119.563C1784.42 124.977 1778.03 132.922 1773.46 143.398C1768.96 153.875 1766.71 166.742 1766.71 182C1766.71 197.258 1768.96 210.125 1773.46 220.602C1778.03 231.078 1784.42 239.023 1792.65 244.437C1800.88 249.852 1810.51 252.559 1821.55 252.559C1832.59 252.559 1842.22 249.852 1850.45 244.437C1858.67 239.023 1865.04 231.078 1869.54 220.602C1874.11 210.125 1876.39 197.258 1876.39 182Z"/>
</mask>
<path d="M26.0234 290H21.0234V295H26.0234V290ZM26.0234 74V69H21.0234V74H26.0234ZM153.113 83.3867L150.728 87.7813L150.739 87.7869L150.749 87.7925L153.113 83.3867ZM179.48 109.227L175.095 111.629L175.104 111.645L175.114 111.662L179.48 109.227ZM152.48 210.793L150.17 206.359L150.159 206.364L152.48 210.793ZM55.7656 219.969H50.7656V224.969H55.7656V219.969ZM55.7656 183.371V178.371H50.7656V183.371H55.7656ZM124.426 178.836L126.77 183.252L126.78 183.247L126.79 183.242L124.426 178.836ZM137.293 166.074L132.867 163.748L132.862 163.759L132.856 163.769L137.293 166.074ZM137.293 128.422L132.856 130.727L132.874 130.761L132.892 130.796L137.293 128.422ZM124.426 115.871L122.104 120.299L122.125 120.31L122.146 120.321L124.426 115.871ZM71.6914 111.336V106.336H66.6914V111.336H71.6914ZM71.6914 290V295H76.6914V290H71.6914ZM31.0234 290V74H21.0234V290H31.0234ZM26.0234 79H111.242V69H26.0234V79ZM111.242 79C126.996 79 140.09 82.0078 150.728 87.7813L155.498 78.9921C143.075 72.25 128.254 69 111.242 69V79ZM150.749 87.7925C161.463 93.5412 169.533 101.474 175.095 111.629L183.866 106.824C177.334 94.9009 167.826 85.6072 155.477 78.9809L150.749 87.7925ZM175.114 111.662C180.76 121.786 183.656 133.581 183.656 147.195H193.656C193.656 132.122 190.436 118.605 183.847 106.791L175.114 111.662ZM183.656 147.195C183.656 160.8 180.729 172.587 175.02 182.707L183.73 187.621C190.396 175.803 193.656 162.278 193.656 147.195H183.656ZM175.02 182.707C169.333 192.788 161.1 200.665 150.17 206.359L154.791 215.227C167.345 208.687 177.042 199.477 183.73 187.621L175.02 182.707ZM150.159 206.364C139.366 212.021 126.072 214.969 110.082 214.969V224.969C127.279 224.969 142.252 221.799 154.802 215.222L150.159 206.364ZM110.082 214.969H55.7656V224.969H110.082V214.969ZM60.7656 219.969V183.371H50.7656V219.969H60.7656ZM55.7656 188.371H102.699V178.371H55.7656V188.371ZM102.699 188.371C112.023 188.371 120.139 186.773 126.77 183.252L122.081 174.42C117.322 176.946 110.954 178.371 102.699 178.371V188.371ZM126.79 183.242C133.375 179.708 138.42 174.752 141.73 168.379L132.856 163.769C130.541 168.225 127.008 171.776 122.062 174.43L126.79 183.242ZM141.719 168.401C145.031 162.1 146.617 154.988 146.617 147.195H136.617C136.617 153.606 135.321 159.08 132.867 163.748L141.719 168.401ZM146.617 147.195C146.617 139.345 145.035 132.243 141.693 126.048L132.892 130.796C135.316 135.289 136.617 140.702 136.617 147.195H146.617ZM141.73 126.117C138.408 119.722 133.335 114.817 126.705 111.421L122.146 120.321C127.048 122.832 130.553 126.293 132.856 130.727L141.73 126.117ZM126.748 111.443C120.055 107.933 111.879 106.336 102.488 106.336V116.336C110.817 116.336 117.266 117.762 122.104 120.299L126.748 111.443ZM102.488 106.336H71.6914V116.336H102.488V106.336ZM66.6914 111.336V290H76.6914V111.336H66.6914ZM71.6914 285H26.0234V295H71.6914V285ZM403.417 242.117L399.018 239.74L399.014 239.747L399.01 239.755L403.417 242.117ZM367.136 279.98L369.601 284.33L369.608 284.327L367.136 279.98ZM263.987 279.875L266.468 275.534L263.987 279.875ZM227.812 242.012L223.405 244.374L223.405 244.374L227.812 242.012ZM227.812 121.883L232.218 124.245L232.218 124.245L227.812 121.883ZM263.987 84.125L266.453 88.4748L266.46 88.4705L266.468 88.4662L263.987 84.125ZM367.136 84.125L364.655 88.4662L364.667 88.473L364.679 88.4797L367.136 84.125ZM403.417 121.883L399.01 124.245L399.014 124.253L399.018 124.26L403.417 121.883ZM363.655 143.398L359.061 145.372L359.067 145.385L359.072 145.398L363.655 143.398ZM344.565 119.563L341.817 123.739L341.817 123.739L344.565 119.563ZM286.769 119.563L289.517 123.739L289.517 123.739L286.769 119.563ZM267.573 143.398L262.99 141.399L262.985 141.412L262.979 141.425L267.573 143.398ZM267.573 220.602L262.979 222.575L262.985 222.588L262.99 222.601L267.573 220.602ZM286.769 244.437L289.517 240.261L289.517 240.261L286.769 244.437ZM344.565 244.437L341.817 240.261L341.817 240.261L344.565 244.437ZM363.655 220.602L359.072 218.602L359.067 218.615L359.061 218.628L363.655 220.602ZM411.812 182C411.812 204.932 407.465 224.109 399.018 239.74L407.816 244.494C417.228 227.078 421.812 206.178 421.812 182H411.812ZM399.01 239.755C390.567 255.503 379.121 267.411 364.664 275.634L369.608 284.327C385.807 275.112 398.548 261.779 407.824 244.48L399.01 239.755ZM364.67 275.631C350.228 283.817 333.934 287.953 315.667 287.953V297.953C335.509 297.953 353.527 293.441 369.601 284.33L364.67 275.631ZM315.667 287.953C297.259 287.953 280.902 283.782 266.468 275.534L261.507 284.216C277.589 293.406 295.684 297.953 315.667 297.953V287.953ZM266.468 275.534C252.08 267.312 240.665 255.403 232.218 239.649L223.405 244.374C232.677 261.667 245.379 275 261.507 284.216L266.468 275.534ZM232.218 239.649C223.835 224.013 219.522 204.864 219.522 182H209.522C209.522 206.104 214.07 226.963 223.405 244.374L232.218 239.649ZM219.522 182C219.522 159.063 223.836 139.879 232.218 124.245L223.405 119.52C214.069 136.933 209.522 157.828 209.522 182H219.522ZM232.218 124.245C240.663 108.494 252.074 96.625 266.453 88.4748L261.522 79.7752C245.385 88.9218 232.679 102.224 223.405 119.52L232.218 124.245ZM266.468 88.4662C280.902 80.2184 297.259 76.0469 315.667 76.0469V66.0469C295.684 66.0469 277.589 70.5941 261.507 79.7838L266.468 88.4662ZM315.667 76.0469C333.927 76.0469 350.216 80.2152 364.655 88.4662L369.616 79.7838C353.54 70.5973 335.516 66.0469 315.667 66.0469V76.0469ZM364.679 88.4797C379.127 96.6315 390.568 108.5 399.01 124.245L407.824 119.52C398.547 102.218 385.801 88.9153 369.593 79.7703L364.679 88.4797ZM399.018 124.26C407.465 139.891 411.812 159.068 411.812 182H421.812C421.812 157.822 417.228 136.922 407.816 119.506L399.018 124.26ZM375.511 182C375.511 166.272 373.159 152.68 368.238 141.399L359.072 145.398C363.292 155.07 365.511 167.212 365.511 182H375.511ZM368.249 141.425C363.426 130.195 356.481 121.419 347.314 115.386L341.817 123.739C349.103 128.534 354.885 135.649 359.061 145.372L368.249 141.425ZM347.314 115.386C338.175 109.371 327.561 106.441 315.667 106.441V116.441C325.851 116.441 334.503 118.926 341.817 123.739L347.314 115.386ZM315.667 106.441C303.773 106.441 293.159 109.371 284.02 115.386L289.517 123.739C296.831 118.926 305.483 116.441 315.667 116.441V106.441ZM284.02 115.386C274.86 121.414 267.884 130.18 262.99 141.399L272.156 145.398C276.403 135.663 282.224 128.539 289.517 123.739L284.02 115.386ZM262.979 141.425C258.137 152.698 255.823 166.281 255.823 182H265.823C265.823 167.204 268.009 155.052 272.167 145.372L262.979 141.425ZM255.823 182C255.823 197.719 258.137 211.302 262.979 222.575L272.167 218.628C268.009 208.948 265.823 196.796 265.823 182H255.823ZM262.99 222.601C267.884 233.82 274.86 242.586 284.02 248.614L289.517 240.261C282.224 235.461 276.403 228.337 272.156 218.602L262.99 222.601ZM284.02 248.614C293.159 254.629 303.773 257.559 315.667 257.559V247.559C305.483 247.559 296.831 245.074 289.517 240.261L284.02 248.614ZM315.667 257.559C327.561 257.559 338.175 254.629 347.314 248.614L341.817 240.261C334.503 245.074 325.851 247.559 315.667 247.559V257.559ZM347.314 248.614C356.481 242.581 363.426 233.805 368.249 222.575L359.061 218.628C354.885 228.351 349.103 235.466 341.817 240.261L347.314 248.614ZM368.238 222.601C373.159 211.32 375.511 197.728 375.511 182H365.511C365.511 196.788 363.292 208.93 359.072 218.602L368.238 222.601ZM450.641 290H445.641V295H450.641V290ZM450.641 74V69H445.641V74H450.641ZM577.625 82.7539L575.367 87.2151L575.383 87.2233L575.4 87.2315L577.625 82.7539ZM604.098 107.328L599.753 109.803L599.763 109.82L599.773 109.837L604.098 107.328ZM603.992 181.578L608.274 184.159L608.278 184.153L608.282 184.146L603.992 181.578ZM577.098 205.203L574.982 200.673L574.971 200.678L577.098 205.203ZM477.641 213.43H472.641V218.43H477.641V213.43ZM477.641 176.727V171.727H472.641V176.727H477.641ZM549.043 173.141L550.958 177.759L550.958 177.759L549.043 173.141ZM561.91 162.383L557.628 159.801L557.614 159.824L557.6 159.848L561.91 162.383ZM561.91 126.418L557.569 128.899L557.582 128.922L557.596 128.945L561.91 126.418ZM548.938 115.238L546.881 119.796L546.914 119.811L546.948 119.825L548.938 115.238ZM496.309 111.336V106.336H491.309V111.336H496.309ZM496.309 290V295H501.309V290H496.309ZM567.289 191.703L571.677 189.307L570.255 186.703H567.289V191.703ZM620.973 290V295H629.4L625.361 287.603L620.973 290ZM570.559 290L566.149 292.356L567.561 295H570.559V290ZM518.035 191.703V186.703H509.694L513.625 194.06L518.035 191.703ZM455.641 290V74H445.641V290H455.641ZM450.641 79H535.859V69H450.641V79ZM535.859 79C551.588 79 564.695 81.814 575.367 87.2151L579.883 78.2927C567.492 72.0219 552.756 69 535.859 69V79ZM575.4 87.2315C586.168 92.5829 594.228 100.102 599.753 109.803L608.442 104.854C601.873 93.3197 592.285 84.4561 579.85 78.2764L575.4 87.2315ZM599.773 109.837C605.377 119.5 608.273 131.014 608.273 144.559H618.273C618.273 129.556 615.052 116.25 608.423 104.82L599.773 109.837ZM608.273 144.559C608.273 158.171 605.343 169.587 599.702 179.01L608.282 184.146C615.016 172.898 618.273 159.633 618.273 144.559H608.273ZM599.71 178.997C594.077 188.343 585.901 195.573 574.982 200.673L579.214 209.733C591.779 203.865 601.532 195.345 608.274 184.159L599.71 178.997ZM574.971 200.678C564.127 205.773 550.761 208.43 534.699 208.43V218.43C551.825 218.43 566.725 215.602 579.224 209.728L574.971 200.678ZM534.699 208.43H477.641V218.43H534.699V208.43ZM482.641 213.43V176.727H472.641V213.43H482.641ZM477.641 181.727H527.316V171.727H477.641V181.727ZM527.316 181.727C536.45 181.727 544.396 180.48 550.958 177.759L547.128 168.522C542.159 170.582 535.62 171.727 527.316 171.727V181.727ZM550.958 177.759C557.595 175.007 562.788 170.751 566.22 164.918L557.6 159.848C555.407 163.577 552.022 166.493 547.128 168.522L550.958 177.759ZM566.192 164.965C569.656 159.219 571.234 152.326 571.234 144.559H561.234C561.234 150.994 559.929 155.984 557.628 159.801L566.192 164.965ZM571.234 144.559C571.234 136.724 569.658 129.753 566.225 123.891L557.596 128.945C559.928 132.927 561.234 138.049 561.234 144.559H571.234ZM566.251 123.937C562.838 117.964 557.627 113.557 550.927 110.651L546.948 119.825C551.92 121.982 555.357 125.028 557.569 128.899L566.251 123.937ZM550.994 110.681C544.382 107.697 536.345 106.336 527.105 106.336V116.336C535.444 116.336 541.962 117.576 546.881 119.796L550.994 110.681ZM527.105 106.336H496.309V116.336H527.105V106.336ZM491.309 111.336V290H501.309V111.336H491.309ZM496.309 285H450.641V295H496.309V285ZM562.901 194.1L616.584 292.397L625.361 287.603L571.677 189.307L562.901 194.1ZM620.973 285H570.559V295H620.973V285ZM574.969 287.644L522.445 189.347L513.625 194.06L566.149 292.356L574.969 287.644ZM518.035 196.703H567.289V186.703H518.035V196.703ZM637.32 111.652H632.32V116.652H637.32V111.652ZM637.32 74V69H632.32V74H637.32ZM814.719 74H819.719V69H814.719V74ZM814.719 111.652V116.652H819.719V111.652H814.719ZM748.59 111.652V106.652H743.59V111.652H748.59ZM748.59 290V295H753.59V290H748.59ZM703.449 290H698.449V295H703.449V290ZM703.449 111.652H708.449V106.652H703.449V111.652ZM642.32 111.652V74H632.32V111.652H642.32ZM637.32 79H814.719V69H637.32V79ZM809.719 74V111.652H819.719V74H809.719ZM814.719 106.652H748.59V116.652H814.719V106.652ZM743.59 111.652V290H753.59V111.652H743.59ZM748.59 285H703.449V295H748.59V285ZM708.449 290V111.652H698.449V290H708.449ZM703.449 106.652H637.32V116.652H703.449V106.652ZM1019.17 242.117L1014.77 239.74L1014.77 239.747L1014.76 239.755L1019.17 242.117ZM982.889 279.98L985.354 284.33L985.361 284.327L982.889 279.98ZM879.74 279.875L882.221 275.534L879.74 279.875ZM843.564 242.012L839.158 244.374L839.158 244.374L843.564 242.012ZM843.564 121.883L847.971 124.245L847.971 124.245L843.564 121.883ZM879.74 84.125L882.206 88.4748L882.213 88.4705L882.221 88.4662L879.74 84.125ZM982.889 84.125L980.408 88.4662L980.42 88.473L980.432 88.4797L982.889 84.125ZM1019.17 121.883L1014.76 124.245L1014.77 124.253L1014.77 124.26L1019.17 121.883ZM979.408 143.398L974.814 145.372L974.82 145.385L974.825 145.398L979.408 143.398ZM960.318 119.563L957.57 123.739L957.57 123.739L960.318 119.563ZM902.521 119.563L905.27 123.739L905.27 123.739L902.521 119.563ZM883.326 143.398L878.743 141.399L878.738 141.412L878.732 141.425L883.326 143.398ZM883.326 220.602L878.732 222.575L878.738 222.588L878.743 222.601L883.326 220.602ZM902.521 244.437L905.27 240.261L905.27 240.261L902.521 244.437ZM960.318 244.437L957.57 240.261L957.57 240.261L960.318 244.437ZM979.408 220.602L974.825 218.602L974.82 218.615L974.814 218.628L979.408 220.602ZM1027.56 182C1027.56 204.932 1023.22 224.109 1014.77 239.74L1023.57 244.494C1032.98 227.078 1037.56 206.178 1037.56 182H1027.56ZM1014.76 239.755C1006.32 255.503 994.873 267.411 980.417 275.634L985.361 284.327C1001.56 275.112 1014.3 261.779 1023.58 244.48L1014.76 239.755ZM980.423 275.631C965.981 283.817 949.687 287.953 931.42 287.953V297.953C951.262 297.953 969.28 293.441 985.354 284.33L980.423 275.631ZM931.42 287.953C913.012 287.953 896.655 283.782 882.221 275.534L877.26 284.216C893.341 293.406 911.437 297.953 931.42 297.953V287.953ZM882.221 275.534C867.833 267.312 856.418 255.403 847.971 239.649L839.158 244.374C848.43 261.667 861.132 275 877.26 284.216L882.221 275.534ZM847.971 239.649C839.588 224.013 835.275 204.864 835.275 182H825.275C825.275 206.104 829.823 226.963 839.158 244.374L847.971 239.649ZM835.275 182C835.275 159.063 839.589 139.879 847.971 124.245L839.158 119.52C829.822 136.933 825.275 157.828 825.275 182H835.275ZM847.971 124.245C856.416 108.494 867.827 96.625 882.206 88.4748L877.275 79.7752C861.138 88.9218 848.431 102.224 839.158 119.52L847.971 124.245ZM882.221 88.4662C896.655 80.2184 913.012 76.0469 931.42 76.0469V66.0469C911.437 66.0469 893.341 70.5941 877.26 79.7838L882.221 88.4662ZM931.42 76.0469C949.68 76.0469 965.969 80.2152 980.408 88.4662L985.369 79.7838C969.293 70.5973 951.269 66.0469 931.42 66.0469V76.0469ZM980.432 88.4797C994.88 96.6315 1006.32 108.5 1014.76 124.245L1023.58 119.52C1014.3 102.218 1001.55 88.9153 985.346 79.7703L980.432 88.4797ZM1014.77 124.26C1023.22 139.891 1027.56 159.068 1027.56 182H1037.56C1037.56 157.822 1032.98 136.922 1023.57 119.506L1014.77 124.26ZM991.264 182C991.264 166.272 988.912 152.68 983.991 141.399L974.825 145.398C979.045 155.07 981.264 167.212 981.264 182H991.264ZM984.002 141.425C979.179 130.195 972.234 121.419 963.067 115.386L957.57 123.739C964.856 128.534 970.638 135.649 974.814 145.372L984.002 141.425ZM963.067 115.386C953.928 109.371 943.314 106.441 931.42 106.441V116.441C941.604 116.441 950.256 118.926 957.57 123.739L963.067 115.386ZM931.42 106.441C919.526 106.441 908.912 109.371 899.773 115.386L905.27 123.739C912.584 118.926 921.236 116.441 931.42 116.441V106.441ZM899.773 115.386C890.613 121.414 883.637 130.18 878.743 141.399L887.909 145.398C892.156 135.663 897.977 128.539 905.27 123.739L899.773 115.386ZM878.732 141.425C873.89 152.698 871.576 166.281 871.576 182H881.576C881.576 167.204 883.762 155.052 887.92 145.372L878.732 141.425ZM871.576 182C871.576 197.719 873.89 211.302 878.732 222.575L887.92 218.628C883.762 208.948 881.576 196.796 881.576 182H871.576ZM878.743 222.601C883.637 233.82 890.613 242.586 899.773 248.614L905.27 240.261C897.977 235.461 892.156 228.337 887.909 218.602L878.743 222.601ZM899.773 248.614C908.912 254.629 919.526 257.559 931.42 257.559V247.559C921.236 247.559 912.584 245.074 905.27 240.261L899.773 248.614ZM931.42 257.559C943.314 257.559 953.928 254.629 963.067 248.614L957.57 240.261C950.256 245.074 941.604 247.559 931.42 247.559V257.559ZM963.067 248.614C972.234 242.581 979.179 233.805 984.002 222.575L974.814 218.628C970.638 228.351 964.856 235.466 957.57 240.261L963.067 248.614ZM983.991 222.601C988.912 211.32 991.264 197.728 991.264 182H981.264C981.264 196.788 979.045 208.93 974.825 218.602L983.991 222.601ZM1066.39 290H1061.39V295H1066.39V290ZM1066.39 74V69H1061.39V74H1066.39ZM1209.41 74H1214.41V69H1209.41V74ZM1209.41 111.652V116.652H1214.41V111.652H1209.41ZM1112.06 111.652V106.652H1107.06V111.652H1112.06ZM1112.06 163.121H1107.06V168.121H1112.06V163.121ZM1199.92 163.121H1204.92V158.121H1199.92V163.121ZM1199.92 200.773V205.773H1204.92V200.773H1199.92ZM1112.06 200.773V195.773H1107.06V200.773H1112.06ZM1112.06 290V295H1117.06V290H1112.06ZM1071.39 290V74H1061.39V290H1071.39ZM1066.39 79H1209.41V69H1066.39V79ZM1204.41 74V111.652H1214.41V74H1204.41ZM1209.41 106.652H1112.06V116.652H1209.41V106.652ZM1107.06 111.652V163.121H1117.06V111.652H1107.06ZM1112.06 168.121H1199.92V158.121H1112.06V168.121ZM1194.92 163.121V200.773H1204.92V163.121H1194.92ZM1199.92 195.773H1112.06V205.773H1199.92V195.773ZM1107.06 200.773V290H1117.06V200.773H1107.06ZM1112.06 285H1066.39V295H1112.06V285ZM1425.22 242.117L1420.83 239.74L1420.82 239.747L1420.82 239.755L1425.22 242.117ZM1388.94 279.98L1391.41 284.33L1391.42 284.327L1388.94 279.98ZM1285.79 279.875L1288.28 275.534L1285.79 279.875ZM1249.62 242.012L1245.21 244.374L1245.21 244.374L1249.62 242.012ZM1249.62 121.883L1254.03 124.245L1254.03 124.245L1249.62 121.883ZM1285.79 84.125L1288.26 88.4748L1288.27 88.4705L1288.28 88.4662L1285.79 84.125ZM1388.94 84.125L1386.46 88.4662L1386.47 88.473L1386.49 88.4797L1388.94 84.125ZM1425.22 121.883L1420.82 124.245L1420.82 124.253L1420.83 124.26L1425.22 121.883ZM1385.46 143.398L1380.87 145.372L1380.87 145.385L1380.88 145.398L1385.46 143.398ZM1366.37 119.563L1363.62 123.739L1363.62 123.739L1366.37 119.563ZM1308.58 119.563L1311.32 123.739L1311.32 123.739L1308.58 119.563ZM1289.38 143.398L1284.8 141.399L1284.79 141.412L1284.79 141.425L1289.38 143.398ZM1289.38 220.602L1284.79 222.575L1284.79 222.588L1284.8 222.601L1289.38 220.602ZM1308.58 244.437L1311.32 240.261L1311.32 240.261L1308.58 244.437ZM1366.37 244.437L1363.62 240.261L1363.62 240.261L1366.37 244.437ZM1385.46 220.602L1380.88 218.602L1380.87 218.615L1380.87 218.628L1385.46 220.602ZM1433.62 182C1433.62 204.932 1429.27 224.109 1420.83 239.74L1429.62 244.494C1439.04 227.078 1443.62 206.178 1443.62 182H1433.62ZM1420.82 239.755C1412.37 255.503 1400.93 267.411 1386.47 275.634L1391.42 284.327C1407.61 275.112 1420.36 261.779 1429.63 244.48L1420.82 239.755ZM1386.48 275.631C1372.04 283.817 1355.74 287.953 1337.47 287.953V297.953C1357.32 297.953 1375.34 293.441 1391.41 284.33L1386.48 275.631ZM1337.47 287.953C1319.07 287.953 1302.71 283.782 1288.28 275.534L1283.31 284.216C1299.4 293.406 1317.49 297.953 1337.47 297.953V287.953ZM1288.28 275.534C1273.89 267.312 1262.47 255.403 1254.03 239.649L1245.21 244.374C1254.48 261.667 1267.19 275 1283.31 284.216L1288.28 275.534ZM1254.03 239.649C1245.64 224.013 1241.33 204.864 1241.33 182H1231.33C1231.33 206.104 1235.88 226.963 1245.21 244.374L1254.03 239.649ZM1241.33 182C1241.33 159.063 1245.64 139.879 1254.03 124.245L1245.21 119.52C1235.88 136.933 1231.33 157.828 1231.33 182H1241.33ZM1254.03 124.245C1262.47 108.494 1273.88 96.625 1288.26 88.4748L1283.33 79.7752C1267.19 88.9218 1254.49 102.224 1245.21 119.52L1254.03 124.245ZM1288.28 88.4662C1302.71 80.2184 1319.07 76.0469 1337.47 76.0469V66.0469C1317.49 66.0469 1299.4 70.5941 1283.31 79.7838L1288.28 88.4662ZM1337.47 76.0469C1355.73 76.0469 1372.02 80.2152 1386.46 88.4662L1391.42 79.7838C1375.35 70.5973 1357.32 66.0469 1337.47 66.0469V76.0469ZM1386.49 88.4797C1400.93 96.6315 1412.38 108.5 1420.82 124.245L1429.63 119.52C1420.35 102.218 1407.61 88.9153 1391.4 79.7703L1386.49 88.4797ZM1420.83 124.26C1429.27 139.891 1433.62 159.068 1433.62 182H1443.62C1443.62 157.822 1439.04 136.922 1429.62 119.506L1420.83 124.26ZM1397.32 182C1397.32 166.272 1394.97 152.68 1390.05 141.399L1380.88 145.398C1385.1 155.07 1387.32 167.212 1387.32 182H1397.32ZM1390.06 141.425C1385.23 130.195 1378.29 121.419 1369.12 115.386L1363.62 123.739C1370.91 128.534 1376.69 135.649 1380.87 145.372L1390.06 141.425ZM1369.12 115.386C1359.98 109.371 1349.37 106.441 1337.47 106.441V116.441C1347.66 116.441 1356.31 118.926 1363.62 123.739L1369.12 115.386ZM1337.47 106.441C1325.58 106.441 1314.97 109.371 1305.83 115.386L1311.32 123.739C1318.64 118.926 1327.29 116.441 1337.47 116.441V106.441ZM1305.83 115.386C1296.67 121.414 1289.69 130.18 1284.8 141.399L1293.96 145.398C1298.21 135.663 1304.03 128.539 1311.32 123.739L1305.83 115.386ZM1284.79 141.425C1279.94 152.698 1277.63 166.281 1277.63 182H1287.63C1287.63 167.204 1289.82 155.052 1293.97 145.372L1284.79 141.425ZM1277.63 182C1277.63 197.719 1279.94 211.302 1284.79 222.575L1293.97 218.628C1289.82 208.948 1287.63 196.796 1287.63 182H1277.63ZM1284.8 222.601C1289.69 233.82 1296.67 242.586 1305.83 248.614L1311.32 240.261C1304.03 235.461 1298.21 228.337 1293.96 218.602L1284.8 222.601ZM1305.83 248.614C1314.97 254.629 1325.58 257.559 1337.47 257.559V247.559C1327.29 247.559 1318.64 245.074 1311.32 240.261L1305.83 248.614ZM1337.47 257.559C1349.37 257.559 1359.98 254.629 1369.12 248.614L1363.62 240.261C1356.31 245.074 1347.66 247.559 1337.47 247.559V257.559ZM1369.12 248.614C1378.29 242.581 1385.23 233.805 1390.06 222.575L1380.87 218.628C1376.69 228.351 1370.91 235.466 1363.62 240.261L1369.12 248.614ZM1390.05 222.601C1394.97 211.32 1397.32 197.728 1397.32 182H1387.32C1387.32 196.788 1385.1 208.93 1380.88 218.602L1390.05 222.601ZM1472.45 290H1467.45V295H1472.45V290ZM1472.45 74V69H1467.45V74H1472.45ZM1518.12 74H1523.12V69H1518.12V74ZM1518.12 252.348H1513.12V257.348H1518.12V252.348ZM1610.72 252.348H1615.72V247.348H1610.72V252.348ZM1610.72 290V295H1615.72V290H1610.72ZM1477.45 290V74H1467.45V290H1477.45ZM1472.45 79H1518.12V69H1472.45V79ZM1513.12 74V252.348H1523.12V74H1513.12ZM1518.12 257.348H1610.72V247.348H1518.12V257.348ZM1605.72 252.348V290H1615.72V252.348H1605.72ZM1610.72 285H1472.45V295H1610.72V285ZM1686.63 74H1691.63V69H1686.63V74ZM1686.63 290V295H1691.63V290H1686.63ZM1640.96 290H1635.96V295H1640.96V290ZM1640.96 74V69H1635.96V74H1640.96ZM1681.63 74V290H1691.63V74H1681.63ZM1686.63 285H1640.96V295H1686.63V285ZM1645.96 290V74H1635.96V290H1645.96ZM1640.96 79H1686.63V69H1640.96V79ZM1909.3 242.117L1904.9 239.74L1904.9 239.747L1904.89 239.755L1909.3 242.117ZM1873.02 279.98L1875.48 284.33L1875.49 284.327L1873.02 279.98ZM1769.87 279.875L1772.35 275.534L1769.87 279.875ZM1733.69 242.012L1729.29 244.374L1729.29 244.374L1733.69 242.012ZM1733.69 121.883L1738.1 124.245L1738.1 124.245L1733.69 121.883ZM1769.87 84.125L1772.34 88.4748L1772.34 88.4705L1772.35 88.4662L1769.87 84.125ZM1873.02 84.125L1870.54 88.4662L1870.55 88.473L1870.56 88.4797L1873.02 84.125ZM1909.3 121.883L1904.89 124.245L1904.9 124.253L1904.9 124.26L1909.3 121.883ZM1869.54 143.398L1864.94 145.372L1864.95 145.385L1864.96 145.398L1869.54 143.398ZM1850.45 119.563L1847.7 123.739L1847.7 123.739L1850.45 119.563ZM1792.65 119.563L1795.4 123.739L1795.4 123.739L1792.65 119.563ZM1773.46 143.398L1768.87 141.399L1768.87 141.412L1768.86 141.425L1773.46 143.398ZM1773.46 220.602L1768.86 222.575L1768.87 222.588L1768.87 222.601L1773.46 220.602ZM1792.65 244.437L1795.4 240.261L1795.4 240.261L1792.65 244.437ZM1850.45 244.437L1847.7 240.261L1847.7 240.261L1850.45 244.437ZM1869.54 220.602L1864.96 218.602L1864.95 218.615L1864.94 218.628L1869.54 220.602ZM1917.69 182C1917.69 204.932 1913.35 224.109 1904.9 239.74L1913.7 244.494C1923.11 227.078 1927.69 206.178 1927.69 182H1917.69ZM1904.89 239.755C1896.45 255.503 1885 267.411 1870.55 275.634L1875.49 284.327C1891.69 275.112 1904.43 261.779 1913.71 244.48L1904.89 239.755ZM1870.55 275.631C1856.11 283.817 1839.82 287.953 1821.55 287.953V297.953C1841.39 297.953 1859.41 293.441 1875.48 284.33L1870.55 275.631ZM1821.55 287.953C1803.14 287.953 1786.78 283.782 1772.35 275.534L1767.39 284.216C1783.47 293.406 1801.57 297.953 1821.55 297.953V287.953ZM1772.35 275.534C1757.96 267.312 1746.55 255.403 1738.1 239.649L1729.29 244.374C1738.56 261.667 1751.26 275 1767.39 284.216L1772.35 275.534ZM1738.1 239.649C1729.72 224.013 1725.41 204.864 1725.41 182H1715.41C1715.41 206.104 1719.95 226.963 1729.29 244.374L1738.1 239.649ZM1725.41 182C1725.41 159.063 1729.72 139.879 1738.1 124.245L1729.29 119.52C1719.95 136.933 1715.41 157.828 1715.41 182H1725.41ZM1738.1 124.245C1746.55 108.494 1757.96 96.625 1772.34 88.4748L1767.4 79.7752C1751.27 88.9218 1738.56 102.224 1729.29 119.52L1738.1 124.245ZM1772.35 88.4662C1786.78 80.2184 1803.14 76.0469 1821.55 76.0469V66.0469C1801.57 66.0469 1783.47 70.5941 1767.39 79.7838L1772.35 88.4662ZM1821.55 76.0469C1839.81 76.0469 1856.1 80.2152 1870.54 88.4662L1875.5 79.7838C1859.42 70.5973 1841.4 66.0469 1821.55 66.0469V76.0469ZM1870.56 88.4797C1885.01 96.6315 1896.45 108.5 1904.89 124.245L1913.71 119.52C1904.43 102.218 1891.68 88.9153 1875.48 79.7703L1870.56 88.4797ZM1904.9 124.26C1913.35 139.891 1917.69 159.068 1917.69 182H1927.69C1927.69 157.822 1923.11 136.922 1913.7 119.506L1904.9 124.26ZM1881.39 182C1881.39 166.272 1879.04 152.68 1874.12 141.399L1864.96 145.398C1869.17 155.07 1871.39 167.212 1871.39 182H1881.39ZM1874.13 141.425C1869.31 130.195 1862.36 121.419 1853.2 115.386L1847.7 123.739C1854.99 128.534 1860.77 135.649 1864.94 145.372L1874.13 141.425ZM1853.2 115.386C1844.06 109.371 1833.44 106.441 1821.55 106.441V116.441C1831.73 116.441 1840.39 118.926 1847.7 123.739L1853.2 115.386ZM1821.55 106.441C1809.66 106.441 1799.04 109.371 1789.9 115.386L1795.4 123.739C1802.71 118.926 1811.37 116.441 1821.55 116.441V106.441ZM1789.9 115.386C1780.74 121.414 1773.77 130.18 1768.87 141.399L1778.04 145.398C1782.29 135.663 1788.11 128.539 1795.4 123.739L1789.9 115.386ZM1768.86 141.425C1764.02 152.698 1761.71 166.281 1761.71 182H1771.71C1771.71 167.204 1773.89 155.052 1778.05 145.372L1768.86 141.425ZM1761.71 182C1761.71 197.719 1764.02 211.302 1768.86 222.575L1778.05 218.628C1773.89 208.948 1771.71 196.796 1771.71 182H1761.71ZM1768.87 222.601C1773.77 233.82 1780.74 242.586 1789.9 248.614L1795.4 240.261C1788.11 235.461 1782.29 228.337 1778.04 218.602L1768.87 222.601ZM1789.9 248.614C1799.04 254.629 1809.66 257.559 1821.55 257.559V247.559C1811.37 247.559 1802.71 245.074 1795.4 240.261L1789.9 248.614ZM1821.55 257.559C1833.44 257.559 1844.06 254.629 1853.2 248.614L1847.7 240.261C1840.39 245.074 1831.73 247.559 1821.55 247.559V257.559ZM1853.2 248.614C1862.36 242.581 1869.31 233.805 1874.13 222.575L1864.94 218.628C1860.77 228.351 1854.99 235.466 1847.7 240.261L1853.2 248.614ZM1874.12 222.601C1879.04 211.32 1881.39 197.728 1881.39 182H1871.39C1871.39 196.788 1869.17 208.93 1864.96 218.602L1874.12 222.601Z" fill="#444444" mask="url(#path-1-outside-1_421_943)"/>
</svg>
