<svg width="736" height="435" viewBox="0 0 736 435" fill="none" xmlns="http://www.w3.org/2000/svg">
<g clip-path="url(#clip0_248_1094)">
<path fill-rule="evenodd" clip-rule="evenodd" d="M398.97 235.965C402.592 231.652 407.252 228.518 412.281 226.437C414.787 225.357 417.444 224.659 420.14 224.16L422.177 223.851L424.174 223.675C424.84 223.601 425.504 223.608 426.168 223.573C426.833 223.543 427.498 223.525 428.158 223.539C438.798 223.586 448.724 226.381 458.378 228.182C477.556 231.933 497.632 230.548 516.313 224.698C534.962 218.753 552.172 208.195 565.556 193.814L566.829 192.487L568.041 191.102L570.46 188.329L572.75 185.449L573.894 184.008L574.975 182.518L577.128 179.532L579.146 176.455C580.535 174.428 581.688 172.258 582.96 170.159C585.287 165.843 587.535 161.466 589.322 156.893C590.312 154.645 591.052 152.303 591.904 150.002C592.299 148.841 592.628 147.66 592.994 146.49C593.351 145.316 593.728 144.148 594.002 142.953C595.366 137.543 597.088 137.86 595.819 143.414C595.567 144.638 595.211 145.835 594.875 147.039C594.529 148.238 594.221 149.452 593.844 150.642C593.035 153.007 592.331 155.412 591.38 157.728C589.666 162.435 587.486 166.957 585.214 171.428C583.972 173.605 582.842 175.853 581.476 177.963L579.49 181.166L577.366 184.28L576.296 185.836L575.161 187.343L572.887 190.357L570.479 193.269L569.271 194.722L568 196.122C554.637 211.257 537.086 222.713 517.837 229.34C498.575 235.885 477.537 237.78 457.331 234.121C447.325 232.366 437.68 229.828 428.193 229.87C423.42 229.863 418.95 230.556 414.73 232.337C410.53 234.068 406.682 236.705 403.866 240.048C401.181 243.297 399.903 246.079 398.952 248.067C398.43 249.059 398.105 249.863 397.705 250.419C397.311 250.975 396.903 251.285 396.507 251.296C396.11 251.307 395.725 251.015 395.376 250.366C395.035 249.716 394.667 248.702 394.652 247.324C394.634 246.955 394.626 246.586 394.627 246.216C394.628 245.823 394.709 245.426 394.766 244.996C394.835 244.545 394.912 244.096 394.998 243.648C395.086 243.173 395.272 242.717 395.429 242.219C396.036 240.215 397.269 238.093 398.97 235.965Z" fill="url(#paint0_linear_248_1094)"/>
<path fill-rule="evenodd" clip-rule="evenodd" d="M560.133 320.272C558.994 319.051 557.446 318.29 555.783 318.135C554.838 318.1 554.879 318.535 555.736 318.595C555.914 318.617 556.09 318.649 556.266 318.687C555.876 318.611 555.481 318.572 555.084 318.571H555.081C555.076 318.38 554.891 318.196 554.485 318.072C554.279 318.01 554.02 318 553.706 318C553.4 318.034 553.032 318.077 552.646 318.233C551.011 318.834 549.653 320.014 548.831 321.549C548.007 323.079 547.795 324.912 548.199 326.594C548.606 328.294 549.628 329.782 551.069 330.772C552.499 331.751 554.241 332.167 555.959 331.939C557.659 331.727 559.249 330.834 560.343 329.532C561.449 328.22 562.038 326.549 561.998 324.833C561.957 323.135 561.293 321.512 560.133 320.272Z" fill="white" fill-opacity="0.32"/>
<path fill-rule="evenodd" clip-rule="evenodd" d="M577.918 276.164C577.454 276.153 577.49 276.547 577.875 276.582C577.909 276.586 577.942 276.6 577.975 276.606C577.843 276.586 577.711 276.576 577.578 276.575C577.575 276.401 577.489 276.231 577.285 276.109C577.082 275.995 576.745 275.944 576.348 276.089C575.522 276.388 574.835 276.982 574.42 277.756C574.006 278.536 573.893 279.44 574.103 280.298C574.307 281.149 574.821 281.894 575.545 282.387C576.268 282.88 577.149 283.086 578.016 282.966C578.87 282.847 579.649 282.413 580.199 281.749C580.743 281.099 581.029 280.246 580.999 279.412C580.97 278.577 580.634 277.782 580.056 277.179C579.492 276.59 578.731 276.229 577.918 276.164Z" fill="white" fill-opacity="0.08"/>
<path fill-rule="evenodd" clip-rule="evenodd" d="M109 333.481L136.43 317L152.91 344.43L125.481 360.91L109 333.481Z" fill="#8148FF" fill-opacity="0.16"/>
<path fill-rule="evenodd" clip-rule="evenodd" d="M362.383 0L507.826 262.386L245.44 407.829L99.9969 145.443L362.383 0Z" fill="url(#paint1_linear_248_1094)"/>
<path fill-rule="evenodd" clip-rule="evenodd" d="M431.145 242.661C440.261 232.001 451.249 223.098 463.568 216.39C475.851 209.674 489.386 205.261 503.264 203.393C517.18 201.508 531.323 202.184 544.996 205.388C558.649 208.547 571.665 214.353 583.282 222.18C594.895 230.014 605.102 239.968 613.099 251.49C621.137 263.022 627.016 275.918 630.449 289.55C633.878 303.144 634.825 317.363 633.184 331.291C633.108 331.923 633.022 332.552 632.936 333.181C632.679 332.825 632.378 332.431 632.02 331.99C631.068 330.799 630.027 329.68 628.908 328.642C627.585 327.383 626.038 325.906 624.092 324.436C623.098 323.665 622.124 322.868 621.114 322.118L618.031 319.938L616.486 318.852L614.892 317.84L611.7 315.816C607.338 313.302 602.908 310.868 598.253 308.917C589.029 304.822 579.22 302.092 569.254 300.491C549.292 297.443 528.51 299.471 509.619 306.68C490.674 313.746 473.766 325.942 460.858 341.38C447.958 356.838 439.138 375.604 435.538 395.285C435.442 395.851 435.358 396.419 435.285 396.989C434.91 396.598 434.537 396.21 434.159 395.806C424.697 385.574 417.133 373.593 411.916 360.657C406.678 347.68 403.83 333.864 403.51 319.874C402.845 291.938 412.901 263.888 431.145 242.661ZM400.345 319.806C400.642 334.199 403.549 348.419 408.923 361.775C414.279 375.095 422.065 387.437 431.823 397.973C436.556 403.052 441.182 407.01 445.28 410.2C449.442 413.317 453.082 415.668 456.101 417.352C457.618 418.184 458.94 418.915 460.099 419.493C461.079 419.948 462.068 420.383 463.066 420.797C464.667 421.452 465.51 421.683 465.6 421.508C465.691 421.332 465.03 420.746 463.621 419.772C462.917 419.286 462.026 418.7 460.949 418.018L457.262 415.504C454.454 413.602 451.037 411.097 447.084 407.922C443.712 405.106 439.932 401.78 435.987 397.723C436.136 397.116 436.295 396.371 436.459 395.459C440.253 375.942 449.25 357.497 462.163 342.44C475.089 327.397 491.849 315.669 510.456 308.976C529.018 302.137 549.302 300.373 568.732 303.46C578.434 305.088 587.972 307.784 596.945 311.8C601.475 313.71 605.783 316.092 610.033 318.54L613.142 320.514L614.696 321.5L616.203 322.558L619.21 324.681C620.195 325.41 621.145 326.188 622.116 326.938C624.012 328.363 625.579 329.723 626.985 330.822L630.514 333.57C631.405 334.236 632.121 334.703 632.671 334.994C630.732 347.623 626.665 359.91 620.75 371.232C614.306 383.693 605.467 394.88 594.977 404.164C584.48 413.451 572.274 420.789 559.161 425.738C546.05 430.698 532.03 433.202 518.029 433.167C503.991 433.125 490.078 430.532 476.967 425.515C475.119 424.764 473.499 424.107 472.112 423.546C470.719 422.997 469.601 422.44 468.673 422.064C466.834 421.28 465.88 420.95 465.831 421.052C465.779 421.153 466.634 421.685 468.408 422.632C469.303 423.088 470.396 423.716 471.778 424.319C473.159 424.921 474.772 425.622 476.629 426.39C489.854 431.51 503.9 434.182 518.081 434.276C532.231 434.366 546.413 431.882 559.696 426.921C573.022 421.946 585.333 414.591 596.029 405.216C606.687 395.849 615.695 384.548 622.277 371.94C628.907 359.367 633.302 345.594 635.054 331.455C636.783 317.316 635.88 302.86 632.453 289.021C629.017 275.132 623.091 261.981 614.962 250.206C606.87 238.434 596.509 228.237 584.697 220.189C572.886 212.147 559.63 206.165 545.691 202.869C531.724 199.527 517.264 198.769 503.024 200.632C488.768 202.484 474.973 206.936 462.323 213.766C449.661 220.591 438.354 229.676 428.962 240.571C410.173 262.288 399.712 291.055 400.345 319.806Z" fill="url(#paint2_linear_248_1094)"/>
<path fill-rule="evenodd" clip-rule="evenodd" d="M579.575 284.286L552.039 263.536L572.789 236L600.325 256.75L579.575 284.286Z" fill="#8148FF" fill-opacity="0.72"/>
<path fill-rule="evenodd" clip-rule="evenodd" d="M579.538 284.453L552.002 263.703L600.288 256.919L579.538 284.453Z" fill="url(#paint3_linear_248_1094)"/>
</g>
<defs>
<linearGradient id="paint0_linear_248_1094" x1="596.047" y1="139" x2="2171.25" y2="5701.82" gradientUnits="userSpaceOnUse">
<stop stop-color="#8148FF"/>
<stop offset="1" stop-color="white" stop-opacity="0"/>
</linearGradient>
<linearGradient id="paint1_linear_248_1094" x1="-22849.7" y1="18199.8" x2="7624.2" y2="19495.3" gradientUnits="userSpaceOnUse">
<stop stop-color="#0270D7"/>
<stop offset="1" stop-color="white" stop-opacity="0"/>
</linearGradient>
<linearGradient id="paint2_linear_248_1094" x1="-9911.6" y1="-4865.15" x2="762.535" y2="-25814.3" gradientUnits="userSpaceOnUse">
<stop stop-color="white" stop-opacity="0.32"/>
<stop offset="1" stop-color="#0270D7" stop-opacity="0"/>
</linearGradient>
<linearGradient id="paint3_linear_248_1094" x1="-1882.48" y1="-1570.82" x2="1721.14" y2="-1230.75" gradientUnits="userSpaceOnUse">
<stop stop-color="white" stop-opacity="0"/>
<stop offset="1" stop-color="white" stop-opacity="0.64"/>
</linearGradient>
<clipPath id="clip0_248_1094">
<rect width="736" height="435" fill="white"/>
</clipPath>
</defs>
</svg>
