<svg width="1474" height="363" viewBox="0 0 1474 363" fill="none" xmlns="http://www.w3.org/2000/svg">
<mask id="path-1-outside-1_326_954" maskUnits="userSpaceOnUse" x="8" y="66" width="1458" height="233" fill="black">
<rect fill="white" x="8" y="66" width="1458" height="233"/>
<path d="M137.555 136.121C136.711 127.613 133.09 121.004 126.692 116.293C120.293 111.582 111.61 109.227 100.641 109.227C93.188 109.227 86.895 110.281 81.7622 112.391C76.6294 114.43 72.6919 117.277 69.9497 120.934C67.2778 124.59 65.9419 128.738 65.9419 133.379C65.8013 137.246 66.6099 140.621 68.3677 143.504C70.1958 146.387 72.6919 148.883 75.856 150.992C79.02 153.031 82.6763 154.824 86.8247 156.371C90.9731 157.848 95.4028 159.113 100.114 160.168L119.52 164.809C128.942 166.918 137.59 169.73 145.465 173.246C153.34 176.762 160.161 181.086 165.926 186.219C171.692 191.352 176.157 197.398 179.321 204.359C182.555 211.32 184.208 219.301 184.278 228.301C184.208 241.52 180.833 252.98 174.153 262.684C167.543 272.316 157.981 279.805 145.465 285.148C133.02 290.422 118.008 293.059 100.43 293.059C82.9927 293.059 67.8052 290.387 54.8677 285.043C42.0005 279.699 31.9458 271.789 24.7036 261.312C17.5317 250.766 13.77 237.723 13.4185 222.184H57.6099C58.1021 229.426 60.1763 235.473 63.8325 240.324C67.5591 245.105 72.5161 248.727 78.7036 251.187C84.9614 253.578 92.0278 254.773 99.9028 254.773C107.637 254.773 114.352 253.648 120.047 251.398C125.813 249.148 130.278 246.02 133.442 242.012C136.606 238.004 138.188 233.398 138.188 228.195C138.188 223.344 136.747 219.266 133.864 215.961C131.051 212.656 126.903 209.844 121.418 207.523C116.004 205.203 109.36 203.094 101.485 201.195L77.9653 195.289C59.7544 190.859 45.3755 183.934 34.8286 174.512C24.2817 165.09 19.0435 152.398 19.1138 136.437C19.0435 123.359 22.5239 111.934 29.5552 102.16C36.6567 92.3867 46.395 84.7578 58.77 79.2734C71.145 73.7891 85.2075 71.0469 100.958 71.0469C116.989 71.0469 130.981 73.7891 142.934 79.2734C154.958 84.7578 164.309 92.3867 170.989 102.16C177.668 111.934 181.114 123.254 181.325 136.121H137.555ZM214.996 290V74H360.542V111.652H260.664V163.121H353.054V200.773H260.664V252.348H360.964V290H214.996ZM396.85 290V74H482.069C498.381 74 512.303 76.918 523.834 82.7539C535.436 88.5195 544.26 96.7109 550.307 107.328C556.424 117.875 559.483 130.285 559.483 144.559C559.483 158.902 556.389 171.242 550.202 181.578C544.014 191.844 535.049 199.719 523.307 205.203C511.635 210.687 497.502 213.43 480.909 213.43H423.85V176.727H473.526C482.245 176.727 489.487 175.531 495.252 173.141C501.018 170.75 505.307 167.164 508.12 162.383C511.002 157.602 512.444 151.66 512.444 144.559C512.444 137.387 511.002 131.34 508.12 126.418C505.307 121.496 500.983 117.77 495.147 115.238C489.381 112.637 482.104 111.336 473.315 111.336H442.518V290H396.85ZM513.499 191.703L567.182 290H516.768L464.245 191.703H513.499ZM624.979 74L677.186 238.109H679.19L731.502 74H782.127L707.667 290H648.815L574.249 74H624.979ZM853.793 74V290H808.125V74H853.793ZM1081.95 149.621H1035.75C1034.91 143.645 1033.19 138.336 1030.59 133.695C1027.98 128.984 1024.64 124.977 1020.57 121.672C1016.49 118.367 1011.78 115.836 1006.43 114.078C1001.16 112.32 995.429 111.441 989.242 111.441C978.062 111.441 968.324 114.219 960.027 119.773C951.73 125.258 945.296 133.273 940.726 143.82C936.156 154.297 933.871 167.023 933.871 182C933.871 197.398 936.156 210.336 940.726 220.812C945.367 231.289 951.835 239.199 960.132 244.543C968.429 249.887 978.027 252.559 988.925 252.559C995.042 252.559 1000.7 251.75 1005.91 250.133C1011.18 248.516 1015.85 246.16 1019.93 243.066C1024.01 239.902 1027.39 236.07 1030.06 231.57C1032.8 227.07 1034.7 221.937 1035.75 216.172L1081.95 216.383C1080.75 226.297 1077.77 235.859 1072.98 245.07C1068.27 254.211 1061.91 262.402 1053.89 269.645C1045.95 276.816 1036.46 282.512 1025.42 286.73C1014.45 290.879 1002.04 292.953 988.187 292.953C968.921 292.953 951.695 288.594 936.507 279.875C921.39 271.156 909.437 258.535 900.648 242.012C891.929 225.488 887.57 205.484 887.57 182C887.57 158.445 892 138.406 900.859 121.883C909.718 105.359 921.742 92.7734 936.929 84.125C952.117 75.4062 969.203 71.0469 988.187 71.0469C1000.7 71.0469 1012.3 72.8047 1022.99 76.3203C1033.75 79.8359 1043.28 84.9687 1051.57 91.7187C1059.87 98.3984 1066.62 106.59 1071.82 116.293C1077.1 125.996 1080.47 137.105 1081.95 149.621ZM1114.7 290V74H1260.24V111.652H1160.36V163.121H1252.76V200.773H1160.36V252.348H1260.67V290H1114.7ZM1413.73 136.121C1412.88 127.613 1409.26 121.004 1402.86 116.293C1396.47 111.582 1387.78 109.227 1376.81 109.227C1369.36 109.227 1363.07 110.281 1357.93 112.391C1352.8 114.43 1348.86 117.277 1346.12 120.934C1343.45 124.59 1342.11 128.738 1342.11 133.379C1341.97 137.246 1342.78 140.621 1344.54 143.504C1346.37 146.387 1348.86 148.883 1352.03 150.992C1355.19 153.031 1358.85 154.824 1363 156.371C1367.15 157.848 1371.57 159.113 1376.29 160.168L1395.69 164.809C1405.11 166.918 1413.76 169.73 1421.64 173.246C1429.51 176.762 1436.33 181.086 1442.1 186.219C1447.86 191.352 1452.33 197.398 1455.49 204.359C1458.73 211.32 1460.38 219.301 1460.45 228.301C1460.38 241.52 1457 252.98 1450.32 262.684C1443.72 272.316 1434.15 279.805 1421.64 285.148C1409.19 290.422 1394.18 293.059 1376.6 293.059C1359.16 293.059 1343.98 290.387 1331.04 285.043C1318.17 279.699 1308.12 271.789 1300.88 261.312C1293.7 250.766 1289.94 237.723 1289.59 222.184H1333.78C1334.27 229.426 1336.35 235.473 1340 240.324C1343.73 245.105 1348.69 248.727 1354.88 251.187C1361.13 253.578 1368.2 254.773 1376.07 254.773C1383.81 254.773 1390.52 253.648 1396.22 251.398C1401.98 249.148 1406.45 246.02 1409.61 242.012C1412.78 238.004 1414.36 233.398 1414.36 228.195C1414.36 223.344 1412.92 219.266 1410.04 215.961C1407.22 212.656 1403.07 209.844 1397.59 207.523C1392.18 205.203 1385.53 203.094 1377.66 201.195L1354.14 195.289C1335.93 190.859 1321.55 183.934 1311 174.512C1300.45 165.09 1295.22 152.398 1295.29 136.437C1295.22 123.359 1298.7 111.934 1305.73 102.16C1312.83 92.3867 1322.57 84.7578 1334.94 79.2734C1347.32 73.7891 1361.38 71.0469 1377.13 71.0469C1393.16 71.0469 1407.15 73.7891 1419.11 79.2734C1431.13 84.7578 1440.48 92.3867 1447.16 102.16C1453.84 111.934 1457.29 123.254 1457.5 136.121H1413.73Z"/>
</mask>
<path d="M137.555 136.121L132.58 136.615L133.027 141.121H137.555V136.121ZM81.7622 112.391L83.6082 117.037L83.6355 117.027L83.6628 117.015L81.7622 112.391ZM69.9497 120.934L65.9497 117.934L65.9311 117.958L65.9128 117.984L69.9497 120.934ZM65.9419 133.379L70.9386 133.561L70.9419 133.47V133.379H65.9419ZM68.3677 143.504L64.0987 146.107L64.1216 146.144L64.1451 146.182L68.3677 143.504ZM75.856 150.992L73.0825 155.152L73.1148 155.174L73.1475 155.195L75.856 150.992ZM86.8247 156.371L85.0778 161.056L85.1128 161.069L85.1481 161.082L86.8247 156.371ZM100.114 160.168L101.277 155.305L101.241 155.297L101.206 155.289L100.114 160.168ZM119.52 164.809L118.357 169.671L118.392 169.68L118.428 169.688L119.52 164.809ZM145.465 173.246L143.427 177.812L143.427 177.812L145.465 173.246ZM165.926 186.219L169.251 182.484L169.251 182.484L165.926 186.219ZM179.321 204.359L174.769 206.428L174.778 206.447L174.786 206.466L179.321 204.359ZM184.278 228.301L189.278 228.327L189.278 228.295L189.278 228.262L184.278 228.301ZM174.153 262.684L170.034 259.848L170.03 259.855L174.153 262.684ZM145.465 285.148L147.416 289.752L147.429 289.747L145.465 285.148ZM54.8677 285.043L52.95 289.661L52.9589 289.664L54.8677 285.043ZM24.7036 261.312L20.569 264.124L20.5798 264.14L20.5907 264.156L24.7036 261.312ZM13.4185 222.184V217.184H8.30406L8.41974 222.297L13.4185 222.184ZM57.6099 222.184L62.5984 221.845L62.2816 217.184H57.6099V222.184ZM63.8325 240.324L59.8395 243.333L59.8639 243.366L59.8889 243.398L63.8325 240.324ZM78.7036 251.187L76.8558 255.834L76.8874 255.846L76.9193 255.858L78.7036 251.187ZM120.047 251.398L118.23 246.741L118.22 246.744L118.21 246.748L120.047 251.398ZM133.442 242.012L137.366 245.11L137.366 245.11L133.442 242.012ZM133.864 215.961L130.056 219.202L130.076 219.225L130.096 219.248L133.864 215.961ZM121.418 207.523L119.449 212.119L119.46 212.124L119.47 212.128L121.418 207.523ZM101.485 201.195L100.267 206.045L100.29 206.051L100.313 206.056L101.485 201.195ZM77.9653 195.289L79.1831 190.44L79.1651 190.435L79.1471 190.431L77.9653 195.289ZM34.8286 174.512L31.4975 178.241L31.4975 178.241L34.8286 174.512ZM19.1138 136.437L24.1137 136.46L24.1138 136.435L24.1137 136.411L19.1138 136.437ZM29.5552 102.16L25.5102 99.221L25.5033 99.2306L25.4964 99.2402L29.5552 102.16ZM142.934 79.2734L140.849 83.8179L140.859 83.8225L142.934 79.2734ZM170.989 102.16L166.861 104.981L166.861 104.981L170.989 102.16ZM181.325 136.121V141.121H186.407L186.324 136.039L181.325 136.121ZM142.531 135.628C141.559 125.831 137.289 117.886 129.656 112.267L123.727 120.319C128.891 124.121 131.864 129.396 132.58 136.615L142.531 135.628ZM129.656 112.267C122.126 106.723 112.279 104.227 100.641 104.227V114.227C110.94 114.227 118.461 116.442 123.727 120.319L129.656 112.267ZM100.641 104.227C92.7468 104.227 85.7658 105.34 79.8616 107.766L83.6628 117.015C88.0242 115.223 93.6292 114.227 100.641 114.227V104.227ZM79.9162 107.744C74.1066 110.052 69.3498 113.4 65.9497 117.934L73.9497 123.934C76.034 121.155 79.1522 118.808 83.6082 117.037L79.9162 107.744ZM65.9128 117.984C62.5987 122.519 60.9419 127.706 60.9419 133.379H70.9419C70.9419 129.771 71.957 126.661 73.9867 123.884L65.9128 117.984ZM60.9452 133.197C60.7743 137.897 61.759 142.27 64.0987 146.107L72.6367 140.901C71.4607 138.972 70.8282 136.595 70.9386 133.561L60.9452 133.197ZM64.1451 146.182C66.388 149.718 69.4036 152.7 73.0825 155.152L78.6295 146.832C75.9801 145.066 74.0036 143.055 72.5902 140.826L64.1451 146.182ZM73.1475 155.195C76.6612 157.459 80.6497 159.405 85.0778 161.056L88.5716 151.686C84.7028 150.244 81.3789 148.603 78.5645 146.789L73.1475 155.195ZM85.1481 161.082C89.5049 162.632 94.1311 163.952 99.0214 165.047L101.206 155.289C96.6745 154.274 92.4414 153.063 88.5013 151.661L85.1481 161.082ZM98.9509 165.031L118.357 169.671L120.683 159.946L101.277 155.305L98.9509 165.031ZM118.428 169.688C127.563 171.733 135.89 174.447 143.427 177.812L147.504 168.68C139.291 165.014 130.321 162.103 120.612 159.929L118.428 169.688ZM143.427 177.812C150.887 181.142 157.262 185.199 162.602 189.953L169.251 182.484C163.06 176.973 155.793 172.381 147.504 168.68L143.427 177.812ZM162.602 189.953C167.852 194.627 171.896 200.108 174.769 206.428L183.873 202.29C180.417 194.689 175.532 188.076 169.251 182.484L162.602 189.953ZM174.786 206.466C177.672 212.677 179.212 219.932 179.278 228.34L189.278 228.262C189.203 218.669 187.438 209.964 183.855 202.252L174.786 206.466ZM179.278 228.274C179.212 240.617 176.077 251.071 170.034 259.848L178.271 265.519C185.588 254.89 189.203 242.422 189.278 228.327L179.278 228.274ZM170.03 259.855C164.041 268.583 155.291 275.516 143.502 280.55L147.429 289.747C160.671 284.093 171.045 276.05 178.276 265.512L170.03 259.855ZM143.515 280.545C131.842 285.491 117.53 288.059 100.43 288.059V298.059C118.486 298.059 134.198 295.353 147.416 289.752L143.515 280.545ZM100.43 288.059C83.492 288.059 68.9798 285.462 56.7765 280.422L52.9589 289.664C66.6306 295.311 82.4933 298.059 100.43 298.059V288.059ZM56.7854 280.425C44.7186 275.414 35.4616 268.082 28.8166 258.469L20.5907 264.156C28.43 275.496 39.2824 283.984 52.95 289.661L56.7854 280.425ZM28.8382 258.501C22.3167 248.91 18.7517 236.858 18.4172 222.07L8.41974 222.297C8.78831 238.588 12.7467 252.621 20.569 264.124L28.8382 258.501ZM13.4185 227.184H57.6099V217.184H13.4185V227.184ZM52.6214 222.523C53.1663 230.541 55.4939 237.567 59.8395 243.333L67.8256 237.315C64.8587 233.378 63.0378 228.31 62.5984 221.845L52.6214 222.523ZM59.8889 243.398C64.2147 248.948 69.926 253.077 76.8558 255.834L80.5515 246.541C75.1062 244.376 70.9035 241.263 67.7762 237.25L59.8889 243.398ZM76.9193 255.858C83.8373 258.501 91.523 259.773 99.9028 259.773V249.773C92.5327 249.773 86.0856 248.655 80.488 246.517L76.9193 255.858ZM99.9028 259.773C108.107 259.773 115.473 258.582 121.885 256.049L118.21 246.748C113.231 248.715 107.167 249.773 99.9028 249.773V259.773ZM121.865 256.056C128.284 253.552 133.545 249.95 137.366 245.11L129.517 238.913C127.011 242.089 123.342 244.745 118.23 246.741L121.865 256.056ZM137.366 245.11C141.241 240.202 143.188 234.5 143.188 228.195H133.188C133.188 232.297 131.971 235.806 129.517 238.913L137.366 245.11ZM143.188 228.195C143.188 222.273 141.395 216.988 137.632 212.674L130.096 219.248C132.098 221.543 133.188 224.414 133.188 228.195H143.188ZM137.671 212.72C134.202 208.643 129.316 205.436 123.367 202.919L119.47 212.128C124.49 214.252 127.901 216.669 130.056 219.202L137.671 212.72ZM123.388 202.928C117.64 200.464 110.711 198.276 102.657 196.335L100.313 206.056C108.009 207.911 114.368 209.942 119.449 212.119L123.388 202.928ZM102.703 196.346L79.1831 190.44L76.7475 200.138L100.267 206.045L102.703 196.346ZM79.1471 190.431C61.4846 186.134 47.927 179.508 38.1597 170.783L31.4975 178.241C42.8239 188.359 58.0242 195.584 76.7836 200.147L79.1471 190.431ZM38.1597 170.783C28.8242 162.443 24.0488 151.194 24.1137 136.46L14.1138 136.415C14.0381 153.603 19.7393 167.736 31.4975 178.241L38.1597 170.783ZM24.1137 136.411C24.0486 124.293 27.254 113.921 33.614 105.08L25.4964 99.2402C17.7939 109.947 14.0384 122.425 14.1138 136.464L24.1137 136.411ZM33.6001 105.099C40.1239 96.121 49.1268 89.0162 60.7959 83.8446L56.7441 74.7022C43.6632 80.4995 33.1896 88.6524 25.5102 99.221L33.6001 105.099ZM60.7959 83.8446C72.437 78.6855 85.7922 76.0469 100.958 76.0469V66.0469C84.6229 66.0469 69.853 68.8926 56.7441 74.7022L60.7959 83.8446ZM100.958 76.0469C116.423 76.0469 129.677 78.692 140.849 83.8179L145.019 74.729C132.285 68.8861 117.554 66.0469 100.958 66.0469V76.0469ZM140.859 83.8225C152.153 88.974 160.753 96.0453 166.861 104.981L175.117 99.3389C167.865 88.7281 157.762 80.5417 145.009 74.7243L140.859 83.8225ZM166.861 104.981C172.94 113.876 176.129 124.226 176.325 136.203L186.324 136.039C186.099 122.282 182.397 109.991 175.117 99.3389L166.861 104.981ZM181.325 131.121H137.555V141.121H181.325V131.121ZM214.996 290H209.996V295H214.996V290ZM214.996 74V69H209.996V74H214.996ZM360.542 74H365.542V69H360.542V74ZM360.542 111.652V116.652H365.542V111.652H360.542ZM260.664 111.652V106.652H255.664V111.652H260.664ZM260.664 163.121H255.664V168.121H260.664V163.121ZM353.054 163.121H358.054V158.121H353.054V163.121ZM353.054 200.773V205.773H358.054V200.773H353.054ZM260.664 200.773V195.773H255.664V200.773H260.664ZM260.664 252.348H255.664V257.348H260.664V252.348ZM360.964 252.348H365.964V247.348H360.964V252.348ZM360.964 290V295H365.964V290H360.964ZM219.996 290V74H209.996V290H219.996ZM214.996 79H360.542V69H214.996V79ZM355.542 74V111.652H365.542V74H355.542ZM360.542 106.652H260.664V116.652H360.542V106.652ZM255.664 111.652V163.121H265.664V111.652H255.664ZM260.664 168.121H353.054V158.121H260.664V168.121ZM348.054 163.121V200.773H358.054V163.121H348.054ZM353.054 195.773H260.664V205.773H353.054V195.773ZM255.664 200.773V252.348H265.664V200.773H255.664ZM260.664 257.348H360.964V247.348H260.664V257.348ZM355.964 252.348V290H365.964V252.348H355.964ZM360.964 285H214.996V295H360.964V285ZM396.85 290H391.85V295H396.85V290ZM396.85 74V69H391.85V74H396.85ZM523.834 82.7539L521.577 87.2151L521.593 87.2233L521.609 87.2315L523.834 82.7539ZM550.307 107.328L545.962 109.803L545.972 109.82L545.982 109.837L550.307 107.328ZM550.202 181.578L554.484 184.159L554.488 184.153L554.492 184.146L550.202 181.578ZM523.307 205.203L521.191 200.673L521.181 200.678L523.307 205.203ZM423.85 213.43H418.85V218.43H423.85V213.43ZM423.85 176.727V171.727H418.85V176.727H423.85ZM495.252 173.141L497.168 177.759L497.168 177.759L495.252 173.141ZM508.12 162.383L503.838 159.801L503.824 159.824L503.81 159.848L508.12 162.383ZM508.12 126.418L503.778 128.899L503.792 128.922L503.805 128.945L508.12 126.418ZM495.147 115.238L493.091 119.796L493.124 119.811L493.157 119.825L495.147 115.238ZM442.518 111.336V106.336H437.518V111.336H442.518ZM442.518 290V295H447.518V290H442.518ZM513.499 191.703L517.887 189.307L516.465 186.703H513.499V191.703ZM567.182 290V295H575.61L571.57 287.603L567.182 290ZM516.768 290L512.358 292.356L513.771 295H516.768V290ZM464.245 191.703V186.703H455.904L459.835 194.06L464.245 191.703ZM401.85 290V74H391.85V290H401.85ZM396.85 79H482.069V69H396.85V79ZM482.069 79C497.797 79 510.905 81.814 521.577 87.2151L526.092 78.2927C513.702 72.0219 498.965 69 482.069 69V79ZM521.609 87.2315C532.377 92.5829 540.438 100.102 545.962 109.803L554.652 104.854C548.083 93.3197 538.495 84.4561 526.06 78.2764L521.609 87.2315ZM545.982 109.837C551.587 119.5 554.483 131.014 554.483 144.559H564.483C564.483 129.556 561.262 116.25 554.632 104.82L545.982 109.837ZM554.483 144.559C554.483 158.171 551.553 169.587 545.912 179.01L554.492 184.146C561.226 172.898 564.483 159.633 564.483 144.559H554.483ZM545.919 178.997C540.286 188.343 532.11 195.573 521.191 200.673L525.423 209.733C537.988 203.865 547.742 195.345 554.484 184.159L545.919 178.997ZM521.181 200.678C510.336 205.773 496.97 208.43 480.909 208.43V218.43C498.034 218.43 512.934 215.602 525.433 209.728L521.181 200.678ZM480.909 208.43H423.85V218.43H480.909V208.43ZM428.85 213.43V176.727H418.85V213.43H428.85ZM423.85 181.727H473.526V171.727H423.85V181.727ZM473.526 181.727C482.659 181.727 490.605 180.48 497.168 177.759L493.337 168.522C488.369 170.582 481.83 171.727 473.526 171.727V181.727ZM497.168 177.759C503.805 175.007 508.998 170.751 512.429 164.918L503.81 159.848C501.616 163.577 498.231 166.493 493.337 168.522L497.168 177.759ZM512.402 164.965C515.866 159.219 517.444 152.326 517.444 144.559H507.444C507.444 150.994 506.139 155.984 503.838 159.801L512.402 164.965ZM517.444 144.559C517.444 136.724 515.868 129.753 512.434 123.891L503.805 128.945C506.137 132.927 507.444 138.049 507.444 144.559H517.444ZM512.461 123.937C509.048 117.964 503.836 113.557 497.137 110.651L493.157 119.825C498.13 121.982 501.567 125.028 503.778 128.899L512.461 123.937ZM497.203 110.681C490.591 107.697 482.555 106.336 473.315 106.336V116.336C481.653 116.336 488.171 117.576 493.091 119.796L497.203 110.681ZM473.315 106.336H442.518V116.336H473.315V106.336ZM437.518 111.336V290H447.518V111.336H437.518ZM442.518 285H396.85V295H442.518V285ZM509.11 194.1L562.794 292.397L571.57 287.603L517.887 189.307L509.11 194.1ZM567.182 285H516.768V295H567.182V285ZM521.178 287.644L468.655 189.347L459.835 194.06L512.358 292.356L521.178 287.644ZM464.245 196.703H513.499V186.703H464.245V196.703ZM624.979 74L629.744 72.4842L628.635 69H624.979V74ZM677.186 238.109L672.421 239.625L673.53 243.109H677.186V238.109ZM679.19 238.109V243.109H682.844L683.954 239.628L679.19 238.109ZM731.502 74V69H727.848L726.739 72.4814L731.502 74ZM782.127 74L786.854 75.6295L789.14 69H782.127V74ZM707.667 290V295H711.232L712.394 291.63L707.667 290ZM648.815 290L644.089 291.632L645.251 295H648.815V290ZM574.249 74V69H567.233L569.522 75.6316L574.249 74ZM620.214 75.5158L672.421 239.625L681.951 236.594L629.744 72.4842L620.214 75.5158ZM677.186 243.109H679.19V233.109H677.186V243.109ZM683.954 239.628L736.266 75.5185L726.739 72.4814L674.426 236.591L683.954 239.628ZM731.502 79H782.127V69H731.502V79ZM777.4 72.3705L702.939 288.37L712.394 291.63L786.854 75.6295L777.4 72.3705ZM707.667 285H648.815V295H707.667V285ZM653.541 288.368L578.975 72.3684L569.522 75.6316L644.089 291.632L653.541 288.368ZM574.249 79H624.979V69H574.249V79ZM853.793 74H858.793V69H853.793V74ZM853.793 290V295H858.793V290H853.793ZM808.125 290H803.125V295H808.125V290ZM808.125 74V69H803.125V74H808.125ZM848.793 74V290H858.793V74H848.793ZM853.793 285H808.125V295H853.793V285ZM813.125 290V74H803.125V290H813.125ZM808.125 79H853.793V69H808.125V79ZM1081.95 149.621V154.621H1087.57L1086.91 149.035L1081.95 149.621ZM1035.75 149.621L1030.8 150.32L1031.41 154.621H1035.75V149.621ZM1030.59 133.695L1026.21 136.112L1026.22 136.126L1026.22 136.14L1030.59 133.695ZM1020.57 121.672L1017.42 125.557L1017.42 125.557L1020.57 121.672ZM1006.43 114.078L1004.85 118.822L1004.86 118.825L1004.87 118.828L1006.43 114.078ZM960.027 119.773L962.784 123.945L962.796 123.936L962.808 123.928L960.027 119.773ZM940.726 143.82L945.309 145.82L945.314 145.808L940.726 143.82ZM940.726 220.812L936.143 222.812L936.149 222.825L936.154 222.837L940.726 220.812ZM960.132 244.543L957.425 248.747L957.425 248.747L960.132 244.543ZM1005.91 250.133L1004.44 245.353L1004.43 245.355L1004.42 245.358L1005.91 250.133ZM1019.93 243.066L1022.96 247.05L1022.98 247.033L1023 247.017L1019.93 243.066ZM1030.06 231.57L1025.79 228.968L1025.77 228.993L1025.76 229.018L1030.06 231.57ZM1035.75 216.172L1035.78 211.172L1031.59 211.153L1030.84 215.272L1035.75 216.172ZM1081.95 216.383L1086.91 216.981L1087.58 211.408L1081.97 211.383L1081.95 216.383ZM1072.98 245.07L1068.55 242.767L1068.54 242.773L1068.54 242.78L1072.98 245.07ZM1053.89 269.645L1057.24 273.356L1057.25 273.355L1053.89 269.645ZM1025.42 286.73L1027.19 291.407L1027.19 291.404L1027.2 291.401L1025.42 286.73ZM936.507 279.875L934.009 284.206L934.018 284.211L936.507 279.875ZM900.648 242.012L896.226 244.345L896.23 244.352L896.234 244.36L900.648 242.012ZM900.859 121.883L905.265 124.245L905.265 124.245L900.859 121.883ZM936.929 84.125L939.403 88.4699L939.411 88.4656L939.419 88.4613L936.929 84.125ZM1022.99 76.3203L1021.43 81.0699L1021.44 81.073L1022.99 76.3203ZM1051.57 91.7187L1048.42 95.5973L1048.43 95.6054L1048.44 95.6134L1051.57 91.7187ZM1071.82 116.293L1067.42 118.656L1067.42 118.668L1067.43 118.681L1071.82 116.293ZM1081.95 144.621H1035.75V154.621H1081.95V144.621ZM1040.7 148.922C1039.79 142.414 1037.89 136.499 1034.95 131.25L1026.22 136.14C1028.48 140.173 1030.03 144.875 1030.8 150.32L1040.7 148.922ZM1034.96 131.278C1032.06 126.018 1028.31 121.508 1023.71 117.787L1017.42 125.557C1020.98 128.445 1023.91 131.951 1026.21 136.112L1034.96 131.278ZM1023.71 117.787C1019.13 114.074 1013.87 111.262 1008 109.328L1004.87 118.828C1009.68 120.41 1013.84 122.661 1017.42 125.557L1023.71 117.787ZM1008.01 109.335C1002.18 107.389 995.906 106.441 989.242 106.441V116.441C994.952 116.441 1000.14 117.252 1004.85 118.822L1008.01 109.335ZM989.242 106.441C977.194 106.441 966.462 109.448 957.245 115.619L962.808 123.928C970.186 118.989 978.93 116.441 989.242 116.441V106.441ZM957.27 115.602C948.044 121.701 941.033 130.538 936.138 141.832L945.314 145.808C949.56 136.009 955.416 128.815 962.784 123.945L957.27 115.602ZM936.143 141.821C931.227 153.091 928.871 166.539 928.871 182H938.871C938.871 167.508 941.085 155.502 945.309 145.82L936.143 141.821ZM928.871 182C928.871 197.861 931.22 211.526 936.143 222.812L945.309 218.813C941.092 209.146 938.871 196.936 938.871 182H928.871ZM936.154 222.837C941.125 234.059 948.182 242.793 957.425 248.747L962.84 240.339C955.489 235.605 949.608 228.519 945.298 218.788L936.154 222.837ZM957.425 248.747C966.612 254.664 977.17 257.559 988.925 257.559V247.559C978.883 247.559 970.246 245.11 962.84 240.339L957.425 248.747ZM988.925 257.559C995.485 257.559 1001.65 256.691 1007.39 254.908L1004.42 245.358C999.754 246.809 994.6 247.559 988.925 247.559V257.559ZM1007.37 254.913C1013.16 253.137 1018.37 250.525 1022.96 247.05L1016.91 239.083C1013.34 241.795 1009.2 243.894 1004.44 245.353L1007.37 254.913ZM1023 247.017C1027.58 243.463 1031.37 239.155 1034.36 234.123L1025.76 229.018C1023.4 232.986 1020.44 236.342 1016.87 239.116L1023 247.017ZM1034.33 234.172C1037.42 229.094 1039.52 223.372 1040.67 217.072L1030.84 215.272C1029.88 220.503 1028.18 225.047 1025.79 228.968L1034.33 234.172ZM1035.73 221.172L1081.93 221.383L1081.97 211.383L1035.78 211.172L1035.73 221.172ZM1076.98 215.784C1075.86 225.08 1073.06 234.067 1068.55 242.767L1077.42 247.374C1082.47 237.652 1085.64 227.514 1086.91 216.981L1076.98 215.784ZM1068.54 242.78C1064.12 251.359 1058.13 259.075 1050.54 265.935L1057.25 273.355C1065.69 265.729 1072.43 257.063 1077.43 247.361L1068.54 242.78ZM1050.54 265.933C1043.1 272.65 1034.16 278.039 1023.63 282.06L1027.2 291.401C1038.76 286.985 1048.8 280.982 1057.24 273.356L1050.54 265.933ZM1023.65 282.054C1013.34 285.954 1001.54 287.953 988.187 287.953V297.953C1002.54 297.953 1015.56 295.804 1027.19 291.407L1023.65 282.054ZM988.187 287.953C969.705 287.953 953.352 283.78 938.997 275.539L934.018 284.211C950.037 293.408 968.138 297.953 988.187 297.953V287.953ZM939.005 275.544C924.759 267.327 913.444 255.422 905.062 239.664L896.234 244.36C905.43 261.648 918.021 274.985 934.009 284.206L939.005 275.544ZM905.07 239.678C896.816 224.036 892.57 204.876 892.57 182H882.57C882.57 206.093 887.042 226.941 896.226 244.345L905.07 239.678ZM892.57 182C892.57 159.063 896.883 139.879 905.265 124.245L896.452 119.52C887.116 136.933 882.57 157.828 882.57 182H892.57ZM905.265 124.245C913.714 108.489 925.094 96.6185 939.403 88.4699L934.455 79.7801C918.39 88.9283 905.723 102.23 896.452 119.52L905.265 124.245ZM939.419 88.4613C953.785 80.2136 970 76.0469 988.187 76.0469V66.0469C968.405 66.0469 950.448 70.5989 934.44 79.7887L939.419 88.4613ZM988.187 76.0469C1000.23 76.0469 1011.3 77.7377 1021.43 81.0699L1024.55 71.5707C1013.31 67.8717 1001.17 66.0469 988.187 66.0469V76.0469ZM1021.44 81.073C1031.65 84.4092 1040.62 89.2566 1048.42 95.5973L1054.73 87.8402C1045.93 80.6809 1035.85 75.2627 1024.54 71.5677L1021.44 81.073ZM1048.44 95.6134C1056.2 101.859 1062.52 109.523 1067.42 118.656L1076.23 113.93C1070.72 103.657 1063.55 94.9382 1054.71 87.8241L1048.44 95.6134ZM1067.43 118.681C1072.36 127.752 1075.57 138.234 1076.98 150.207L1086.91 149.035C1085.37 135.977 1081.83 124.24 1076.22 113.905L1067.43 118.681ZM1114.7 290H1109.7V295H1114.7V290ZM1114.7 74V69H1109.7V74H1114.7ZM1260.24 74H1265.24V69H1260.24V74ZM1260.24 111.652V116.652H1265.24V111.652H1260.24ZM1160.36 111.652V106.652H1155.36V111.652H1160.36ZM1160.36 163.121H1155.36V168.121H1160.36V163.121ZM1252.76 163.121H1257.76V158.121H1252.76V163.121ZM1252.76 200.773V205.773H1257.76V200.773H1252.76ZM1160.36 200.773V195.773H1155.36V200.773H1160.36ZM1160.36 252.348H1155.36V257.348H1160.36V252.348ZM1260.67 252.348H1265.67V247.348H1260.67V252.348ZM1260.67 290V295H1265.67V290H1260.67ZM1119.7 290V74H1109.7V290H1119.7ZM1114.7 79H1260.24V69H1114.7V79ZM1255.24 74V111.652H1265.24V74H1255.24ZM1260.24 106.652H1160.36V116.652H1260.24V106.652ZM1155.36 111.652V163.121H1165.36V111.652H1155.36ZM1160.36 168.121H1252.76V158.121H1160.36V168.121ZM1247.76 163.121V200.773H1257.76V163.121H1247.76ZM1252.76 195.773H1160.36V205.773H1252.76V195.773ZM1155.36 200.773V252.348H1165.36V200.773H1155.36ZM1160.36 257.348H1260.67V247.348H1160.36V257.348ZM1255.67 252.348V290H1265.67V252.348H1255.67ZM1260.67 285H1114.7V295H1260.67V285ZM1413.73 136.121L1408.75 136.615L1409.2 141.121H1413.73V136.121ZM1357.93 112.391L1359.78 117.037L1359.81 117.027L1359.83 117.015L1357.93 112.391ZM1346.12 120.934L1342.12 117.934L1342.1 117.958L1342.08 117.984L1346.12 120.934ZM1342.11 133.379L1347.11 133.561L1347.11 133.47V133.379H1342.11ZM1344.54 143.504L1340.27 146.107L1340.29 146.144L1340.32 146.182L1344.54 143.504ZM1352.03 150.992L1349.25 155.152L1349.29 155.174L1349.32 155.195L1352.03 150.992ZM1363 156.371L1361.25 161.056L1361.28 161.069L1361.32 161.082L1363 156.371ZM1376.29 160.168L1377.45 155.305L1377.41 155.297L1377.38 155.289L1376.29 160.168ZM1395.69 164.809L1394.53 169.671L1394.56 169.68L1394.6 169.688L1395.69 164.809ZM1421.64 173.246L1419.6 177.812L1419.6 177.812L1421.64 173.246ZM1442.1 186.219L1445.42 182.484L1445.42 182.484L1442.1 186.219ZM1455.49 204.359L1450.94 206.428L1450.95 206.447L1450.96 206.466L1455.49 204.359ZM1460.45 228.301L1465.45 228.327L1465.45 228.295L1465.45 228.262L1460.45 228.301ZM1450.32 262.684L1446.21 259.848L1446.2 259.855L1450.32 262.684ZM1421.64 285.148L1423.59 289.752L1423.6 289.747L1421.64 285.148ZM1331.04 285.043L1329.12 289.661L1329.13 289.664L1331.04 285.043ZM1300.88 261.312L1296.74 264.124L1296.75 264.14L1296.76 264.156L1300.88 261.312ZM1289.59 222.184V217.184H1284.48L1284.59 222.297L1289.59 222.184ZM1333.78 222.184L1338.77 221.845L1338.45 217.184H1333.78V222.184ZM1340 240.324L1336.01 243.333L1336.04 243.366L1336.06 243.398L1340 240.324ZM1354.88 251.187L1353.03 255.834L1353.06 255.846L1353.09 255.858L1354.88 251.187ZM1396.22 251.398L1394.4 246.741L1394.39 246.744L1394.38 246.748L1396.22 251.398ZM1409.61 242.012L1413.54 245.11L1413.54 245.11L1409.61 242.012ZM1410.04 215.961L1406.23 219.202L1406.25 219.225L1406.27 219.248L1410.04 215.961ZM1397.59 207.523L1395.62 212.119L1395.63 212.124L1395.64 212.128L1397.59 207.523ZM1377.66 201.195L1376.44 206.045L1376.46 206.051L1376.48 206.056L1377.66 201.195ZM1354.14 195.289L1355.36 190.44L1355.34 190.435L1355.32 190.431L1354.14 195.289ZM1311 174.512L1307.67 178.241L1307.67 178.241L1311 174.512ZM1295.29 136.437L1300.29 136.46L1300.29 136.435L1300.29 136.411L1295.29 136.437ZM1305.73 102.16L1301.68 99.221L1301.68 99.2306L1301.67 99.2402L1305.73 102.16ZM1419.11 79.2734L1417.02 83.8179L1417.03 83.8225L1419.11 79.2734ZM1447.16 102.16L1443.03 104.981L1443.03 104.981L1447.16 102.16ZM1457.5 136.121V141.121H1462.58L1462.5 136.039L1457.5 136.121ZM1418.7 135.628C1417.73 125.831 1413.46 117.886 1405.83 112.267L1399.9 120.319C1405.06 124.121 1408.04 129.396 1408.75 136.615L1418.7 135.628ZM1405.83 112.267C1398.3 106.723 1388.45 104.227 1376.81 104.227V114.227C1387.11 114.227 1394.63 116.442 1399.9 120.319L1405.83 112.267ZM1376.81 104.227C1368.92 104.227 1361.94 105.34 1356.03 107.766L1359.83 117.015C1364.2 115.223 1369.8 114.227 1376.81 114.227V104.227ZM1356.09 107.744C1350.28 110.052 1345.52 113.4 1342.12 117.934L1350.12 123.934C1352.21 121.155 1355.32 118.808 1359.78 117.037L1356.09 107.744ZM1342.08 117.984C1338.77 122.519 1337.11 127.706 1337.11 133.379H1347.11C1347.11 129.771 1348.13 126.661 1350.16 123.884L1342.08 117.984ZM1337.12 133.197C1336.95 137.897 1337.93 142.27 1340.27 146.107L1348.81 140.901C1347.63 138.972 1347 136.595 1347.11 133.561L1337.12 133.197ZM1340.32 146.182C1342.56 149.718 1345.58 152.7 1349.25 155.152L1354.8 146.832C1352.15 145.066 1350.18 143.055 1348.76 140.826L1340.32 146.182ZM1349.32 155.195C1352.83 157.459 1356.82 159.405 1361.25 161.056L1364.74 151.686C1360.87 150.244 1357.55 148.603 1354.74 146.789L1349.32 155.195ZM1361.32 161.082C1365.68 162.632 1370.3 163.952 1375.19 165.047L1377.38 155.289C1372.85 154.274 1368.61 153.063 1364.67 151.661L1361.32 161.082ZM1375.12 165.031L1394.53 169.671L1396.85 159.946L1377.45 155.305L1375.12 165.031ZM1394.6 169.688C1403.73 171.733 1412.06 174.447 1419.6 177.812L1423.68 168.68C1415.46 165.014 1406.49 162.103 1396.78 159.929L1394.6 169.688ZM1419.6 177.812C1427.06 181.142 1433.43 185.199 1438.77 189.953L1445.42 182.484C1439.23 176.973 1431.97 172.381 1423.68 168.68L1419.6 177.812ZM1438.77 189.953C1444.02 194.627 1448.07 200.108 1450.94 206.428L1460.04 202.29C1456.59 194.689 1451.7 188.076 1445.42 182.484L1438.77 189.953ZM1450.96 206.466C1453.84 212.677 1455.38 219.932 1455.45 228.34L1465.45 228.262C1465.37 218.669 1463.61 209.964 1460.03 202.252L1450.96 206.466ZM1455.45 228.274C1455.38 240.617 1452.25 251.071 1446.21 259.848L1454.44 265.519C1461.76 254.89 1465.37 242.422 1465.45 228.327L1455.45 228.274ZM1446.2 259.855C1440.21 268.583 1431.46 275.516 1419.67 280.55L1423.6 289.747C1436.84 284.093 1447.22 276.05 1454.45 265.512L1446.2 259.855ZM1419.69 280.545C1408.01 285.491 1393.7 288.059 1376.6 288.059V298.059C1394.66 298.059 1410.37 295.353 1423.59 289.752L1419.69 280.545ZM1376.6 288.059C1359.66 288.059 1345.15 285.462 1332.95 280.422L1329.13 289.664C1342.8 295.311 1358.67 298.059 1376.6 298.059V288.059ZM1332.96 280.425C1320.89 275.414 1311.63 268.082 1304.99 258.469L1296.76 264.156C1304.6 275.496 1315.45 283.984 1329.12 289.661L1332.96 280.425ZM1305.01 258.501C1298.49 248.91 1294.92 236.858 1294.59 222.07L1284.59 222.297C1284.96 238.588 1288.92 252.621 1296.74 264.124L1305.01 258.501ZM1289.59 227.184H1333.78V217.184H1289.59V227.184ZM1328.79 222.523C1329.34 230.541 1331.67 237.567 1336.01 243.333L1344 237.315C1341.03 233.378 1339.21 228.31 1338.77 221.845L1328.79 222.523ZM1336.06 243.398C1340.39 248.948 1346.1 253.077 1353.03 255.834L1356.72 246.541C1351.28 244.376 1347.08 241.263 1343.95 237.25L1336.06 243.398ZM1353.09 255.858C1360.01 258.501 1367.69 259.773 1376.07 259.773V249.773C1368.7 249.773 1362.26 248.655 1356.66 246.517L1353.09 255.858ZM1376.07 259.773C1384.28 259.773 1391.64 258.582 1398.06 256.049L1394.38 246.748C1389.4 248.715 1383.34 249.773 1376.07 249.773V259.773ZM1398.04 256.056C1404.46 253.552 1409.72 249.95 1413.54 245.11L1405.69 238.913C1403.18 242.089 1399.51 244.745 1394.4 246.741L1398.04 256.056ZM1413.54 245.11C1417.41 240.202 1419.36 234.5 1419.36 228.195H1409.36C1409.36 232.297 1408.14 235.806 1405.69 238.913L1413.54 245.11ZM1419.36 228.195C1419.36 222.273 1417.57 216.988 1413.8 212.674L1406.27 219.248C1408.27 221.543 1409.36 224.414 1409.36 228.195H1419.36ZM1413.84 212.72C1410.37 208.643 1405.49 205.436 1399.54 202.919L1395.64 212.128C1400.66 214.252 1404.07 216.669 1406.23 219.202L1413.84 212.72ZM1399.56 202.928C1393.81 200.464 1386.88 198.276 1378.83 196.335L1376.48 206.056C1384.18 207.911 1390.54 209.942 1395.62 212.119L1399.56 202.928ZM1378.87 196.346L1355.36 190.44L1352.92 200.138L1376.44 206.045L1378.87 196.346ZM1355.32 190.431C1337.66 186.134 1324.1 179.508 1314.33 170.783L1307.67 178.241C1319 188.359 1334.2 195.584 1352.96 200.147L1355.32 190.431ZM1314.33 170.783C1305 162.443 1300.22 151.194 1300.29 136.46L1290.29 136.415C1290.21 153.603 1295.91 167.736 1307.67 178.241L1314.33 170.783ZM1300.29 136.411C1300.22 124.293 1303.43 113.921 1309.79 105.08L1301.67 99.2402C1293.97 109.947 1290.21 122.425 1290.29 136.464L1300.29 136.411ZM1309.77 105.099C1316.3 96.121 1325.3 89.0162 1336.97 83.8446L1332.92 74.7022C1319.84 80.4995 1309.36 88.6524 1301.68 99.221L1309.77 105.099ZM1336.97 83.8446C1348.61 78.6855 1361.96 76.0469 1377.13 76.0469V66.0469C1360.79 66.0469 1346.02 68.8926 1332.92 74.7022L1336.97 83.8446ZM1377.13 76.0469C1392.6 76.0469 1405.85 78.692 1417.02 83.8179L1421.19 74.729C1408.46 68.8861 1393.73 66.0469 1377.13 66.0469V76.0469ZM1417.03 83.8225C1428.32 88.974 1436.93 96.0453 1443.03 104.981L1451.29 99.3389C1444.04 88.7281 1433.93 80.5417 1421.18 74.7243L1417.03 83.8225ZM1443.03 104.981C1449.11 113.876 1452.3 124.226 1452.5 136.203L1462.5 136.039C1462.27 122.282 1458.57 109.991 1451.29 99.3389L1443.03 104.981ZM1457.5 131.121H1413.73V141.121H1457.5V131.121Z" fill="#444444" mask="url(#path-1-outside-1_326_954)"/>
</svg>
